<svg
  version="1.2"
  xmlns="http://www.w3.org/2000/svg"
  viewBox="0 0 800 800"
  penrose="0"
>
  <penrose>
    <croppedViewBox>
      146.65097045898438 297.616455078125 410.83831787109375 412.556640625
    </croppedViewBox>
  </penrose>
  <g stroke-linejoin="round" style="filter: blur(15px)">
    <filter
      id="offset__3:0:bloom-shadow"
      x="0"
      y="0"
      width="200%"
      height="200%"
    >
      <feOffset result="offOut" in="SourceAlpha" dx="5" dy="5" />
      <feGaussianBlur result="blurOut" in="offOut" stdDeviation="4" />
      <feBlend in="SourceGraphic" in2="blurOut" mode="normal" />
      <feComponentTransfer>
        <feFuncA type="linear" slope="0.5" />
      </feComponentTransfer>
      <feMerge>
        <feMergeNode />
        <feMergeNode in="SourceGraphic" />
      </feMerge>
    </filter>
    <path
      fill="none"
      stroke="#8e8e8e"
      stroke-opacity="0.5882353186607361"
      stroke-width="40"
      stroke-linecap="butt"
      d="M 195.85177612304688 544.7070007324219 C 200.26907348632812 581.8672180175781 200.3065185546875 624.7278594970703 224.61138916015625 640.4619598388672 C 248.916259765625 656.196044921875 286.8386001586914 624.1868133544922 323.77213287353516 627.5180206298828 C 360.7056655883789 630.8492279052734 392.14905738830566 669.0656433105469 418.99839782714844 657.99462890625 C 445.84774017333984 646.9236297607422 447.8780937194824 603.1284942626953 465.0844421386719 569.2495727539062 C 482.29078674316406 535.3706512451172 517.7357406616211 505.9039764404297 509.5581283569336 479.6844940185547 C 501.3805160522461 453.46501541137695 448.86468505859375 456.4918327331543 422.04438972473145 431.25231170654297 C 395.2240962982178 406.01279067993164 396.8649654388428 357.6622734069824 368.39869499206543 346.84490966796875 C 339.9324264526367 336.0275459289551 303.9587936401367 355.6918029785156 272.22190856933594 374.3188228607178 C 240.48501586914062 392.9458408355713 215.87278747558594 412.5081024169922 201.36245727539062 444.8818550109863 C 186.8521270751953 477.25560760498047 191.43447875976562 507.5467834472656 195.85177612304688 544.7070007324219 Z "
    />
    <title>3:0:bloom</title>
  </g>
  <g stroke-linejoin="round">
    <filter
      id="offset__3:0:offset3-shadow"
      x="0"
      y="0"
      width="200%"
      height="200%"
    >
      <feOffset result="offOut" in="SourceAlpha" dx="5" dy="5" />
      <feGaussianBlur result="blurOut" in="offOut" stdDeviation="4" />
      <feBlend in="SourceGraphic" in2="blurOut" mode="normal" />
      <feComponentTransfer>
        <feFuncA type="linear" slope="0.5" />
      </feComponentTransfer>
      <feMerge>
        <feMergeNode />
        <feMergeNode in="SourceGraphic" />
      </feMerge>
    </filter>
    <path
      fill="none"
      stroke="#222fa8"
      stroke-opacity="1"
      stroke-width="1.7999999523162842"
      stroke-linecap="butt"
      d="M 180.95664978027344 546.4776153564453 C 186.42587280273438 587.1959533691406 189.58099365234375 634.8175964355469 216.4599151611328 653.0537567138672 C 243.33883666992188 671.2899169921875 282.85594177246094 638.8838195800781 322.4246826171875 642.4573822021484 C 361.99342346191406 646.0309448242188 395.07003021240234 684.4809265136719 424.7164421081543 671.8619995117188 C 454.36285400390625 659.2430725097656 459.61778259277344 613.4042358398438 478.4584426879883 576.0419311523438 C 497.2991027832031 538.6796264648438 532.643310546875 504.80384063720703 523.8778076171875 475.21832275390625 C 515.1122970581055 445.63280487060547 460.8528366088867 447.3837585449219 432.3241882324219 420.3286819458008 C 403.79554176330566 393.2736053466797 405.589075088501 344.02298736572266 373.7270393371582 332.8231887817383 C 341.86500549316406 321.6233901977539 299.97924041748047 341.2569046020508 264.62925720214844 361.382381439209 C 229.27926635742188 381.50785636901855 203.57229614257812 403.5786437988281 187.67449951171875 438.7467384338379 C 171.77670288085938 473.91483306884766 175.4874267578125 505.75927734375 180.95664978027344 546.4776153564453 Z "
    />
    <title>3:0:offset3</title>
  </g>
  <g stroke-linejoin="round">
    <filter
      id="offset__3:0:offset4-shadow"
      x="0"
      y="0"
      width="200%"
      height="200%"
    >
      <feOffset result="offOut" in="SourceAlpha" dx="5" dy="5" />
      <feGaussianBlur result="blurOut" in="offOut" stdDeviation="4" />
      <feBlend in="SourceGraphic" in2="blurOut" mode="normal" />
      <feComponentTransfer>
        <feFuncA type="linear" slope="0.5" />
      </feComponentTransfer>
      <feMerge>
        <feMergeNode />
        <feMergeNode in="SourceGraphic" />
      </feMerge>
    </filter>
    <path
      fill="none"
      stroke="#222fa8"
      stroke-opacity="1"
      stroke-width="1.5"
      stroke-linecap="butt"
      d="M 175.99160766601562 547.0678100585938 C 181.8114776611328 588.9721832275391 186.0058135986328 638.1808624267578 213.7427520751953 657.2510375976562 C 241.4796905517578 676.3212280273438 281.5283889770508 643.7828063964844 321.9755325317383 647.4371643066406 C 362.4226760864258 651.0915222167969 396.0436820983887 689.619384765625 426.6224555969238 676.4844665527344 C 457.201229095459 663.3495483398438 463.53101348876953 616.8294677734375 482.91644287109375 578.3060455322266 C 502.30187225341797 539.7826232910156 537.6125030517578 504.43711853027344 528.6510314941406 473.7295913696289 C 519.6895599365234 443.0220642089844 464.848876953125 444.3477325439453 435.7507858276367 416.6874713897705 C 406.6526908874512 389.0272102355957 408.49711418151855 339.4765510559082 375.50315284729004 328.14927673339844 C 342.50919342041016 316.82200622558594 298.6527099609375 336.44527435302734 262.0983581542969 357.0702362060547 C 225.54400634765625 377.6951961517334 199.47213745117188 400.6021614074707 183.11184692382812 436.70169830322266 C 166.75155639648438 472.8012390136719 170.17173767089844 505.16343688964844 175.99160766601562 547.0678100585938 Z "
    />
    <title>3:0:offset4</title>
  </g>
  <g stroke-linejoin="round">
    <filter
      id="offset__3:0:offset5-shadow"
      x="0"
      y="0"
      width="200%"
      height="200%"
    >
      <feOffset result="offOut" in="SourceAlpha" dx="5" dy="5" />
      <feGaussianBlur result="blurOut" in="offOut" stdDeviation="4" />
      <feBlend in="SourceGraphic" in2="blurOut" mode="normal" />
      <feComponentTransfer>
        <feFuncA type="linear" slope="0.5" />
      </feComponentTransfer>
      <feMerge>
        <feMergeNode />
        <feMergeNode in="SourceGraphic" />
      </feMerge>
    </filter>
    <path
      fill="none"
      stroke="#222fa8"
      stroke-opacity="1"
      stroke-width="1.2000000476837158"
      stroke-linecap="butt"
      d="M 171.02655029296875 547.6580200195312 C 177.1970672607422 590.7484283447266 182.4306182861328 641.5441131591797 211.0255889892578 661.4483032226562 C 239.6205596923828 681.3525085449219 280.2008361816406 648.6818084716797 321.52638244628906 652.4169464111328 C 362.8519287109375 656.1520690917969 397.01734161376953 694.7577819824219 428.528470993042 681.1069030761719 C 460.03960037231445 667.4560241699219 467.4442443847656 620.2546997070312 487.3744430541992 580.5701599121094 C 507.3046417236328 540.8856201171875 542.5816955566406 504.0704040527344 533.4242553710938 472.2408676147461 C 524.2668151855469 440.41132736206055 468.84493255615234 441.31170654296875 439.1773872375488 413.04626083374023 C 409.5098400115967 384.7808151245117 411.40514755249023 334.9301223754883 377.2792663574219 323.4753723144531 C 343.1533851623535 312.02062225341797 297.32618713378906 331.6336441040039 259.5674743652344 352.7580871582031 C 221.8087615966797 373.882532119751 195.37196350097656 397.62567138671875 178.5491943359375 434.6566581726074 C 161.72642517089844 471.6876449584961 164.8560333251953 504.56761169433594 171.02655029296875 547.6580200195312 Z "
    />
    <title>3:0:offset5</title>
  </g>
  <g stroke-linejoin="round">
    <filter
      id="offset__3:0:offset6-shadow"
      x="0"
      y="0"
      width="200%"
      height="200%"
    >
      <feOffset result="offOut" in="SourceAlpha" dx="5" dy="5" />
      <feGaussianBlur result="blurOut" in="offOut" stdDeviation="4" />
      <feBlend in="SourceGraphic" in2="blurOut" mode="normal" />
      <feComponentTransfer>
        <feFuncA type="linear" slope="0.5" />
      </feComponentTransfer>
      <feMerge>
        <feMergeNode />
        <feMergeNode in="SourceGraphic" />
      </feMerge>
    </filter>
    <path
      fill="none"
      stroke="#222fa8"
      stroke-opacity="1"
      stroke-width="0.8999999761581421"
      stroke-linecap="butt"
      d="M 166.06150817871094 548.2482147216797 C 172.58267211914062 592.524658203125 178.85545349121094 644.9073486328125 208.30844116210938 665.6455688476562 C 237.7614288330078 686.3837890625 278.873291015625 653.580810546875 321.07723236083984 657.396728515625 C 363.28117752075195 661.212646484375 397.99099349975586 699.896240234375 430.43448638916016 685.7293701171875 C 462.87797927856445 671.5625 471.3574676513672 623.6799621582031 491.8324432373047 582.8342895507812 C 512.3074188232422 541.9886169433594 547.5509033203125 503.7037048339844 538.1974945068359 470.7521438598633 C 528.8440856933594 437.80058670043945 472.8409881591797 438.2756805419922 442.60398864746094 409.40505027770996 C 412.3669853210449 380.53442001342773 414.3131866455078 330.3836975097656 379.05538177490234 318.8014678955078 C 343.7975769042969 307.21923828125 295.99967193603516 326.82201385498047 257.0365905761719 348.4459419250488 C 218.07351684570312 370.0698699951172 191.2718048095703 394.6491889953613 173.98654174804688 432.61162185668945 C 156.70127868652344 470.5740509033203 159.54034423828125 503.97176361083984 166.06150817871094 548.2482147216797 Z "
    />
    <title>3:0:offset6</title>
  </g>
  <g stroke-linejoin="round">
    <filter
      id="offset__3:0:offset7-shadow"
      x="0"
      y="0"
      width="200%"
      height="200%"
    >
      <feOffset result="offOut" in="SourceAlpha" dx="5" dy="5" />
      <feGaussianBlur result="blurOut" in="offOut" stdDeviation="4" />
      <feBlend in="SourceGraphic" in2="blurOut" mode="normal" />
      <feComponentTransfer>
        <feFuncA type="linear" slope="0.5" />
      </feComponentTransfer>
      <feMerge>
        <feMergeNode />
        <feMergeNode in="SourceGraphic" />
      </feMerge>
    </filter>
    <path
      fill="none"
      stroke="#222fa8"
      stroke-opacity="1"
      stroke-width="0.6000000238418579"
      stroke-linecap="butt"
      d="M 161.09646606445312 548.8384246826172 C 167.96827697753906 594.3009033203125 175.2802734375 648.2705993652344 205.59127807617188 669.8428344726562 C 235.90228271484375 691.4150695800781 277.5457305908203 658.4798278808594 320.6280822753906 662.3765258789062 C 363.71043395996094 666.2732238769531 398.9646530151367 705.0346374511719 432.3404998779297 690.351806640625 C 465.71634674072266 675.6689758300781 475.2707061767578 627.1051940917969 496.29044342041016 585.0984039306641 C 517.3101806640625 543.0916137695312 552.5200958251953 503.3369903564453 542.9707183837891 469.26342010498047 C 533.4213409423828 435.1898536682129 476.8370361328125 435.2396545410156 446.0305862426758 405.7638397216797 C 415.22413444519043 376.2880268096924 417.2212219238281 325.83726501464844 380.8314971923828 314.12755584716797 C 344.4417724609375 302.4178466796875 294.67315673828125 322.01038360595703 254.50570678710938 344.13379669189453 C 214.3382568359375 366.25720977783203 187.171630859375 391.67270278930664 169.4238739013672 430.5665817260742 C 151.67611694335938 469.46046447753906 154.2246551513672 503.37593841552734 161.09646606445312 548.8384246826172 Z "
    />
    <title>3:0:offset7</title>
  </g>
  <g stroke-linejoin="round">
    <filter
      id="offset__3:0:offset8-shadow"
      x="0"
      y="0"
      width="200%"
      height="200%"
    >
      <feOffset result="offOut" in="SourceAlpha" dx="5" dy="5" />
      <feGaussianBlur result="blurOut" in="offOut" stdDeviation="4" />
      <feBlend in="SourceGraphic" in2="blurOut" mode="normal" />
      <feComponentTransfer>
        <feFuncA type="linear" slope="0.5" />
      </feComponentTransfer>
      <feMerge>
        <feMergeNode />
        <feMergeNode in="SourceGraphic" />
      </feMerge>
    </filter>
    <path
      fill="none"
      stroke="#222fa8"
      stroke-opacity="1"
      stroke-width="0.30000001192092896"
      stroke-linecap="butt"
      d="M 156.1314239501953 549.4286193847656 C 163.35386657714844 596.0771484375 171.70509338378906 651.6338500976562 202.87411499023438 674.0401000976562 C 234.0431365966797 696.4463500976562 276.2181701660156 663.3788146972656 320.1789321899414 667.3562927246094 C 364.1396903991699 671.3337707519531 399.93830490112305 710.173095703125 434.2465133666992 694.9742736816406 C 468.5547180175781 679.7754516601562 479.1839294433594 630.5304412841797 500.7484436035156 587.3625183105469 C 522.3129577636719 544.1945953369141 557.4892883300781 502.97027587890625 547.7439422607422 467.77469635009766 C 537.9985961914062 432.5791206359863 480.8330841064453 432.20362854003906 449.4571838378906 402.12263107299805 C 418.0812797546387 372.04163360595703 420.12925910949707 321.29083251953125 382.60761070251465 309.4536437988281 C 345.0859603881836 297.616455078125 293.3466339111328 317.19874572753906 251.97482299804688 339.82164764404297 C 210.60301208496094 362.4445495605469 183.07147216796875 388.6962203979492 164.86122131347656 428.521541595459 C 146.65097045898438 468.34686279296875 148.9089813232422 502.78009033203125 156.1314239501953 549.4286193847656 Z "
    />
    <title>3:0:offset8</title>
  </g>
  <g stroke-linejoin="round">
    <filter
      id="offset__3:0:curve-shadow"
      x="0"
      y="0"
      width="200%"
      height="200%"
    >
      <feOffset result="offOut" in="SourceAlpha" dx="5" dy="5" />
      <feGaussianBlur result="blurOut" in="offOut" stdDeviation="4" />
      <feBlend in="SourceGraphic" in2="blurOut" mode="normal" />
      <feComponentTransfer>
        <feFuncA type="linear" slope="0.5" />
      </feComponentTransfer>
      <feMerge>
        <feMergeNode />
        <feMergeNode in="SourceGraphic" />
      </feMerge>
    </filter>
    <path
      fill="#ffffff"
      fill-opacity="1"
      stroke="#0a600a"
      stroke-opacity="1"
      stroke-width="3"
      stroke-linecap="butt"
      d="M 195.85177612304688 544.7070007324219 C 200.26907348632812 581.8672180175781 200.3065185546875 624.7278594970703 224.61138916015625 640.4619598388672 C 248.916259765625 656.196044921875 286.8386001586914 624.1868133544922 323.77213287353516 627.5180206298828 C 360.7056655883789 630.8492279052734 392.14905738830566 669.0656433105469 418.99839782714844 657.99462890625 C 445.84774017333984 646.9236297607422 447.8780937194824 603.1284942626953 465.0844421386719 569.2495727539062 C 482.29078674316406 535.3706512451172 517.7357406616211 505.9039764404297 509.5581283569336 479.6844940185547 C 501.3805160522461 453.46501541137695 448.86468505859375 456.4918327331543 422.04438972473145 431.25231170654297 C 395.2240962982178 406.01279067993164 396.8649654388428 357.6622734069824 368.39869499206543 346.84490966796875 C 339.9324264526367 336.0275459289551 303.9587936401367 355.6918029785156 272.22190856933594 374.3188228607178 C 240.48501586914062 392.9458408355713 215.87278747558594 412.5081024169922 201.36245727539062 444.8818550109863 C 186.8521270751953 477.25560760498047 191.43447875976562 507.5467834472656 195.85177612304688 544.7070007324219 Z "
    />
    <title>3:0:curve</title>
  </g>
  <g stroke-linejoin="round">
    <filter
      id="offset__3:0:offset1-shadow"
      x="0"
      y="0"
      width="200%"
      height="200%"
    >
      <feOffset result="offOut" in="SourceAlpha" dx="5" dy="5" />
      <feGaussianBlur result="blurOut" in="offOut" stdDeviation="4" />
      <feBlend in="SourceGraphic" in2="blurOut" mode="normal" />
      <feComponentTransfer>
        <feFuncA type="linear" slope="0.5" />
      </feComponentTransfer>
      <feMerge>
        <feMergeNode />
        <feMergeNode in="SourceGraphic" />
      </feMerge>
    </filter>
    <path
      fill="none"
      stroke="#222fa8"
      stroke-opacity="1"
      stroke-width="2.4000000953674316"
      stroke-linecap="butt"
      d="M 190.88673400878906 545.2972106933594 C 195.65467834472656 583.6434631347656 196.73133850097656 628.0911102294922 221.89422607421875 644.6592254638672 C 247.05711364746094 661.2273254394531 285.51104736328125 629.0858001708984 323.32298278808594 632.497802734375 C 361.1349182128906 635.9098052978516 393.1227169036865 674.2040710449219 420.9044132232666 662.6170959472656 C 448.6861114501953 651.0301208496094 451.7913246154785 606.5537414550781 469.54244232177734 571.5136871337891 C 487.29356384277344 536.4736328125 522.7049255371094 505.5372619628906 514.3313522338867 478.1957702636719 C 505.95777893066406 450.8542785644531 452.86073303222656 453.45580673217773 425.4709892272949 427.6111011505127 C 398.0812473297119 401.76639556884766 399.7730026245117 353.11584091186523 370.17480850219727 342.1710014343262 C 340.5766143798828 331.22615814208984 302.6322784423828 350.8801727294922 269.69102478027344 370.00667572021484 C 236.74977111816406 389.13318061828613 211.77261352539062 409.5316162109375 196.7998046875 442.8368148803711 C 181.82699584960938 476.1420135498047 186.11878967285156 506.9509506225586 190.88673400878906 545.2972106933594 Z "
    />
    <title>3:0:offset1</title>
  </g>
  <g stroke-linejoin="round">
    <filter
      id="offset__3:0:offset2-shadow"
      x="0"
      y="0"
      width="200%"
      height="200%"
    >
      <feOffset result="offOut" in="SourceAlpha" dx="5" dy="5" />
      <feGaussianBlur result="blurOut" in="offOut" stdDeviation="4" />
      <feBlend in="SourceGraphic" in2="blurOut" mode="normal" />
      <feComponentTransfer>
        <feFuncA type="linear" slope="0.5" />
      </feComponentTransfer>
      <feMerge>
        <feMergeNode />
        <feMergeNode in="SourceGraphic" />
      </feMerge>
    </filter>
    <path
      fill="none"
      stroke="#222fa8"
      stroke-opacity="1"
      stroke-width="2.0999999046325684"
      stroke-linecap="butt"
      d="M 185.92169189453125 545.8874053955078 C 191.040283203125 585.4197082519531 193.1561737060547 631.4543609619141 219.1770782470703 648.8564910888672 C 245.19798278808594 666.2586364746094 284.1835021972656 633.9848022460938 322.8738327026367 637.4775848388672 C 361.5641670227051 640.9703674316406 394.0963706970215 679.3424987792969 422.81042671203613 667.2395324707031 C 451.5244827270508 655.1365814208984 455.70455169677734 609.9789886474609 474.0004425048828 573.7778167724609 C 492.2963333129883 537.5766448974609 527.6741256713867 505.17054748535156 519.1045837402344 476.70704650878906 C 510.53504180908203 448.2435417175293 456.8567810058594 450.41978454589844 428.8975887298584 423.9698905944824 C 400.9383945465088 397.51999855041504 402.68103790283203 348.5694122314453 371.95092391967773 337.4970932006836 C 341.22080993652344 326.4247741699219 301.3057556152344 346.0685348510742 267.16014099121094 365.6945266723633 C 233.0145263671875 385.3205165863037 207.67245483398438 406.5551338195801 192.23715209960938 440.7917785644531 C 176.80184936523438 475.02842712402344 180.8031005859375 506.35511016845703 185.92169189453125 545.8874053955078 Z "
    />
    <title>3:0:offset2</title>
  </g>
</svg>
