<svg
  version="1.2"
  xmlns="http://www.w3.org/2000/svg"
  viewBox="0 0 600 400"
  penrose="0"
>
  <penrose>
    <croppedViewBox>
      170.48331255903486 13.254169727444378 229.3040425746496 370.1245064726968
    </croppedViewBox>
  </penrose>
  <polygon
    fill="#a288ab"
    fill-opacity="0.5"
    stroke="#000000"
    stroke-opacity="1"
    stroke-width="2"
    transform="scale(1)"
    points="344.1262800104046,13.556576433691589,353.9435977106838,15.452690602256183,363.32417696051436,18.915117266313814,372.01449058353955,23.86036743192733,379.7851608207727,30.153047917703276,386.4425313380882,37.61311698938465,391.84071454133715,46.02995357668672,395.884682647531,55.175109821126,398.5317732051277,64.8177740675743,399.78735513368446,74.73802505299923,399.6971339399488,84.73743633570463,398.3382020858272,94.64467721536404,395.80969061372116,104.31938611344285,392.2236149897713,113.65386025099518,387.69751025940514,122.57057109567823,382.34837932718926,131.01945365962308,376.28908289031403,138.97397571056297,369.6244516862356,146.42867846037123,362.4500000859549,153.39465710112023,354.85161970596374,159.89596220812305,346.9054367473425,165.96668406497577,338.67651632190086,171.64965075990992,330.2222836640204,176.99224378150274,321.59182647494566,182.04615474629995,312.8281021595131,186.86557225402578,303.96845990370934,191.506731332139,295.04597841940443,196.0272863551392,286.0922275319999,200.48506719962,277.1366696733869,204.93857371904727,268.20781265649526,209.44654624008626,259.3366337946065,214.06637735001047,250.556036323985,218.8544950740812,241.90125301669295,223.86629461937315,233.41335929450617,229.15441879736773,225.13829509872988,234.76936298358407,217.12999547279605,240.75750350973465,209.45016782131825,247.16105297805458,202.1698804706523,254.0163711090099,195.37241006706114,261.3502716781385,189.1517587211951,269.17910683706293,183.61322605494524,277.5053495894048,178.87448420659086,286.31132835035766,175.0617168415404,295.5560649538353,172.3066336376901,305.1691434531929,170.74019158814082,315.0457035929071,170.48331255903486,325.0427848803453,171.63582371778992,334.9756885575604,174.26244970755997,344.62391178248254,178.37946330584205,353.73630910713695,183.94340962249828,362.04468063786754,190.84269681543324,369.28193104673596,198.89915917416664,375.2039333936427,207.87537503718985,379.6095400215873,217.4894524524752,382.35797427423586,227.43623557898758,383.3786762001412,237.41069832061177,382.67408358705336,247.1273430106135,380.31319667290444,256.3379861252224,376.41908420471447,264.840089590655,371.1551568037622,272.48333977864485,364.70766670206353,279.16862699030554,357.27066539132846,284.8420695854194,349.035973012809,289.4900392821245,340.18245409265086,293.13194284018357,330.86934372384576,295.81121157890414,321.23549397159564,297.5896893065814,311.3948163254751,298.5407879709589,301.4409077930197,298.7451885066593,291.4438486247901,298.286595755014,281.4548755316752,297.249152079366,271.5092865722044,295.71567236246614,261.62848485526007,293.7661084288316,251.820257809463,291.4774313024811,242.08518378284623,288.92306903255167,232.41584963122858,286.1732279197168,222.80030544001232,283.29460798186733,213.22194068252875,280.3514193350447,203.66261941024146,277.40613241245995,194.10426573688832,274.5198279815364,184.52820814659773,271.7532553306217,174.91665202401498,269.168188391113,165.25493862957015,266.82796136603355,155.53172511437478,264.7978384902964,145.73946914205936,263.1456410871634,135.8764372855419,261.9416449067519,125.94868922049109,261.25811459792305,115.97250347208154,261.1682916305621,105.97310691566842,261.74537139450416,95.99000534141227,263.0607440425026,86.07719951989291,265.1813703474463,76.30547833817677,268.16703902591064,66.76224569879108,272.0661372007277,57.55425434790712,276.9105360330941,48.80654193633225,282.70994658442334,40.661251318891175,289.4476695022809,33.27247475026735,297.0731320936068,26.804084248522287,305.4998826095121,21.420432091658512,314.6010562452847,17.279087157391388,324.2124024414261,14.519528723941619,334.1314790943566,13.254169727444378"
  >
    <title>`c`.poly</title>
  </polygon>
</svg>
