<svg
  version="1.2"
  xmlns="http://www.w3.org/2000/svg"
  viewBox="0 0 800 800"
  penrose="0"
>
  <penrose>
    <croppedViewBox>
      62.83963487057031 400.1600488578163 513.7508940861851 208.8904311039634
    </croppedViewBox>
  </penrose>
  <g stroke-linejoin="round" style="filter: blur(15px)">
    <filter
      id="offset__3:0:bloom-shadow"
      x="0"
      y="0"
      width="200%"
      height="200%"
    >
      <feOffset result="offOut" in="SourceAlpha" dx="5" dy="5" />
      <feGaussianBlur result="blurOut" in="offOut" stdDeviation="4" />
      <feBlend in="SourceGraphic" in2="blurOut" mode="normal" />
      <feComponentTransfer>
        <feFuncA type="linear" slope="0.5" />
      </feComponentTransfer>
      <feMerge>
        <feMergeNode />
        <feMergeNode in="SourceGraphic" />
      </feMerge>
    </filter>
    <path
      fill="none"
      stroke="#8e8e8e"
      stroke-opacity="0.5882352941176471"
      stroke-width="40"
      stroke-linecap="butt"
      d="M 576.0323213999969 561.5406390249296 C 575.4741138432385 562.9572737273156 517.2063754675032 542.0703101092367 481.7484978510973 528.471936896101 C 446.29062023469123 514.8735636829654 424.7887041190956 503.84144599858155 389.41191289259683 489.97025369263656 C 354.035121666098 476.0990613866916 332.3897319651921 462.3252058270867 295.5548598168931 455.46566160165395 C 258.71998766859406 448.60611737622116 231.76464465682636 446.17496976214574 195.5441647436548 453.8673893482537 C 159.32368483048322 461.5598089343616 106.35119717088986 477.39029414107995 104.92075501072685 495.9520804759062 C 103.49031285056384 514.5138668107325 153.22409075146834 540.2605222552205 188.01552179542853 551.5610016368129 C 222.8069528393887 562.8614810184054 250.55900516203073 559.2136986899081 288.0335499789385 555.4282877474453 C 325.5080947958462 551.6428768049825 347.8859205477373 538.1761275143078 385.249968200206 531.6377861501664 C 422.61401585267464 525.0994447860251 448.43778525239213 515.3344227320755 484.68643236035246 521.0159647782805 C 520.9350794683127 526.6975068244855 576.5905289567554 560.1240043225438 576.0323213999969 561.5406390249296 Z "
    />
    <title>3:0:bloom</title>
  </g>
  <g stroke-linejoin="round">
    <filter
      id="offset__3:0:offset3-shadow"
      x="0"
      y="0"
      width="200%"
      height="200%"
    >
      <feOffset result="offOut" in="SourceAlpha" dx="5" dy="5" />
      <feGaussianBlur result="blurOut" in="offOut" stdDeviation="4" />
      <feBlend in="SourceGraphic" in2="blurOut" mode="normal" />
      <feComponentTransfer>
        <feFuncA type="linear" slope="0.5" />
      </feComponentTransfer>
      <feMerge>
        <feMergeNode />
        <feMergeNode in="SourceGraphic" />
      </feMerge>
    </filter>
    <path
      fill="none"
      stroke="#222fa8"
      stroke-opacity="1"
      stroke-width="1.8"
      stroke-linecap="butt"
      d="M 562.0766810815455 556.0415898543547 C 562.9803113478129 551.9815792290526 518.8856087184539 529.6734425782303 487.1196683110102 514.4665627355746 C 455.35372790356644 499.2596828929188 430.7630659596736 490.0173823093188 394.8875210423681 476.0053801561668 C 359.0119761250626 461.99337800301475 336.76831955439627 447.71322316147507 298.30101085150733 440.7191829821428 C 259.8337021486184 433.7251428028106 232.01182454606453 428.9193744230222 192.428001553479 439.1946423702076 C 152.84417856089345 449.469910317393 91.68389212036374 470.73933116515525 89.965100364215 494.7995405989079 C 88.24630860806627 518.8597500326607 145.46229468456409 551.4722915787993 183.3817291526961 565.827323600485 C 221.3011636208281 580.1823556221707 250.69484866251804 574.0410114561316 289.54107124912025 570.3523407130435 C 328.3872938357225 566.6636699699554 351.19922906458453 552.9715542483334 387.83553224007625 546.4132670579163 C 424.47183541556797 539.8549798674993 449.2579012613027 534.0056583795255 482.36371954118187 535.8350397108487 C 515.4695378210611 537.6644210421721 561.1730508152781 560.1016004796568 562.0766810815455 556.0415898543547 Z "
    />
    <title>3:0:offset3</title>
  </g>
  <g stroke-linejoin="round">
    <filter
      id="offset__3:0:offset4-shadow"
      x="0"
      y="0"
      width="200%"
      height="200%"
    >
      <feOffset result="offOut" in="SourceAlpha" dx="5" dy="5" />
      <feGaussianBlur result="blurOut" in="offOut" stdDeviation="4" />
      <feBlend in="SourceGraphic" in2="blurOut" mode="normal" />
      <feComponentTransfer>
        <feFuncA type="linear" slope="0.5" />
      </feComponentTransfer>
      <feMerge>
        <feMergeNode />
        <feMergeNode in="SourceGraphic" />
      </feMerge>
    </filter>
    <path
      fill="none"
      stroke="#222fa8"
      stroke-opacity="1"
      stroke-width="1.5"
      stroke-linecap="butt"
      d="M 557.424800975395 554.2085734641631 C 558.8157105160043 548.3230143962983 519.4453531354374 525.5411534012281 488.91005846431443 509.79810468206574 C 458.3747637931915 494.05505596290334 432.75451990653295 485.4093610795646 396.71272375895853 471.3504223106769 C 360.67092761138406 457.29148354178915 338.22784875079765 442.84256227293787 299.2163945297121 435.80369010897243 C 260.20494030862653 428.76481794500705 232.09421784247724 423.167509309981 191.38928049008703 434.3037267108589 C 150.68434313769683 445.43994411173674 86.79479043685507 468.5223435065137 84.97988214871106 494.41536063990856 C 83.16497386056704 520.3083777733034 142.87502932892932 555.2095480199921 181.8371316051186 570.5827642550423 C 220.79923388130788 585.9559804900925 250.74012982934715 578.9834490448727 290.0435783391809 575.3270250349096 C 329.3470268490146 571.6706010249464 352.30366523686695 557.9033631596752 388.697386920033 551.3384273604996 C 425.091108603199 544.773491561324 449.5312732642729 540.2294035953421 481.58948193479165 540.7747313550382 C 513.6476906053105 541.3200591147342 556.0338914347857 560.0941325320279 557.424800975395 554.2085734641631 Z "
    />
    <title>3:0:offset4</title>
  </g>
  <g stroke-linejoin="round">
    <filter
      id="offset__3:0:offset5-shadow"
      x="0"
      y="0"
      width="200%"
      height="200%"
    >
      <feOffset result="offOut" in="SourceAlpha" dx="5" dy="5" />
      <feGaussianBlur result="blurOut" in="offOut" stdDeviation="4" />
      <feBlend in="SourceGraphic" in2="blurOut" mode="normal" />
      <feComponentTransfer>
        <feFuncA type="linear" slope="0.5" />
      </feComponentTransfer>
      <feMerge>
        <feMergeNode />
        <feMergeNode in="SourceGraphic" />
      </feMerge>
    </filter>
    <path
      fill="none"
      stroke="#222fa8"
      stroke-opacity="1"
      stroke-width="1.2"
      stroke-linecap="butt"
      d="M 552.7729208692444 552.3755570739714 C 554.6511096841957 544.664449563544 520.0050975524209 521.4088642242259 490.70044861761875 505.1296466285569 C 461.3957996828166 488.85042903288786 434.7459738533923 480.80133984981035 398.53792647554894 466.69546446518694 C 362.3298790977056 452.58958908056354 339.6873779471991 437.97190138440067 300.13177820791685 430.88819723580207 C 260.5761784686346 423.80449308720347 232.17661113888994 417.41564419693987 190.3505594266951 429.4128110515102 C 148.52450771450026 441.40997790608054 81.90568875334634 466.30535584787214 79.99466393320711 494.03118068090913 C 78.08363911306787 521.7570055139462 140.2877639732946 558.9468044611851 180.29253405754113 575.3382049095997 C 220.29730414178766 591.7296053580144 250.78541099617624 583.9258866336138 290.5460854292415 580.3017093567756 C 330.30675986230676 576.6775320799375 353.40810140914937 562.835172071017 389.5592415999897 556.263587663083 C 425.7103817908301 549.6920032551488 449.8046452672431 546.4531488111588 480.8152443284015 545.7144229992276 C 511.82584338955985 544.9756971872964 550.8947320542932 560.0866645843989 552.7729208692444 552.3755570739714 Z "
    />
    <title>3:0:offset5</title>
  </g>
  <g stroke-linejoin="round">
    <filter
      id="offset__3:0:offset6-shadow"
      x="0"
      y="0"
      width="200%"
      height="200%"
    >
      <feOffset result="offOut" in="SourceAlpha" dx="5" dy="5" />
      <feGaussianBlur result="blurOut" in="offOut" stdDeviation="4" />
      <feBlend in="SourceGraphic" in2="blurOut" mode="normal" />
      <feComponentTransfer>
        <feFuncA type="linear" slope="0.5" />
      </feComponentTransfer>
      <feMerge>
        <feMergeNode />
        <feMergeNode in="SourceGraphic" />
      </feMerge>
    </filter>
    <path
      fill="none"
      stroke="#222fa8"
      stroke-opacity="1"
      stroke-width="0.9"
      stroke-linecap="butt"
      d="M 548.121040763094 550.5425406837799 C 550.4865088523873 541.0058847307897 520.5648419694044 517.2765750472238 492.49083877092306 500.461188575048 C 464.41683557244164 483.6458021028723 436.7374278002517 476.1933186200561 400.36312919213935 462.040506619697 C 363.9888305840271 447.88769461933794 341.14690714360046 433.1012404958634 301.04716188612156 425.9727043626317 C 260.9474166286427 418.84416822939994 232.25900443530267 411.6637790838987 189.31183836330317 424.5218953921615 C 146.36467229130366 437.38001170042435 77.01658706983767 464.08836818923055 75.00944571770316 493.64700072190976 C 73.00230436556865 523.2056332545889 137.70049861765983 562.684060902378 178.74793650996364 580.0936455641571 C 219.79537440226744 597.5032302259361 250.83069216300535 588.868324222355 291.0485925193021 585.2763936786417 C 331.26649287559883 581.6844631349285 354.51253758143173 567.7669809823589 390.4210962799465 561.1887479656662 C 426.32965497846124 554.6105149489736 450.07801727021325 552.6768940269754 480.0410067220113 550.6541146434171 C 510.00399617380936 548.6313352598586 545.7555726738008 560.0791966367699 548.121040763094 550.5425406837799 Z "
    />
    <title>3:0:offset6</title>
  </g>
  <g stroke-linejoin="round">
    <filter
      id="offset__3:0:offset7-shadow"
      x="0"
      y="0"
      width="200%"
      height="200%"
    >
      <feOffset result="offOut" in="SourceAlpha" dx="5" dy="5" />
      <feGaussianBlur result="blurOut" in="offOut" stdDeviation="4" />
      <feBlend in="SourceGraphic" in2="blurOut" mode="normal" />
      <feComponentTransfer>
        <feFuncA type="linear" slope="0.5" />
      </feComponentTransfer>
      <feMerge>
        <feMergeNode />
        <feMergeNode in="SourceGraphic" />
      </feMerge>
    </filter>
    <path
      fill="none"
      stroke="#222fa8"
      stroke-opacity="1"
      stroke-width="0.6"
      stroke-linecap="butt"
      d="M 543.4691606569436 548.7095242935882 C 546.3219080205788 537.3473198980354 521.1245863863879 513.1442858702217 494.2812289242273 495.7927305215392 C 467.4378714620667 478.4411751728568 438.728881747111 471.5852973903019 402.1883319087298 457.3855487742071 C 365.6477820703486 443.1858001581123 342.6064363400019 428.23057960732626 301.9625455643263 421.05721148946134 C 261.3186547886508 413.8838433715964 232.3413977317154 405.9119139708575 188.27311729991123 419.6309797328128 C 144.20483686810707 433.3500454947681 72.127485386329 461.871380530589 70.02422750219921 493.26282076291034 C 67.92096961806942 524.6542609952317 135.11323326202512 566.4213173435709 177.20333896238617 584.8490862187144 C 219.29344466274722 603.276855093858 250.87597332983444 593.8107618110961 291.5510996093627 590.2510780005077 C 332.22622588889095 586.6913941899195 355.61697375371415 572.6987898937008 391.28295095990325 566.1139082682495 C 426.94892816609234 559.5290266427983 450.35138927318343 558.9006392427921 479.2667691156211 555.5938062876064 C 508.18214895805875 552.2869733324208 540.6164132933084 560.071728689141 543.4691606569436 548.7095242935882 Z "
    />
    <title>3:0:offset7</title>
  </g>
  <g stroke-linejoin="round">
    <filter
      id="offset__3:0:offset8-shadow"
      x="0"
      y="0"
      width="200%"
      height="200%"
    >
      <feOffset result="offOut" in="SourceAlpha" dx="5" dy="5" />
      <feGaussianBlur result="blurOut" in="offOut" stdDeviation="4" />
      <feBlend in="SourceGraphic" in2="blurOut" mode="normal" />
      <feComponentTransfer>
        <feFuncA type="linear" slope="0.5" />
      </feComponentTransfer>
      <feMerge>
        <feMergeNode />
        <feMergeNode in="SourceGraphic" />
      </feMerge>
    </filter>
    <path
      fill="none"
      stroke="#222fa8"
      stroke-opacity="1"
      stroke-width="0.3"
      stroke-linecap="butt"
      d="M 538.8172805507932 546.8765079033965 C 542.1573071887702 533.6887550652812 521.6843308033715 509.01199669321943 496.07161907753164 491.12427246803037 C 470.4589073516918 473.2365482428413 440.72033569397036 466.97727616054766 404.01353462532023 452.73059092871716 C 367.3067335566701 438.48390569688667 344.06596553640327 423.359918718789 302.8779292425311 416.141718616291 C 261.6898929486589 408.9235185137929 232.4237910281281 400.1600488578163 187.2343962365193 414.7400640734641 C 142.0450014449105 429.3200792891119 67.23838370282033 459.65439287194744 65.03900928669532 492.8786408039109 C 62.83963487057031 526.1028887358743 132.5259679063904 570.1585737847638 175.6587414148087 589.6045268732718 C 218.79151492322703 609.0504799617797 250.92125449666355 598.7531993998373 292.0536066994233 595.2257623223738 C 333.1859589021831 591.6983252449104 356.72140992599657 577.6305988050426 392.14480563986 571.0390685708328 C 427.56820135372345 564.447538336623 450.6247612761536 565.1243844586088 478.4925315092309 560.5334979317959 C 506.3603017423082 555.942611404983 535.477253912816 560.064260741512 538.8172805507932 546.8765079033965 Z "
    />
    <title>3:0:offset8</title>
  </g>
  <g stroke-linejoin="round">
    <filter
      id="offset__3:0:curve-shadow"
      x="0"
      y="0"
      width="200%"
      height="200%"
    >
      <feOffset result="offOut" in="SourceAlpha" dx="5" dy="5" />
      <feGaussianBlur result="blurOut" in="offOut" stdDeviation="4" />
      <feBlend in="SourceGraphic" in2="blurOut" mode="normal" />
      <feComponentTransfer>
        <feFuncA type="linear" slope="0.5" />
      </feComponentTransfer>
      <feMerge>
        <feMergeNode />
        <feMergeNode in="SourceGraphic" />
      </feMerge>
    </filter>
    <path
      fill="#ffffff"
      fill-opacity="1"
      stroke="#0a600a"
      stroke-opacity="1"
      stroke-width="3"
      stroke-linecap="butt"
      d="M 576.0323213999969 561.5406390249296 C 575.4741138432385 562.9572737273156 517.2063754675032 542.0703101092367 481.7484978510973 528.471936896101 C 446.29062023469123 514.8735636829654 424.7887041190956 503.84144599858155 389.41191289259683 489.97025369263656 C 354.035121666098 476.0990613866916 332.3897319651921 462.3252058270867 295.5548598168931 455.46566160165395 C 258.71998766859406 448.60611737622116 231.76464465682636 446.17496976214574 195.5441647436548 453.8673893482537 C 159.32368483048322 461.5598089343616 106.35119717088986 477.39029414107995 104.92075501072685 495.9520804759062 C 103.49031285056384 514.5138668107325 153.22409075146834 540.2605222552205 188.01552179542853 551.5610016368129 C 222.8069528393887 562.8614810184054 250.55900516203073 559.2136986899081 288.0335499789385 555.4282877474453 C 325.5080947958462 551.6428768049825 347.8859205477373 538.1761275143078 385.249968200206 531.6377861501664 C 422.61401585267464 525.0994447860251 448.43778525239213 515.3344227320755 484.68643236035246 521.0159647782805 C 520.9350794683127 526.6975068244855 576.5905289567554 560.1240043225438 576.0323213999969 561.5406390249296 Z "
    />
    <title>3:0:curve</title>
  </g>
  <g stroke-linejoin="round">
    <filter
      id="offset__3:0:offset1-shadow"
      x="0"
      y="0"
      width="200%"
      height="200%"
    >
      <feOffset result="offOut" in="SourceAlpha" dx="5" dy="5" />
      <feGaussianBlur result="blurOut" in="offOut" stdDeviation="4" />
      <feBlend in="SourceGraphic" in2="blurOut" mode="normal" />
      <feComponentTransfer>
        <feFuncA type="linear" slope="0.5" />
      </feComponentTransfer>
      <feMerge>
        <feMergeNode />
        <feMergeNode in="SourceGraphic" />
      </feMerge>
    </filter>
    <path
      fill="none"
      stroke="#222fa8"
      stroke-opacity="1"
      stroke-width="2.4"
      stroke-linecap="butt"
      d="M 571.3804412938464 559.7076226347381 C 571.3095130114299 559.2987088945613 517.7661198844868 537.9380209322346 483.53888800440154 523.8034788425922 C 449.3116561243163 509.6689367529499 426.78015806595494 499.23342476882726 391.23711560918724 485.3152958471467 C 355.69407315241955 471.39716692546597 333.84926116159346 457.4545449385495 296.47024349509786 450.5501687284835 C 259.0912258286022 443.64579251841764 231.8470379532391 440.4231046491046 194.50544368026286 448.976473688905 C 157.16384940728662 457.5298427287054 101.46209548738113 475.17330648243836 99.9355367952229 495.5679005169068 C 98.40897810306467 515.9624945513751 150.6368253958336 543.9977786964134 186.47092424785106 556.3164422913703 C 222.30502309986852 568.6351058863272 250.60428632885984 564.1561362786493 288.53605706899907 560.4029720693114 C 326.46782780913827 556.6498078599735 348.99035672001975 543.1079364256497 386.1118228801627 536.5629464527498 C 423.23328904030575 530.0179564798499 448.71115725536237 521.5581679478921 483.91219475396224 525.9556564224699 C 519.1132322525622 530.3531448970477 571.451369576263 560.1165363749149 571.3804412938464 559.7076226347381 Z "
    />
    <title>3:0:offset1</title>
  </g>
  <g stroke-linejoin="round">
    <filter
      id="offset__3:0:offset2-shadow"
      x="0"
      y="0"
      width="200%"
      height="200%"
    >
      <feOffset result="offOut" in="SourceAlpha" dx="5" dy="5" />
      <feGaussianBlur result="blurOut" in="offOut" stdDeviation="4" />
      <feBlend in="SourceGraphic" in2="blurOut" mode="normal" />
      <feComponentTransfer>
        <feFuncA type="linear" slope="0.5" />
      </feComponentTransfer>
      <feMerge>
        <feMergeNode />
        <feMergeNode in="SourceGraphic" />
      </feMerge>
    </filter>
    <path
      fill="none"
      stroke="#222fa8"
      stroke-opacity="1"
      stroke-width="2.1"
      stroke-linecap="butt"
      d="M 566.728561187696 557.8746062445464 C 567.1449121796213 555.640144061807 518.3258643014703 533.8057317552324 485.32927815770586 519.1350207890833 C 452.33269201394137 504.46430982293435 428.7716120128143 494.62540353907303 393.06231832577765 480.6603380016567 C 357.35302463874103 466.69527246424036 335.3087903579949 452.5838840500123 297.38562717330257 445.63467585531316 C 259.4624639886103 438.6854676606141 231.92943124965183 434.6712395360634 193.46672261687092 444.0855580295563 C 155.00401398409002 453.4998765230492 96.57299380387246 472.9563188237968 94.95031857971895 495.18372055790735 C 93.32764335556544 517.4111222920179 148.04956004019883 547.7350351376062 184.92632670027356 561.0718829459277 C 221.8030933603483 574.408730754249 250.64956749568893 569.0985738673904 289.03856415905966 565.3776563911774 C 327.4275608224304 561.6567389149645 350.09479289230217 548.0397453369915 386.9736775601195 541.4881067553331 C 423.85256222793686 534.9364681736746 448.98452925833254 527.7819131637089 483.137957147572 530.8953480666594 C 517.2913850368116 534.0087829696099 566.3122101957706 560.1090684272858 566.728561187696 557.8746062445464 Z "
    />
    <title>3:0:offset2</title>
  </g>
</svg>
