<svg
  version="1.2"
  xmlns="http://www.w3.org/2000/svg"
  viewBox="0 0 600 400"
  penrose="0"
>
  <penrose>
    <croppedViewBox>
      91.74164512200082 135.85519255759067 402.453417929974 128.7203851573551
    </croppedViewBox>
  </penrose>
  <polyline
    fill="none"
    stroke="#000000"
    stroke-opacity="1"
    stroke-width="2"
    stroke-linecap="butt"
    transform="scale(1)"
    points="170,200,164.80783378658325,196.99310625191816,159.0401156841832,195.12956833321618,153.00143407160843,194.6078390197877,147.01080755165057,195.52921549648647,141.42055772766238,197.87133902903008,136.5635603321215,201.4971934634883,132.71109892964733,206.17663772302322,130.04121020580445,211.6182719278927,128.63223233561308,217.51360096453428,128.47521533333529,223.5729431802634,129.4942867076185,229.54808480230258,131.56725099959522,235.2441007198541,134.54748295568334,240.52248654956844,138.28419205174555,245.2954873698949,142.63514361010775,249.51624662506845,147.47277922127668,253.16914149256516,152.68698985501305,256.26085656073747,158.18564289818715,258.8125571775935,163.8934941548958,260.8535983085479,169.75007634058161,262.4171186080671,175.70736391395428,263.536971519832,181.72739538344527,264.2460428594927,187.78019565253746,264.5755777149458,193.84207401854468,264.5549410028276,199.8943261450388,264.21157248746204,205.92230138143873,263.5708262071832,211.91460568758174,262.65572216867184,217.86242268108458,261.48676498757345,223.75887909368032,260.081841922361,229.59836769248477,258.4561849231683,235.37593142458576,256.6222667714709,241.08671086979842,254.58966375878367,246.72545662393276,252.36493485691878,252.28605707748963,249.95156119384296,257.761076707267,247.34989935149008,263.1411829183597,244.55729987617516,268.4146616915028,241.56833413744835,273.56692586965863,238.37513213954125,278.58005518468474,234.967855210855,283.4323097808425,231.3352098744481,288.09745896347425,227.46513836850244,292.5440628241642,223.3456190135629,296.7345680590653,218.96564819681637,300.62440040520977,214.31648693126047,304.1609811242099,209.39325271731877,307.28280224065645,204.19711555060712,309.91870229539126,198.73836847790605,311.9877880558798,193.0405074426504,313.4005731308702,187.14544952565865,314.0621061792602,181.1196668607916,313.87800531198644,175.0605654438827,312.76407510708174,169.1020599437563,310.6599974708648,163.41740805083313,307.5463325705367,158.216833081414,303.4628735599356,153.73736247303216,298.52413322920876,150.2232051726961,292.9266789692654,147.8973860555414,286.9431079801679,146.92889580403187,280.9002528587649,147.40284579636483,275.14411773503656,149.30201034799836,269.9989875201,152.50619496255584,265.73071037340577,156.80976430095564,262.52277055201614,161.95258297494752,260.4689310593833,167.65543314655136,259.5809099445938,173.65158550885226,259.80594406752584,179.7091014761972,261.04800509081593,185.6423078973194,263.1878531108223,191.31400118675535,266.09898870710003,196.63128966600738,269.6587307330495,201.5381870465529,273.75478317889525,206.00725980575615,278.2883946075625,210.0318454791431,283.1751052247331,213.61953892215246,288.3441328064952,216.78709422785684,293.7370280508257,219.55658025697267,299.30604589336315,221.9525518508221,305.01250606670834,224.00002766310598,310.8252265896352,225.7230575895457,316.71915379730336,227.143764211403,322.67415114756244,228.28164357304505,328.6739427804154,229.15301851382546,334.7051716364121,229.77056185698225,340.7565208885933,230.14296481386276,346.81791579966585,230.27484335782808,352.8797912164906,230.16688682811193,358.9324714152002,229.81641616691113,364.9656941416637,229.2185738390238,370.96837253005117,228.36760646317163,376.9283561113378,227.25693163508183,382.8320336512876,225.87853434588027,388.66414427981005,224.22380148426222,394.40801590167786,222.28523032856987,400.04584465883835,220.05723590337587,405.5578938018227,217.53418986781037,410.91976061529783,214.70604153998215,416.1017869753389,211.56052675647632,421.06847359061925,208.08501387020405,425.7556703849968,204.2409510866322,430,200"
  >
    <title>`c`.poly</title>
  </polyline>
  <g>
    <marker
      id="open-elastic-curve__registry-ClamshellKookabura228-`c`.arrow1-endArrowId"
      markerUnits="strokeWidth"
      markerWidth="9.95"
      markerHeight="8.12"
      viewBox="0 0 9.95 8.12"
      refX="2.36"
      refY="4.06"
      orient="auto-start-reverse"
    >
      <path
        d="M9.95 4.06 0 8.12 2.36 4.06 0 0 9.95 4.06z"
        fill="#22a34d"
        fill-opacity="0.6588235294117647"
      />
    </marker>
    <line
      x1="170"
      y1="200"
      x2="101.96964218870696"
      y2="160.60217466575784"
      stroke="#22a34d"
      stroke-opacity="0.6588235294117647"
      stroke-width="1.5"
      marker-end="url(#open-elastic-curve__registry-ClamshellKookabura228-`c`.arrow1-endArrowId)"
    />
    <title>`c`.arrow1</title>
  </g>
  <g>
    <marker
      id="open-elastic-curve__registry-ClamshellKookabura228-`c`.arrow2-endArrowId"
      markerUnits="strokeWidth"
      markerWidth="9.95"
      markerHeight="8.12"
      viewBox="0 0 9.95 8.12"
      refX="2.36"
      refY="4.06"
      orient="auto-start-reverse"
    >
      <path
        d="M9.95 4.06 0 8.12 2.36 4.06 0 0 9.95 4.06z"
        fill="#22a34d"
        fill-opacity="0.6588235294117647"
      />
    </marker>
    <line
      x1="430"
      y1="200"
      x2="485.61132878057936"
      y2="144.43293838740166"
      stroke="#22a34d"
      stroke-opacity="0.6588235294117647"
      stroke-width="1.5"
      marker-end="url(#open-elastic-curve__registry-ClamshellKookabura228-`c`.arrow2-endArrowId)"
    />
    <title>`c`.arrow2</title>
  </g>
</svg>
