<svg
  version="1.2"
  xmlns="http://www.w3.org/2000/svg"
  viewBox="0 0 600 400"
  penrose="0"
>
  <penrose>
    <croppedViewBox>
      169.98592614623112 12.427945018194237 228.46044524803835
      370.70525443739166
    </croppedViewBox>
  </penrose>
  <polygon
    fill="#a288ab"
    fill-opacity="0.5"
    stroke="#000000"
    stroke-opacity="1"
    stroke-width="2"
    transform="scale(1)"
    points="345.37805545026634,13.022947089112478,355.1246482845858,15.253183668061865,364.3656218960308,19.07114654503593,372.84480566461605,24.37040653221152,380.3366016806827,30.992826115956007,386.65931503235976,38.73969336132956,391.68295989718223,47.386018053992956,395.33073027628865,56.696718635846764,397.5782681382709,66.44072791217161,398.4463713942695,76.40263099454604,397.992568565963,86.39182667558374,396.3023128926952,96.24733148750605,393.4790404124368,105.83986652184737,389.63639376331315,115.07138285772172,384.8911287687577,123.87326132405332,379.3585512176353,132.20284511467244,373.14784347593826,140.03986867498287,366.3605740939002,147.38331203526695,359.08875645368465,154.24709837018042,351.41437894421233,160.6577166186856,343.40969051841324,166.6510337744217,335.1375861285362,172.27012624830414,326.6526326576262,177.56323618018925,318.0020370537493,182.58240808692284,309.2271226005785,187.38193867758082,300.36411782278617,192.0176831962534,291.44574114891145,196.5462469606745,282.5021848016826,201.0244107412196,273.56222236214717,205.50911940633625,264.6547428681957,210.05700605047812,255.80978249729367,214.7246579886998,247.060192205855,219.56827347934615,238.4429864759194,224.64352206389296,230.0010401754724,230.0049635331487,221.7842471391915,235.70532457532278,213.85121920690176,241.79379178134545,206.27031046571526,248.3148227628636,199.12041328045444,255.30519562482823,192.49207518043002,262.79138577244646,186.48705854497297,270.7861872613704,181.2180230516267,279.2842886561748,176.80649622057882,288.2579005697469,173.37993780082974,297.65236738521253,171.06599194323445,307.3812878465902,169.98592614623112,317.32323704524174,170.2459169179039,327.32034652572065,171.924479438852,337.1786751159143,175.06372688116602,346.67284105597696,179.65596947709122,355.5552760106639,185.63568879104807,363.569012393166,192.87645493480034,370.46412730940915,201.1908669302946,376.01760564366896,210.3402323123246,380.0501840858834,220.04918679975418,382.4401779755312,230.0243751118131,383.1331994555859,239.97458984893308,382.14159096268503,249.62973882456507,379.53893613707675,258.7556864317981,375.45005676633343,267.16298635577147,370.03540036458253,274.7119789509817,363.4769108404346,281.31147138045577,355.9639564497558,286.9147539398747,347.6816679697789,291.51272130731047,338.8020867731409,295.12707804495454,329.47874156817215,297.80195343931524,319.8438676846096,299.5974678605271,310.006880706895,300.584509525198,300.0560690088372,300.8390636837171,290.0595153209456,300.44017299239306,280.0675721843488,299.4667186038412,270.11510450799676,297.99631637430105,260.22384696287634,296.104384980813,250.4043708307148,293.86375825990353,240.6582056924115,291.3446025366662,230.97994051991753,288.61465486071955,221.35829211137028,285.739556302369,211.7785543239326,282.78326337048,202.22308395455158,279.8085773134241,192.673203448784,276.87776894711646,183.10986731987666,274.05315931399025,173.51504640568393,271.3979043451614,163.87239134256328,268.9765602150883,154.16892694743146,266.85584071694984,144.39567784358616,265.1048534589838,134.5497738951066,263.7952941542414,124.63570773308966,263.0014100432131,114.66727928411119,262.798753668116,104.66951890886779,263.263701467196,94.68083995826011,264.47110081429634,84.75458941195585,266.4918495462596,74.96169732086781,269.3898936364919,65.39160198674432,273.21773528132917,56.153833195320374,278.011043658601,47.37783121470167,283.7834131786491,39.21215957839118,290.51933825669647,31.820871964877057,298.1674514944759,25.378126839345214,306.6367540684919,20.061175171135915,315.7912190098475,16.03753688406877,325.451192342189,13.455163777718496,335.39715434872846,12.427945018194265"
  >
    <title>`c`.poly</title>
  </polygon>
</svg>
