<svg
  version="1.2"
  xmlns="http://www.w3.org/2000/svg"
  viewBox="0 0 800 800"
  penrose="0"
>
  <penrose>
    <croppedViewBox>
      364.17625501455814 335.9779662792176 350.55317924426345 462.8498507052338
    </croppedViewBox>
  </penrose>
  <g stroke-linejoin="round" style="filter: blur(15px)">
    <filter
      id="offset__3:0:bloom-shadow"
      x="0"
      y="0"
      width="200%"
      height="200%"
    >
      <feOffset result="offOut" in="SourceAlpha" dx="5" dy="5" />
      <feGaussianBlur result="blurOut" in="offOut" stdDeviation="4" />
      <feBlend in="SourceGraphic" in2="blurOut" mode="normal" />
      <feComponentTransfer>
        <feFuncA type="linear" slope="0.5" />
      </feComponentTransfer>
      <feMerge>
        <feMergeNode />
        <feMergeNode in="SourceGraphic" />
      </feMerge>
    </filter>
    <path
      fill="none"
      stroke="#8e8e8e"
      stroke-opacity="0.5882352941176471"
      stroke-width="40"
      stroke-linecap="butt"
      d="M 602.7597896289017 708.172264335939 C 630.763493004379 683.8436446043992 650.1834818136878 662.0382294243077 662.2303404859267 627.7780644829909 C 674.2771991581657 593.5178995416741 674.1332265548757 563.7236071591262 666.164308956475 527.8556067500613 C 658.1953913580743 491.9876063409963 644.9918678951485 466.149221984584 620.2886689153966 438.9991149615962 C 595.5854699356446 411.8490079386084 551.9866511057224 376.22822986841084 536.1474722209387 384.9603066290729 C 520.3082933361549 393.6923833897349 536.3941098630312 446.9618016443716 536.9245695217978 484.95741370192263 C 537.4550291805645 522.9530257594737 550.3190496104933 551.0199775698123 538.9393651618157 584.937212195131 C 527.559680713138 618.8544468204497 500.4401190154697 633.535875011856 477.03149347612634 663.4691748878104 C 453.622867936783 693.4024747637648 408.55199529309755 724.9335869981617 415.7360728494823 742.4808957527857 C 422.92015040586705 760.0282045074098 479.3079217953247 762.342071460296 514.8424279834144 755.8234314910951 C 550.376934171504 749.3047915218942 574.7560862534243 732.5008840674788 602.7597896289017 708.172264335939 Z "
    />
    <title>3:0:bloom</title>
  </g>
  <g stroke-linejoin="round">
    <filter
      id="offset__3:0:offset3-shadow"
      x="0"
      y="0"
      width="200%"
      height="200%"
    >
      <feOffset result="offOut" in="SourceAlpha" dx="5" dy="5" />
      <feGaussianBlur result="blurOut" in="offOut" stdDeviation="4" />
      <feBlend in="SourceGraphic" in2="blurOut" mode="normal" />
      <feComponentTransfer>
        <feFuncA type="linear" slope="0.5" />
      </feComponentTransfer>
      <feMerge>
        <feMergeNode />
        <feMergeNode in="SourceGraphic" />
      </feMerge>
    </filter>
    <path
      fill="none"
      stroke="#222fa8"
      stroke-opacity="1"
      stroke-width="1.8"
      stroke-linecap="butt"
      d="M 612.597304982522 719.4958357080272 C 642.775398093312 693.3093920037421 663.4211213490482 669.7836139138716 676.3810138102399 632.7538479314073 C 689.3409062714313 595.7240819489431 689.3568044438555 563.3337517553414 680.8072653045826 524.6023305371626 C 672.2577261653098 485.870909318984 660.24475118147 457.93209503852614 631.3834393930143 428.9042625725721 C 602.5221276045586 399.87643010661805 549.7025317372248 361.13438102246334 528.9056243127106 371.8242649268782 C 508.10871688819634 382.514148831293 522.7215961012657 445.58189808488135 521.9260318955709 485.1668094379133 C 521.1304676898761 524.7517207909452 535.4934302428076 548.0441215723919 524.7184442827379 580.1659036270464 C 513.9434583226681 612.2876856817011 488.55974178854615 622.3091429733422 465.21557947415124 654.228820251885 C 441.87141715975633 686.1484975304278 391.9110926886453 726.0580061296666 401.85443210171206 748.1642050930611 C 411.79777151477884 770.2704040564556 477.5077989587278 776.0242260318541 517.5489448060816 770.5772358486978 C 557.5900906534355 765.1302456655415 582.4192118717319 745.6822794123125 612.597304982522 719.4958357080272 Z "
    />
    <title>3:0:offset3</title>
  </g>
  <g stroke-linejoin="round">
    <filter
      id="offset__3:0:offset4-shadow"
      x="0"
      y="0"
      width="200%"
      height="200%"
    >
      <feOffset result="offOut" in="SourceAlpha" dx="5" dy="5" />
      <feGaussianBlur result="blurOut" in="offOut" stdDeviation="4" />
      <feBlend in="SourceGraphic" in2="blurOut" mode="normal" />
      <feComponentTransfer>
        <feFuncA type="linear" slope="0.5" />
      </feComponentTransfer>
      <feMerge>
        <feMergeNode />
        <feMergeNode in="SourceGraphic" />
      </feMerge>
    </filter>
    <path
      fill="none"
      stroke="#222fa8"
      stroke-opacity="1"
      stroke-width="1.5"
      stroke-linecap="butt"
      d="M 615.8764767670621 723.2703594987233 C 646.7793664562897 696.4646411368565 667.8336678608352 672.3654087437262 681.0979049183443 634.4124424142128 C 694.3621419758533 596.4594760846994 694.4313304068487 563.2037999540797 685.6882507539518 523.5179051328631 C 676.9451711010549 483.8320103116465 665.3290456102438 455.19305272317354 635.0816962188869 425.53931177623076 C 604.83434682753 395.88557082928793 548.9411586143923 356.1030980738142 526.4916750099679 367.44558435948 C 504.04219140554346 378.78807064514575 518.1640915140106 445.1219302317179 516.9265193534952 485.23660801657684 C 515.68894719298 525.3512858014358 530.5515571202457 547.0521695732517 519.9781373230453 578.575467437685 C 509.40471752584483 610.0987653021183 484.5996160462383 618.5668989605043 461.27694147349285 651.14870203991 C 437.9542669007475 683.7305051193155 386.36412515382784 726.432812506835 397.227218519122 750.0586415398196 C 408.0903118844161 773.6844705728042 476.90775801319546 780.5849442223737 518.4511170803041 775.4951706345653 C 559.9944761474127 770.4053970467571 584.9735870778344 750.0760778605904 615.8764767670621 723.2703594987233 Z "
    />
    <title>3:0:offset4</title>
  </g>
  <g stroke-linejoin="round">
    <filter
      id="offset__3:0:offset5-shadow"
      x="0"
      y="0"
      width="200%"
      height="200%"
    >
      <feOffset result="offOut" in="SourceAlpha" dx="5" dy="5" />
      <feGaussianBlur result="blurOut" in="offOut" stdDeviation="4" />
      <feBlend in="SourceGraphic" in2="blurOut" mode="normal" />
      <feComponentTransfer>
        <feFuncA type="linear" slope="0.5" />
      </feComponentTransfer>
      <feMerge>
        <feMergeNode />
        <feMergeNode in="SourceGraphic" />
      </feMerge>
    </filter>
    <path
      fill="none"
      stroke="#222fa8"
      stroke-opacity="1"
      stroke-width="1.2"
      stroke-linecap="butt"
      d="M 619.1556485516021 727.0448832894194 C 650.7833348192673 699.6198902699707 672.246214372622 674.947203573581 685.8147960264486 636.0710368970183 C 699.3833776802751 597.1948702204556 699.5058563698419 563.0738481528181 690.569236203321 522.4334797285636 C 681.6326160368001 481.7931113043091 670.4133400390176 452.45401040782093 638.7799530447595 422.17436097988934 C 607.1465660505013 391.8947115519578 548.1797854915598 351.071815125165 524.0777257072252 363.06690379208175 C 499.97566592289064 375.0619924589984 513.6065869267554 444.6619623785545 511.9270068114196 485.30640659524045 C 510.24742669608383 525.9508508119263 525.6096839976838 546.0602175741116 515.2378303633526 576.9850312483235 C 504.86597672902144 607.9098449225354 480.6394903039304 614.8246549476664 457.3383034728345 648.0685838279348 C 434.0371166417386 681.3125127082031 380.81715761901046 726.8076188840034 392.60000493653195 751.9530779865781 C 404.3828522540534 777.0985370891527 476.30771706766313 785.1456624128931 519.3532893545265 780.4131054204329 C 562.3988616413899 775.6805484279728 587.527962283937 754.4698763088683 619.1556485516021 727.0448832894194 Z "
    />
    <title>3:0:offset5</title>
  </g>
  <g stroke-linejoin="round">
    <filter
      id="offset__3:0:offset6-shadow"
      x="0"
      y="0"
      width="200%"
      height="200%"
    >
      <feOffset result="offOut" in="SourceAlpha" dx="5" dy="5" />
      <feGaussianBlur result="blurOut" in="offOut" stdDeviation="4" />
      <feBlend in="SourceGraphic" in2="blurOut" mode="normal" />
      <feComponentTransfer>
        <feFuncA type="linear" slope="0.5" />
      </feComponentTransfer>
      <feMerge>
        <feMergeNode />
        <feMergeNode in="SourceGraphic" />
      </feMerge>
    </filter>
    <path
      fill="none"
      stroke="#222fa8"
      stroke-opacity="1"
      stroke-width="0.9"
      stroke-linecap="butt"
      d="M 622.4348203361423 730.8194070801155 C 654.7873031822451 702.775139403085 676.6587608844088 677.5289984034356 690.531687134553 637.7296313798238 C 704.4046133846971 597.930264356212 704.5803823328351 562.9438963515565 695.4502216526902 521.3490543242641 C 686.3200609725452 479.7542122969717 675.4976344677915 449.7149680924683 642.4782098706321 418.809410183548 C 609.4587852734726 387.9038522746277 547.4184123687273 346.04053217651585 521.6637764044825 358.6882232246835 C 495.9091404402378 371.33591427285114 509.0490823395003 444.20199452539106 506.927494269344 485.37620517390394 C 504.8059061991877 526.5504158224169 520.667810875122 545.0682655749714 510.49752340366 575.394595058962 C 500.32723593219816 605.7209245429525 476.6793645616226 611.0824109348284 453.39966547217614 644.9884656159597 C 430.1199663827297 678.8945202970908 375.270190084193 727.1824252611718 387.97279135394183 753.8475144333365 C 400.6753926236907 780.5126036055013 475.70767612213086 789.7063806034125 520.2554616287489 785.3310402063005 C 564.803247135367 780.9556998091884 590.0823374900394 758.8636747571461 622.4348203361423 730.8194070801155 Z "
    />
    <title>3:0:offset6</title>
  </g>
  <g stroke-linejoin="round">
    <filter
      id="offset__3:0:offset7-shadow"
      x="0"
      y="0"
      width="200%"
      height="200%"
    >
      <feOffset result="offOut" in="SourceAlpha" dx="5" dy="5" />
      <feGaussianBlur result="blurOut" in="offOut" stdDeviation="4" />
      <feBlend in="SourceGraphic" in2="blurOut" mode="normal" />
      <feComponentTransfer>
        <feFuncA type="linear" slope="0.5" />
      </feComponentTransfer>
      <feMerge>
        <feMergeNode />
        <feMergeNode in="SourceGraphic" />
      </feMerge>
    </filter>
    <path
      fill="none"
      stroke="#222fa8"
      stroke-opacity="1"
      stroke-width="0.6"
      stroke-linecap="butt"
      d="M 625.7139921206824 734.5939308708116 C 658.7912715452227 705.9303885361993 681.0713073961957 680.1107932332902 695.2485782426573 639.3882258626293 C 709.425849089119 598.6656584919683 709.6549082958284 562.8139445502949 700.3312071020594 520.2646289199645 C 691.0075059082903 477.7153132896342 680.5819288965654 446.97592577711566 646.1764666965046 415.4444593872066 C 611.7710044964439 383.9129929972976 546.6570392458948 341.0092492278667 519.2498271017398 354.3095426572853 C 491.84261495758494 367.60983608670387 504.4915777522451 443.74202667222767 501.92798172726833 485.44600375256755 C 499.36438570229154 527.1499808329074 515.7259377525601 544.0763135758311 505.7572164439674 573.8041588696004 C 495.78849513537483 603.5320041633697 472.71923881931474 607.3401669219905 449.4610274715178 641.9083474039845 C 426.2028161237208 676.4765278859785 369.7232225493756 727.5572316383402 383.34557777135177 755.741950880095 C 396.96793299332796 783.9266701218498 475.10763517659854 794.267098793932 521.1576339029714 790.2489749921681 C 567.2076326293442 786.2308511904042 592.636712696142 763.257473205424 625.7139921206824 734.5939308708116 Z "
    />
    <title>3:0:offset7</title>
  </g>
  <g stroke-linejoin="round">
    <filter
      id="offset__3:0:offset8-shadow"
      x="0"
      y="0"
      width="200%"
      height="200%"
    >
      <feOffset result="offOut" in="SourceAlpha" dx="5" dy="5" />
      <feGaussianBlur result="blurOut" in="offOut" stdDeviation="4" />
      <feBlend in="SourceGraphic" in2="blurOut" mode="normal" />
      <feComponentTransfer>
        <feFuncA type="linear" slope="0.5" />
      </feComponentTransfer>
      <feMerge>
        <feMergeNode />
        <feMergeNode in="SourceGraphic" />
      </feMerge>
    </filter>
    <path
      fill="none"
      stroke="#222fa8"
      stroke-opacity="1"
      stroke-width="0.3"
      stroke-linecap="butt"
      d="M 628.9931639052224 738.3684546615077 C 662.7952399082004 709.0856376693137 685.4838539079826 682.6925880631449 699.9654693507617 641.0468203454348 C 714.4470847935409 599.4010526277247 714.7294342588216 562.6839927490332 705.2121925514286 519.180203515665 C 695.6949508440355 475.67641428229683 685.6662233253392 444.23688346176306 649.8747235223773 412.07950859086526 C 614.0832237194153 379.92213371996746 545.8956661230623 335.9779662792175 516.8358777989972 349.93086208988706 C 487.77608947493206 363.8837579005566 499.9340731649899 443.2820588190642 496.9284691851927 485.5158023312311 C 493.92286520539545 527.749545843398 510.78406462999817 543.084361576691 501.01690948427483 572.2137226802389 C 491.2497543385515 601.3430837837868 468.7591130770069 603.5979229091527 445.5223894708594 638.8282291920094 C 422.2856658647119 674.0585354748662 364.17625501455814 727.9320380155086 378.7183641887617 757.6363873268535 C 393.26047336296523 787.3407366381985 474.50759423106626 798.8278169844514 522.0598061771938 795.1669097780357 C 569.6120181233214 791.50600257162 595.1910879022446 767.651271653702 628.9931639052224 738.3684546615077 Z "
    />
    <title>3:0:offset8</title>
  </g>
  <g stroke-linejoin="round">
    <filter
      id="offset__3:0:curve-shadow"
      x="0"
      y="0"
      width="200%"
      height="200%"
    >
      <feOffset result="offOut" in="SourceAlpha" dx="5" dy="5" />
      <feGaussianBlur result="blurOut" in="offOut" stdDeviation="4" />
      <feBlend in="SourceGraphic" in2="blurOut" mode="normal" />
      <feComponentTransfer>
        <feFuncA type="linear" slope="0.5" />
      </feComponentTransfer>
      <feMerge>
        <feMergeNode />
        <feMergeNode in="SourceGraphic" />
      </feMerge>
    </filter>
    <path
      fill="#ffffff"
      fill-opacity="1"
      stroke="#0a600a"
      stroke-opacity="1"
      stroke-width="3"
      stroke-linecap="butt"
      d="M 602.7597896289017 708.172264335939 C 630.763493004379 683.8436446043992 650.1834818136878 662.0382294243077 662.2303404859267 627.7780644829909 C 674.2771991581657 593.5178995416741 674.1332265548757 563.7236071591262 666.164308956475 527.8556067500613 C 658.1953913580743 491.9876063409963 644.9918678951485 466.149221984584 620.2886689153966 438.9991149615962 C 595.5854699356446 411.8490079386084 551.9866511057224 376.22822986841084 536.1474722209387 384.9603066290729 C 520.3082933361549 393.6923833897349 536.3941098630312 446.9618016443716 536.9245695217978 484.95741370192263 C 537.4550291805645 522.9530257594737 550.3190496104933 551.0199775698123 538.9393651618157 584.937212195131 C 527.559680713138 618.8544468204497 500.4401190154697 633.535875011856 477.03149347612634 663.4691748878104 C 453.622867936783 693.4024747637648 408.55199529309755 724.9335869981617 415.7360728494823 742.4808957527857 C 422.92015040586705 760.0282045074098 479.3079217953247 762.342071460296 514.8424279834144 755.8234314910951 C 550.376934171504 749.3047915218942 574.7560862534243 732.5008840674788 602.7597896289017 708.172264335939 Z "
    />
    <title>3:0:curve</title>
  </g>
  <g stroke-linejoin="round">
    <filter
      id="offset__3:0:offset1-shadow"
      x="0"
      y="0"
      width="200%"
      height="200%"
    >
      <feOffset result="offOut" in="SourceAlpha" dx="5" dy="5" />
      <feGaussianBlur result="blurOut" in="offOut" stdDeviation="4" />
      <feBlend in="SourceGraphic" in2="blurOut" mode="normal" />
      <feComponentTransfer>
        <feFuncA type="linear" slope="0.5" />
      </feComponentTransfer>
      <feMerge>
        <feMergeNode />
        <feMergeNode in="SourceGraphic" />
      </feMerge>
    </filter>
    <path
      fill="none"
      stroke="#222fa8"
      stroke-opacity="1"
      stroke-width="2.4"
      stroke-linecap="butt"
      d="M 606.0389614134417 711.946788126635 C 634.7674613673566 686.9988937375135 654.5960283254747 664.6200242541623 666.9472315940311 629.4366589657964 C 679.2984348625876 594.2532936774304 679.2077525178689 563.5936553578647 671.0452944058442 526.7711813457618 C 662.8828362938194 489.94870733365883 650.0761623239223 463.4101796692314 623.9869257412691 435.63416416525484 C 597.897689158616 407.8581486612783 551.2252779828899 371.1969469197617 533.733522918196 380.5816260616746 C 516.2417678535021 389.9663052035876 531.836605275776 446.5018337912082 531.9250569797222 485.0272122805862 C 532.0135086836683 523.5525907699642 545.3771764879314 550.0280255706722 534.1990582021231 583.3467760057695 C 523.0209399163148 616.6655264408669 496.4799932731618 629.7936309990181 473.09285547546796 660.3890566758353 C 449.7057176777741 690.9844823526524 403.00502775828016 725.30839337533 411.10885926689224 744.3753321995441 C 419.2126907755043 763.4422710237584 478.7078808497924 766.9027896508154 515.7446002576368 760.7413662769627 C 552.7813196654812 754.5799429031099 577.3104614595269 736.8946825157566 606.0389614134417 711.946788126635 Z "
    />
    <title>3:0:offset1</title>
  </g>
  <g stroke-linejoin="round">
    <filter
      id="offset__3:0:offset2-shadow"
      x="0"
      y="0"
      width="200%"
      height="200%"
    >
      <feOffset result="offOut" in="SourceAlpha" dx="5" dy="5" />
      <feGaussianBlur result="blurOut" in="offOut" stdDeviation="4" />
      <feBlend in="SourceGraphic" in2="blurOut" mode="normal" />
      <feComponentTransfer>
        <feFuncA type="linear" slope="0.5" />
      </feComponentTransfer>
      <feMerge>
        <feMergeNode />
        <feMergeNode in="SourceGraphic" />
      </feMerge>
    </filter>
    <path
      fill="none"
      stroke="#222fa8"
      stroke-opacity="1"
      stroke-width="2.1"
      stroke-linecap="butt"
      d="M 609.3181331979819 715.7213119173311 C 638.7714297303344 690.1541428706278 659.0085748372614 667.201819084017 671.6641227021355 631.0952534486019 C 684.3196705670094 594.9886878131867 684.2822784808623 563.463703556603 675.9262798552134 525.6867559414623 C 667.5702812295647 487.9098083263214 655.1604567526962 460.67113735387875 627.6851825671417 432.2692133689135 C 600.2099083815873 403.86728938394816 550.4639048600574 366.1656639711125 531.3195736154532 376.20294549427643 C 512.1752423708492 386.2402270174403 527.2791006885209 446.04186593804474 526.9255444376465 485.09701085924974 C 526.5719881867722 524.1521557804548 540.4353033653695 549.036073571532 529.4587512424305 581.756339816408 C 518.4821991194915 614.476606061284 492.51986753085396 626.0513869861802 469.1542174748096 657.3089384638602 C 445.78856741876524 688.5664899415401 397.4580602234627 725.6831997524984 406.4816456843021 746.2697686463027 C 415.5052311451416 766.856337540107 478.1078399042601 771.4635078413348 516.6467725318593 765.6593010628303 C 555.1857051594584 759.8550942843257 579.8648366656294 741.2884809640345 609.3181331979819 715.7213119173311 Z "
    />
    <title>3:0:offset2</title>
  </g>
</svg>
