<svg
  version="1.2"
  xmlns="http://www.w3.org/2000/svg"
  viewBox="0 0 600 400"
  penrose="0"
>
  <penrose>
    <croppedViewBox>
      91.74164512200082 135.85519255759067 402.453417929974 128.0585882296091
    </croppedViewBox>
  </penrose>
  <polyline
    fill="none"
    stroke="#000000"
    stroke-opacity="1"
    stroke-width="2"
    stroke-linecap="butt"
    transform="scale(1)"
    points="170,200,164.80783378658325,196.99310625191816,159.0076176924794,195.2337518301292,152.95435025849272,194.92697910229657,147.01922874281541,196.15527452536642,141.59142555848376,198.85224470151076,137.0146903035002,202.82589223906973,133.54506106333037,207.79573099517546,131.32662414551115,213.4364250781337,130.39720105605346,219.42607079609863,130.71110237495918,225.47928711994643,132.1658271225457,231.36367774448303,134.62400687211863,236.90457100851984,137.93323076290548,241.98342030232973,141.9434465544521,246.52920134863209,146.51679166256372,250.50776579364296,151.5316128086959,253.91291541555444,156.88392187157908,256.7583693659782,162.48726805100756,259.07084890572963,168.27143447946997,260.8846847211185,174.18042204401505,262.23781009839223,180.17034692701736,263.1689590356907,186.20738817787694,263.7158065005319,192.2658874647365,263.91378078719976,198.32641998612786,263.7952647713454,204.3745360850972,263.3890185471365,210.3992040896176,262.71973145257743,216.3919579136599,261.80771989280896,222.34575688281112,260.6689482997705,228.2544236993714,259.3152868503127,234.11186061160095,257.75495704502714,239.91174579056258,255.9929024742433,245.6471522252163,254.03118593293345,251.3101305155092,251.86942950972903,256.8916138596309,249.50509515096354,262.3808734810069,246.93385553241126,267.76526280919575,244.1498072699465,273.02995981453125,241.14561007113286,278.1573080496291,237.91281907000592,283.126620152119,234.44196221703112,287.9132340726471,230.72312627315026,292.48801656688005,226.74639920767473,296.8164984442847,222.5027530645345,300.85819020052554,217.98504268480463,304.56586875047,213.18934068166016,307.8848134543847,208.11677931935156,310.75227990008295,202.77585072521535,313.0971838721381,197.18563425197593,314.8406629529452,191.37961194079054,315.8977839089368,185.41044732311354,316.18118271323766,179.35524437571968,315.6072924608814,173.3208551257364,314.1058425700798,167.44829704108383,311.63294112789237,161.91422938225213,308.18708630748864,156.9274500487493,303.8258263273956,152.71767081624176,298.679096660102,149.51547764497215,292.9538822656361,147.5245127109809,286.92573939649424,146.89054383530177,280.9154220270046,147.6748878371779,275.25412910375815,149.8400845942601,270.24496944889694,153.25282202783893,266.1303115641563,157.70355162593205,263.07220023304853,162.93695933785006,261.148290938207,168.6850838207563,260.3609827613815,174.6953919721246,260.6544676158587,180.75005097485214,261.93433357329286,186.67524840076777,264.0856324145714,192.34257614166611,266.9872394701127,197.66502627576463,270.52184192138316,202.58999945395533,274.58205600081135,207.09166540171958,279.0733575449673,211.16351810481643,283.91489704974833,214.81216287745627,289.03892176417105,218.05230703269515,294.3895001180173,220.90299390742112,299.9209002427549,223.38480699236933,305.59595546410293,225.51795191840006,311.3843766378119,227.32098416395294,317.26138381052164,228.81015875166133,323.20637320395497,229.99915246251095,329.20193085678557,230.8990707984506,335.23295048993083,231.51854847956685,341.285865565304,231.86389177716399,347.34818019777566,231.93927087190295,353.40787195043436,231.74691006906056,359.4531283895441,231.2873840044275,365.4720411328098,230.56029714787076,371.4523871776924,229.56503236890342,377.381610965669,228.3004229132641,383.24614503735245,226.763982998855,389.03149448585185,224.95238225141713,394.72221604661894,222.8628537496149,400.30218575807334,220.49370630544504,405.75376635625554,217.84252396279533,411.0551954575736,214.90267023989918,416.18058150891636,211.6655834018861,421.09947466606656,208.12264508284423,425.7556703849968,204.2409510866322,430,200"
  >
    <title>`c`.poly</title>
  </polyline>
  <g>
    <marker
      id="open-elastic-curve__registry-ClamshellKookabura228-`c`.arrow1-endArrowId"
      markerUnits="strokeWidth"
      markerWidth="9.95"
      markerHeight="8.12"
      viewBox="0 0 9.95 8.12"
      refX="2.36"
      refY="4.06"
      orient="auto-start-reverse"
    >
      <path
        d="M9.95 4.06 0 8.12 2.36 4.06 0 0 9.95 4.06z"
        fill="#22a34d"
        fill-opacity="0.6588235294117647"
      />
    </marker>
    <line
      x1="170"
      y1="200"
      x2="101.96964218870696"
      y2="160.60217466575784"
      stroke="#22a34d"
      stroke-opacity="0.6588235294117647"
      stroke-width="1.5"
      marker-end="url(#open-elastic-curve__registry-ClamshellKookabura228-`c`.arrow1-endArrowId)"
    />
    <title>`c`.arrow1</title>
  </g>
  <g>
    <marker
      id="open-elastic-curve__registry-ClamshellKookabura228-`c`.arrow2-endArrowId"
      markerUnits="strokeWidth"
      markerWidth="9.95"
      markerHeight="8.12"
      viewBox="0 0 9.95 8.12"
      refX="2.36"
      refY="4.06"
      orient="auto-start-reverse"
    >
      <path
        d="M9.95 4.06 0 8.12 2.36 4.06 0 0 9.95 4.06z"
        fill="#22a34d"
        fill-opacity="0.6588235294117647"
      />
    </marker>
    <line
      x1="430"
      y1="200"
      x2="485.61132878057936"
      y2="144.43293838740166"
      stroke="#22a34d"
      stroke-opacity="0.6588235294117647"
      stroke-width="1.5"
      marker-end="url(#open-elastic-curve__registry-ClamshellKookabura228-`c`.arrow2-endArrowId)"
    />
    <title>`c`.arrow2</title>
  </g>
</svg>
