<svg
  version="1.2"
  xmlns="http://www.w3.org/2000/svg"
  viewBox="0 0 100 100"
  penrose="0"
>
  <penrose>
    <croppedViewBox>
      -164.76376342773438 -9.749488830566406 435.80169677734375
      288.45511627197266
    </croppedViewBox>
  </penrose>
  <g>
    <g>
      <line
        x1="49.630950927734375"
        y1="34.642120361328125"
        x2="55.56304740905762"
        y2="59.23702430725098"
        stroke="#888888"
        stroke-opacity="1"
        stroke-width="0.5"
      />
      <title>12:0:epsilonMarker</title>
    </g>
    <g>
      <line
        x1="52.061259269714355"
        y1="34.055949211120605"
        x2="47.200642585754395"
        y2="35.228291511535645"
        stroke="#888888"
        stroke-opacity="1"
        stroke-width="0.5"
      />
      <title>12:0:epsilonMarkerStart</title>
    </g>
    <g>
      <line
        x1="57.9933557510376"
        y1="58.65085315704346"
        x2="53.13273906707764"
        y2="59.823195457458496"
        stroke="#888888"
        stroke-opacity="1"
        stroke-width="0.5"
      />
      <title>12:0:epsilonMarkerEnd</title>
    </g>
    <title>12:0:markerGroup</title>
  </g>
  <g
    transform="rotate(0, 49.68062901496887, 47.642977714538574)translate(47.58362913131714, 45.5099778175354)"
  >
    <title>12:0:epsilonLabel</title>
    <svg
      style="font-size: 9px"
      xmlns="http://www.w3.org/2000/svg"
      width="4.193999767303467"
      height="4.265999794006348"
      role="img"
      focusable="false"
      viewBox="0 -452 466 474"
    >
      <g
        stroke="none"
        fill="#888888"
        stroke-width="0"
        transform="scale(1,-1)"
        fill-opacity="1"
      >
        <g data-mml-node="math">
          <g data-mml-node="mi">
            <path
              data-c="1D700"
              d="M190 -22Q124 -22 76 11T27 107Q27 174 97 232L107 239L99 248Q76 273 76 304Q76 364 144 408T290 452H302Q360 452 405 421Q428 405 428 392Q428 381 417 369T391 356Q382 356 371 365T338 383T283 392Q217 392 167 368T116 308Q116 289 133 272Q142 263 145 262T157 264Q188 278 238 278H243Q308 278 308 247Q308 206 223 206Q177 206 142 219L132 212Q68 169 68 112Q68 39 201 39Q253 39 286 49T328 72T345 94T362 105Q376 103 376 88Q376 79 365 62T334 26T275 -8T190 -22Z"
            />
          </g>
        </g>
      </g>
    </svg>
  </g>
  <g
    transform="rotate(0, 37.371788024902344, 69.11398887634277)translate(32.76648807525635, 66.41488885879517)"
  >
    <title>`x0`.labelText</title>
    <svg
      style="font-size: 9px"
      xmlns="http://www.w3.org/2000/svg"
      width="9.210599899291992"
      height="5.398200035095215"
      role="img"
      focusable="false"
      viewBox="0 -442 1023.4 599.8"
    >
      <g
        stroke="none"
        fill="#000000"
        stroke-width="0"
        transform="scale(1,-1)"
        fill-opacity="1"
      >
        <g data-mml-node="math">
          <g data-mml-node="msub">
            <g data-mml-node="mi">
              <path
                data-c="1D465"
                d="M52 289Q59 331 106 386T222 442Q257 442 286 424T329 379Q371 442 430 442Q467 442 494 420T522 361Q522 332 508 314T481 292T458 288Q439 288 427 299T415 328Q415 374 465 391Q454 404 425 404Q412 404 406 402Q368 386 350 336Q290 115 290 78Q290 50 306 38T341 26Q378 26 414 59T463 140Q466 150 469 151T485 153H489Q504 153 504 145Q504 144 502 134Q486 77 440 33T333 -11Q263 -11 227 52Q186 -10 133 -10H127Q78 -10 57 16T35 71Q35 103 54 123T99 143Q142 143 142 101Q142 81 130 66T107 46T94 41L91 40Q91 39 97 36T113 29T132 26Q168 26 194 71Q203 87 217 139T245 247T261 313Q266 340 266 352Q266 380 251 392T217 404Q177 404 142 372T93 290Q91 281 88 280T72 278H58Q52 284 52 289Z"
              />
            </g>
            <g data-mml-node="mi" transform="translate(605,-150) scale(0.707)">
              <path
                data-c="1D458"
                d="M121 647Q121 657 125 670T137 683Q138 683 209 688T282 694Q294 694 294 686Q294 679 244 477Q194 279 194 272Q213 282 223 291Q247 309 292 354T362 415Q402 442 438 442Q468 442 485 423T503 369Q503 344 496 327T477 302T456 291T438 288Q418 288 406 299T394 328Q394 353 410 369T442 390L458 393Q446 405 434 405H430Q398 402 367 380T294 316T228 255Q230 254 243 252T267 246T293 238T320 224T342 206T359 180T365 147Q365 130 360 106T354 66Q354 26 381 26Q429 26 459 145Q461 153 479 153H483Q499 153 499 144Q499 139 496 130Q455 -11 378 -11Q333 -11 305 15T277 90Q277 108 280 121T283 145Q283 167 269 183T234 206T200 217T182 220H180Q168 178 159 139T145 81T136 44T129 20T122 7T111 -2Q98 -11 83 -11Q66 -11 57 -1T48 16Q48 26 85 176T158 471L195 616Q196 629 188 632T149 637H144Q134 637 131 637T124 640T121 647Z"
              />
            </g>
          </g>
        </g>
      </g>
    </svg>
  </g>
  <circle
    fill="#000000"
    fill-opacity="1"
    cx="35.9649772644043"
    cy="63.281249046325684"
    stroke="none"
    r="1"
  >
    <title>`x0`.icon</title>
  </circle>
  <circle
    fill="#000000"
    fill-opacity="1"
    cx="29.719547271728516"
    cy="37.38724231719971"
    stroke="none"
    r="1"
  >
    <title>`x1`.icon</title>
  </circle>
  <g
    transform="rotate(0, 28.31273651123047, 31.554502487182617)translate(23.707436561584473, 27.428902626037598)"
  >
    <title>`x1`.labelText</title>
    <svg
      style="font-size: 9px"
      xmlns="http://www.w3.org/2000/svg"
      width="9.210599899291992"
      height="8.251199722290039"
      role="img"
      focusable="false"
      viewBox="0 -759 1023.4 916.8"
    >
      <g
        stroke="none"
        fill="#000000"
        stroke-width="0"
        transform="scale(1,-1)"
        fill-opacity="1"
      >
        <g data-mml-node="math">
          <g data-mml-node="msub">
            <g data-mml-node="mover">
              <g data-mml-node="mi">
                <path
                  data-c="1D465"
                  d="M52 289Q59 331 106 386T222 442Q257 442 286 424T329 379Q371 442 430 442Q467 442 494 420T522 361Q522 332 508 314T481 292T458 288Q439 288 427 299T415 328Q415 374 465 391Q454 404 425 404Q412 404 406 402Q368 386 350 336Q290 115 290 78Q290 50 306 38T341 26Q378 26 414 59T463 140Q466 150 469 151T485 153H489Q504 153 504 145Q504 144 502 134Q486 77 440 33T333 -11Q263 -11 227 52Q186 -10 133 -10H127Q78 -10 57 16T35 71Q35 103 54 123T99 143Q142 143 142 101Q142 81 130 66T107 46T94 41L91 40Q91 39 97 36T113 29T132 26Q168 26 194 71Q203 87 217 139T245 247T261 313Q266 340 266 352Q266 380 251 392T217 404Q177 404 142 372T93 290Q91 281 88 280T72 278H58Q52 284 52 289Z"
                />
              </g>
              <g data-mml-node="mo" transform="translate(0,374)">
                <svg
                  width="572"
                  height="237"
                  x="0"
                  y="148"
                  viewBox="143 148 572 237"
                >
                  <path
                    data-c="2013"
                    d="M0 248V285H499V248H0Z"
                    transform="scale(1.716,1)"
                  />
                </svg>
              </g>
            </g>
            <g data-mml-node="mi" transform="translate(605,-150) scale(0.707)">
              <path
                data-c="1D458"
                d="M121 647Q121 657 125 670T137 683Q138 683 209 688T282 694Q294 694 294 686Q294 679 244 477Q194 279 194 272Q213 282 223 291Q247 309 292 354T362 415Q402 442 438 442Q468 442 485 423T503 369Q503 344 496 327T477 302T456 291T438 288Q418 288 406 299T394 328Q394 353 410 369T442 390L458 393Q446 405 434 405H430Q398 402 367 380T294 316T228 255Q230 254 243 252T267 246T293 238T320 224T342 206T359 180T365 147Q365 130 360 106T354 66Q354 26 381 26Q429 26 459 145Q461 153 479 153H483Q499 153 499 144Q499 139 496 130Q455 -11 378 -11Q333 -11 305 15T277 90Q277 108 280 121T283 145Q283 167 269 183T234 206T200 217T182 220H180Q168 178 159 139T145 81T136 44T129 20T122 7T111 -2Q98 -11 83 -11Q66 -11 57 -1T48 16Q48 26 85 176T158 471L195 616Q196 629 188 632T149 637H144Q134 637 131 637T124 640T121 647Z"
              />
            </g>
          </g>
        </g>
      </g>
    </svg>
  </g>
  <g>
    <filter
      id="AbsorbingBoundary__`A`.icon-shadow"
      x="0"
      y="0"
      width="200%"
      height="200%"
    >
      <feOffset result="offOut" in="SourceAlpha" dx="5" dy="5" />
      <feGaussianBlur result="blurOut" in="offOut" stdDeviation="4" />
      <feBlend in="SourceGraphic" in2="blurOut" mode="normal" />
      <feComponentTransfer>
        <feFuncA type="linear" slope="0.5" />
      </feComponentTransfer>
      <feMerge>
        <feMergeNode />
        <feMergeNode in="SourceGraphic" />
      </feMerge>
    </filter>
    <path
      fill="none"
      stroke="#1b1f8a"
      stroke-opacity="0.4000000059604645"
      stroke-width="0.5"
      stroke-linecap="butt"
      d="M 29.719547271728516 37.38724231719971 C 29.746318817138672 37.837249755859375 29.743091583251953 38.60336208343506 29.826629638671875 39.18727111816406 C 29.910167694091797 39.771180152893066 29.96742820739746 39.53808307647705 30.053701400756836 39.72287940979004 C 30.13997459411621 39.90767574310303 30.000289916992188 39.81622314453125 30.171722412109375 39.9264554977417 C 30.343154907226562 40.03668785095215 30.625396728515625 39.92435264587402 30.73942756652832 40.16380786895752 C 30.853458404541016 40.403263092041016 30.438648223876953 40.53835105895996 30.62784194946289 40.88427734375 C 30.817035675048828 41.23020362854004 31.34178924560547 41.2496862411499 31.496198654174805 41.54751491546631 C 31.65060806274414 41.845343589782715 31.34650421142578 42.08992862701416 31.2454776763916 42.07559156417847 C 31.144451141357422 42.06125450134277 31.239526748657227 41.65405464172363 31.09209442138672 41.490166664123535 C 30.94466209411621 41.32627868652344 30.647388458251953 41.42120933532715 30.655750274658203 41.4200382232666 C 30.664112091064453 41.418867111206055 30.768726348876953 41.30965232849121 31.12554168701172 41.485483169555664 C 31.482357025146484 41.66131401062012 31.754302978515625 41.940433502197266 32.083011627197266 42.12336206436157 C 32.411720275878906 42.30629110336304 32.30132293701172 42.18642616271973 32.44037628173828 42.21719932556152 C 32.579429626464844 42.24797248840332 32.61250114440918 42.100353717803955 32.63922119140625 42.24645519256592 C 32.66594123840332 42.39255666732788 32.80539512634277 42.75623035430908 32.547258377075195 42.80160570144653 C 32.28912162780762 42.846981048583984 31.875341415405273 42.53009033203125 31.606674194335938 42.42795658111572 C 31.3380069732666 42.325822830200195 31.466672897338867 42.500874519348145 31.47258758544922 42.39307165145874 C 31.47850227355957 42.285268783569336 31.845640182495117 42.10357475280762 31.630334854125977 41.99674415588379 C 31.415029525756836 41.88991355895996 30.90478515625 42.02833795547485 30.611364364624023 41.96574878692627 C 30.317943572998047 41.903160095214844 30.48335075378418 41.88090515136719 30.456653594970703 41.74638748168945 C 30.429956436157227 41.61186981201172 30.17092514038086 41.43583106994629 30.504573822021484 41.427680015563965 C 30.83822250366211 41.41952896118164 31.458215713500977 41.72225379943848 31.791244506835938 41.713783264160156 C 32.1242733001709 41.705312728881836 32.092315673828125 41.5137825012207 31.836687088012695 41.39379596710205 C 31.581058502197266 41.2738094329834 31.000429153442383 41.138559341430664 30.768733978271484 41.233835220336914 C 30.537038803100586 41.329111099243164 30.76617431640625 41.56838417053223 30.9099063873291 41.77489948272705 C 31.053638458251953 41.981414794921875 31.11178970336914 41.988553047180176 31.343666076660156 42.059897899627686 C 31.575542449951172 42.131242752075195 31.77893829345703 41.75631618499756 31.837411880493164 42.06027841567993 C 31.895885467529297 42.364240646362305 32.05216598510742 43.03104782104492 31.577560424804688 43.275747776031494 C 31.102954864501953 43.520447731018066 30.220741271972656 43.12822103500366 29.93899154663086 43.03907871246338 C 29.657241821289062 42.949936389923096 30.27256965637207 42.914416790008545 30.4505615234375 42.91917848587036 C 30.62855339050293 42.92394018173218 30.47890853881836 43.114487171173096 30.65096092224121 43.058125019073486 C 30.823013305664062 43.00176286697388 30.870214462280273 42.79489707946777 31.138774871826172 42.69373035430908 C 31.40733528137207 42.59256362915039 31.38140296936035 42.60777425765991 31.725204467773438 42.653457164764404 C 32.06900596618652 42.6991400718689 32.16195869445801 42.71391296386719 32.51398277282715 42.87646198272705 C 32.86600685119629 43.039011001586914 32.98381233215332 43.1985969543457 33.13329887390137 43.303654193878174 C 33.282785415649414 43.408711433410645 33.285377502441406 43.260133266448975 33.111928939819336 43.29668998718262 C 32.938480377197266 43.33324670791626 32.48517417907715 43.44374895095825 32.43950271606445 43.449881076812744 C 32.39383125305176 43.456013202667236 32.772539138793945 43.17841863632202 32.929243087768555 43.321218490600586 C 33.085947036743164 43.46401834487915 33.01668739318848 43.900495529174805 33.06632041931152 44.021080493927 C 33.11595344543457 44.1416654586792 33.22282028198242 43.95177221298218 33.12777519226074 43.80355930328369 C 33.03273010253906 43.655346393585205 32.664283752441406 43.4879035949707 32.68613815307617 43.428229331970215 C 32.70799255371094 43.36855506896973 32.92892837524414 43.18233108520508 33.21519660949707 43.5648627281189 C 33.50146484375 43.947394371032715 33.8488655090332 44.70622491836548 33.83120918273926 44.95835638046265 C 33.81355285644531 45.210487842559814 33.345306396484375 44.49146890640259 33.144569396972656 44.57338905334473 C 32.94383239746094 44.655309200286865 32.91585350036621 44.86577796936035 33.02826118469238 45.28603744506836 C 33.140668869018555 45.70629692077637 33.439109802246094 45.963027477264404 33.594200134277344 46.25442695617676 C 33.749290466308594 46.54582643508911 33.66484832763672 46.4142119884491 33.64862251281738 46.45163536071777 C 33.63239669799805 46.48905873298645 33.56524658203125 46.540852546691895 33.529300689697266 46.404120683670044 C 33.49335479736328 46.26738882064819 33.394229888916016 45.90077829360962 33.50483512878418 45.90470743179321 C 33.615440368652344 45.90863656997681 33.71826171875 46.141255617141724 33.971723556518555 46.419837951660156 C 34.22518444061279 46.69842028617859 34.648197174072266 46.81431484222412 34.51867866516113 47.01903700828552 C 34.38916015625 47.223759174346924 33.5875244140625 47.083807706832886 33.45364761352539 47.23872637748718 C 33.31977081298828 47.39364504814148 33.64638900756836 47.78608465194702 33.983171463012695 47.63871192932129 C 34.31995391845703 47.49133920669556 34.73138236999512 46.88948941230774 34.8007755279541 46.64923572540283 C 34.870168685913086 46.408982038497925 34.17988872528076 46.54995894432068 34.2607421875 46.67769694328308 C 34.34159564971924 46.80543494224548 34.79537391662598 47.166808128356934 35.12419033050537 47.16018795967102 C 35.453006744384766 47.15356779098511 35.29459571838379 46.74769639968872 35.57600784301758 46.65121579170227 C 35.85741996765137 46.55473518371582 36.16019248962402 46.97254490852356 36.249839782714844 46.77426528930664 C 36.339487075805664 46.57598567008972 36.03142166137695 46.20448327064514 35.93459892272949 45.858097553253174 C 35.83777618408203 45.511712074279785 36.04300498962402 45.35788297653198 35.86254692077637 45.38872241973877 C 35.68208885192871 45.41956186294556 35.41166305541992 45.88564109802246 35.212764739990234 45.98145532608032 C 35.01386642456055 46.077269315719604 35.34963512420654 45.93253421783447 35.06695556640625 45.7719783782959 C 34.78427600860596 45.611422538757324 34.22581195831299 45.442742347717285 34.08204650878906 45.339231967926025 C 33.93828201293945 45.235721588134766 34.42514896392822 45.32199478149414 34.49189376831055 45.357937812805176 C 34.55863857269287 45.39388084411621 34.44484806060791 45.399245738983154 34.349026679992676 45.48300313949585 C 34.25320529937744 45.566760540008545 34.28249454498291 45.720656871795654 34.10860824584961 45.692967891693115 C 33.934722900390625 45.665278911590576 33.80362319946289 45.459009647369385 33.65348243713379 45.37224769592285 C 33.50334167480469 45.28548574447632 33.47400665283203 45.26272916793823 33.50804328918457 45.345919609069824 C 33.54207992553711 45.429110050201416 33.71216011047363 45.73695087432861 33.78962707519531 45.70500946044922 C 33.86709403991699 45.673068046569824 33.8137149810791 45.19177532196045 33.817909240722656 45.21815490722656 C 33.82210350036621 45.244534492492676 33.70087242126465 45.28505611419678 33.80640411376953 45.81052875518799 C 33.911935806274414 46.3360013961792 34.22415828704834 46.94780492782593 34.24003314971924 47.320045471191406 C 34.25590801239014 47.692286014556885 34.005675315856934 47.22468709945679 33.869903564453125 47.29949116706848 C 33.73413276672363 47.374295234680176 33.69672393798828 47.375232219696045 33.69694709777832 47.619261741638184 C 33.69717025756836 47.86329126358032 33.88962364196777 47.89767909049988 33.87079620361328 48.27560877799988 C 33.85196876525879 48.65353846549988 33.67155075073242 48.714139342308044 33.621639251708984 49.13098067045212 C 33.57172775268555 49.547822028398514 33.611968994140625 50.00290775299072 33.671152114868164 49.9429741948843 C 33.7303352355957 49.88304063677788 33.6583309173584 49.16412663459778 33.85837364196777 48.89124643802643 C 34.05841636657715 48.61836624145508 34.29086208343506 48.690948128700256 34.47132396697998 48.85145342350006 C 34.6517858505249 49.011958718299866 34.386258125305176 49.13670301437378 34.580220222473145 49.53326749801636 C 34.77418231964111 49.929831981658936 34.93419170379639 50.311381340026855 35.24717330932617 50.43771129846573 C 35.56015491485596 50.5640412569046 35.83767890930176 50.36442494392395 35.83214569091797 50.038587257266045 C 35.82661247253418 49.71274954080582 35.2645206451416 49.316654086112976 35.22504234313965 49.13436049222946 C 35.185564041137695 48.95206689834595 35.569321632385254 49.1828795671463 35.67423152923584 49.30941289663315 C 35.779141426086426 49.435946226119995 35.93174076080322 49.502472937107086 35.644680976867676 49.64049369096756 C 35.35762119293213 49.778514459729195 34.99661922454834 49.77530613541603 34.52599239349365 49.861495956778526 C 34.055365562438965 49.9476857855916 34.084486961364746 49.90970378369093 33.76217269897461 49.985253006219864 C 33.439857482910156 50.0608022287488 33.32169532775879 50.073073230683804 33.23673439025879 50.163692846894264 C 33.15177345275879 50.254312455654144 33.4858512878418 50.27241933345795 33.42232704162598 50.34773147106171 C 33.358802795410156 50.423043608665466 32.992923736572266 50.553735077381134 32.98264122009277 50.46494144201279 C 32.97235870361328 50.37614780664444 33.358238220214844 49.99626851081848 33.38119697570801 49.9925569742918 C 33.40415573120117 49.98884543776512 33.21325874328613 50.16083440184593 33.0744743347168 50.45009529590607 C 32.93568992614746 50.73935616016388 32.81949234008789 50.84052789211273 32.82605743408203 51.14960050582886 C 32.83262252807617 51.45867311954498 33.12422180175781 51.552450299263 33.100730895996094 51.68638575077057 C 33.077239990234375 51.82032120227814 32.777204513549805 51.28082573413849 32.732093811035156 51.68534231185913 C 32.68698310852051 52.08985900878906 32.8319091796875 52.94480013847351 32.92028617858887 53.30445218086243 C 33.008663177490234 53.66410422325134 33.017290115356445 53.23456335067749 33.08560562133789 53.123950242996216 C 33.153921127319336 53.01333713531494 33.150848388671875 52.91168403625488 33.19355010986328 52.86199951171875 C 33.23625183105469 52.81231498718262 33.28218460083008 52.797605991363525 33.256412506103516 52.925211668014526 C 33.23064041137695 53.05281734466553 32.95979881286621 53.21325397491455 33.0904598236084 53.37242245674133 C 33.221120834350586 53.531590938568115 33.383544921875 53.28947377204895 33.77905464172363 53.56188607215881 C 34.174564361572266 53.83429837226868 34.43842029571533 54.1548810005188 34.67249870300293 54.462071895599365 C 34.90657711029053 54.76926279067993 34.538408279418945 54.588000774383545 34.71536922454834 54.790650367736816 C 34.892330169677734 54.99329996109009 35.33644390106201 55.073235511779785 35.38034439086914 55.27267074584961 C 35.42424488067627 55.472105979919434 35.1407995223999 55.60078430175781 34.890971183776855 55.58839225769043 C 34.64114284515381 55.57600021362305 34.527482986450195 55.26999521255493 34.38103008270264 55.223103523254395 C 34.23457717895508 55.17621183395386 34.40449810028076 55.41718673706055 34.305158615112305 55.40082502365112 C 34.20581912994385 55.3844633102417 34.10675048828125 55.1885347366333 33.98367118835449 55.157657623291016 C 33.860591888427734 55.12678050994873 34.003668785095215 55.30621337890625 33.812843322753906 55.277315616607666 C 33.62201690673828 55.24841785430908 33.626230239868164 54.99165201187134 33.22036933898926 55.04206609725952 C 32.81450843811035 55.092480182647705 32.61989212036133 55.48641109466553 32.18939971923828 55.47897243499756 C 31.758907318115234 55.47153377532959 31.57587432861328 55.035680294036865 31.498395919799805 55.01231145858765 C 31.420917510986328 54.98894262313843 31.467748641967773 55.38322830200195 31.879484176635742 55.385496616363525 C 32.29121971130371 55.3877649307251 32.75880813598633 54.97706174850464 33.14533996582031 55.02138376235962 C 33.5318717956543 55.0657057762146 33.42366027832031 55.38344764709473 33.42561149597168 55.562785148620605 C 33.42756271362305 55.742122650146484 33.04079055786133 55.66977071762085 33.153141021728516 55.73873329162598 C 33.2654914855957 55.8076958656311 33.60048866271973 55.58299970626831 33.87501525878906 55.838634967803955 C 34.1495418548584 56.0942702293396 34.10235595703125 56.5976824760437 34.25124645233154 56.761274337768555 C 34.400136947631836 56.92486619949341 34.54021072387695 56.69169044494629 34.47057819366455 56.49300193786621 C 34.40094566345215 56.29431343078613 34.0551700592041 56.155014514923096 33.97271728515625 55.9665207862854 C 33.8902645111084 55.778027057647705 34.0249547958374 55.558531761169434 34.14076614379883 55.73902750015259 C 34.256577491760254 55.91952323913574 34.557193756103516 56.4966254234314 34.43596363067627 56.68850326538086 C 34.31473350524902 56.88038110733032 33.511436462402344 56.55887508392334 33.65584754943848 56.5065393447876 C 33.80025863647461 56.454203605651855 34.79609298706055 56.26233100891113 35.01360893249512 56.47916030883789 C 35.23112487792969 56.69598960876465 34.78607177734375 56.97387933731079 34.52591133117676 57.37385559082031 C 34.265750885009766 57.773831844329834 34.14196014404297 58.094919204711914 33.97296905517578 58.07906532287598 C 33.803977966308594 58.06321144104004 33.86952018737793 57.394230365753174 33.84994697570801 57.310439109802246 C 33.830373764038086 57.22664785385132 33.73469352722168 57.82076549530029 33.894676208496094 57.74389982223511 C 34.054659843444824 57.66703414916992 34.26088333129883 57.05951452255249 34.48988056182861 57.00297737121582 C 34.7188777923584 56.94644021987915 34.67477321624756 57.45174217224121 34.81066608428955 57.51775074005127 C 34.94655895233154 57.58375930786133 35.01213550567627 57.387370586395264 35.03345203399658 57.2670111656189 C 35.054768562316895 57.14665174484253 35.14281177520752 56.84069633483887 34.89593315124512 57.03631258010864 C 34.649054527282715 57.23192882537842 34.406972885131836 57.499908447265625 34.045936584472656 58.04947566986084 C 33.68490028381348 58.599042892456055 33.66272163391113 58.75023937225342 33.451786041259766 59.234580993652344 C 33.2408504486084 59.71892261505127 33.03274345397949 59.833356857299805 33.202192306518555 59.98684310913086 C 33.37164115905762 60.140329360961914 33.930320739746094 59.74321269989014 34.12958240509033 59.84852600097656 C 34.32884407043457 59.95383930206299 34.011735916137695 60.02442455291748 33.99923896789551 60.40809726715088 C 33.98674201965332 60.79176998138428 34.187615394592285 61.03272247314453 34.0795955657959 61.38321590423584 C 33.97157669067383 61.73370933532715 33.50980758666992 61.67754650115967 33.56715965270996 61.81007194519043 C 33.62451171875 61.94259738922119 34.15017509460449 61.88535118103027 34.309006690979004 61.91331672668457 C 34.467838287353516 61.94128227233887 34.14007091522217 61.809932708740234 34.202484130859375 61.921932220458984 C 34.26489734649658 62.033931732177734 34.536227226257324 62.40602493286133 34.55865955352783 62.3613166809082 C 34.58109188079834 62.31660842895508 34.2656831741333 61.94353103637695 34.29221248626709 61.7431001663208 C 34.31874179840088 61.54266929626465 34.35217571258545 61.71114253997803 34.66477584838867 61.55959129333496 C 34.977375984191895 61.408040046691895 35.31593894958496 61.17950630187988 35.54261302947998 61.13689613342285 C 35.769287109375 61.09428596496582 35.41647720336914 61.451194763183594 35.571471214294434 61.38915157318115 C 35.72646522521973 61.32710838317871 35.87728786468506 60.69744110107422 36.162588119506836 60.88872241973877 C 36.44788837432861 61.08000373840332 36.70792865753174 61.7431640625 36.71267223358154 62.15427494049072 C 36.71741580963135 62.565385818481445 36.36848735809326 62.251420974731445 36.18156337738037 62.53316402435303 C 35.99463939666748 62.81490707397461 36.019124031066895 63.09422779083252 35.9649772644043 63.281249046325684"
    />
    <title>`A`.icon</title>
  </g>
  <g
    transform="rotate(0, 8.40133285522461, 34.299625396728516)translate(2.605332851409912, 30.98312544822693)"
  >
    <title>`D`.labelText</title>
    <svg
      style="font-size: 9px"
      xmlns="http://www.w3.org/2000/svg"
      width="11.592000007629395"
      height="6.632999897003174"
      role="img"
      focusable="false"
      viewBox="0 -715 1288 737"
    >
      <g
        stroke="none"
        fill="#000000"
        stroke-width="0"
        transform="scale(1,-1)"
        fill-opacity="1"
      >
        <g data-mml-node="math">
          <g data-mml-node="mi">
            <path
              data-c="1D715"
              d="M202 508Q179 508 169 520T158 547Q158 557 164 577T185 624T230 675T301 710L333 715H345Q378 715 384 714Q447 703 489 661T549 568T566 457Q566 362 519 240T402 53Q321 -22 223 -22Q123 -22 73 56Q42 102 42 148V159Q42 276 129 370T322 465Q383 465 414 434T455 367L458 378Q478 461 478 515Q478 603 437 639T344 676Q266 676 223 612Q264 606 264 572Q264 547 246 528T202 508ZM430 306Q430 372 401 400T333 428Q270 428 222 382Q197 354 183 323T150 221Q132 149 132 116Q132 21 232 21Q244 21 250 22Q327 35 374 112Q389 137 409 196T430 306Z"
            />
          </g>
          <g data-mml-node="mi" transform="translate(566,0)">
            <path
              data-c="3A9"
              d="M55 454Q55 503 75 546T127 617T197 665T272 695T337 704H352Q396 704 404 703Q527 687 596 615T666 454Q666 392 635 330T559 200T499 83V80H543Q589 81 600 83T617 93Q622 102 629 135T636 172L637 177H677V175L660 89Q645 3 644 2V0H552H488Q461 0 456 3T451 20Q451 89 499 235T548 455Q548 512 530 555T483 622T424 656T361 668Q332 668 303 658T243 626T193 560T174 456Q174 380 222 233T270 20Q270 7 263 0H77V2Q76 3 61 89L44 175V177H84L85 172Q85 171 88 155T96 119T104 93Q109 86 120 84T178 80H222V83Q206 132 162 199T87 329T55 454Z"
            />
          </g>
        </g>
      </g>
    </svg>
  </g>
  <polygon
    fill="#000000"
    fill-opacity="0.20000000298023224"
    stroke="none"
    transform="scale(1)"
    points="231.01419067382812,18.976940155029297,-157.83517456054688,112.76433944702148,-164.70513916015625,84.28094100952148,224.14422607421875,-9.506458282470703"
  >
    <title>`D`.epsilonShell</title>
  </polygon>
  <g>
    <line
      x1="224.14422607421875"
      y1="-9.506458282470703"
      x2="-164.70513916015625"
      y2="84.28094100952148"
      stroke="#000000"
      stroke-opacity="1"
      stroke-width="0.5"
    />
    <title>`D`.boundary</title>
  </g>
  <polygon
    fill="#000000"
    fill-opacity="0.13333334028720856"
    stroke="none"
    transform="scale(1)"
    points="224.14422607421875,-9.506458282470703,-164.70513916015625,84.28094100952148,-117.81143188476562,278.70562744140625,271.0379333496094,184.91822814941406"
  >
    <title>`D`.icon</title>
  </polygon>
</svg>
