<svg
  version="1.2"
  xmlns="http://www.w3.org/2000/svg"
  viewBox="0 0 600 600"
  penrose="0"
>
  <penrose><croppedViewBox>0 0 600 600</croppedViewBox></penrose>
  <rect
    x="0"
    y="0"
    width="600"
    height="600"
    fill="#e6ffe6"
    fill-opacity="1"
    stroke="none"
    rx="0"
    transform="rotate(0, 300, 300)"
  >
    <title>global.background</title>
  </rect>
  <rect
    x="129.37861017336795"
    y="19.277937653507443"
    width="5.1088205029935665"
    height="29.99976316084071"
    fill="#a5cc00"
    fill-opacity="1"
    stroke="none"
    rx="0"
    transform="rotate(0, 131.93302042486474, 34.2778192339278)"
  >
    <title>`p_13`.rect</title>
  </rect>
  <rect
    x="413.05755239523495"
    y="261.4650560186972"
    width="22.636517188886796"
    height="22.718726292995797"
    fill="#cc0012"
    fill-opacity="1"
    stroke="none"
    rx="0"
    transform="rotate(0, 424.37581098967837, 272.82441916519514)"
  >
    <title>`p_18`.rect</title>
  </rect>
  <rect
    x="148.06481257618032"
    y="98.88551135596117"
    width="10.905375116339144"
    height="29.292520345475115"
    fill="#90cc00"
    fill-opacity="1"
    stroke="none"
    rx="0"
    transform="rotate(0, 153.5175001343499, 113.53177152869873)"
  >
    <title>`p_10`.rect</title>
  </rect>
  <rect
    x="167.5808508694535"
    y="594.9376659606111"
    width="29.99996994171278"
    height="5.0387674277883585"
    fill="#cc8600"
    fill-opacity="1"
    stroke="none"
    rx="0"
    transform="rotate(0, 182.5808358403099, 597.4570496745052)"
  >
    <title>`p_19`.rect</title>
  </rect>
  <rect
    x="387.9008700813697"
    y="448.10968979591144"
    width="29.072794025721812"
    height="11.745412351752279"
    fill="#a300cc"
    fill-opacity="1"
    stroke="none"
    rx="0"
    transform="rotate(0, 402.4372670942306, 453.9823959717876)"
  >
    <title>`p_2`.rect</title>
  </rect>
  <rect
    x="376.2007216551061"
    y="319.95069095174"
    width="24.799702369535865"
    height="20.263413316745236"
    fill="#cc00ab"
    fill-opacity="1"
    stroke="none"
    rx="0"
    transform="rotate(0, 388.6005728398741, 330.0823976101126)"
  >
    <title>`p_11`.rect</title>
  </rect>
  <rect
    x="292.21568972752215"
    y="174.7672609977604"
    width="17.35583821988737"
    height="26.733229439822573"
    fill="#000ecc"
    fill-opacity="1"
    stroke="none"
    rx="0"
    transform="rotate(0, 300.8936088374658, 188.13387571767169)"
  >
    <title>`p_6`.rect</title>
  </rect>
  <rect
    x="288.09414921788056"
    y="33.97083820450071"
    width="7.115482819030656"
    height="29.91033384847313"
    fill="#0056cc"
    fill-opacity="1"
    stroke="none"
    rx="0"
    transform="rotate(0, 291.65189062739586, 48.92600512873727)"
  >
    <title>`p_4`.rect</title>
  </rect>
  <rect
    x="243.30746135123763"
    y="318.0607688598508"
    width="24.280849453601288"
    height="20.913794153110153"
    fill="#00cc7b"
    fill-opacity="1"
    stroke="none"
    rx="0"
    transform="rotate(0, 255.44788607803827, 328.5176659364059)"
  >
    <title>`p_5`.rect</title>
  </rect>
  <rect
    x="238.42324582447307"
    y="72.2219133304178"
    width="10.33338977896841"
    height="29.424474476753748"
    fill="#009fcc"
    fill-opacity="1"
    stroke="none"
    rx="0"
    transform="rotate(0, 243.58994071395728, 86.93415056879468)"
  >
    <title>`p_12`.rect</title>
  </rect>
  <rect
    x="252.88815797131886"
    y="0.000003870592399479733"
    width="7.137222977403585"
    height="29.908478033490088"
    fill="#2b00cc"
    fill-opacity="1"
    stroke="none"
    rx="0"
    transform="rotate(0, 256.45676946002067, 14.954242887337443)"
  >
    <title>`p_14`.rect</title>
  </rect>
  <rect
    x="181.3290191627204"
    y="211.23687669025034"
    width="18.775357956273005"
    height="25.862394713372336"
    fill="#56cc00"
    fill-opacity="1"
    stroke="none"
    rx="0"
    transform="rotate(0, 190.71669814085692, 224.1680740469365)"
  >
    <title>`p_17`.rect</title>
  </rect>
  <rect
    x="317.2798953989905"
    y="279.2432561431603"
    width="23.315030152145127"
    height="22.016452936085557"
    fill="#1700cc"
    fill-opacity="1"
    stroke="none"
    rx="0"
    transform="rotate(0, 328.9374104750631, 290.2514826112031)"
  >
    <title>`p_9`.rect</title>
  </rect>
  <rect
    x="116.13599158446368"
    y="224.70519361895057"
    width="18.82676485730502"
    height="25.828359838950234"
    fill="#cc5a00"
    fill-opacity="1"
    stroke="none"
    rx="0"
    transform="rotate(0, 125.54937401311619, 237.6193735384257)"
  >
    <title>`p_0`.rect</title>
  </rect>
  <rect
    x="152.8264105225304"
    y="299.4408960659796"
    width="23.087940653108532"
    height="22.257647665009962"
    fill="#b2cc00"
    fill-opacity="1"
    stroke="none"
    rx="0"
    transform="rotate(0, 164.37038084908468, 310.56971989848455)"
  >
    <title>`p_1`.rect</title>
  </rect>
  <rect
    x="197.9566655120461"
    y="506.2803735984893"
    width="29.436173996906916"
    height="10.279526531128546"
    fill="#78cc00"
    fill-opacity="1"
    stroke="none"
    rx="0"
    transform="rotate(0, 212.67475251049956, 511.4201368640536)"
  >
    <title>`p_15`.rect</title>
  </rect>
  <rect
    x="197.52602697075264"
    y="279.0696941940148"
    width="22.912192058134664"
    height="22.439993568591056"
    fill="#44cc00"
    fill-opacity="1"
    stroke="none"
    rx="0"
    transform="rotate(0, 208.98212299981998, 290.2896909783103)"
  >
    <title>`p_7`.rect</title>
  </rect>
  <rect
    x="453.3243642424135"
    y="485.5796309881214"
    width="29.62949988852522"
    height="9.288092261266776"
    fill="#cc001e"
    fill-opacity="1"
    stroke="none"
    rx="0"
    transform="rotate(0, 468.13911418667607, 490.2236771187548)"
  >
    <title>`p_16`.rect</title>
  </rect>
  <rect
    x="242.43375981103182"
    y="410.0018012134659"
    width="27.823840701571225"
    height="15.201582996246255"
    fill="#00cc6c"
    fill-opacity="1"
    stroke="none"
    rx="0"
    transform="rotate(0, 256.3456801618174, 417.602592711589)"
  >
    <title>`p_8`.rect</title>
  </rect>
  <rect
    x="294.1630185403034"
    y="106.52098854512093"
    width="13.194054340164863"
    height="28.61900661480972"
    fill="#1b00cc"
    fill-opacity="1"
    stroke="none"
    rx="0"
    transform="rotate(0, 300.76004571038584, 120.8304918525258)"
  >
    <title>`p_3`.rect</title>
  </rect>
</svg>
