<svg
  version="1.2"
  xmlns="http://www.w3.org/2000/svg"
  viewBox="0 0 240 200"
  penrose="0"
>
  <penrose>
    <croppedViewBox>
      23.90715789794922 51.12928009033203 111.93048858642578 107.78362274169922
    </croppedViewBox>
  </penrose>
  <g>
    <filter
      id="quaternion-cayley-graph__7:1:pathOutline-shadow"
      x="0"
      y="0"
      width="200%"
      height="200%"
    >
      <feOffset result="offOut" in="SourceAlpha" dx="5" dy="5" />
      <feGaussianBlur result="blurOut" in="offOut" stdDeviation="4" />
      <feBlend in="SourceGraphic" in2="blurOut" mode="normal" />
      <feComponentTransfer>
        <feFuncA type="linear" slope="0.5" />
      </feComponentTransfer>
      <feMerge>
        <feMergeNode />
        <feMergeNode in="SourceGraphic" />
      </feMerge>
    </filter>
    <path
      fill="none"
      stroke="#ffffff"
      stroke-opacity="1"
      stroke-width="3"
      stroke-linecap="butt"
      d="M 114.63167476654053 65.19699096679688 Q 94.6893539428711 69.09282684326172 76.95584106445312 61.19369888305664"
    />
    <title>7:1:pathOutline</title>
  </g>
  <g>
    <marker
      id="quaternion-cayley-graph__7:1:orientedPath-endArrowId"
      markerUnits="strokeWidth"
      markerWidth="7.46"
      markerHeight="6.09"
      viewBox="0 0 9.95 8.12"
      refX="2.36"
      refY="4.06"
      orient="auto-start-reverse"
    >
      <path
        d="M9.95 4.06 0 8.12 2.36 4.06 0 0 9.95 4.06z"
        fill="#f143ad"
        fill-opacity="1"
      />
    </marker>
    <filter
      id="quaternion-cayley-graph__7:1:orientedPath-shadow"
      x="0"
      y="0"
      width="200%"
      height="200%"
    >
      <feOffset result="offOut" in="SourceAlpha" dx="5" dy="5" />
      <feGaussianBlur result="blurOut" in="offOut" stdDeviation="4" />
      <feBlend in="SourceGraphic" in2="blurOut" mode="normal" />
      <feComponentTransfer>
        <feFuncA type="linear" slope="0.5" />
      </feComponentTransfer>
      <feMerge>
        <feMergeNode />
        <feMergeNode in="SourceGraphic" />
      </feMerge>
    </filter>
    <path
      fill="none"
      stroke="#f143ad"
      stroke-opacity="1"
      stroke-width="1"
      stroke-linecap="butt"
      d="M 114.63167476654053 65.19699096679688 Q 94.6893539428711 69.09282684326172 76.95584106445312 61.19369888305664"
      marker-end="url(#quaternion-cayley-graph__7:1:orientedPath-endArrowId)"
    />
    <title>7:1:orientedPath</title>
  </g>
  <g>
    <filter
      id="quaternion-cayley-graph__7:9:pathOutline-shadow"
      x="0"
      y="0"
      width="200%"
      height="200%"
    >
      <feOffset result="offOut" in="SourceAlpha" dx="5" dy="5" />
      <feGaussianBlur result="blurOut" in="offOut" stdDeviation="4" />
      <feBlend in="SourceGraphic" in2="blurOut" mode="normal" />
      <feComponentTransfer>
        <feFuncA type="linear" slope="0.5" />
      </feComponentTransfer>
      <feMerge>
        <feMergeNode />
        <feMergeNode in="SourceGraphic" />
      </feMerge>
    </filter>
    <path
      fill="none"
      stroke="#ffffff"
      stroke-opacity="1"
      stroke-width="3"
      stroke-linecap="butt"
      d="M 114.63167476654053 65.19699096679688 Q 77.87016296386719 77.75511741638184 39.494773864746094 78.42226028442383"
    />
    <title>7:9:pathOutline</title>
  </g>
  <g>
    <marker
      id="quaternion-cayley-graph__7:9:orientedPath-endArrowId"
      markerUnits="strokeWidth"
      markerWidth="7.46"
      markerHeight="6.09"
      viewBox="0 0 9.95 8.12"
      refX="2.36"
      refY="4.06"
      orient="auto-start-reverse"
    >
      <path
        d="M9.95 4.06 0 8.12 2.36 4.06 0 0 9.95 4.06z"
        fill="#87904d"
        fill-opacity="1"
      />
    </marker>
    <filter
      id="quaternion-cayley-graph__7:9:orientedPath-shadow"
      x="0"
      y="0"
      width="200%"
      height="200%"
    >
      <feOffset result="offOut" in="SourceAlpha" dx="5" dy="5" />
      <feGaussianBlur result="blurOut" in="offOut" stdDeviation="4" />
      <feBlend in="SourceGraphic" in2="blurOut" mode="normal" />
      <feComponentTransfer>
        <feFuncA type="linear" slope="0.5" />
      </feComponentTransfer>
      <feMerge>
        <feMergeNode />
        <feMergeNode in="SourceGraphic" />
      </feMerge>
    </filter>
    <path
      fill="none"
      stroke="#87904d"
      stroke-opacity="1"
      stroke-width="1"
      stroke-linecap="butt"
      d="M 114.63167476654053 65.19699096679688 Q 77.87016296386719 77.75511741638184 39.494773864746094 78.42226028442383"
      marker-end="url(#quaternion-cayley-graph__7:9:orientedPath-endArrowId)"
    />
    <title>7:9:orientedPath</title>
  </g>
  <g>
    <filter
      id="quaternion-cayley-graph__7:2:pathOutline-shadow"
      x="0"
      y="0"
      width="200%"
      height="200%"
    >
      <feOffset result="offOut" in="SourceAlpha" dx="5" dy="5" />
      <feGaussianBlur result="blurOut" in="offOut" stdDeviation="4" />
      <feBlend in="SourceGraphic" in2="blurOut" mode="normal" />
      <feComponentTransfer>
        <feFuncA type="linear" slope="0.5" />
      </feComponentTransfer>
      <feMerge>
        <feMergeNode />
        <feMergeNode in="SourceGraphic" />
      </feMerge>
    </filter>
    <path
      fill="none"
      stroke="#ffffff"
      stroke-opacity="1"
      stroke-width="3"
      stroke-linecap="butt"
      d="M 84.4051742553711 100.50867515802383 Q 104.13698196411133 97.00001645088196 121.39562058448792 105.23373699188232"
    />
    <title>7:2:pathOutline</title>
  </g>
  <g>
    <marker
      id="quaternion-cayley-graph__7:2:orientedPath-endArrowId"
      markerUnits="strokeWidth"
      markerWidth="7.46"
      markerHeight="6.09"
      viewBox="0 0 9.95 8.12"
      refX="2.36"
      refY="4.06"
      orient="auto-start-reverse"
    >
      <path
        d="M9.95 4.06 0 8.12 2.36 4.06 0 0 9.95 4.06z"
        fill="#f143ad"
        fill-opacity="1"
      />
    </marker>
    <filter
      id="quaternion-cayley-graph__7:2:orientedPath-shadow"
      x="0"
      y="0"
      width="200%"
      height="200%"
    >
      <feOffset result="offOut" in="SourceAlpha" dx="5" dy="5" />
      <feGaussianBlur result="blurOut" in="offOut" stdDeviation="4" />
      <feBlend in="SourceGraphic" in2="blurOut" mode="normal" />
      <feComponentTransfer>
        <feFuncA type="linear" slope="0.5" />
      </feComponentTransfer>
      <feMerge>
        <feMergeNode />
        <feMergeNode in="SourceGraphic" />
      </feMerge>
    </filter>
    <path
      fill="none"
      stroke="#f143ad"
      stroke-opacity="1"
      stroke-width="1"
      stroke-linecap="butt"
      d="M 84.4051742553711 100.50867515802383 Q 104.13698196411133 97.00001645088196 121.39562058448792 105.23373699188232"
      marker-end="url(#quaternion-cayley-graph__7:2:orientedPath-endArrowId)"
    />
    <title>7:2:orientedPath</title>
  </g>
  <g>
    <filter
      id="quaternion-cayley-graph__7:0:pathOutline-shadow"
      x="0"
      y="0"
      width="200%"
      height="200%"
    >
      <feOffset result="offOut" in="SourceAlpha" dx="5" dy="5" />
      <feGaussianBlur result="blurOut" in="offOut" stdDeviation="4" />
      <feBlend in="SourceGraphic" in2="blurOut" mode="normal" />
      <feComponentTransfer>
        <feFuncA type="linear" slope="0.5" />
      </feComponentTransfer>
      <feMerge>
        <feMergeNode />
        <feMergeNode in="SourceGraphic" />
      </feMerge>
    </filter>
    <path
      fill="none"
      stroke="#ffffff"
      stroke-opacity="1"
      stroke-width="3"
      stroke-linecap="butt"
      d="M 116.35949087142944 151.41290283203125 Q 108.09727001190186 113.45421886444092 111.83264255523682 75.25509452819824"
    />
    <title>7:0:pathOutline</title>
  </g>
  <g>
    <marker
      id="quaternion-cayley-graph__7:0:orientedPath-endArrowId"
      markerUnits="strokeWidth"
      markerWidth="7.46"
      markerHeight="6.09"
      viewBox="0 0 9.95 8.12"
      refX="2.36"
      refY="4.06"
      orient="auto-start-reverse"
    >
      <path
        d="M9.95 4.06 0 8.12 2.36 4.06 0 0 9.95 4.06z"
        fill="#f143ad"
        fill-opacity="1"
      />
    </marker>
    <filter
      id="quaternion-cayley-graph__7:0:orientedPath-shadow"
      x="0"
      y="0"
      width="200%"
      height="200%"
    >
      <feOffset result="offOut" in="SourceAlpha" dx="5" dy="5" />
      <feGaussianBlur result="blurOut" in="offOut" stdDeviation="4" />
      <feBlend in="SourceGraphic" in2="blurOut" mode="normal" />
      <feComponentTransfer>
        <feFuncA type="linear" slope="0.5" />
      </feComponentTransfer>
      <feMerge>
        <feMergeNode />
        <feMergeNode in="SourceGraphic" />
      </feMerge>
    </filter>
    <path
      fill="none"
      stroke="#f143ad"
      stroke-opacity="1"
      stroke-width="1"
      stroke-linecap="butt"
      d="M 116.35949087142944 151.41290283203125 Q 108.09727001190186 113.45421886444092 111.83264255523682 75.25509452819824"
      marker-end="url(#quaternion-cayley-graph__7:0:orientedPath-endArrowId)"
    />
    <title>7:0:orientedPath</title>
  </g>
  <g>
    <filter
      id="quaternion-cayley-graph__7:13:pathOutline-shadow"
      x="0"
      y="0"
      width="200%"
      height="200%"
    >
      <feOffset result="offOut" in="SourceAlpha" dx="5" dy="5" />
      <feGaussianBlur result="blurOut" in="offOut" stdDeviation="4" />
      <feBlend in="SourceGraphic" in2="blurOut" mode="normal" />
      <feComponentTransfer>
        <feFuncA type="linear" slope="0.5" />
      </feComponentTransfer>
      <feMerge>
        <feMergeNode />
        <feMergeNode in="SourceGraphic" />
      </feMerge>
    </filter>
    <path
      fill="none"
      stroke="#ffffff"
      stroke-opacity="1"
      stroke-width="3"
      stroke-linecap="butt"
      d="M 42.03388214111328 119.97708892822266 Q 80.50752258300781 108.1959228515625 120.29439896345139 108.34268188476562"
    />
    <title>7:13:pathOutline</title>
  </g>
  <g>
    <marker
      id="quaternion-cayley-graph__7:13:orientedPath-endArrowId"
      markerUnits="strokeWidth"
      markerWidth="7.46"
      markerHeight="6.09"
      viewBox="0 0 9.95 8.12"
      refX="2.36"
      refY="4.06"
      orient="auto-start-reverse"
    >
      <path
        d="M9.95 4.06 0 8.12 2.36 4.06 0 0 9.95 4.06z"
        fill="#87904d"
        fill-opacity="1"
      />
    </marker>
    <filter
      id="quaternion-cayley-graph__7:13:orientedPath-shadow"
      x="0"
      y="0"
      width="200%"
      height="200%"
    >
      <feOffset result="offOut" in="SourceAlpha" dx="5" dy="5" />
      <feGaussianBlur result="blurOut" in="offOut" stdDeviation="4" />
      <feBlend in="SourceGraphic" in2="blurOut" mode="normal" />
      <feComponentTransfer>
        <feFuncA type="linear" slope="0.5" />
      </feComponentTransfer>
      <feMerge>
        <feMergeNode />
        <feMergeNode in="SourceGraphic" />
      </feMerge>
    </filter>
    <path
      fill="none"
      stroke="#87904d"
      stroke-opacity="1"
      stroke-width="1"
      stroke-linecap="butt"
      d="M 42.03388214111328 119.97708892822266 Q 80.50752258300781 108.1959228515625 120.29439896345139 108.34268188476562"
      marker-end="url(#quaternion-cayley-graph__7:13:orientedPath-endArrowId)"
    />
    <title>7:13:orientedPath</title>
  </g>
  <g>
    <filter
      id="quaternion-cayley-graph__7:4:pathOutline-shadow"
      x="0"
      y="0"
      width="200%"
      height="200%"
    >
      <feOffset result="offOut" in="SourceAlpha" dx="5" dy="5" />
      <feGaussianBlur result="blurOut" in="offOut" stdDeviation="4" />
      <feBlend in="SourceGraphic" in2="blurOut" mode="normal" />
      <feComponentTransfer>
        <feFuncA type="linear" slope="0.5" />
      </feComponentTransfer>
      <feMerge>
        <feMergeNode />
        <feMergeNode in="SourceGraphic" />
      </feMerge>
    </filter>
    <path
      fill="none"
      stroke="#ffffff"
      stroke-opacity="1"
      stroke-width="3"
      stroke-linecap="butt"
      d="M 67.67890548706055 56.40428161621094 Q 63.68231964111328 86.35953330993652 48.55708312988281 111.82553482055664"
    />
    <title>7:4:pathOutline</title>
  </g>
  <g>
    <marker
      id="quaternion-cayley-graph__7:4:orientedPath-endArrowId"
      markerUnits="strokeWidth"
      markerWidth="7.46"
      markerHeight="6.09"
      viewBox="0 0 9.95 8.12"
      refX="2.36"
      refY="4.06"
      orient="auto-start-reverse"
    >
      <path
        d="M9.95 4.06 0 8.12 2.36 4.06 0 0 9.95 4.06z"
        fill="#f143ad"
        fill-opacity="1"
      />
    </marker>
    <filter
      id="quaternion-cayley-graph__7:4:orientedPath-shadow"
      x="0"
      y="0"
      width="200%"
      height="200%"
    >
      <feOffset result="offOut" in="SourceAlpha" dx="5" dy="5" />
      <feGaussianBlur result="blurOut" in="offOut" stdDeviation="4" />
      <feBlend in="SourceGraphic" in2="blurOut" mode="normal" />
      <feComponentTransfer>
        <feFuncA type="linear" slope="0.5" />
      </feComponentTransfer>
      <feMerge>
        <feMergeNode />
        <feMergeNode in="SourceGraphic" />
      </feMerge>
    </filter>
    <path
      fill="none"
      stroke="#f143ad"
      stroke-opacity="1"
      stroke-width="1"
      stroke-linecap="butt"
      d="M 67.67890548706055 56.40428161621094 Q 63.68231964111328 86.35953330993652 48.55708312988281 111.82553482055664"
      marker-end="url(#quaternion-cayley-graph__7:4:orientedPath-endArrowId)"
    />
    <title>7:4:orientedPath</title>
  </g>
  <g>
    <filter
      id="quaternion-cayley-graph__7:7:pathOutline-shadow"
      x="0"
      y="0"
      width="200%"
      height="200%"
    >
      <feOffset result="offOut" in="SourceAlpha" dx="5" dy="5" />
      <feGaussianBlur result="blurOut" in="offOut" stdDeviation="4" />
      <feBlend in="SourceGraphic" in2="blurOut" mode="normal" />
      <feComponentTransfer>
        <feFuncA type="linear" slope="0.5" />
      </feComponentTransfer>
      <feMerge>
        <feMergeNode />
        <feMergeNode in="SourceGraphic" />
      </feMerge>
    </filter>
    <path
      fill="none"
      stroke="#ffffff"
      stroke-opacity="1"
      stroke-width="3"
      stroke-linecap="butt"
      d="M 130.5626459121704 110.23030185699463 Q 109.27557182312012 131.678861618042 81.83568954467773 142.82484817504883"
    />
    <title>7:7:pathOutline</title>
  </g>
  <g>
    <marker
      id="quaternion-cayley-graph__7:7:orientedPath-endArrowId"
      markerUnits="strokeWidth"
      markerWidth="7.46"
      markerHeight="6.09"
      viewBox="0 0 9.95 8.12"
      refX="2.36"
      refY="4.06"
      orient="auto-start-reverse"
    >
      <path
        d="M9.95 4.06 0 8.12 2.36 4.06 0 0 9.95 4.06z"
        fill="#f143ad"
        fill-opacity="1"
      />
    </marker>
    <filter
      id="quaternion-cayley-graph__7:7:orientedPath-shadow"
      x="0"
      y="0"
      width="200%"
      height="200%"
    >
      <feOffset result="offOut" in="SourceAlpha" dx="5" dy="5" />
      <feGaussianBlur result="blurOut" in="offOut" stdDeviation="4" />
      <feBlend in="SourceGraphic" in2="blurOut" mode="normal" />
      <feComponentTransfer>
        <feFuncA type="linear" slope="0.5" />
      </feComponentTransfer>
      <feMerge>
        <feMergeNode />
        <feMergeNode in="SourceGraphic" />
      </feMerge>
    </filter>
    <path
      fill="none"
      stroke="#f143ad"
      stroke-opacity="1"
      stroke-width="1"
      stroke-linecap="butt"
      d="M 130.5626459121704 110.23030185699463 Q 109.27557182312012 131.678861618042 81.83568954467773 142.82484817504883"
      marker-end="url(#quaternion-cayley-graph__7:7:orientedPath-endArrowId)"
    />
    <title>7:7:orientedPath</title>
  </g>
  <g>
    <filter
      id="quaternion-cayley-graph__7:14:pathOutline-shadow"
      x="0"
      y="0"
      width="200%"
      height="200%"
    >
      <feOffset result="offOut" in="SourceAlpha" dx="5" dy="5" />
      <feGaussianBlur result="blurOut" in="offOut" stdDeviation="4" />
      <feBlend in="SourceGraphic" in2="blurOut" mode="normal" />
      <feComponentTransfer>
        <feFuncA type="linear" slope="0.5" />
      </feComponentTransfer>
      <feMerge>
        <feMergeNode />
        <feMergeNode in="SourceGraphic" />
      </feMerge>
    </filter>
    <path
      fill="none"
      stroke="#ffffff"
      stroke-opacity="1"
      stroke-width="3"
      stroke-linecap="butt"
      d="M 71.7120132446289 145.37654495239258 Q 90.08569526672363 140.29244232177734 106.85159587860107 147.10013961791992"
    />
    <title>7:14:pathOutline</title>
  </g>
  <g>
    <marker
      id="quaternion-cayley-graph__7:14:orientedPath-endArrowId"
      markerUnits="strokeWidth"
      markerWidth="7.46"
      markerHeight="6.09"
      viewBox="0 0 9.95 8.12"
      refX="2.36"
      refY="4.06"
      orient="auto-start-reverse"
    >
      <path
        d="M9.95 4.06 0 8.12 2.36 4.06 0 0 9.95 4.06z"
        fill="#87904d"
        fill-opacity="1"
      />
    </marker>
    <filter
      id="quaternion-cayley-graph__7:14:orientedPath-shadow"
      x="0"
      y="0"
      width="200%"
      height="200%"
    >
      <feOffset result="offOut" in="SourceAlpha" dx="5" dy="5" />
      <feGaussianBlur result="blurOut" in="offOut" stdDeviation="4" />
      <feBlend in="SourceGraphic" in2="blurOut" mode="normal" />
      <feComponentTransfer>
        <feFuncA type="linear" slope="0.5" />
      </feComponentTransfer>
      <feMerge>
        <feMergeNode />
        <feMergeNode in="SourceGraphic" />
      </feMerge>
    </filter>
    <path
      fill="none"
      stroke="#87904d"
      stroke-opacity="1"
      stroke-width="1"
      stroke-linecap="butt"
      d="M 71.7120132446289 145.37654495239258 Q 90.08569526672363 140.29244232177734 106.85159587860107 147.10013961791992"
      marker-end="url(#quaternion-cayley-graph__7:14:orientedPath-endArrowId)"
    />
    <title>7:14:orientedPath</title>
  </g>
  <g>
    <filter
      id="quaternion-cayley-graph__7:12:pathOutline-shadow"
      x="0"
      y="0"
      width="200%"
      height="200%"
    >
      <feOffset result="offOut" in="SourceAlpha" dx="5" dy="5" />
      <feGaussianBlur result="blurOut" in="offOut" stdDeviation="4" />
      <feBlend in="SourceGraphic" in2="blurOut" mode="normal" />
      <feComponentTransfer>
        <feFuncA type="linear" slope="0.5" />
      </feComponentTransfer>
      <feMerge>
        <feMergeNode />
        <feMergeNode in="SourceGraphic" />
      </feMerge>
    </filter>
    <path
      fill="none"
      stroke="#ffffff"
      stroke-opacity="1"
      stroke-width="3"
      stroke-linecap="butt"
      d="M 67.67890548706055 56.40428161621094 Q 76.96134567260742 95.55591678619385 74.25609970092773 135.2509536743164"
    />
    <title>7:12:pathOutline</title>
  </g>
  <g>
    <marker
      id="quaternion-cayley-graph__7:12:orientedPath-endArrowId"
      markerUnits="strokeWidth"
      markerWidth="7.46"
      markerHeight="6.09"
      viewBox="0 0 9.95 8.12"
      refX="2.36"
      refY="4.06"
      orient="auto-start-reverse"
    >
      <path
        d="M9.95 4.06 0 8.12 2.36 4.06 0 0 9.95 4.06z"
        fill="#87904d"
        fill-opacity="1"
      />
    </marker>
    <filter
      id="quaternion-cayley-graph__7:12:orientedPath-shadow"
      x="0"
      y="0"
      width="200%"
      height="200%"
    >
      <feOffset result="offOut" in="SourceAlpha" dx="5" dy="5" />
      <feGaussianBlur result="blurOut" in="offOut" stdDeviation="4" />
      <feBlend in="SourceGraphic" in2="blurOut" mode="normal" />
      <feComponentTransfer>
        <feFuncA type="linear" slope="0.5" />
      </feComponentTransfer>
      <feMerge>
        <feMergeNode />
        <feMergeNode in="SourceGraphic" />
      </feMerge>
    </filter>
    <path
      fill="none"
      stroke="#87904d"
      stroke-opacity="1"
      stroke-width="1"
      stroke-linecap="butt"
      d="M 67.67890548706055 56.40428161621094 Q 76.96134567260742 95.55591678619385 74.25609970092773 135.2509536743164"
      marker-end="url(#quaternion-cayley-graph__7:12:orientedPath-endArrowId)"
    />
    <title>7:12:orientedPath</title>
  </g>
  <g>
    <filter
      id="quaternion-cayley-graph__7:15:pathOutline-shadow"
      x="0"
      y="0"
      width="200%"
      height="200%"
    >
      <feOffset result="offOut" in="SourceAlpha" dx="5" dy="5" />
      <feGaussianBlur result="blurOut" in="offOut" stdDeviation="4" />
      <feBlend in="SourceGraphic" in2="blurOut" mode="normal" />
      <feComponentTransfer>
        <feFuncA type="linear" slope="0.5" />
      </feComponentTransfer>
      <feMerge>
        <feMergeNode />
        <feMergeNode in="SourceGraphic" />
      </feMerge>
    </filter>
    <path
      fill="none"
      stroke="#ffffff"
      stroke-opacity="1"
      stroke-width="3"
      stroke-linecap="butt"
      d="M 130.5626459121704 110.23030185699463 Q 117.194082736969 94.92868280410767 115.13849353790283 75.6249885559082"
    />
    <title>7:15:pathOutline</title>
  </g>
  <g>
    <marker
      id="quaternion-cayley-graph__7:15:orientedPath-endArrowId"
      markerUnits="strokeWidth"
      markerWidth="7.46"
      markerHeight="6.09"
      viewBox="0 0 9.95 8.12"
      refX="2.36"
      refY="4.06"
      orient="auto-start-reverse"
    >
      <path
        d="M9.95 4.06 0 8.12 2.36 4.06 0 0 9.95 4.06z"
        fill="#87904d"
        fill-opacity="1"
      />
    </marker>
    <filter
      id="quaternion-cayley-graph__7:15:orientedPath-shadow"
      x="0"
      y="0"
      width="200%"
      height="200%"
    >
      <feOffset result="offOut" in="SourceAlpha" dx="5" dy="5" />
      <feGaussianBlur result="blurOut" in="offOut" stdDeviation="4" />
      <feBlend in="SourceGraphic" in2="blurOut" mode="normal" />
      <feComponentTransfer>
        <feFuncA type="linear" slope="0.5" />
      </feComponentTransfer>
      <feMerge>
        <feMergeNode />
        <feMergeNode in="SourceGraphic" />
      </feMerge>
    </filter>
    <path
      fill="none"
      stroke="#87904d"
      stroke-opacity="1"
      stroke-width="1"
      stroke-linecap="butt"
      d="M 130.5626459121704 110.23030185699463 Q 117.194082736969 94.92868280410767 115.13849353790283 75.6249885559082"
      marker-end="url(#quaternion-cayley-graph__7:15:orientedPath-endArrowId)"
    />
    <title>7:15:orientedPath</title>
  </g>
  <g>
    <filter
      id="quaternion-cayley-graph__7:10:pathOutline-shadow"
      x="0"
      y="0"
      width="200%"
      height="200%"
    >
      <feOffset result="offOut" in="SourceAlpha" dx="5" dy="5" />
      <feGaussianBlur result="blurOut" in="offOut" stdDeviation="4" />
      <feBlend in="SourceGraphic" in2="blurOut" mode="normal" />
      <feComponentTransfer>
        <feFuncA type="linear" slope="0.5" />
      </feComponentTransfer>
      <feMerge>
        <feMergeNode />
        <feMergeNode in="SourceGraphic" />
      </feMerge>
    </filter>
    <path
      fill="none"
      stroke="#ffffff"
      stroke-opacity="1"
      stroke-width="3"
      stroke-linecap="butt"
      d="M 84.4051742553711 100.50867515802383 Q 70.80239868164062 85.79106330871582 68.41984176635742 66.81826400756836"
    />
    <title>7:10:pathOutline</title>
  </g>
  <g>
    <marker
      id="quaternion-cayley-graph__7:10:orientedPath-endArrowId"
      markerUnits="strokeWidth"
      markerWidth="7.46"
      markerHeight="6.09"
      viewBox="0 0 9.95 8.12"
      refX="2.36"
      refY="4.06"
      orient="auto-start-reverse"
    >
      <path
        d="M9.95 4.06 0 8.12 2.36 4.06 0 0 9.95 4.06z"
        fill="#87904d"
        fill-opacity="1"
      />
    </marker>
    <filter
      id="quaternion-cayley-graph__7:10:orientedPath-shadow"
      x="0"
      y="0"
      width="200%"
      height="200%"
    >
      <feOffset result="offOut" in="SourceAlpha" dx="5" dy="5" />
      <feGaussianBlur result="blurOut" in="offOut" stdDeviation="4" />
      <feBlend in="SourceGraphic" in2="blurOut" mode="normal" />
      <feComponentTransfer>
        <feFuncA type="linear" slope="0.5" />
      </feComponentTransfer>
      <feMerge>
        <feMergeNode />
        <feMergeNode in="SourceGraphic" />
      </feMerge>
    </filter>
    <path
      fill="none"
      stroke="#87904d"
      stroke-opacity="1"
      stroke-width="1"
      stroke-linecap="butt"
      d="M 84.4051742553711 100.50867515802383 Q 70.80239868164062 85.79106330871582 68.41984176635742 66.81826400756836"
      marker-end="url(#quaternion-cayley-graph__7:10:orientedPath-endArrowId)"
    />
    <title>7:10:orientedPath</title>
  </g>
  <g>
    <filter
      id="quaternion-cayley-graph__7:8:pathOutline-shadow"
      x="0"
      y="0"
      width="200%"
      height="200%"
    >
      <feOffset result="offOut" in="SourceAlpha" dx="5" dy="5" />
      <feGaussianBlur result="blurOut" in="offOut" stdDeviation="4" />
      <feBlend in="SourceGraphic" in2="blurOut" mode="normal" />
      <feComponentTransfer>
        <feFuncA type="linear" slope="0.5" />
      </feComponentTransfer>
      <feMerge>
        <feMergeNode />
        <feMergeNode in="SourceGraphic" />
      </feMerge>
    </filter>
    <path
      fill="none"
      stroke="#ffffff"
      stroke-opacity="1"
      stroke-width="3"
      stroke-linecap="butt"
      d="M 116.35949087142944 151.41290283203125 Q 96.68848037719727 134.18303680419922 87.18093872070312 110.57322406768799"
    />
    <title>7:8:pathOutline</title>
  </g>
  <g>
    <marker
      id="quaternion-cayley-graph__7:8:orientedPath-endArrowId"
      markerUnits="strokeWidth"
      markerWidth="7.46"
      markerHeight="6.09"
      viewBox="0 0 9.95 8.12"
      refX="2.36"
      refY="4.06"
      orient="auto-start-reverse"
    >
      <path
        d="M9.95 4.06 0 8.12 2.36 4.06 0 0 9.95 4.06z"
        fill="#87904d"
        fill-opacity="1"
      />
    </marker>
    <filter
      id="quaternion-cayley-graph__7:8:orientedPath-shadow"
      x="0"
      y="0"
      width="200%"
      height="200%"
    >
      <feOffset result="offOut" in="SourceAlpha" dx="5" dy="5" />
      <feGaussianBlur result="blurOut" in="offOut" stdDeviation="4" />
      <feBlend in="SourceGraphic" in2="blurOut" mode="normal" />
      <feComponentTransfer>
        <feFuncA type="linear" slope="0.5" />
      </feComponentTransfer>
      <feMerge>
        <feMergeNode />
        <feMergeNode in="SourceGraphic" />
      </feMerge>
    </filter>
    <path
      fill="none"
      stroke="#87904d"
      stroke-opacity="1"
      stroke-width="1"
      stroke-linecap="butt"
      d="M 116.35949087142944 151.41290283203125 Q 96.68848037719727 134.18303680419922 87.18093872070312 110.57322406768799"
      marker-end="url(#quaternion-cayley-graph__7:8:orientedPath-endArrowId)"
    />
    <title>7:8:orientedPath</title>
  </g>
  <g>
    <filter
      id="quaternion-cayley-graph__7:5:pathOutline-shadow"
      x="0"
      y="0"
      width="200%"
      height="200%"
    >
      <feOffset result="offOut" in="SourceAlpha" dx="5" dy="5" />
      <feGaussianBlur result="blurOut" in="offOut" stdDeviation="4" />
      <feBlend in="SourceGraphic" in2="blurOut" mode="normal" />
      <feComponentTransfer>
        <feFuncA type="linear" slope="0.5" />
      </feComponentTransfer>
      <feMerge>
        <feMergeNode />
        <feMergeNode in="SourceGraphic" />
      </feMerge>
    </filter>
    <path
      fill="none"
      stroke="#ffffff"
      stroke-opacity="1"
      stroke-width="3"
      stroke-linecap="butt"
      d="M 42.03388214111328 119.97708892822266 Q 77.51317977905273 126.83972549438477 108.31800556182861 144.75448608398438"
    />
    <title>7:5:pathOutline</title>
  </g>
  <g>
    <marker
      id="quaternion-cayley-graph__7:5:orientedPath-endArrowId"
      markerUnits="strokeWidth"
      markerWidth="7.46"
      markerHeight="6.09"
      viewBox="0 0 9.95 8.12"
      refX="2.36"
      refY="4.06"
      orient="auto-start-reverse"
    >
      <path
        d="M9.95 4.06 0 8.12 2.36 4.06 0 0 9.95 4.06z"
        fill="#f143ad"
        fill-opacity="1"
      />
    </marker>
    <filter
      id="quaternion-cayley-graph__7:5:orientedPath-shadow"
      x="0"
      y="0"
      width="200%"
      height="200%"
    >
      <feOffset result="offOut" in="SourceAlpha" dx="5" dy="5" />
      <feGaussianBlur result="blurOut" in="offOut" stdDeviation="4" />
      <feBlend in="SourceGraphic" in2="blurOut" mode="normal" />
      <feComponentTransfer>
        <feFuncA type="linear" slope="0.5" />
      </feComponentTransfer>
      <feMerge>
        <feMergeNode />
        <feMergeNode in="SourceGraphic" />
      </feMerge>
    </filter>
    <path
      fill="none"
      stroke="#f143ad"
      stroke-opacity="1"
      stroke-width="1"
      stroke-linecap="butt"
      d="M 42.03388214111328 119.97708892822266 Q 77.51317977905273 126.83972549438477 108.31800556182861 144.75448608398438"
      marker-end="url(#quaternion-cayley-graph__7:5:orientedPath-endArrowId)"
    />
    <title>7:5:orientedPath</title>
  </g>
  <g>
    <filter
      id="quaternion-cayley-graph__7:11:pathOutline-shadow"
      x="0"
      y="0"
      width="200%"
      height="200%"
    >
      <feOffset result="offOut" in="SourceAlpha" dx="5" dy="5" />
      <feGaussianBlur result="blurOut" in="offOut" stdDeviation="4" />
      <feBlend in="SourceGraphic" in2="blurOut" mode="normal" />
      <feComponentTransfer>
        <feFuncA type="linear" slope="0.5" />
      </feComponentTransfer>
      <feMerge>
        <feMergeNode />
        <feMergeNode in="SourceGraphic" />
      </feMerge>
    </filter>
    <path
      fill="none"
      stroke="#ffffff"
      stroke-opacity="1"
      stroke-width="3"
      stroke-linecap="butt"
      d="M 29.182159423828125 76.79440879821777 Q 41.37017822265625 91.4541187286377 42.05675506591797 109.5368070602417"
    />
    <title>7:11:pathOutline</title>
  </g>
  <g>
    <marker
      id="quaternion-cayley-graph__7:11:orientedPath-endArrowId"
      markerUnits="strokeWidth"
      markerWidth="7.46"
      markerHeight="6.09"
      viewBox="0 0 9.95 8.12"
      refX="2.36"
      refY="4.06"
      orient="auto-start-reverse"
    >
      <path
        d="M9.95 4.06 0 8.12 2.36 4.06 0 0 9.95 4.06z"
        fill="#87904d"
        fill-opacity="1"
      />
    </marker>
    <filter
      id="quaternion-cayley-graph__7:11:orientedPath-shadow"
      x="0"
      y="0"
      width="200%"
      height="200%"
    >
      <feOffset result="offOut" in="SourceAlpha" dx="5" dy="5" />
      <feGaussianBlur result="blurOut" in="offOut" stdDeviation="4" />
      <feBlend in="SourceGraphic" in2="blurOut" mode="normal" />
      <feComponentTransfer>
        <feFuncA type="linear" slope="0.5" />
      </feComponentTransfer>
      <feMerge>
        <feMergeNode />
        <feMergeNode in="SourceGraphic" />
      </feMerge>
    </filter>
    <path
      fill="none"
      stroke="#87904d"
      stroke-opacity="1"
      stroke-width="1"
      stroke-linecap="butt"
      d="M 29.182159423828125 76.79440879821777 Q 41.37017822265625 91.4541187286377 42.05675506591797 109.5368070602417"
      marker-end="url(#quaternion-cayley-graph__7:11:orientedPath-endArrowId)"
    />
    <title>7:11:orientedPath</title>
  </g>
  <g>
    <filter
      id="quaternion-cayley-graph__7:3:pathOutline-shadow"
      x="0"
      y="0"
      width="200%"
      height="200%"
    >
      <feOffset result="offOut" in="SourceAlpha" dx="5" dy="5" />
      <feGaussianBlur result="blurOut" in="offOut" stdDeviation="4" />
      <feBlend in="SourceGraphic" in2="blurOut" mode="normal" />
      <feComponentTransfer>
        <feFuncA type="linear" slope="0.5" />
      </feComponentTransfer>
      <feMerge>
        <feMergeNode />
        <feMergeNode in="SourceGraphic" />
      </feMerge>
    </filter>
    <path
      fill="none"
      stroke="#ffffff"
      stroke-opacity="1"
      stroke-width="3"
      stroke-linecap="butt"
      d="M 29.182159423828125 76.79440879821777 Q 55.15875244140625 79.78717422485352 76.40032577514648 93.8062596321106"
    />
    <title>7:3:pathOutline</title>
  </g>
  <g>
    <marker
      id="quaternion-cayley-graph__7:3:orientedPath-endArrowId"
      markerUnits="strokeWidth"
      markerWidth="7.46"
      markerHeight="6.09"
      viewBox="0 0 9.95 8.12"
      refX="2.36"
      refY="4.06"
      orient="auto-start-reverse"
    >
      <path
        d="M9.95 4.06 0 8.12 2.36 4.06 0 0 9.95 4.06z"
        fill="#f143ad"
        fill-opacity="1"
      />
    </marker>
    <filter
      id="quaternion-cayley-graph__7:3:orientedPath-shadow"
      x="0"
      y="0"
      width="200%"
      height="200%"
    >
      <feOffset result="offOut" in="SourceAlpha" dx="5" dy="5" />
      <feGaussianBlur result="blurOut" in="offOut" stdDeviation="4" />
      <feBlend in="SourceGraphic" in2="blurOut" mode="normal" />
      <feComponentTransfer>
        <feFuncA type="linear" slope="0.5" />
      </feComponentTransfer>
      <feMerge>
        <feMergeNode />
        <feMergeNode in="SourceGraphic" />
      </feMerge>
    </filter>
    <path
      fill="none"
      stroke="#f143ad"
      stroke-opacity="1"
      stroke-width="1"
      stroke-linecap="butt"
      d="M 29.182159423828125 76.79440879821777 Q 55.15875244140625 79.78717422485352 76.40032577514648 93.8062596321106"
      marker-end="url(#quaternion-cayley-graph__7:3:orientedPath-endArrowId)"
    />
    <title>7:3:orientedPath</title>
  </g>
  <circle
    fill="#000000"
    fill-opacity="0.10000000149011612"
    cx="116.35949087142944"
    cy="151.41290283203125"
    stroke="none"
    r="7.5"
  >
    <title>4:0:identityMarker</title>
  </circle>
  <g>
    <filter
      id="quaternion-cayley-graph__7:6:pathOutline-shadow"
      x="0"
      y="0"
      width="200%"
      height="200%"
    >
      <feOffset result="offOut" in="SourceAlpha" dx="5" dy="5" />
      <feGaussianBlur result="blurOut" in="offOut" stdDeviation="4" />
      <feBlend in="SourceGraphic" in2="blurOut" mode="normal" />
      <feComponentTransfer>
        <feFuncA type="linear" slope="0.5" />
      </feComponentTransfer>
      <feMerge>
        <feMergeNode />
        <feMergeNode in="SourceGraphic" />
      </feMerge>
    </filter>
    <path
      fill="none"
      stroke="#ffffff"
      stroke-opacity="1"
      stroke-width="3"
      stroke-linecap="butt"
      d="M 71.7120132446289 145.37654495239258 Q 46.708282470703125 119.28738784790039 31.902793884277344 86.87399864196777"
    />
    <title>7:6:pathOutline</title>
  </g>
  <g>
    <marker
      id="quaternion-cayley-graph__7:6:orientedPath-endArrowId"
      markerUnits="strokeWidth"
      markerWidth="7.46"
      markerHeight="6.09"
      viewBox="0 0 9.95 8.12"
      refX="2.36"
      refY="4.06"
      orient="auto-start-reverse"
    >
      <path
        d="M9.95 4.06 0 8.12 2.36 4.06 0 0 9.95 4.06z"
        fill="#f143ad"
        fill-opacity="1"
      />
    </marker>
    <filter
      id="quaternion-cayley-graph__7:6:orientedPath-shadow"
      x="0"
      y="0"
      width="200%"
      height="200%"
    >
      <feOffset result="offOut" in="SourceAlpha" dx="5" dy="5" />
      <feGaussianBlur result="blurOut" in="offOut" stdDeviation="4" />
      <feBlend in="SourceGraphic" in2="blurOut" mode="normal" />
      <feComponentTransfer>
        <feFuncA type="linear" slope="0.5" />
      </feComponentTransfer>
      <feMerge>
        <feMergeNode />
        <feMergeNode in="SourceGraphic" />
      </feMerge>
    </filter>
    <path
      fill="none"
      stroke="#f143ad"
      stroke-opacity="1"
      stroke-width="1"
      stroke-linecap="butt"
      d="M 71.7120132446289 145.37654495239258 Q 46.708282470703125 119.28738784790039 31.902793884277344 86.87399864196777"
      marker-end="url(#quaternion-cayley-graph__7:6:orientedPath-endArrowId)"
    />
    <title>7:6:orientedPath</title>
  </g>
  <circle
    fill="#cccccc"
    fill-opacity="1"
    cx="116.35949087142944"
    cy="151.41290283203125"
    stroke="#999999"
    stroke-opacity="1"
    stroke-width="0.550000011920929"
    r="5"
  >
    <title>`g1`.icon</title>
  </circle>
  <g
    transform="rotate(0, 116.35949087142944, 151.41290283203125)translate(115.10949087142944, 149.74790287017822)"
  >
    <title>`g1`.labelText</title>
    <svg
      style="font-size: 5px"
      xmlns="http://www.w3.org/2000/svg"
      width="2.5"
      height="3.3299999237060547"
      role="img"
      focusable="false"
      viewBox="0 -666 500 666"
    >
      <g
        stroke="none"
        fill="#666666"
        stroke-width="0"
        transform="scale(1,-1)"
        fill-opacity="1"
      >
        <g data-mml-node="math">
          <g data-mml-node="mn">
            <path
              data-c="31"
              d="M213 578L200 573Q186 568 160 563T102 556H83V602H102Q149 604 189 617T245 641T273 663Q275 666 285 666Q294 666 302 660V361L303 61Q310 54 315 52T339 48T401 46H427V0H416Q395 3 257 3Q121 3 100 0H88V46H114Q136 46 152 46T177 47T193 50T201 52T207 57T213 61V578Z"
            />
          </g>
        </g>
      </g>
    </svg>
  </g>
  <circle
    fill="#f143ad"
    fill-opacity="1"
    cx="114.63167476654053"
    cy="65.19699096679688"
    stroke="#a92f79"
    stroke-opacity="1"
    stroke-width="0.550000011920929"
    r="5"
  >
    <title>`g2`.icon</title>
  </circle>
  <g
    transform="rotate(0, 114.63167476654053, 65.19699096679688)translate(113.7691747546196, 63.51699101924896)"
  >
    <title>`g2`.labelText</title>
    <svg
      style="font-size: 5px"
      xmlns="http://www.w3.org/2000/svg"
      width="1.725000023841858"
      height="3.359999895095825"
      role="img"
      focusable="false"
      viewBox="0 -661 345 672"
    >
      <g
        stroke="none"
        fill="#a92f79"
        stroke-width="0"
        transform="scale(1,-1)"
        fill-opacity="1"
      >
        <g data-mml-node="math">
          <g data-mml-node="mi">
            <path
              data-c="1D456"
              d="M184 600Q184 624 203 642T247 661Q265 661 277 649T290 619Q290 596 270 577T226 557Q211 557 198 567T184 600ZM21 287Q21 295 30 318T54 369T98 420T158 442Q197 442 223 419T250 357Q250 340 236 301T196 196T154 83Q149 61 149 51Q149 26 166 26Q175 26 185 29T208 43T235 78T260 137Q263 149 265 151T282 153Q302 153 302 143Q302 135 293 112T268 61T223 11T161 -11Q129 -11 102 10T74 74Q74 91 79 106T122 220Q160 321 166 341T173 380Q173 404 156 404H154Q124 404 99 371T61 287Q60 286 59 284T58 281T56 279T53 278T49 278T41 278H27Q21 284 21 287Z"
            />
          </g>
        </g>
      </g>
    </svg>
  </g>
  <circle
    fill="#87904d"
    fill-opacity="1"
    cx="84.4051742553711"
    cy="100.50867515802383"
    stroke="#5f6436"
    stroke-opacity="1"
    stroke-width="0.550000011920929"
    r="5"
  >
    <title>`g3`.icon</title>
  </circle>
  <g
    transform="rotate(0, 84.4051742553711, 100.50867515802383)translate(83.37517428398132, 98.34617525339127)"
  >
    <title>`g3`.labelText</title>
    <svg
      style="font-size: 5px"
      xmlns="http://www.w3.org/2000/svg"
      width="2.059999942779541"
      height="4.324999809265137"
      role="img"
      focusable="false"
      viewBox="0 -661 412 865"
    >
      <g
        stroke="none"
        fill="#5f6436"
        stroke-width="0"
        transform="scale(1,-1)"
        fill-opacity="1"
      >
        <g data-mml-node="math">
          <g data-mml-node="mi">
            <path
              data-c="1D457"
              d="M297 596Q297 627 318 644T361 661Q378 661 389 651T403 623Q403 595 384 576T340 557Q322 557 310 567T297 596ZM288 376Q288 405 262 405Q240 405 220 393T185 362T161 325T144 293L137 279Q135 278 121 278H107Q101 284 101 286T105 299Q126 348 164 391T252 441Q253 441 260 441T272 442Q296 441 316 432Q341 418 354 401T367 348V332L318 133Q267 -67 264 -75Q246 -125 194 -164T75 -204Q25 -204 7 -183T-12 -137Q-12 -110 7 -91T53 -71Q70 -71 82 -81T95 -112Q95 -148 63 -167Q69 -168 77 -168Q111 -168 139 -140T182 -74L193 -32Q204 11 219 72T251 197T278 308T289 365Q289 372 288 376Z"
            />
          </g>
        </g>
      </g>
    </svg>
  </g>
  <circle
    fill="#cccccc"
    fill-opacity="1"
    cx="29.182159423828125"
    cy="76.79440879821777"
    stroke="#999999"
    stroke-opacity="1"
    stroke-width="0.550000011920929"
    r="5"
  >
    <title>`g4`.icon</title>
  </circle>
  <g
    transform="rotate(0, 29.182159423828125, 76.79440879821777)translate(27.879659414291382, 75.03190875053406)"
  >
    <title>`g4`.labelText</title>
    <svg
      style="font-size: 5px"
      xmlns="http://www.w3.org/2000/svg"
      width="2.6050000190734863"
      height="3.5250000953674316"
      role="img"
      focusable="false"
      viewBox="0 -694 521 705"
    >
      <g
        stroke="none"
        fill="#666666"
        stroke-width="0"
        transform="scale(1,-1)"
        fill-opacity="1"
      >
        <g data-mml-node="math">
          <g data-mml-node="mi">
            <path
              data-c="1D458"
              d="M121 647Q121 657 125 670T137 683Q138 683 209 688T282 694Q294 694 294 686Q294 679 244 477Q194 279 194 272Q213 282 223 291Q247 309 292 354T362 415Q402 442 438 442Q468 442 485 423T503 369Q503 344 496 327T477 302T456 291T438 288Q418 288 406 299T394 328Q394 353 410 369T442 390L458 393Q446 405 434 405H430Q398 402 367 380T294 316T228 255Q230 254 243 252T267 246T293 238T320 224T342 206T359 180T365 147Q365 130 360 106T354 66Q354 26 381 26Q429 26 459 145Q461 153 479 153H483Q499 153 499 144Q499 139 496 130Q455 -11 378 -11Q333 -11 305 15T277 90Q277 108 280 121T283 145Q283 167 269 183T234 206T200 217T182 220H180Q168 178 159 139T145 81T136 44T129 20T122 7T111 -2Q98 -11 83 -11Q66 -11 57 -1T48 16Q48 26 85 176T158 471L195 616Q196 629 188 632T149 637H144Q134 637 131 637T124 640T121 647Z"
            />
          </g>
        </g>
      </g>
    </svg>
  </g>
  <circle
    fill="#cccccc"
    fill-opacity="1"
    cx="67.67890548706055"
    cy="56.40428161621094"
    stroke="#999999"
    stroke-opacity="1"
    stroke-width="0.550000011920929"
    r="5"
  >
    <title>`g5`.icon</title>
  </circle>
  <g
    transform="rotate(0, 67.67890548706055, 56.40428161621094)translate(64.48390555381775, 54.534281611442566)"
  >
    <title>`g5`.labelText</title>
    <svg
      style="font-size: 5px"
      xmlns="http://www.w3.org/2000/svg"
      width="6.389999866485596"
      height="3.740000009536743"
      role="img"
      focusable="false"
      viewBox="0 -666 1278 748"
    >
      <g
        stroke="none"
        fill="#666666"
        stroke-width="0"
        transform="scale(1,-1)"
        fill-opacity="1"
      >
        <g data-mml-node="math">
          <g data-mml-node="mo">
            <path
              data-c="2212"
              d="M84 237T84 250T98 270H679Q694 262 694 250T679 230H98Q84 237 84 250Z"
            />
          </g>
          <g data-mml-node="mn" transform="translate(778,0)">
            <path
              data-c="31"
              d="M213 578L200 573Q186 568 160 563T102 556H83V602H102Q149 604 189 617T245 641T273 663Q275 666 285 666Q294 666 302 660V361L303 61Q310 54 315 52T339 48T401 46H427V0H416Q395 3 257 3Q121 3 100 0H88V46H114Q136 46 152 46T177 47T193 50T201 52T207 57T213 61V578Z"
            />
          </g>
        </g>
      </g>
    </svg>
  </g>
  <circle
    fill="#cccccc"
    fill-opacity="1"
    cx="42.03388214111328"
    cy="119.97708892822266"
    stroke="#999999"
    stroke-opacity="1"
    stroke-width="0.550000011920929"
    r="5"
  >
    <title>`g6`.icon</title>
  </circle>
  <g
    transform="rotate(0, 42.03388214111328, 119.97708892822266)translate(39.2263822555542, 118.119588971138)"
  >
    <title>`g6`.labelText</title>
    <svg
      style="font-size: 5px"
      xmlns="http://www.w3.org/2000/svg"
      width="5.614999771118164"
      height="3.7149999141693115"
      role="img"
      focusable="false"
      viewBox="0 -661 1123 743"
    >
      <g
        stroke="none"
        fill="#666666"
        stroke-width="0"
        transform="scale(1,-1)"
        fill-opacity="1"
      >
        <g data-mml-node="math">
          <g data-mml-node="mo">
            <path
              data-c="2212"
              d="M84 237T84 250T98 270H679Q694 262 694 250T679 230H98Q84 237 84 250Z"
            />
          </g>
          <g data-mml-node="mi" transform="translate(778,0)">
            <path
              data-c="1D456"
              d="M184 600Q184 624 203 642T247 661Q265 661 277 649T290 619Q290 596 270 577T226 557Q211 557 198 567T184 600ZM21 287Q21 295 30 318T54 369T98 420T158 442Q197 442 223 419T250 357Q250 340 236 301T196 196T154 83Q149 61 149 51Q149 26 166 26Q175 26 185 29T208 43T235 78T260 137Q263 149 265 151T282 153Q302 153 302 143Q302 135 293 112T268 61T223 11T161 -11Q129 -11 102 10T74 74Q74 91 79 106T122 220Q160 321 166 341T173 380Q173 404 156 404H154Q124 404 99 371T61 287Q60 286 59 284T58 281T56 279T53 278T49 278T41 278H27Q21 284 21 287Z"
            />
          </g>
        </g>
      </g>
    </svg>
  </g>
  <circle
    fill="#cccccc"
    fill-opacity="1"
    cx="71.7120132446289"
    cy="145.37654495239258"
    stroke="#999999"
    stroke-opacity="1"
    stroke-width="0.550000011920929"
    r="5"
  >
    <title>`g7`.icon</title>
  </circle>
  <g
    transform="rotate(0, 71.7120132446289, 145.37654495239258)translate(68.73701333999634, 143.21404504776)"
  >
    <title>`g7`.labelText</title>
    <svg
      style="font-size: 5px"
      xmlns="http://www.w3.org/2000/svg"
      width="5.949999809265137"
      height="4.324999809265137"
      role="img"
      focusable="false"
      viewBox="0 -661 1190 865"
    >
      <g
        stroke="none"
        fill="#666666"
        stroke-width="0"
        transform="scale(1,-1)"
        fill-opacity="1"
      >
        <g data-mml-node="math">
          <g data-mml-node="mo">
            <path
              data-c="2212"
              d="M84 237T84 250T98 270H679Q694 262 694 250T679 230H98Q84 237 84 250Z"
            />
          </g>
          <g data-mml-node="mi" transform="translate(778,0)">
            <path
              data-c="1D457"
              d="M297 596Q297 627 318 644T361 661Q378 661 389 651T403 623Q403 595 384 576T340 557Q322 557 310 567T297 596ZM288 376Q288 405 262 405Q240 405 220 393T185 362T161 325T144 293L137 279Q135 278 121 278H107Q101 284 101 286T105 299Q126 348 164 391T252 441Q253 441 260 441T272 442Q296 441 316 432Q341 418 354 401T367 348V332L318 133Q267 -67 264 -75Q246 -125 194 -164T75 -204Q25 -204 7 -183T-12 -137Q-12 -110 7 -91T53 -71Q70 -71 82 -81T95 -112Q95 -148 63 -167Q69 -168 77 -168Q111 -168 139 -140T182 -74L193 -32Q204 11 219 72T251 197T278 308T289 365Q289 372 288 376Z"
            />
          </g>
        </g>
      </g>
    </svg>
  </g>
  <circle
    fill="#cccccc"
    fill-opacity="1"
    cx="130.5626459121704"
    cy="110.23030185699463"
    stroke="#999999"
    stroke-opacity="1"
    stroke-width="0.550000011920929"
    r="5"
  >
    <title>`g8`.icon</title>
  </circle>
  <g
    transform="rotate(0, 130.5626459121704, 110.23030185699463)translate(127.31514596939087, 108.29030179977417)"
  >
    <title>`g8`.labelText</title>
    <svg
      style="font-size: 5px"
      xmlns="http://www.w3.org/2000/svg"
      width="6.494999885559082"
      height="3.880000114440918"
      role="img"
      focusable="false"
      viewBox="0 -694 1299 776"
    >
      <g
        stroke="none"
        fill="#666666"
        stroke-width="0"
        transform="scale(1,-1)"
        fill-opacity="1"
      >
        <g data-mml-node="math">
          <g data-mml-node="mo">
            <path
              data-c="2212"
              d="M84 237T84 250T98 270H679Q694 262 694 250T679 230H98Q84 237 84 250Z"
            />
          </g>
          <g data-mml-node="mi" transform="translate(778,0)">
            <path
              data-c="1D458"
              d="M121 647Q121 657 125 670T137 683Q138 683 209 688T282 694Q294 694 294 686Q294 679 244 477Q194 279 194 272Q213 282 223 291Q247 309 292 354T362 415Q402 442 438 442Q468 442 485 423T503 369Q503 344 496 327T477 302T456 291T438 288Q418 288 406 299T394 328Q394 353 410 369T442 390L458 393Q446 405 434 405H430Q398 402 367 380T294 316T228 255Q230 254 243 252T267 246T293 238T320 224T342 206T359 180T365 147Q365 130 360 106T354 66Q354 26 381 26Q429 26 459 145Q461 153 479 153H483Q499 153 499 144Q499 139 496 130Q455 -11 378 -11Q333 -11 305 15T277 90Q277 108 280 121T283 145Q283 167 269 183T234 206T200 217T182 220H180Q168 178 159 139T145 81T136 44T129 20T122 7T111 -2Q98 -11 83 -11Q66 -11 57 -1T48 16Q48 26 85 176T158 471L195 616Q196 629 188 632T149 637H144Q134 637 131 637T124 640T121 647Z"
            />
          </g>
        </g>
      </g>
    </svg>
  </g>
</svg>
