<svg
  version="1.2"
  xmlns="http://www.w3.org/2000/svg"
  viewBox="0 0 500 500"
  penrose="0"
>
  <penrose>
    <croppedViewBox>
      26.297393798828125 24.769332885742188 452.364013671875 406.6455078125
    </croppedViewBox>
  </penrose>
  <g style="solid">
    <line
      x1="319.2164840698242"
      y1="312.3260383605957"
      x2="164.54854583740234"
      y2="85.1053466796875"
      stroke="#000000"
      stroke-opacity="1"
      stroke-width="1.75"
    />
    <title>`aTUS`.side1</title>
  </g>
  <g style="solid">
    <line
      x1="438.6614074707031"
      y1="64.76934814453125"
      x2="319.2164840698242"
      y2="312.3260383605957"
      stroke="#000000"
      stroke-opacity="1"
      stroke-width="1.75"
    />
    <title>`ST`.icon</title>
  </g>
  <g style="solid">
    <line
      x1="438.6614074707031"
      y1="64.76934814453125"
      x2="319.2164840698242"
      y2="312.3260383605957"
      stroke="#000000"
      stroke-opacity="1"
      stroke-width="1.75"
    />
    <title>`aUST`.side2</title>
  </g>
  <g style="solid">
    <line
      x1="164.54854583740234"
      y1="85.1053466796875"
      x2="319.2164840698242"
      y2="312.3260383605957"
      stroke="#000000"
      stroke-opacity="1"
      stroke-width="1.75"
    />
    <title>`UT`.icon</title>
  </g>
  <g style="solid">
    <line
      x1="164.54854583740234"
      y1="85.1053466796875"
      x2="319.2164840698242"
      y2="312.3260383605957"
      stroke="#000000"
      stroke-opacity="1"
      stroke-width="1.75"
    />
    <title>`UTS`.PQ</title>
  </g>
  <g style="solid">
    <line
      x1="319.2164840698242"
      y1="312.3260383605957"
      x2="438.6614074707031"
      y2="64.76934814453125"
      stroke="#000000"
      stroke-opacity="1"
      stroke-width="1.75"
    />
    <title>`UTS`.QR</title>
  </g>
  <g style="solid">
    <line
      x1="164.54854583740234"
      y1="85.1053466796875"
      x2="319.2164840698242"
      y2="312.3260383605957"
      stroke="#000000"
      stroke-opacity="1"
      stroke-width="1.75"
    />
    <title>`aUTS`.side1</title>
  </g>
  <g style="solid">
    <line
      x1="319.2164840698242"
      y1="312.3260383605957"
      x2="438.6614074707031"
      y2="64.76934814453125"
      stroke="#000000"
      stroke-opacity="1"
      stroke-width="1.75"
    />
    <title>`aUTS`.side2</title>
  </g>
  <circle
    fill="#000000"
    fill-opacity="1"
    cx="319.2164840698242"
    cy="312.3260383605957"
    stroke="#000000"
    stroke-opacity="1"
    stroke-width="0"
    r="4"
  >
    <title>`T`.icon</title>
  </circle>
  <g style="solid">
    <line
      x1="164.54854583740234"
      y1="85.1053466796875"
      x2="438.6614074707031"
      y2="64.76934814453125"
      stroke="#000000"
      stroke-opacity="1"
      stroke-width="1.75"
    />
    <title>`aTUS`.side2</title>
  </g>
  <g style="solid">
    <line
      x1="164.54854583740234"
      y1="85.1053466796875"
      x2="438.6614074707031"
      y2="64.76934814453125"
      stroke="#000000"
      stroke-opacity="1"
      stroke-width="1.75"
    />
    <title>`aUST`.side1</title>
  </g>
  <g style="solid">
    <line
      x1="438.6614074707031"
      y1="64.76934814453125"
      x2="164.54854583740234"
      y2="85.1053466796875"
      stroke="#000000"
      stroke-opacity="1"
      stroke-width="1.75"
    />
    <title>`UTS`.RP</title>
  </g>
  <g style="solid">
    <line
      x1="164.54854583740234"
      y1="85.1053466796875"
      x2="438.6614074707031"
      y2="64.76934814453125"
      stroke="#000000"
      stroke-opacity="1"
      stroke-width="1.75"
    />
    <title>`US`.icon</title>
  </g>
  <circle
    fill="#000000"
    fill-opacity="1"
    cx="164.54854583740234"
    cy="85.1053466796875"
    stroke="#000000"
    stroke-opacity="1"
    stroke-width="0"
    r="4"
  >
    <title>`U`.icon</title>
  </circle>
  <circle
    fill="#000000"
    fill-opacity="1"
    cx="438.6614074707031"
    cy="64.76934814453125"
    stroke="#000000"
    stroke-opacity="1"
    stroke-width="0"
    r="4"
  >
    <title>`S`.icon</title>
  </circle>
  <g style="solid">
    <line
      x1="307.8052520751953"
      y1="118.16073608398438"
      x2="56.297393798828125"
      y2="229.04449844360352"
      stroke="#000000"
      stroke-opacity="1"
      stroke-width="1.75"
    />
    <title>`aXYZ`.side1</title>
  </g>
  <g style="solid">
    <line
      x1="278.07948875427246"
      y1="391.4148406982422"
      x2="307.8052520751953"
      y2="118.16073608398438"
      stroke="#000000"
      stroke-opacity="1"
      stroke-width="1.75"
    />
    <title>`aZXY`.side1</title>
  </g>
  <g style="solid">
    <line
      x1="307.8052520751953"
      y1="118.16073608398438"
      x2="56.297393798828125"
      y2="229.04449844360352"
      stroke="#000000"
      stroke-opacity="1"
      stroke-width="1.75"
    />
    <title>`aZXY`.side2</title>
  </g>
  <g style="solid">
    <line
      x1="307.8052520751953"
      y1="118.16073608398438"
      x2="56.297393798828125"
      y2="229.04449844360352"
      stroke="#000000"
      stroke-opacity="1"
      stroke-width="1.75"
    />
    <title>`XY`.icon</title>
  </g>
  <g style="solid">
    <line
      x1="307.8052520751953"
      y1="118.16073608398438"
      x2="56.297393798828125"
      y2="229.04449844360352"
      stroke="#000000"
      stroke-opacity="1"
      stroke-width="1.75"
    />
    <title>`XYZ`.PQ</title>
  </g>
  <g style="solid">
    <line
      x1="278.07948875427246"
      y1="391.4148406982422"
      x2="307.8052520751953"
      y2="118.16073608398438"
      stroke="#000000"
      stroke-opacity="1"
      stroke-width="1.75"
    />
    <title>`XYZ`.RP</title>
  </g>
  <g style="solid">
    <line
      x1="307.8052520751953"
      y1="118.16073608398438"
      x2="278.07948875427246"
      y2="391.4148406982422"
      stroke="#000000"
      stroke-opacity="1"
      stroke-width="1.75"
    />
    <title>`XZ`.icon</title>
  </g>
  <g style="solid">
    <line
      x1="278.07948875427246"
      y1="391.4148406982422"
      x2="307.8052520751953"
      y2="118.16073608398438"
      stroke="#000000"
      stroke-opacity="1"
      stroke-width="1.75"
    />
    <title>`aYZX`.side2</title>
  </g>
  <circle
    fill="#000000"
    fill-opacity="1"
    cx="307.8052520751953"
    cy="118.16073608398438"
    stroke="#000000"
    stroke-opacity="1"
    stroke-width="0"
    r="4"
  >
    <title>`X`.icon</title>
  </circle>
  <g style="solid">
    <line
      x1="56.297393798828125"
      y1="229.04449844360352"
      x2="278.07948875427246"
      y2="391.4148406982422"
      stroke="#000000"
      stroke-opacity="1"
      stroke-width="1.75"
    />
    <title>`aXYZ`.side2</title>
  </g>
  <g style="solid">
    <line
      x1="56.297393798828125"
      y1="229.04449844360352"
      x2="278.07948875427246"
      y2="391.4148406982422"
      stroke="#000000"
      stroke-opacity="1"
      stroke-width="1.75"
    />
    <title>`XYZ`.QR</title>
  </g>
  <g style="solid">
    <line
      x1="278.07948875427246"
      y1="391.4148406982422"
      x2="56.297393798828125"
      y2="229.04449844360352"
      stroke="#000000"
      stroke-opacity="1"
      stroke-width="1.75"
    />
    <title>`ZY`.icon</title>
  </g>
  <g style="solid">
    <line
      x1="56.297393798828125"
      y1="229.04449844360352"
      x2="278.07948875427246"
      y2="391.4148406982422"
      stroke="#000000"
      stroke-opacity="1"
      stroke-width="1.75"
    />
    <title>`aYZX`.side1</title>
  </g>
  <circle
    fill="#000000"
    fill-opacity="1"
    cx="56.297393798828125"
    cy="229.04449844360352"
    stroke="#000000"
    stroke-opacity="1"
    stroke-width="0"
    r="4"
  >
    <title>`Y`.icon</title>
  </circle>
  <circle
    fill="#000000"
    fill-opacity="1"
    cx="278.07948875427246"
    cy="391.4148406982422"
    stroke="#000000"
    stroke-opacity="1"
    stroke-width="0"
    r="4"
  >
    <title>`Z`.icon</title>
  </circle>
  <g
    transform="rotate(0, 148.8617172241211, 66.57792663574219)translate(141.19171714782715, 59.527926445007324)"
  >
    <title>`U`.text</title>
    <svg
      style="font-size: 20px"
      xmlns="http://www.w3.org/2000/svg"
      width="15.34000015258789"
      height="14.100000381469727"
      role="img"
      focusable="false"
      viewBox="0 -683 767 705"
    >
      <g
        stroke="none"
        fill="#000000"
        stroke-width="0"
        transform="scale(1,-1)"
        fill-opacity="1"
      >
        <g data-mml-node="math">
          <g data-mml-node="mi">
            <path
              data-c="1D448"
              d="M107 637Q73 637 71 641Q70 643 70 649Q70 673 81 682Q83 683 98 683Q139 681 234 681Q268 681 297 681T342 682T362 682Q378 682 378 672Q378 670 376 658Q371 641 366 638H364Q362 638 359 638T352 638T343 637T334 637Q295 636 284 634T266 623Q265 621 238 518T184 302T154 169Q152 155 152 140Q152 86 183 55T269 24Q336 24 403 69T501 205L552 406Q599 598 599 606Q599 633 535 637Q511 637 511 648Q511 650 513 660Q517 676 519 679T529 683Q532 683 561 682T645 680Q696 680 723 681T752 682Q767 682 767 672Q767 650 759 642Q756 637 737 637Q666 633 648 597Q646 592 598 404Q557 235 548 205Q515 105 433 42T263 -22Q171 -22 116 34T60 167V183Q60 201 115 421Q164 622 164 628Q164 635 107 637Z"
            />
          </g>
        </g>
      </g>
    </svg>
  </g>
  <g
    transform="rotate(0, 456.6347961425781, 49.54869079589844)translate(450.184796333313, 42.278690814971924)"
  >
    <title>`S`.text</title>
    <svg
      style="font-size: 20px"
      xmlns="http://www.w3.org/2000/svg"
      width="12.899999618530273"
      height="14.539999961853027"
      role="img"
      focusable="false"
      viewBox="0 -705 645 727"
    >
      <g
        stroke="none"
        fill="#000000"
        stroke-width="0"
        transform="scale(1,-1)"
        fill-opacity="1"
      >
        <g data-mml-node="math">
          <g data-mml-node="mi">
            <path
              data-c="1D446"
              d="M308 24Q367 24 416 76T466 197Q466 260 414 284Q308 311 278 321T236 341Q176 383 176 462Q176 523 208 573T273 648Q302 673 343 688T407 704H418H425Q521 704 564 640Q565 640 577 653T603 682T623 704Q624 704 627 704T632 705Q645 705 645 698T617 577T585 459T569 456Q549 456 549 465Q549 471 550 475Q550 478 551 494T553 520Q553 554 544 579T526 616T501 641Q465 662 419 662Q362 662 313 616T263 510Q263 480 278 458T319 427Q323 425 389 408T456 390Q490 379 522 342T554 242Q554 216 546 186Q541 164 528 137T492 78T426 18T332 -20Q320 -22 298 -22Q199 -22 144 33L134 44L106 13Q83 -14 78 -18T65 -22Q52 -22 52 -14Q52 -11 110 221Q112 227 130 227H143Q149 221 149 216Q149 214 148 207T144 186T142 153Q144 114 160 87T203 47T255 29T308 24Z"
            />
          </g>
        </g>
      </g>
    </svg>
  </g>
  <g
    transform="rotate(0, 340.2565231323242, 319.09710693359375)translate(333.2165231704712, 312.32710695266724)"
  >
    <title>`T`.text</title>
    <svg
      style="font-size: 20px"
      xmlns="http://www.w3.org/2000/svg"
      width="14.079999923706055"
      height="13.539999961853027"
      role="img"
      focusable="false"
      viewBox="0 -677 704 677"
    >
      <g
        stroke="none"
        fill="#000000"
        stroke-width="0"
        transform="scale(1,-1)"
        fill-opacity="1"
      >
        <g data-mml-node="math">
          <g data-mml-node="mi">
            <path
              data-c="1D447"
              d="M40 437Q21 437 21 445Q21 450 37 501T71 602L88 651Q93 669 101 677H569H659Q691 677 697 676T704 667Q704 661 687 553T668 444Q668 437 649 437Q640 437 637 437T631 442L629 445Q629 451 635 490T641 551Q641 586 628 604T573 629Q568 630 515 631Q469 631 457 630T439 622Q438 621 368 343T298 60Q298 48 386 46Q418 46 427 45T436 36Q436 31 433 22Q429 4 424 1L422 0Q419 0 415 0Q410 0 363 1T228 2Q99 2 64 0H49Q43 6 43 9T45 27Q49 40 55 46H83H94Q174 46 189 55Q190 56 191 56Q196 59 201 76T241 233Q258 301 269 344Q339 619 339 625Q339 630 310 630H279Q212 630 191 624Q146 614 121 583T67 467Q60 445 57 441T43 437H40Z"
            />
          </g>
        </g>
      </g>
    </svg>
  </g>
  <g
    transform="rotate(0, 263.2140951156616, 409.97950744628906)translate(255.98409509658813, 403.149507522583)"
  >
    <title>`Z`.text</title>
    <svg
      style="font-size: 20px"
      xmlns="http://www.w3.org/2000/svg"
      width="14.460000038146973"
      height="13.65999984741211"
      role="img"
      focusable="false"
      viewBox="0 -683 723 683"
    >
      <g
        stroke="none"
        fill="#000000"
        stroke-width="0"
        transform="scale(1,-1)"
        fill-opacity="1"
      >
        <g data-mml-node="math">
          <g data-mml-node="mi">
            <path
              data-c="1D44D"
              d="M58 8Q58 23 64 35Q64 36 329 334T596 635L586 637Q575 637 512 637H500H476Q442 637 420 635T365 624T311 598T266 548T228 469Q227 466 226 463T224 458T223 453T222 450L221 448Q218 443 202 443Q185 443 182 453L214 561Q228 606 241 651Q249 679 253 681Q256 683 487 683H718Q723 678 723 675Q723 673 717 649Q189 54 188 52L185 49H274Q369 50 377 51Q452 60 500 100T579 247Q587 272 590 277T603 282H607Q628 282 628 271Q547 5 541 2Q538 0 300 0H124Q58 0 58 8Z"
            />
          </g>
        </g>
      </g>
    </svg>
  </g>
  <g
    transform="rotate(0, 326.62723541259766, 134.47066497802734)translate(318.107234954834, 127.64066505432129)"
  >
    <title>`X`.text</title>
    <svg
      style="font-size: 20px"
      xmlns="http://www.w3.org/2000/svg"
      width="17.040000915527344"
      height="13.65999984741211"
      role="img"
      focusable="false"
      viewBox="0 -683 852 683"
    >
      <g
        stroke="none"
        fill="#000000"
        stroke-width="0"
        transform="scale(1,-1)"
        fill-opacity="1"
      >
        <g data-mml-node="math">
          <g data-mml-node="mi">
            <path
              data-c="1D44B"
              d="M42 0H40Q26 0 26 11Q26 15 29 27Q33 41 36 43T55 46Q141 49 190 98Q200 108 306 224T411 342Q302 620 297 625Q288 636 234 637H206Q200 643 200 645T202 664Q206 677 212 683H226Q260 681 347 681Q380 681 408 681T453 682T473 682Q490 682 490 671Q490 670 488 658Q484 643 481 640T465 637Q434 634 411 620L488 426L541 485Q646 598 646 610Q646 628 622 635Q617 635 609 637Q594 637 594 648Q594 650 596 664Q600 677 606 683H618Q619 683 643 683T697 681T738 680Q828 680 837 683H845Q852 676 852 672Q850 647 840 637H824Q790 636 763 628T722 611T698 593L687 584Q687 585 592 480L505 384Q505 383 536 304T601 142T638 56Q648 47 699 46Q734 46 734 37Q734 35 732 23Q728 7 725 4T711 1Q708 1 678 1T589 2Q528 2 496 2T461 1Q444 1 444 10Q444 11 446 25Q448 35 450 39T455 44T464 46T480 47T506 54Q523 62 523 64Q522 64 476 181L429 299Q241 95 236 84Q232 76 232 72Q232 53 261 47Q262 47 267 47T273 46Q276 46 277 46T280 45T283 42T284 35Q284 26 282 19Q279 6 276 4T261 1Q258 1 243 1T201 2T142 2Q64 2 42 0Z"
            />
          </g>
        </g>
      </g>
    </svg>
  </g>
  <g
    transform="rotate(0, 35.85359191894531, 241.5142707824707)translate(28.223591804504395, 234.68427085876465)"
  >
    <title>`Y`.text</title>
    <svg
      style="font-size: 20px"
      xmlns="http://www.w3.org/2000/svg"
      width="15.260000228881836"
      height="13.65999984741211"
      role="img"
      focusable="false"
      viewBox="0 -683 763 683"
    >
      <g
        stroke="none"
        fill="#000000"
        stroke-width="0"
        transform="scale(1,-1)"
        fill-opacity="1"
      >
        <g data-mml-node="math">
          <g data-mml-node="mi">
            <path
              data-c="1D44C"
              d="M66 637Q54 637 49 637T39 638T32 641T30 647T33 664T42 682Q44 683 56 683Q104 680 165 680Q288 680 306 683H316Q322 677 322 674T320 656Q316 643 310 637H298Q242 637 242 624Q242 619 292 477T343 333L346 336Q350 340 358 349T379 373T411 410T454 461Q546 568 561 587T577 618Q577 634 545 637Q528 637 528 647Q528 649 530 661Q533 676 535 679T549 683Q551 683 578 682T657 680Q684 680 713 681T746 682Q763 682 763 673Q763 669 760 657T755 643Q753 637 734 637Q662 632 617 587Q608 578 477 424L348 273L322 169Q295 62 295 57Q295 46 363 46Q379 46 384 45T390 35Q390 33 388 23Q384 6 382 4T366 1Q361 1 324 1T232 2Q170 2 138 2T102 1Q84 1 84 9Q84 14 87 24Q88 27 89 30T90 35T91 39T93 42T96 44T101 45T107 45T116 46T129 46Q168 47 180 50T198 63Q201 68 227 171L252 274L129 623Q128 624 127 625T125 627T122 629T118 631T113 633T105 634T96 635T83 636T66 637Z"
            />
          </g>
        </g>
      </g>
    </svg>
  </g>
  <g>
    <filter id="ex__`XZ`.tick-shadow" x="0" y="0" width="200%" height="200%">
      <feOffset result="offOut" in="SourceAlpha" dx="5" dy="5" />
      <feGaussianBlur result="blurOut" in="offOut" stdDeviation="4" />
      <feBlend in="SourceGraphic" in2="blurOut" mode="normal" />
      <feComponentTransfer>
        <feFuncA type="linear" slope="0.5" />
      </feComponentTransfer>
      <feMerge>
        <feMergeNode />
        <feMergeNode in="SourceGraphic" />
      </feMerge>
    </filter>
    <path
      fill="none"
      stroke="#000000"
      stroke-opacity="1"
      stroke-width="2"
      stroke-linecap="butt"
      d="M 282.18992614746094 261.16233825683594 L 302.07262420654297 263.3252639770508 M 283.81211853027344 246.2503125667572 L 303.69481658935547 248.41323852539062"
    />
    <title>`XZ`.tick</title>
  </g>
  <g>
    <filter id="ex__`US`.tick-shadow" x="0" y="0" width="200%" height="200%">
      <feOffset result="offOut" in="SourceAlpha" dx="5" dy="5" />
      <feGaussianBlur result="blurOut" in="offOut" stdDeviation="4" />
      <feBlend in="SourceGraphic" in2="blurOut" mode="normal" />
      <feComponentTransfer>
        <feFuncA type="linear" slope="0.5" />
      </feComponentTransfer>
      <feMerge>
        <feMergeNode />
        <feMergeNode in="SourceGraphic" />
      </feMerge>
    </filter>
    <path
      fill="none"
      stroke="#000000"
      stroke-opacity="1"
      stroke-width="2"
      stroke-linecap="butt"
      d="M 309.8242721557617 84.35505676269531 L 308.3445739746094 64.40986633300781 M 294.8653793334961 85.46482849121094 L 293.38568115234375 65.51963806152344"
    />
    <title>`US`.tick</title>
  </g>
  <g>
    <filter id="ex__`XYZ`.icon-shadow" x="0" y="0" width="200%" height="200%">
      <feOffset result="offOut" in="SourceAlpha" dx="5" dy="5" />
      <feGaussianBlur result="blurOut" in="offOut" stdDeviation="4" />
      <feBlend in="SourceGraphic" in2="blurOut" mode="normal" />
      <feComponentTransfer>
        <feFuncA type="linear" slope="0.5" />
      </feComponentTransfer>
      <feMerge>
        <feMergeNode />
        <feMergeNode in="SourceGraphic" />
      </feMerge>
    </filter>
    <path
      fill="none"
      stroke="none"
      d="M 307.8052520751953 118.16073608398438 L 56.297393798828125 229.04449844360352 L 278.07948875427246 391.4148406982422 Z "
    />
    <title>`XYZ`.icon</title>
  </g>
  <g>
    <filter id="ex__`UTS`.icon-shadow" x="0" y="0" width="200%" height="200%">
      <feOffset result="offOut" in="SourceAlpha" dx="5" dy="5" />
      <feGaussianBlur result="blurOut" in="offOut" stdDeviation="4" />
      <feBlend in="SourceGraphic" in2="blurOut" mode="normal" />
      <feComponentTransfer>
        <feFuncA type="linear" slope="0.5" />
      </feComponentTransfer>
      <feMerge>
        <feMergeNode />
        <feMergeNode in="SourceGraphic" />
      </feMerge>
    </filter>
    <path
      fill="none"
      stroke="none"
      d="M 164.54854583740234 85.1053466796875 L 319.2164840698242 312.3260383605957 L 438.6614074707031 64.76934814453125 Z "
    />
    <title>`UTS`.icon</title>
  </g>
  <g>
    <filter id="ex__`ZY`.tick-shadow" x="0" y="0" width="200%" height="200%">
      <feOffset result="offOut" in="SourceAlpha" dx="5" dy="5" />
      <feGaussianBlur result="blurOut" in="offOut" stdDeviation="4" />
      <feBlend in="SourceGraphic" in2="blurOut" mode="normal" />
      <feComponentTransfer>
        <feFuncA type="linear" slope="0.5" />
      </feComponentTransfer>
      <feMerge>
        <feMergeNode />
        <feMergeNode in="SourceGraphic" />
      </feMerge>
    </filter>
    <path
      fill="none"
      stroke="#000000"
      stroke-opacity="1"
      stroke-width="2"
      stroke-linecap="butt"
      d="M 173.09568786621094 302.16093826293945 L 161.28118896484375 318.29840087890625 M 160.99259185791016 293.30006408691406 L 149.17809295654297 309.4375228881836 M 185.19878387451172 311.02181243896484 L 173.38428497314453 327.1592788696289"
    />
    <title>`ZY`.tick</title>
  </g>
  <g>
    <filter id="ex__`UT`.tick-shadow" x="0" y="0" width="200%" height="200%">
      <feOffset result="offOut" in="SourceAlpha" dx="5" dy="5" />
      <feGaussianBlur result="blurOut" in="offOut" stdDeviation="4" />
      <feBlend in="SourceGraphic" in2="blurOut" mode="normal" />
      <feComponentTransfer>
        <feFuncA type="linear" slope="0.5" />
      </feComponentTransfer>
      <feMerge>
        <feMergeNode />
        <feMergeNode in="SourceGraphic" />
      </feMerge>
    </filter>
    <path
      fill="none"
      stroke="#000000"
      stroke-opacity="1"
      stroke-width="2"
      stroke-linecap="butt"
      d="M 233.6159210205078 204.34271621704102 L 250.14910793304443 193.08866500854492 M 242.05646133422852 216.74260711669922 L 258.58964824676514 205.48855590820312 M 225.1753807067871 191.9428253173828 L 241.70856761932373 180.68877410888672"
    />
    <title>`UT`.tick</title>
  </g>
  <g>
    <filter id="ex__`ST`.tick-shadow" x="0" y="0" width="200%" height="200%">
      <feOffset result="offOut" in="SourceAlpha" dx="5" dy="5" />
      <feGaussianBlur result="blurOut" in="offOut" stdDeviation="4" />
      <feBlend in="SourceGraphic" in2="blurOut" mode="normal" />
      <feComponentTransfer>
        <feFuncA type="linear" slope="0.5" />
      </feComponentTransfer>
      <feMerge>
        <feMergeNode />
        <feMergeNode in="SourceGraphic" />
      </feMerge>
    </filter>
    <path
      fill="none"
      stroke="#000000"
      stroke-opacity="1"
      stroke-width="2"
      stroke-linecap="butt"
      d="M 369.93250274658203 184.2021255493164 L 387.9453887939453 192.89325714111328"
    />
    <title>`ST`.tick</title>
  </g>
  <g>
    <filter id="ex__`XY`.tick-shadow" x="0" y="0" width="200%" height="200%">
      <feOffset result="offOut" in="SourceAlpha" dx="5" dy="5" />
      <feGaussianBlur result="blurOut" in="offOut" stdDeviation="4" />
      <feBlend in="SourceGraphic" in2="blurOut" mode="normal" />
      <feComponentTransfer>
        <feFuncA type="linear" slope="0.5" />
      </feComponentTransfer>
      <feMerge>
        <feMergeNode />
        <feMergeNode in="SourceGraphic" />
      </feMerge>
    </filter>
    <path
      fill="none"
      stroke="#000000"
      stroke-opacity="1"
      stroke-width="2"
      stroke-linecap="butt"
      d="M 178.01721954345703 164.45242309570312 L 186.08542251586914 182.7528076171875"
    />
    <title>`XY`.tick</title>
  </g>
  <g>
    <filter id="ex__`aTUS`.mark-shadow" x="0" y="0" width="200%" height="200%">
      <feOffset result="offOut" in="SourceAlpha" dx="5" dy="5" />
      <feGaussianBlur result="blurOut" in="offOut" stdDeviation="4" />
      <feBlend in="SourceGraphic" in2="blurOut" mode="normal" />
      <feComponentTransfer>
        <feFuncA type="linear" slope="0.5" />
      </feComponentTransfer>
      <feMerge>
        <feMergeNode />
        <feMergeNode in="SourceGraphic" />
      </feMerge>
    </filter>
    <path
      fill="none"
      stroke="#000000"
      stroke-opacity="1"
      stroke-width="2"
      stroke-linecap="butt"
      d="M 181.42962646484375 109.90512084960938 A 30 30 0 0 0 194.46632385253906 82.88578796386719"
    />
    <title>`aTUS`.mark</title>
  </g>
  <g>
    <filter id="ex__`aUTS`.mark-shadow" x="0" y="0" width="200%" height="200%">
      <feOffset result="offOut" in="SourceAlpha" dx="5" dy="5" />
      <feGaussianBlur result="blurOut" in="offOut" stdDeviation="4" />
      <feBlend in="SourceGraphic" in2="blurOut" mode="normal" />
      <feComponentTransfer>
        <feFuncA type="linear" slope="0.5" />
      </feComponentTransfer>
      <feMerge>
        <feMergeNode />
        <feMergeNode in="SourceGraphic" />
      </feMerge>
    </filter>
    <path
      fill="none"
      stroke="#000000"
      stroke-opacity="1"
      stroke-width="2"
      stroke-linecap="butt"
      d="M 302.3354034423828 287.52626037597656 A 30 30 0 0 1 332.25318908691406 285.30670166015625 M 296.70837783813477 279.2596664428711 A 40 40 0 0 1 336.5987548828125 276.300256729126 M 291.0813522338867 270.9930725097656 A 50 50 0 0 1 340.94432067871094 267.2938117980957"
    />
    <title>`aUTS`.mark</title>
  </g>
  <g>
    <filter id="ex__`aUST`.mark-shadow" x="0" y="0" width="200%" height="200%">
      <feOffset result="offOut" in="SourceAlpha" dx="5" dy="5" />
      <feGaussianBlur result="blurOut" in="offOut" stdDeviation="4" />
      <feBlend in="SourceGraphic" in2="blurOut" mode="normal" />
      <feComponentTransfer>
        <feFuncA type="linear" slope="0.5" />
      </feComponentTransfer>
      <feMerge>
        <feMergeNode />
        <feMergeNode in="SourceGraphic" />
      </feMerge>
    </filter>
    <path
      fill="none"
      stroke="#000000"
      stroke-opacity="1"
      stroke-width="2"
      stroke-linecap="butt"
      d="M 408.7436218261719 66.98890686035156 A 30 30 0 0 0 425.6247100830078 91.78868103027344 M 398.7710266113281 67.728759765625 A 40 40 0 0 0 421.2791442871094 100.79512023925781"
    />
    <title>`aUST`.mark</title>
  </g>
  <g>
    <filter id="ex__`aYZX`.mark-shadow" x="0" y="0" width="200%" height="200%">
      <feOffset result="offOut" in="SourceAlpha" dx="5" dy="5" />
      <feGaussianBlur result="blurOut" in="offOut" stdDeviation="4" />
      <feBlend in="SourceGraphic" in2="blurOut" mode="normal" />
      <feComponentTransfer>
        <feFuncA type="linear" slope="0.5" />
      </feComponentTransfer>
      <feMerge>
        <feMergeNode />
        <feMergeNode in="SourceGraphic" />
      </feMerge>
    </filter>
    <path
      fill="none"
      stroke="#000000"
      stroke-opacity="1"
      stroke-width="2"
      stroke-linecap="butt"
      d="M 253.87330055236816 373.6930847167969 A 30 30 0 0 1 281.3238773345947 361.5907897949219 M 245.8045711517334 367.7858352661133 A 40 40 0 0 1 282.4053421020508 351.6494445800781"
    />
    <title>`aYZX`.mark</title>
  </g>
  <g>
    <filter id="ex__`aXYZ`.mark-shadow" x="0" y="0" width="200%" height="200%">
      <feOffset result="offOut" in="SourceAlpha" dx="5" dy="5" />
      <feGaussianBlur result="blurOut" in="offOut" stdDeviation="4" />
      <feBlend in="SourceGraphic" in2="blurOut" mode="normal" />
      <feComponentTransfer>
        <feFuncA type="linear" slope="0.5" />
      </feComponentTransfer>
      <feMerge>
        <feMergeNode />
        <feMergeNode in="SourceGraphic" />
      </feMerge>
    </filter>
    <path
      fill="none"
      stroke="#000000"
      stroke-opacity="1"
      stroke-width="2"
      stroke-linecap="butt"
      d="M 83.74797058105469 216.94219970703125 A 30 30 0 0 1 80.50358581542969 246.76625061035156"
    />
    <title>`aXYZ`.mark</title>
  </g>
  <g>
    <filter id="ex__`aZXY`.mark-shadow" x="0" y="0" width="200%" height="200%">
      <feOffset result="offOut" in="SourceAlpha" dx="5" dy="5" />
      <feGaussianBlur result="blurOut" in="offOut" stdDeviation="4" />
      <feBlend in="SourceGraphic" in2="blurOut" mode="normal" />
      <feComponentTransfer>
        <feFuncA type="linear" slope="0.5" />
      </feComponentTransfer>
      <feMerge>
        <feMergeNode />
        <feMergeNode in="SourceGraphic" />
      </feMerge>
    </filter>
    <path
      fill="none"
      stroke="#000000"
      stroke-opacity="1"
      stroke-width="2"
      stroke-linecap="butt"
      d="M 304.56086349487305 147.9847869873047 A 30 30 0 0 1 280.3546733856201 130.2630386352539 M 303.4794006347656 157.92613220214844 A 40 40 0 0 1 271.20448112487793 134.2971420288086 M 302.3979377746582 167.8674774169922 A 50 50 0 0 1 262.05428886413574 138.33124542236328"
    />
    <title>`aZXY`.mark</title>
  </g>
</svg>
