<svg
  version="1.2"
  xmlns="http://www.w3.org/2000/svg"
  viewBox="0 0 800 250"
  penrose="0"
>
  <penrose>
    <croppedViewBox>
      15.72412109375 9.816818237304688 778.6681213378906 230.1831817626953
    </croppedViewBox>
  </penrose>
  <text
    fill="#000000"
    fill-opacity="1"
    stroke="none"
    transform="rotate(-90, 20, 85.00000381469727)"
    style="font: bold 18px monospace"
    x="20"
    y="89.05615615844727"
    width="33.662109375"
    height="8.5517578125"
    font-size-adjust=""
    alignment-baseline="alphabetic"
    dominant-baseline="alphabetic"
    ascent="8.33203125"
    descent="0.2197265625"
    text-anchor="middle"
    visibility=""
  >
    <title>global.ccwLabel</title>
    ccw
  </text>
  <text
    fill="#000000"
    fill-opacity="1"
    stroke="none"
    transform="rotate(-90, 20, 204.99999237060547)"
    style="font: bold 18px monospace"
    x="20"
    y="209.05614471435547"
    width="22.8603515625"
    height="8.5517578125"
    font-size-adjust=""
    alignment-baseline="alphabetic"
    dominant-baseline="alphabetic"
    ascent="8.33203125"
    descent="0.2197265625"
    text-anchor="middle"
    visibility=""
  >
    <title>global.cwLabel</title>
    cw
  </text>
  <g
    transform="rotate(0, 414.99997329711914, 20.000015258789062)translate(402.05677318573, 9.816815376281738)"
  >
    <title>3:4:nSides</title>
    <svg
      style="font-size: 24px"
      xmlns="http://www.w3.org/2000/svg"
      width="25.88640022277832"
      height="20.36639976501465"
      role="img"
      focusable="false"
      viewBox="0 -683 1078.6 848.6"
    >
      <g
        stroke="none"
        fill="#000000"
        stroke-width="0"
        transform="scale(1,-1)"
        fill-opacity="1"
      >
        <g data-mml-node="math">
          <g data-mml-node="msub">
            <g data-mml-node="mi">
              <path
                data-c="1D443"
                d="M287 628Q287 635 230 637Q206 637 199 638T192 648Q192 649 194 659Q200 679 203 681T397 683Q587 682 600 680Q664 669 707 631T751 530Q751 453 685 389Q616 321 507 303Q500 302 402 301H307L277 182Q247 66 247 59Q247 55 248 54T255 50T272 48T305 46H336Q342 37 342 35Q342 19 335 5Q330 0 319 0Q316 0 282 1T182 2Q120 2 87 2T51 1Q33 1 33 11Q33 13 36 25Q40 41 44 43T67 46Q94 46 127 49Q141 52 146 61Q149 65 218 339T287 628ZM645 554Q645 567 643 575T634 597T609 619T560 635Q553 636 480 637Q463 637 445 637T416 636T404 636Q391 635 386 627Q384 621 367 550T332 412T314 344Q314 342 395 342H407H430Q542 342 590 392Q617 419 631 471T645 554Z"
              />
            </g>
            <g data-mml-node="mn" transform="translate(675,-150) scale(0.707)">
              <path
                data-c="35"
                d="M164 157Q164 133 148 117T109 101H102Q148 22 224 22Q294 22 326 82Q345 115 345 210Q345 313 318 349Q292 382 260 382H254Q176 382 136 314Q132 307 129 306T114 304Q97 304 95 310Q93 314 93 485V614Q93 664 98 664Q100 666 102 666Q103 666 123 658T178 642T253 634Q324 634 389 662Q397 666 402 666Q410 666 410 648V635Q328 538 205 538Q174 538 149 544L139 546V374Q158 388 169 396T205 412T256 420Q337 420 393 355T449 201Q449 109 385 44T229 -22Q148 -22 99 32T50 154Q50 178 61 192T84 210T107 214Q132 214 148 197T164 157Z"
              />
            </g>
          </g>
        </g>
      </g>
    </svg>
  </g>
  <g
    transform="rotate(0, 244.99996948242188, 20.000015258789062)translate(232.05676937103271, 9.816815376281738)"
  >
    <title>3:2:nSides</title>
    <svg
      style="font-size: 24px"
      xmlns="http://www.w3.org/2000/svg"
      width="25.88640022277832"
      height="20.36639976501465"
      role="img"
      focusable="false"
      viewBox="0 -683 1078.6 848.6"
    >
      <g
        stroke="none"
        fill="#000000"
        stroke-width="0"
        transform="scale(1,-1)"
        fill-opacity="1"
      >
        <g data-mml-node="math">
          <g data-mml-node="msub">
            <g data-mml-node="mi">
              <path
                data-c="1D443"
                d="M287 628Q287 635 230 637Q206 637 199 638T192 648Q192 649 194 659Q200 679 203 681T397 683Q587 682 600 680Q664 669 707 631T751 530Q751 453 685 389Q616 321 507 303Q500 302 402 301H307L277 182Q247 66 247 59Q247 55 248 54T255 50T272 48T305 46H336Q342 37 342 35Q342 19 335 5Q330 0 319 0Q316 0 282 1T182 2Q120 2 87 2T51 1Q33 1 33 11Q33 13 36 25Q40 41 44 43T67 46Q94 46 127 49Q141 52 146 61Q149 65 218 339T287 628ZM645 554Q645 567 643 575T634 597T609 619T560 635Q553 636 480 637Q463 637 445 637T416 636T404 636Q391 635 386 627Q384 621 367 550T332 412T314 344Q314 342 395 342H407H430Q542 342 590 392Q617 419 631 471T645 554Z"
              />
            </g>
            <g data-mml-node="mn" transform="translate(675,-150) scale(0.707)">
              <path
                data-c="33"
                d="M127 463Q100 463 85 480T69 524Q69 579 117 622T233 665Q268 665 277 664Q351 652 390 611T430 522Q430 470 396 421T302 350L299 348Q299 347 308 345T337 336T375 315Q457 262 457 175Q457 96 395 37T238 -22Q158 -22 100 21T42 130Q42 158 60 175T105 193Q133 193 151 175T169 130Q169 119 166 110T159 94T148 82T136 74T126 70T118 67L114 66Q165 21 238 21Q293 21 321 74Q338 107 338 175V195Q338 290 274 322Q259 328 213 329L171 330L168 332Q166 335 166 348Q166 366 174 366Q202 366 232 371Q266 376 294 413T322 525V533Q322 590 287 612Q265 626 240 626Q208 626 181 615T143 592T132 580H135Q138 579 143 578T153 573T165 566T175 555T183 540T186 520Q186 498 172 481T127 463Z"
              />
            </g>
          </g>
        </g>
      </g>
    </svg>
  </g>
  <g
    transform="rotate(0, 160, 20.000015258789062)translate(147.05679988861084, 10.00401496887207)"
  >
    <title>3:1:nSides</title>
    <svg
      style="font-size: 24px"
      xmlns="http://www.w3.org/2000/svg"
      width="25.88640022277832"
      height="19.992000579833984"
      role="img"
      focusable="false"
      viewBox="0 -683 1078.6 833"
    >
      <g
        stroke="none"
        fill="#000000"
        stroke-width="0"
        transform="scale(1,-1)"
        fill-opacity="1"
      >
        <g data-mml-node="math">
          <g data-mml-node="msub">
            <g data-mml-node="mi">
              <path
                data-c="1D443"
                d="M287 628Q287 635 230 637Q206 637 199 638T192 648Q192 649 194 659Q200 679 203 681T397 683Q587 682 600 680Q664 669 707 631T751 530Q751 453 685 389Q616 321 507 303Q500 302 402 301H307L277 182Q247 66 247 59Q247 55 248 54T255 50T272 48T305 46H336Q342 37 342 35Q342 19 335 5Q330 0 319 0Q316 0 282 1T182 2Q120 2 87 2T51 1Q33 1 33 11Q33 13 36 25Q40 41 44 43T67 46Q94 46 127 49Q141 52 146 61Q149 65 218 339T287 628ZM645 554Q645 567 643 575T634 597T609 619T560 635Q553 636 480 637Q463 637 445 637T416 636T404 636Q391 635 386 627Q384 621 367 550T332 412T314 344Q314 342 395 342H407H430Q542 342 590 392Q617 419 631 471T645 554Z"
              />
            </g>
            <g data-mml-node="mn" transform="translate(675,-150) scale(0.707)">
              <path
                data-c="32"
                d="M109 429Q82 429 66 447T50 491Q50 562 103 614T235 666Q326 666 387 610T449 465Q449 422 429 383T381 315T301 241Q265 210 201 149L142 93L218 92Q375 92 385 97Q392 99 409 186V189H449V186Q448 183 436 95T421 3V0H50V19V31Q50 38 56 46T86 81Q115 113 136 137Q145 147 170 174T204 211T233 244T261 278T284 308T305 340T320 369T333 401T340 431T343 464Q343 527 309 573T212 619Q179 619 154 602T119 569T109 550Q109 549 114 549Q132 549 151 535T170 489Q170 464 154 447T109 429Z"
              />
            </g>
          </g>
        </g>
      </g>
    </svg>
  </g>
  <g
    transform="rotate(0, 75, 20.000015258789062)translate(62.05679988861084, 10.00401496887207)"
  >
    <title>3:0:nSides</title>
    <svg
      style="font-size: 24px"
      xmlns="http://www.w3.org/2000/svg"
      width="25.88640022277832"
      height="19.992000579833984"
      role="img"
      focusable="false"
      viewBox="0 -683 1078.6 833"
    >
      <g
        stroke="none"
        fill="#000000"
        stroke-width="0"
        transform="scale(1,-1)"
        fill-opacity="1"
      >
        <g data-mml-node="math">
          <g data-mml-node="msub">
            <g data-mml-node="mi">
              <path
                data-c="1D443"
                d="M287 628Q287 635 230 637Q206 637 199 638T192 648Q192 649 194 659Q200 679 203 681T397 683Q587 682 600 680Q664 669 707 631T751 530Q751 453 685 389Q616 321 507 303Q500 302 402 301H307L277 182Q247 66 247 59Q247 55 248 54T255 50T272 48T305 46H336Q342 37 342 35Q342 19 335 5Q330 0 319 0Q316 0 282 1T182 2Q120 2 87 2T51 1Q33 1 33 11Q33 13 36 25Q40 41 44 43T67 46Q94 46 127 49Q141 52 146 61Q149 65 218 339T287 628ZM645 554Q645 567 643 575T634 597T609 619T560 635Q553 636 480 637Q463 637 445 637T416 636T404 636Q391 635 386 627Q384 621 367 550T332 412T314 344Q314 342 395 342H407H430Q542 342 590 392Q617 419 631 471T645 554Z"
              />
            </g>
            <g data-mml-node="mn" transform="translate(675,-150) scale(0.707)">
              <path
                data-c="31"
                d="M213 578L200 573Q186 568 160 563T102 556H83V602H102Q149 604 189 617T245 641T273 663Q275 666 285 666Q294 666 302 660V361L303 61Q310 54 315 52T339 48T401 46H427V0H416Q395 3 257 3Q121 3 100 0H88V46H114Q136 46 152 46T177 47T193 50T201 52T207 57T213 61V578Z"
              />
            </g>
          </g>
        </g>
      </g>
    </svg>
  </g>
  <g
    transform="rotate(0, 329.9999694824219, 20.000015258789062)translate(317.0567693710327, 10.00401496887207)"
  >
    <title>3:3:nSides</title>
    <svg
      style="font-size: 24px"
      xmlns="http://www.w3.org/2000/svg"
      width="25.88640022277832"
      height="19.992000579833984"
      role="img"
      focusable="false"
      viewBox="0 -683 1078.6 833"
    >
      <g
        stroke="none"
        fill="#000000"
        stroke-width="0"
        transform="scale(1,-1)"
        fill-opacity="1"
      >
        <g data-mml-node="math">
          <g data-mml-node="msub">
            <g data-mml-node="mi">
              <path
                data-c="1D443"
                d="M287 628Q287 635 230 637Q206 637 199 638T192 648Q192 649 194 659Q200 679 203 681T397 683Q587 682 600 680Q664 669 707 631T751 530Q751 453 685 389Q616 321 507 303Q500 302 402 301H307L277 182Q247 66 247 59Q247 55 248 54T255 50T272 48T305 46H336Q342 37 342 35Q342 19 335 5Q330 0 319 0Q316 0 282 1T182 2Q120 2 87 2T51 1Q33 1 33 11Q33 13 36 25Q40 41 44 43T67 46Q94 46 127 49Q141 52 146 61Q149 65 218 339T287 628ZM645 554Q645 567 643 575T634 597T609 619T560 635Q553 636 480 637Q463 637 445 637T416 636T404 636Q391 635 386 627Q384 621 367 550T332 412T314 344Q314 342 395 342H407H430Q542 342 590 392Q617 419 631 471T645 554Z"
              />
            </g>
            <g data-mml-node="mn" transform="translate(675,-150) scale(0.707)">
              <path
                data-c="34"
                d="M462 0Q444 3 333 3Q217 3 199 0H190V46H221Q241 46 248 46T265 48T279 53T286 61Q287 63 287 115V165H28V211L179 442Q332 674 334 675Q336 677 355 677H373L379 671V211H471V165H379V114Q379 73 379 66T385 54Q393 47 442 46H471V0H462ZM293 211V545L74 212L183 211H293Z"
              />
            </g>
          </g>
        </g>
      </g>
    </svg>
  </g>
  <g
    transform="rotate(0, 499.99993896484375, 20.000015258789062)translate(487.0567388534546, 9.816815376281738)"
  >
    <title>3:5:nSides</title>
    <svg
      style="font-size: 24px"
      xmlns="http://www.w3.org/2000/svg"
      width="25.88640022277832"
      height="20.36639976501465"
      role="img"
      focusable="false"
      viewBox="0 -683 1078.6 848.6"
    >
      <g
        stroke="none"
        fill="#000000"
        stroke-width="0"
        transform="scale(1,-1)"
        fill-opacity="1"
      >
        <g data-mml-node="math">
          <g data-mml-node="msub">
            <g data-mml-node="mi">
              <path
                data-c="1D443"
                d="M287 628Q287 635 230 637Q206 637 199 638T192 648Q192 649 194 659Q200 679 203 681T397 683Q587 682 600 680Q664 669 707 631T751 530Q751 453 685 389Q616 321 507 303Q500 302 402 301H307L277 182Q247 66 247 59Q247 55 248 54T255 50T272 48T305 46H336Q342 37 342 35Q342 19 335 5Q330 0 319 0Q316 0 282 1T182 2Q120 2 87 2T51 1Q33 1 33 11Q33 13 36 25Q40 41 44 43T67 46Q94 46 127 49Q141 52 146 61Q149 65 218 339T287 628ZM645 554Q645 567 643 575T634 597T609 619T560 635Q553 636 480 637Q463 637 445 637T416 636T404 636Q391 635 386 627Q384 621 367 550T332 412T314 344Q314 342 395 342H407H430Q542 342 590 392Q617 419 631 471T645 554Z"
              />
            </g>
            <g data-mml-node="mn" transform="translate(675,-150) scale(0.707)">
              <path
                data-c="36"
                d="M42 313Q42 476 123 571T303 666Q372 666 402 630T432 550Q432 525 418 510T379 495Q356 495 341 509T326 548Q326 592 373 601Q351 623 311 626Q240 626 194 566Q147 500 147 364L148 360Q153 366 156 373Q197 433 263 433H267Q313 433 348 414Q372 400 396 374T435 317Q456 268 456 210V192Q456 169 451 149Q440 90 387 34T253 -22Q225 -22 199 -14T143 16T92 75T56 172T42 313ZM257 397Q227 397 205 380T171 335T154 278T148 216Q148 133 160 97T198 39Q222 21 251 21Q302 21 329 59Q342 77 347 104T352 209Q352 289 347 316T329 361Q302 397 257 397Z"
              />
            </g>
          </g>
        </g>
      </g>
    </svg>
  </g>
  <g
    transform="rotate(0, 584.9999389648438, 20.000015258789062)translate(572.0567388534546, 9.816815376281738)"
  >
    <title>3:6:nSides</title>
    <svg
      style="font-size: 24px"
      xmlns="http://www.w3.org/2000/svg"
      width="25.88640022277832"
      height="20.36639976501465"
      role="img"
      focusable="false"
      viewBox="0 -683 1078.6 848.6"
    >
      <g
        stroke="none"
        fill="#000000"
        stroke-width="0"
        transform="scale(1,-1)"
        fill-opacity="1"
      >
        <g data-mml-node="math">
          <g data-mml-node="msub">
            <g data-mml-node="mi">
              <path
                data-c="1D443"
                d="M287 628Q287 635 230 637Q206 637 199 638T192 648Q192 649 194 659Q200 679 203 681T397 683Q587 682 600 680Q664 669 707 631T751 530Q751 453 685 389Q616 321 507 303Q500 302 402 301H307L277 182Q247 66 247 59Q247 55 248 54T255 50T272 48T305 46H336Q342 37 342 35Q342 19 335 5Q330 0 319 0Q316 0 282 1T182 2Q120 2 87 2T51 1Q33 1 33 11Q33 13 36 25Q40 41 44 43T67 46Q94 46 127 49Q141 52 146 61Q149 65 218 339T287 628ZM645 554Q645 567 643 575T634 597T609 619T560 635Q553 636 480 637Q463 637 445 637T416 636T404 636Q391 635 386 627Q384 621 367 550T332 412T314 344Q314 342 395 342H407H430Q542 342 590 392Q617 419 631 471T645 554Z"
              />
            </g>
            <g data-mml-node="mn" transform="translate(675,-150) scale(0.707)">
              <path
                data-c="37"
                d="M55 458Q56 460 72 567L88 674Q88 676 108 676H128V672Q128 662 143 655T195 646T364 644H485V605L417 512Q408 500 387 472T360 435T339 403T319 367T305 330T292 284T284 230T278 162T275 80Q275 66 275 52T274 28V19Q270 2 255 -10T221 -22Q210 -22 200 -19T179 0T168 40Q168 198 265 368Q285 400 349 489L395 552H302Q128 552 119 546Q113 543 108 522T98 479L95 458V455H55V458Z"
              />
            </g>
          </g>
        </g>
      </g>
    </svg>
  </g>
  <g
    transform="rotate(0, 754.9999389648438, 20.000015258789062)translate(742.0567388534546, 9.816815376281738)"
  >
    <title>3:8:nSides</title>
    <svg
      style="font-size: 24px"
      xmlns="http://www.w3.org/2000/svg"
      width="25.88640022277832"
      height="20.36639976501465"
      role="img"
      focusable="false"
      viewBox="0 -683 1078.6 848.6"
    >
      <g
        stroke="none"
        fill="#000000"
        stroke-width="0"
        transform="scale(1,-1)"
        fill-opacity="1"
      >
        <g data-mml-node="math">
          <g data-mml-node="msub">
            <g data-mml-node="mi">
              <path
                data-c="1D443"
                d="M287 628Q287 635 230 637Q206 637 199 638T192 648Q192 649 194 659Q200 679 203 681T397 683Q587 682 600 680Q664 669 707 631T751 530Q751 453 685 389Q616 321 507 303Q500 302 402 301H307L277 182Q247 66 247 59Q247 55 248 54T255 50T272 48T305 46H336Q342 37 342 35Q342 19 335 5Q330 0 319 0Q316 0 282 1T182 2Q120 2 87 2T51 1Q33 1 33 11Q33 13 36 25Q40 41 44 43T67 46Q94 46 127 49Q141 52 146 61Q149 65 218 339T287 628ZM645 554Q645 567 643 575T634 597T609 619T560 635Q553 636 480 637Q463 637 445 637T416 636T404 636Q391 635 386 627Q384 621 367 550T332 412T314 344Q314 342 395 342H407H430Q542 342 590 392Q617 419 631 471T645 554Z"
              />
            </g>
            <g data-mml-node="mn" transform="translate(675,-150) scale(0.707)">
              <path
                data-c="39"
                d="M352 287Q304 211 232 211Q154 211 104 270T44 396Q42 412 42 436V444Q42 537 111 606Q171 666 243 666Q245 666 249 666T257 665H261Q273 665 286 663T323 651T370 619T413 560Q456 472 456 334Q456 194 396 97Q361 41 312 10T208 -22Q147 -22 108 7T68 93T121 149Q143 149 158 135T173 96Q173 78 164 65T148 49T135 44L131 43Q131 41 138 37T164 27T206 22H212Q272 22 313 86Q352 142 352 280V287ZM244 248Q292 248 321 297T351 430Q351 508 343 542Q341 552 337 562T323 588T293 615T246 625Q208 625 181 598Q160 576 154 546T147 441Q147 358 152 329T172 282Q197 248 244 248Z"
              />
            </g>
          </g>
        </g>
      </g>
    </svg>
  </g>
  <g
    transform="rotate(0, 669.9999389648438, 20.000015258789062)translate(657.0567388534546, 9.816815376281738)"
  >
    <title>3:7:nSides</title>
    <svg
      style="font-size: 24px"
      xmlns="http://www.w3.org/2000/svg"
      width="25.88640022277832"
      height="20.36639976501465"
      role="img"
      focusable="false"
      viewBox="0 -683 1078.6 848.6"
    >
      <g
        stroke="none"
        fill="#000000"
        stroke-width="0"
        transform="scale(1,-1)"
        fill-opacity="1"
      >
        <g data-mml-node="math">
          <g data-mml-node="msub">
            <g data-mml-node="mi">
              <path
                data-c="1D443"
                d="M287 628Q287 635 230 637Q206 637 199 638T192 648Q192 649 194 659Q200 679 203 681T397 683Q587 682 600 680Q664 669 707 631T751 530Q751 453 685 389Q616 321 507 303Q500 302 402 301H307L277 182Q247 66 247 59Q247 55 248 54T255 50T272 48T305 46H336Q342 37 342 35Q342 19 335 5Q330 0 319 0Q316 0 282 1T182 2Q120 2 87 2T51 1Q33 1 33 11Q33 13 36 25Q40 41 44 43T67 46Q94 46 127 49Q141 52 146 61Q149 65 218 339T287 628ZM645 554Q645 567 643 575T634 597T609 619T560 635Q553 636 480 637Q463 637 445 637T416 636T404 636Q391 635 386 627Q384 621 367 550T332 412T314 344Q314 342 395 342H407H430Q542 342 590 392Q617 419 631 471T645 554Z"
              />
            </g>
            <g data-mml-node="mn" transform="translate(675,-150) scale(0.707)">
              <path
                data-c="38"
                d="M70 417T70 494T124 618T248 666Q319 666 374 624T429 515Q429 485 418 459T392 417T361 389T335 371T324 363L338 354Q352 344 366 334T382 323Q457 264 457 174Q457 95 399 37T249 -22Q159 -22 101 29T43 155Q43 263 172 335L154 348Q133 361 127 368Q70 417 70 494ZM286 386L292 390Q298 394 301 396T311 403T323 413T334 425T345 438T355 454T364 471T369 491T371 513Q371 556 342 586T275 624Q268 625 242 625Q201 625 165 599T128 534Q128 511 141 492T167 463T217 431Q224 426 228 424L286 386ZM250 21Q308 21 350 55T392 137Q392 154 387 169T375 194T353 216T330 234T301 253T274 270Q260 279 244 289T218 306L210 311Q204 311 181 294T133 239T107 157Q107 98 150 60T250 21Z"
              />
            </g>
          </g>
        </g>
      </g>
    </svg>
  </g>
  <g opacity="0.25">
    <filter
      id="nsides-chirality__`P_1`.ccw-shadow"
      x="0"
      y="0"
      width="200%"
      height="200%"
    >
      <feOffset result="offOut" in="SourceAlpha" dx="5" dy="5" />
      <feGaussianBlur result="blurOut" in="offOut" stdDeviation="4" />
      <feBlend in="SourceGraphic" in2="blurOut" mode="normal" />
      <feComponentTransfer>
        <feFuncA type="linear" slope="0.5" />
      </feComponentTransfer>
      <feMerge>
        <feMergeNode />
        <feMergeNode in="SourceGraphic" />
      </feMerge>
    </filter>
    <path
      fill="#000000"
      fill-opacity="0.06666667014360428"
      stroke="#000000"
      stroke-opacity="0.5333333611488342"
      stroke-width="1.5"
      stroke-linecap="butt"
      d="M 77.88674926757812 45.00001525878906 L 75 40.00001525878906 L 43.2457275390625 95.00001525878906 L 95.20724487304688 95.0000114440918 L 92.32049560546875 90.0000114440918 L 51.906005859375 90.00001525878906 Z  M 43.2457275390625 95.00001525878906 L 40.358978271484375 100.00001525878906 L 103.86752319335938 100.00000953674316 L 77.88674926757812 55.00001525878906 L 75 60.00001525878906 L 95.20724487304688 95.0000114440918 Z  M 103.86752319335938 100.00000953674316 L 109.64102172851562 100.00000953674316 L 77.88674926757812 45.00001525878906 L 51.906005859375 90.00001525878906 L 57.67950439453125 90.00001525878906 L 77.88674926757812 55.00001525878906 Z "
    />
    <title>`P_1`.ccw</title>
  </g>
  <g opacity="0.25">
    <filter
      id="nsides-chirality__`P_1`.cw-shadow"
      x="0"
      y="0"
      width="200%"
      height="200%"
    >
      <feOffset result="offOut" in="SourceAlpha" dx="5" dy="5" />
      <feGaussianBlur result="blurOut" in="offOut" stdDeviation="4" />
      <feBlend in="SourceGraphic" in2="blurOut" mode="normal" />
      <feComponentTransfer>
        <feFuncA type="linear" slope="0.5" />
      </feComponentTransfer>
      <feMerge>
        <feMergeNode />
        <feMergeNode in="SourceGraphic" />
      </feMerge>
    </filter>
    <path
      fill="#000000"
      fill-opacity="0.06666667014360428"
      stroke="#000000"
      stroke-opacity="0.5333333611488342"
      stroke-width="1.5"
      stroke-linecap="butt"
      d="M 72.11325073242188 165.00000381469727 L 75 160.00000381469727 L 106.7542724609375 215 L 54.792755126953125 215 L 57.67950439453125 210 L 98.093994140625 210 Z  M 106.7542724609375 215 L 109.64102172851562 220 L 46.132476806640625 219.99999237060547 L 72.11325073242188 175 L 75 180 L 54.792755126953125 215 Z  M 46.132476806640625 219.99999237060547 L 40.358978271484375 219.99999237060547 L 72.11325073242188 165.00000381469727 L 98.093994140625 210 L 92.32049560546875 210 L 72.11325073242188 175 Z "
    />
    <title>`P_1`.cw</title>
  </g>
  <g opacity="0.25">
    <filter
      id="nsides-chirality__`P_2`.ccw-shadow"
      x="0"
      y="0"
      width="200%"
      height="200%"
    >
      <feOffset result="offOut" in="SourceAlpha" dx="5" dy="5" />
      <feGaussianBlur result="blurOut" in="offOut" stdDeviation="4" />
      <feBlend in="SourceGraphic" in2="blurOut" mode="normal" />
      <feComponentTransfer>
        <feFuncA type="linear" slope="0.5" />
      </feComponentTransfer>
      <feMerge>
        <feMergeNode />
        <feMergeNode in="SourceGraphic" />
      </feMerge>
    </filter>
    <path
      fill="#000000"
      fill-opacity="0.06666667014360428"
      stroke="#000000"
      stroke-opacity="0.5333333611488342"
      stroke-width="1.5"
      stroke-linecap="butt"
      d="M 162.88674926757812 45.00001525878906 L 160 40.00001525878906 L 128.2457275390625 95.00001525878906 L 180.20726013183594 95.00000953674316 L 177.3205108642578 90.0000114440918 L 136.906005859375 90.00001525878906 Z  M 128.2457275390625 95.00001525878906 L 125.35897827148438 100.00001525878906 L 188.86752319335938 100.00000953674316 L 162.88674926757812 55.00001525878906 L 160 60.00001525878906 L 180.20726013183594 95.00000953674316 Z  M 188.86752319335938 100.00000953674316 L 194.64102172851562 100.00000953674316 L 162.88674926757812 45.00001525878906 L 136.906005859375 90.00001525878906 L 142.67950439453125 90.00001525878906 L 162.88674926757812 55.00001525878906 Z "
    />
    <title>`P_2`.ccw</title>
  </g>
  <g opacity="0.25">
    <filter
      id="nsides-chirality__`P_2`.cw-shadow"
      x="0"
      y="0"
      width="200%"
      height="200%"
    >
      <feOffset result="offOut" in="SourceAlpha" dx="5" dy="5" />
      <feGaussianBlur result="blurOut" in="offOut" stdDeviation="4" />
      <feBlend in="SourceGraphic" in2="blurOut" mode="normal" />
      <feComponentTransfer>
        <feFuncA type="linear" slope="0.5" />
      </feComponentTransfer>
      <feMerge>
        <feMergeNode />
        <feMergeNode in="SourceGraphic" />
      </feMerge>
    </filter>
    <path
      fill="#000000"
      fill-opacity="0.06666667014360428"
      stroke="#000000"
      stroke-opacity="0.5333333611488342"
      stroke-width="1.5"
      stroke-linecap="butt"
      d="M 157.11325073242188 165.00000381469727 L 160 160.00000381469727 L 191.7542724609375 215 L 139.79275512695312 215 L 142.67950439453125 210 L 183.09400939941406 210 Z  M 191.7542724609375 215 L 194.64102172851562 220 L 131.13247680664062 219.99999237060547 L 157.11325073242188 175 L 160 180 L 139.79275512695312 215 Z  M 131.13247680664062 219.99999237060547 L 125.35897827148438 219.99999237060547 L 157.11325073242188 165.00000381469727 L 183.09400939941406 210 L 177.3205108642578 210 L 157.11325073242188 175 Z "
    />
    <title>`P_2`.cw</title>
  </g>
  <g>
    <filter
      id="nsides-chirality__`P_3`.ccw-shadow"
      x="0"
      y="0"
      width="200%"
      height="200%"
    >
      <feOffset result="offOut" in="SourceAlpha" dx="5" dy="5" />
      <feGaussianBlur result="blurOut" in="offOut" stdDeviation="4" />
      <feBlend in="SourceGraphic" in2="blurOut" mode="normal" />
      <feComponentTransfer>
        <feFuncA type="linear" slope="0.5" />
      </feComponentTransfer>
      <feMerge>
        <feMergeNode />
        <feMergeNode in="SourceGraphic" />
      </feMerge>
    </filter>
    <path
      fill="#000000"
      fill-opacity="0.06666667014360428"
      stroke="#000000"
      stroke-opacity="0.5333333611488342"
      stroke-width="1.5"
      stroke-linecap="butt"
      d="M 247.88671875 45.00001525878906 L 244.99996948242188 40.00001525878906 L 213.24569702148438 95.0000171661377 L 265.2072296142578 95.00000953674316 L 262.3204803466797 90.0000114440918 L 221.9059600830078 90.00001525878906 Z  M 213.24569702148438 95.0000171661377 L 210.35894775390625 100.00001525878906 L 273.8674850463867 100.00000953674316 L 247.88671875 55.00001525878906 L 244.99996948242188 60.00001525878906 L 265.2072296142578 95.00000953674316 Z  M 273.8674850463867 100.00000953674316 L 279.64098358154297 100.00000953674316 L 247.88671875 45.00001525878906 L 221.9059600830078 90.00001525878906 L 227.67945861816406 90.00001525878906 L 247.88671875 55.00001525878906 Z "
    />
    <title>`P_3`.ccw</title>
  </g>
  <g>
    <filter
      id="nsides-chirality__`P_3`.cw-shadow"
      x="0"
      y="0"
      width="200%"
      height="200%"
    >
      <feOffset result="offOut" in="SourceAlpha" dx="5" dy="5" />
      <feGaussianBlur result="blurOut" in="offOut" stdDeviation="4" />
      <feBlend in="SourceGraphic" in2="blurOut" mode="normal" />
      <feComponentTransfer>
        <feFuncA type="linear" slope="0.5" />
      </feComponentTransfer>
      <feMerge>
        <feMergeNode />
        <feMergeNode in="SourceGraphic" />
      </feMerge>
    </filter>
    <path
      fill="#000000"
      fill-opacity="0.06666667014360428"
      stroke="#000000"
      stroke-opacity="0.5333333611488342"
      stroke-width="1.5"
      stroke-linecap="butt"
      d="M 242.11322021484375 165 L 244.99996948242188 160.00000381469727 L 276.75423431396484 215 L 224.79270935058594 215 L 227.67945861816406 210 L 268.09397888183594 210 Z  M 276.75423431396484 215 L 279.64098358154297 220 L 216.1324462890625 219.99999237060547 L 242.11322021484375 175 L 244.99996948242188 180 L 224.79270935058594 215 Z  M 216.1324462890625 219.99999237060547 L 210.35894775390625 219.99999237060547 L 242.11322021484375 165 L 268.09397888183594 210 L 262.3204803466797 210 L 242.11322021484375 175 Z "
    />
    <title>`P_3`.cw</title>
  </g>
  <g>
    <filter
      id="nsides-chirality__`P_4`.ccw-shadow"
      x="0"
      y="0"
      width="200%"
      height="200%"
    >
      <feOffset result="offOut" in="SourceAlpha" dx="5" dy="5" />
      <feGaussianBlur result="blurOut" in="offOut" stdDeviation="4" />
      <feBlend in="SourceGraphic" in2="blurOut" mode="normal" />
      <feComponentTransfer>
        <feFuncA type="linear" slope="0.5" />
      </feComponentTransfer>
      <feMerge>
        <feMergeNode />
        <feMergeNode in="SourceGraphic" />
      </feMerge>
    </filter>
    <path
      fill="#000000"
      fill-opacity="0.06666667014360428"
      stroke="#000000"
      stroke-opacity="0.5333333611488342"
      stroke-width="1.5"
      stroke-linecap="butt"
      d="M 334.9999694824219 45.00001525878906 L 329.9999694824219 40.00001525878906 L 294.9999694824219 75.00001525878906 L 324.9999694824219 105.0000114440918 L 329.9999694824219 100.00001335144043 L 304.9999694824219 75.00001525878906 Z  M 294.9999694824219 75.00001525878906 L 289.9999694824219 80.00001525878906 L 324.9999694824219 115.00001335144043 L 354.9999694824219 85.00001525878906 L 349.9999694824219 80.00001525878906 L 324.9999694824219 105.0000114440918 Z  M 324.9999694824219 115.00001335144043 L 329.9999694824219 120.0000114440918 L 364.9999694824219 85.00001525878906 L 334.9999694824219 55.00001525878906 L 329.9999694824219 60.00001525878906 L 354.9999694824219 85.00001525878906 Z  M 364.9999694824219 85.00001525878906 L 369.9999656677246 80.00001525878906 L 334.9999694824219 45.00001525878906 L 304.9999694824219 75.00001525878906 L 309.9999694824219 80.00001525878906 L 334.9999694824219 55.00001525878906 Z "
    />
    <title>`P_4`.ccw</title>
  </g>
  <g>
    <filter
      id="nsides-chirality__`P_4`.cw-shadow"
      x="0"
      y="0"
      width="200%"
      height="200%"
    >
      <feOffset result="offOut" in="SourceAlpha" dx="5" dy="5" />
      <feGaussianBlur result="blurOut" in="offOut" stdDeviation="4" />
      <feBlend in="SourceGraphic" in2="blurOut" mode="normal" />
      <feComponentTransfer>
        <feFuncA type="linear" slope="0.5" />
      </feComponentTransfer>
      <feMerge>
        <feMergeNode />
        <feMergeNode in="SourceGraphic" />
      </feMerge>
    </filter>
    <path
      fill="#000000"
      fill-opacity="0.06666667014360428"
      stroke="#000000"
      stroke-opacity="0.5333333611488342"
      stroke-width="1.5"
      stroke-linecap="butt"
      d="M 324.9999694824219 165 L 329.9999694824219 160.00000381469727 L 364.9999694824219 195 L 334.9999694824219 225 L 329.9999694824219 220 L 354.9999694824219 195 Z  M 364.9999694824219 195 L 369.9999656677246 200 L 334.9999694824219 235 L 304.9999694824219 205 L 309.9999694824219 200 L 334.9999694824219 225 Z  M 334.9999694824219 235 L 329.9999694824219 240 L 294.9999694824219 205 L 324.9999694824219 175 L 329.9999694824219 180 L 304.9999694824219 205 Z  M 294.9999694824219 205 L 289.9999694824219 200 L 324.9999694824219 165 L 354.9999694824219 195 L 349.9999694824219 200 L 324.9999694824219 175 Z "
    />
    <title>`P_4`.cw</title>
  </g>
  <g>
    <filter
      id="nsides-chirality__`P_5`.ccw-shadow"
      x="0"
      y="0"
      width="200%"
      height="200%"
    >
      <feOffset result="offOut" in="SourceAlpha" dx="5" dy="5" />
      <feGaussianBlur result="blurOut" in="offOut" stdDeviation="4" />
      <feBlend in="SourceGraphic" in2="blurOut" mode="normal" />
      <feComponentTransfer>
        <feFuncA type="linear" slope="0.5" />
      </feComponentTransfer>
      <feMerge>
        <feMergeNode />
        <feMergeNode in="SourceGraphic" />
      </feMerge>
    </filter>
    <path
      fill="#000000"
      fill-opacity="0.06666667014360428"
      stroke="#000000"
      stroke-opacity="0.5333333611488342"
      stroke-width="1.5"
      stroke-linecap="butt"
      d="M 421.88187980651855 45.00001525878906 L 414.99997329711914 40.00001525878906 L 383.83962059020996 62.639339447021484 L 394.73776626586914 96.18035507202148 L 403.24427032470703 96.18035507202148 L 393.3501892089844 65.72950744628906 Z  M 383.83962059020996 62.639339447021484 L 376.95771408081055 67.63933563232422 L 388.85991287231445 104.27052879333496 L 424.1270275115967 104.2705192565918 L 426.7556800842285 96.18035316467285 L 394.73776626586914 96.18035507202148 Z  M 388.85991287231445 104.27052879333496 L 391.4885673522949 112.3606948852539 L 430.00487899780273 112.36069202423096 L 440.9030113220215 78.81966781616211 L 434.02110290527344 73.81967163085938 L 424.1270275115967 104.2705192565918 Z  M 430.00487899780273 112.36069202423096 L 438.5113830566406 112.36069107055664 L 450.41357421875 75.72949981689453 L 421.88187980651855 55.00001525878906 L 414.99997329711914 60.00001525878906 L 440.9030113220215 78.81966781616211 Z  M 450.41357421875 75.72949981689453 L 453.04222869873047 67.63933181762695 L 421.88187980651855 45.00001525878906 L 393.3501892089844 65.72950744628906 L 395.97884368896484 73.81967544555664 L 421.88187980651855 55.00001525878906 Z "
    />
    <title>`P_5`.ccw</title>
  </g>
  <g>
    <filter
      id="nsides-chirality__`P_5`.cw-shadow"
      x="0"
      y="0"
      width="200%"
      height="200%"
    >
      <feOffset result="offOut" in="SourceAlpha" dx="5" dy="5" />
      <feGaussianBlur result="blurOut" in="offOut" stdDeviation="4" />
      <feBlend in="SourceGraphic" in2="blurOut" mode="normal" />
      <feComponentTransfer>
        <feFuncA type="linear" slope="0.5" />
      </feComponentTransfer>
      <feMerge>
        <feMergeNode />
        <feMergeNode in="SourceGraphic" />
      </feMerge>
    </filter>
    <path
      fill="#000000"
      fill-opacity="0.06666667014360428"
      stroke="#000000"
      stroke-opacity="0.5333333611488342"
      stroke-width="1.5"
      stroke-linecap="butt"
      d="M 408.1180667877197 165 L 414.99997329711914 160.00000381469727 L 446.16032791137695 182.63932037353516 L 435.26218032836914 216.1803436279297 L 426.75567626953125 216.1803436279297 L 436.6497573852539 185.72949981689453 Z  M 446.16032791137695 182.63932037353516 L 453.04223251342773 187.63932037353516 L 441.1400337219238 224.27051544189453 L 405.87292098999023 224.27050018310547 L 403.2442674636841 216.18033599853516 L 435.26218032836914 216.1803436279297 Z  M 441.1400337219238 224.27051544189453 L 438.51137924194336 232.36067962646484 L 399.9950656890869 232.3606719970703 L 389.09693908691406 198.8196563720703 L 395.9788455963135 193.8196563720703 L 405.87292098999023 224.27050018310547 Z  M 399.9950656890869 232.3606719970703 L 391.488561630249 232.3606719970703 L 379.58637046813965 195.72948455810547 L 408.1180667877197 175 L 414.99997329711914 180 L 389.09693908691406 198.8196563720703 Z  M 379.58637046813965 195.72948455810547 L 376.9577178955078 187.6393165588379 L 408.1180667877197 165 L 436.6497573852539 185.72949981689453 L 434.02110290527344 193.81966400146484 L 408.1180667877197 175 Z "
    />
    <title>`P_5`.cw</title>
  </g>
  <g>
    <filter
      id="nsides-chirality__`P_6`.ccw-shadow"
      x="0"
      y="0"
      width="200%"
      height="200%"
    >
      <feOffset result="offOut" in="SourceAlpha" dx="5" dy="5" />
      <feGaussianBlur result="blurOut" in="offOut" stdDeviation="4" />
      <feBlend in="SourceGraphic" in2="blurOut" mode="normal" />
      <feComponentTransfer>
        <feFuncA type="linear" slope="0.5" />
      </feComponentTransfer>
      <feMerge>
        <feMergeNode />
        <feMergeNode in="SourceGraphic" />
      </feMerge>
    </filter>
    <path
      fill="#000000"
      fill-opacity="0.06666667014360428"
      stroke="#000000"
      stroke-opacity="0.5333333611488342"
      stroke-width="1.5"
      stroke-linecap="butt"
      d="M 508.6601867675781 45.00001525878906 L 499.99993896484375 40.00001525878906 L 474.01917266845703 55.00001525878906 L 474.01918029785156 85.00001907348633 L 482.67942810058594 90.00001525878906 L 482.67942810058594 60.000022888183594 Z  M 474.01917266845703 55.00001525878906 L 465.35892486572266 60.00001525878906 L 465.35892486572266 90.00001907348633 L 491.3396911621094 105.0000114440918 L 499.99993896484375 100.00001335144043 L 474.01918029785156 85.00001907348633 Z  M 465.35892486572266 90.00001907348633 L 465.35892486572266 100.00001525878906 L 491.3396911621094 115.00001525878906 L 517.3204498291016 100.00000762939453 L 517.3204498291016 90.0000114440918 L 491.3396911621094 105.0000114440918 Z  M 491.3396911621094 115.00001525878906 L 499.99993896484375 120.0000114440918 L 525.980712890625 105.00000762939453 L 525.9806976318359 75.00001907348633 L 517.3204498291016 70.00001907348633 L 517.3204498291016 100.00000762939453 Z  M 525.980712890625 105.00000762939453 L 534.6409606933594 100.00000953674316 L 534.6409606933594 70.00001907348633 L 508.6601867675781 55.00001525878906 L 499.99993896484375 60.00001525878906 L 525.9806976318359 75.00001907348633 Z  M 534.6409606933594 70.00001907348633 L 534.6409606933594 60.000022888183594 L 508.6601867675781 45.00001525878906 L 482.67942810058594 60.000022888183594 L 482.67942810058594 70.00001525878906 L 508.6601867675781 55.00001525878906 Z "
    />
    <title>`P_6`.ccw</title>
  </g>
  <g>
    <filter
      id="nsides-chirality__`P_6`.cw-shadow"
      x="0"
      y="0"
      width="200%"
      height="200%"
    >
      <feOffset result="offOut" in="SourceAlpha" dx="5" dy="5" />
      <feGaussianBlur result="blurOut" in="offOut" stdDeviation="4" />
      <feBlend in="SourceGraphic" in2="blurOut" mode="normal" />
      <feComponentTransfer>
        <feFuncA type="linear" slope="0.5" />
      </feComponentTransfer>
      <feMerge>
        <feMergeNode />
        <feMergeNode in="SourceGraphic" />
      </feMerge>
    </filter>
    <path
      fill="#000000"
      fill-opacity="0.06666667014360428"
      stroke="#000000"
      stroke-opacity="0.5333333611488342"
      stroke-width="1.5"
      stroke-linecap="butt"
      d="M 491.3396911621094 165 L 499.99993896484375 160.00000381469727 L 525.980712890625 175.00000762939453 L 525.9806976318359 205 L 517.3204498291016 210 L 517.3204498291016 180.00000381469727 Z  M 525.980712890625 175.00000762939453 L 534.6409606933594 180.00000381469727 L 534.6409606933594 210.00000762939453 L 508.6601867675781 225 L 499.99993896484375 220 L 525.9806976318359 205 Z  M 534.6409606933594 210.00000762939453 L 534.6409606933594 220 L 508.6601867675781 235 L 482.67942810058594 219.99999237060547 L 482.67942810058594 210 L 508.6601867675781 225 Z  M 508.6601867675781 235 L 499.99993896484375 240 L 474.01917266845703 224.99999237060547 L 474.01918029785156 195 L 482.67942810058594 190 L 482.67942810058594 219.99999237060547 Z  M 474.01917266845703 224.99999237060547 L 465.35892486572266 219.99999237060547 L 465.35892486572266 190 L 491.3396911621094 175.00000381469727 L 499.99993896484375 180 L 474.01918029785156 195 Z  M 465.35892486572266 190 L 465.35892486572266 180.00000762939453 L 491.3396911621094 165 L 517.3204498291016 180.00000381469727 L 517.3204498291016 190 L 491.3396911621094 175.00000381469727 Z "
    />
    <title>`P_6`.cw</title>
  </g>
  <g>
    <filter
      id="nsides-chirality__`P_7`.ccw-shadow"
      x="0"
      y="0"
      width="200%"
      height="200%"
    >
      <feOffset result="offOut" in="SourceAlpha" dx="5" dy="5" />
      <feGaussianBlur result="blurOut" in="offOut" stdDeviation="4" />
      <feBlend in="SourceGraphic" in2="blurOut" mode="normal" />
      <feComponentTransfer>
        <feFuncA type="linear" slope="0.5" />
      </feComponentTransfer>
      <feMerge>
        <feMergeNode />
        <feMergeNode in="SourceGraphic" />
      </feMerge>
    </filter>
    <path
      fill="#000000"
      fill-opacity="0.06666667014360428"
      stroke="#000000"
      stroke-opacity="0.5333333611488342"
      stroke-width="1.5"
      stroke-linecap="butt"
      d="M 595.3825378417969 45.00001525878906 L 584.9999389648438 40.00001525878906 L 564.1092834472656 50.0604248046875 L 558.31640625 75.44074249267578 L 565.5013885498047 84.45043182373047 L 571.9275970458984 56.295326232910156 Z  M 564.1092834472656 50.0604248046875 L 553.7266845703125 55.0604248046875 L 548.5671081542969 77.66595840454102 L 564.7984466552734 98.01939010620117 L 576.322265625 98.01939010620117 L 558.31640625 75.44074249267578 Z  M 548.5671081542969 77.66595840454102 L 546.0028228759766 88.90085220336914 L 560.4596099853516 107.02907752990723 L 586.4926300048828 107.0290756225586 L 593.6776123046875 98.01939010620117 L 564.7984466552734 98.01939010620117 Z  M 560.4596099853516 107.02907752990723 L 567.6445922851562 116.03876495361328 L 590.8314666748047 116.03876495361328 L 607.0627746582031 95.68532943725586 L 604.4984893798828 84.45043563842773 L 586.4926300048828 107.0290756225586 Z  M 590.8314666748047 116.03876495361328 L 602.3552856445312 116.03876495361328 L 616.8120727539062 97.91054153442383 L 611.0191650390625 72.53022384643555 L 600.6365661621094 67.53022384643555 L 607.0627746582031 95.68532943725586 Z  M 616.8120727539062 97.91054153442383 L 623.9970550537109 88.9008560180664 L 618.8374786376953 66.29532623291016 L 595.3825378417969 55.00001525878906 L 584.9999389648438 60.00001525878906 L 611.0191650390625 72.53022384643555 Z  M 618.8374786376953 66.29532623291016 L 616.273193359375 55.06043243408203 L 595.3825378417969 45.00001525878906 L 571.9275970458984 56.295326232910156 L 569.3633117675781 67.53022003173828 L 595.3825378417969 55.00001525878906 Z "
    />
    <title>`P_7`.ccw</title>
  </g>
  <g>
    <filter
      id="nsides-chirality__`P_7`.cw-shadow"
      x="0"
      y="0"
      width="200%"
      height="200%"
    >
      <feOffset result="offOut" in="SourceAlpha" dx="5" dy="5" />
      <feGaussianBlur result="blurOut" in="offOut" stdDeviation="4" />
      <feBlend in="SourceGraphic" in2="blurOut" mode="normal" />
      <feComponentTransfer>
        <feFuncA type="linear" slope="0.5" />
      </feComponentTransfer>
      <feMerge>
        <feMergeNode />
        <feMergeNode in="SourceGraphic" />
      </feMerge>
    </filter>
    <path
      fill="#000000"
      fill-opacity="0.06666667014360428"
      stroke="#000000"
      stroke-opacity="0.5333333611488342"
      stroke-width="1.5"
      stroke-linecap="butt"
      d="M 574.6173400878906 165.00000381469727 L 584.9999389648438 160.00000381469727 L 605.8905944824219 170.06040954589844 L 611.6834716796875 195.44072723388672 L 604.4984893798828 204.4504165649414 L 598.0722808837891 176.2953109741211 Z  M 605.8905944824219 170.06040954589844 L 616.273193359375 175.06040954589844 L 621.4327697753906 197.6659393310547 L 605.2014312744141 218.01937866210938 L 593.6776123046875 218.01937866210938 L 611.6834716796875 195.44072723388672 Z  M 621.4327697753906 197.6659393310547 L 623.9970550537109 208.9008331298828 L 609.5402679443359 227.02906036376953 L 583.5072479248047 227.02906799316406 L 576.322265625 218.01937866210938 L 605.2014312744141 218.01937866210938 Z  M 609.5402679443359 227.02906036376953 L 602.3552856445312 236.03874969482422 L 579.1684112548828 236.03874969482422 L 562.9371032714844 215.68531036376953 L 565.5013885498047 204.4504165649414 L 583.5072479248047 227.02906799316406 Z  M 579.1684112548828 236.03874969482422 L 567.6445922851562 236.03874969482422 L 553.1878051757812 217.91053009033203 L 558.980712890625 192.53021240234375 L 569.3633117675781 187.53020858764648 L 562.9371032714844 215.68531036376953 Z  M 553.1878051757812 217.91053009033203 L 546.0028228759766 208.90084075927734 L 551.1623992919922 186.2953109741211 L 574.6173400878906 175 L 584.9999389648438 180 L 558.980712890625 192.53021240234375 Z  M 551.1623992919922 186.2953109741211 L 553.7266845703125 175.06041717529297 L 574.6173400878906 165.00000381469727 L 598.0722808837891 176.2953109741211 L 600.6365661621094 187.53020477294922 L 574.6173400878906 175 Z "
    />
    <title>`P_7`.cw</title>
  </g>
  <g>
    <filter
      id="nsides-chirality__`P_8`.ccw-shadow"
      x="0"
      y="0"
      width="200%"
      height="200%"
    >
      <feOffset result="offOut" in="SourceAlpha" dx="5" dy="5" />
      <feGaussianBlur result="blurOut" in="offOut" stdDeviation="4" />
      <feBlend in="SourceGraphic" in2="blurOut" mode="normal" />
      <feComponentTransfer>
        <feFuncA type="linear" slope="0.5" />
      </feComponentTransfer>
      <feMerge>
        <feMergeNode />
        <feMergeNode in="SourceGraphic" />
      </feMerge>
    </filter>
    <path
      fill="#000000"
      fill-opacity="0.06666667014360428"
      stroke="#000000"
      stroke-opacity="0.5333333611488342"
      stroke-width="1.5"
      stroke-linecap="butt"
      d="M 682.0709838867188 45.00000762939453 L 669.9999389648438 40.00001525878906 L 653.7867279052734 46.71574401855469 L 644.9999389648438 67.928955078125 L 649.9999389648438 80.00001525878906 L 660.8577880859375 53.78681945800781 Z  M 653.7867279052734 46.71574401855469 L 641.7156677246094 51.71574401855469 L 634.9999389648438 67.928955078125 L 643.7867431640625 89.14215087890625 L 655.8578033447266 94.14214897155762 L 644.9999389648438 67.928955078125 Z  M 634.9999389648438 67.928955078125 L 629.9999389648438 80.00001525878906 L 636.7156677246094 96.21322250366211 L 657.9288940429688 105.00001335144043 L 669.9999389648438 100.00001335144043 L 643.7867431640625 89.14215087890625 Z  M 636.7156677246094 96.21322250366211 L 641.7156677246094 108.28428268432617 L 657.9288940429688 115.00001525878906 L 679.1420593261719 106.21320724487305 L 684.1420593261719 94.14215087890625 L 657.9288940429688 105.00001335144043 Z  M 657.9288940429688 115.00001525878906 L 669.9999389648438 120.0000114440918 L 686.2131652832031 113.28428649902344 L 694.9999389648438 92.07107925415039 L 689.9999389648438 80.00001525878906 L 679.1420593261719 106.21320724487305 Z  M 686.2131652832031 113.28428649902344 L 698.2842102050781 108.28428649902344 L 704.9999389648438 92.07107162475586 L 696.213134765625 70.85787963867188 L 684.14208984375 65.85788345336914 L 694.9999389648438 92.07107925415039 Z  M 704.9999389648438 92.07107162475586 L 709.9999389648438 80.00001525878906 L 703.2842102050781 63.78681564331055 L 682.0709838867188 55.00001525878906 L 669.9999389648438 60.00001525878906 L 696.213134765625 70.85787963867188 Z  M 703.2842102050781 63.78681564331055 L 698.2842102050781 51.71575164794922 L 682.0709838867188 45.00000762939453 L 660.8577880859375 53.78681945800781 L 655.8578033447266 65.85787963867188 L 682.0709838867188 55.00001525878906 Z "
    />
    <title>`P_8`.ccw</title>
  </g>
  <g>
    <filter
      id="nsides-chirality__`P_8`.cw-shadow"
      x="0"
      y="0"
      width="200%"
      height="200%"
    >
      <feOffset result="offOut" in="SourceAlpha" dx="5" dy="5" />
      <feGaussianBlur result="blurOut" in="offOut" stdDeviation="4" />
      <feBlend in="SourceGraphic" in2="blurOut" mode="normal" />
      <feComponentTransfer>
        <feFuncA type="linear" slope="0.5" />
      </feComponentTransfer>
      <feMerge>
        <feMergeNode />
        <feMergeNode in="SourceGraphic" />
      </feMerge>
    </filter>
    <path
      fill="#000000"
      fill-opacity="0.06666667014360428"
      stroke="#000000"
      stroke-opacity="0.5333333611488342"
      stroke-width="1.5"
      stroke-linecap="butt"
      d="M 657.9288940429688 165.00000381469727 L 669.9999389648438 160.00000381469727 L 686.2131652832031 166.7157325744629 L 694.9999389648438 187.9289436340332 L 689.9999389648438 200 L 679.1420593261719 173.78680801391602 Z  M 686.2131652832031 166.7157325744629 L 698.2842102050781 171.7157325744629 L 704.9999389648438 187.9289436340332 L 696.2131042480469 209.1421356201172 L 684.1420593261719 214.1421356201172 L 694.9999389648438 187.9289436340332 Z  M 704.9999389648438 187.9289436340332 L 709.9999389648438 200 L 703.2842102050781 216.21321868896484 L 682.0709838867188 225 L 669.9999389648438 220 L 696.2131042480469 209.1421356201172 Z  M 703.2842102050781 216.21321868896484 L 698.2842102050781 228.28427124023438 L 682.0709838867188 235 L 660.8577880859375 226.21319580078125 L 655.8578033447266 214.1421356201172 L 682.0709838867188 225 Z  M 682.0709838867188 235 L 669.9999389648438 240 L 653.7867279052734 233.28427124023438 L 644.9999389648438 212.07106018066406 L 649.9999389648438 200 L 660.8577880859375 226.21319580078125 Z  M 653.7867279052734 233.28427124023438 L 641.7156677246094 228.28427124023438 L 634.9999389648438 212.07106018066406 L 643.7867431640625 190.8578643798828 L 655.8578033447266 185.85786819458008 L 644.9999389648438 212.07106018066406 Z  M 634.9999389648438 212.07106018066406 L 629.9999389648438 200 L 636.7156677246094 183.78679656982422 L 657.9288940429688 175 L 669.9999389648438 180 L 643.7867431640625 190.8578643798828 Z  M 636.7156677246094 183.78679656982422 L 641.7156677246094 171.71573638916016 L 657.9288940429688 165.00000381469727 L 679.1420593261719 173.78680801391602 L 684.1420593261719 185.8578643798828 L 657.9288940429688 175 Z "
    />
    <title>`P_8`.cw</title>
  </g>
  <g>
    <filter
      id="nsides-chirality__`P_9`.ccw-shadow"
      x="0"
      y="0"
      width="200%"
      height="200%"
    >
      <feOffset result="offOut" in="SourceAlpha" dx="5" dy="5" />
      <feGaussianBlur result="blurOut" in="offOut" stdDeviation="4" />
      <feBlend in="SourceGraphic" in2="blurOut" mode="normal" />
      <feComponentTransfer>
        <feFuncA type="linear" slope="0.5" />
      </feComponentTransfer>
      <feMerge>
        <feMergeNode />
        <feMergeNode in="SourceGraphic" />
      </feMerge>
    </filter>
    <path
      fill="#000000"
      fill-opacity="0.06666667014360428"
      stroke="#000000"
      stroke-opacity="0.5333333611488342"
      stroke-width="1.5"
      stroke-linecap="butt"
      d="M 768.7373046875 45.000022888183594 L 754.9999389648438 40.00001525878906 L 743.0258178710938 44.358238220214844 L 732.7651672363281 62.13013458251953 L 735.3037719726562 76.52705001831055 L 749.4537353515625 52.018699645996094 Z  M 743.0258178710938 44.358238220214844 L 729.2884521484375 49.358238220214844 L 722.9171752929688 60.39366149902344 L 726.4806213378906 80.60309219360352 L 737.679443359375 90.00001525878906 L 732.7651672363281 62.13013458251953 Z  M 722.9171752929688 60.39366149902344 L 715.6076354980469 73.0540885925293 L 717.8203125 85.60309982299805 L 733.54052734375 98.79386520385742 L 748.1595458984375 98.79386520385742 L 726.4806213378906 80.60309219360352 Z  M 717.8203125 85.60309982299805 L 720.3589172363281 100.00001525878906 L 730.1203002929688 108.19079208374023 L 750.6415100097656 108.19078826904297 L 761.84033203125 98.79386520385742 L 733.54052734375 98.79386520385742 Z  M 730.1203002929688 108.19079208374023 L 741.3191223144531 117.58771514892578 L 754.0617370605469 117.58771514892578 L 769.7818298339844 104.39692687988281 L 772.3204345703125 90.0000114440918 L 750.6415100097656 108.19078826904297 Z  M 754.0617370605469 117.58771514892578 L 768.6807556152344 117.58771514892578 L 778.442138671875 109.39693355560303 L 782.0056457519531 89.18748092651367 L 774.6961059570312 76.52705383300781 L 769.7818298339844 104.39692687988281 Z  M 778.442138671875 109.39693355560303 L 789.6409606933594 100.00000953674316 L 791.8536376953125 87.45100402832031 L 781.5930480957031 69.67913436889648 L 767.8556823730469 64.67913055419922 L 782.0056457519531 89.18748092651367 Z  M 791.8536376953125 87.45100402832031 L 794.3922424316406 73.0540885925293 L 788.02099609375 62.018672943115234 L 768.7373046875 55.00001525878906 L 754.9999389648438 60.00001525878906 L 781.5930480957031 69.67913436889648 Z  M 788.02099609375 62.018672943115234 L 780.7114562988281 49.358245849609375 L 768.7373046875 45.000022888183594 L 749.4537353515625 52.018699645996094 L 742.1441955566406 64.67912673950195 L 768.7373046875 55.00001525878906 Z "
    />
    <title>`P_9`.ccw</title>
  </g>
  <g>
    <filter
      id="nsides-chirality__`P_9`.cw-shadow"
      x="0"
      y="0"
      width="200%"
      height="200%"
    >
      <feOffset result="offOut" in="SourceAlpha" dx="5" dy="5" />
      <feGaussianBlur result="blurOut" in="offOut" stdDeviation="4" />
      <feBlend in="SourceGraphic" in2="blurOut" mode="normal" />
      <feComponentTransfer>
        <feFuncA type="linear" slope="0.5" />
      </feComponentTransfer>
      <feMerge>
        <feMergeNode />
        <feMergeNode in="SourceGraphic" />
      </feMerge>
    </filter>
    <path
      fill="#000000"
      fill-opacity="0.06666667014360428"
      stroke="#000000"
      stroke-opacity="0.5333333611488342"
      stroke-width="1.5"
      stroke-linecap="butt"
      d="M 741.2625732421875 165.00000762939453 L 754.9999389648438 160.00000381469727 L 766.9740600585938 164.35822296142578 L 777.2347106933594 182.13012313842773 L 774.6961059570312 196.52703857421875 L 760.5461730957031 172.01868057250977 Z  M 766.9740600585938 164.35822296142578 L 780.71142578125 169.35822296142578 L 787.0827331542969 180.39363861083984 L 783.5192565917969 200.6030731201172 L 772.3204345703125 210 L 777.2347106933594 182.13012313842773 Z  M 787.0827331542969 180.39363861083984 L 794.3922424316406 193.05406951904297 L 792.1795654296875 205.60308837890625 L 776.4593505859375 218.79385375976562 L 761.84033203125 218.79385375976562 L 783.5192565917969 200.6030731201172 Z  M 792.1795654296875 205.60308837890625 L 789.6409606933594 220 L 779.8795776367188 228.1907730102539 L 759.3583679199219 228.19078063964844 L 748.1595458984375 218.79385375976562 L 776.4593505859375 218.79385375976562 Z  M 779.8795776367188 228.1907730102539 L 768.6807556152344 237.58769989013672 L 755.9381408691406 237.58769989013672 L 740.2180480957031 224.39691162109375 L 737.679443359375 210 L 759.3583679199219 228.19078063964844 Z  M 755.9381408691406 237.58769989013672 L 741.3191223144531 237.58769989013672 L 731.5577392578125 229.39691925048828 L 727.9942321777344 209.18746948242188 L 735.3037719726562 196.52703857421875 L 740.2180480957031 224.39691162109375 Z  M 731.5577392578125 229.39691925048828 L 720.3589172363281 219.99999237060547 L 718.146240234375 207.45098876953125 L 728.4068298339844 189.6791229248047 L 742.1441955566406 184.67911529541016 L 727.9942321777344 209.18746948242188 Z  M 718.146240234375 207.45098876953125 L 715.6076354980469 193.0540771484375 L 721.9788818359375 182.01865768432617 L 741.2625732421875 175 L 754.9999389648438 180 L 728.4068298339844 189.6791229248047 Z  M 721.9788818359375 182.01865768432617 L 729.2884216308594 169.3582305908203 L 741.2625732421875 165.00000762939453 L 760.5461730957031 172.01868057250977 L 767.8556823730469 184.6791114807129 L 741.2625732421875 175 Z "
    />
    <title>`P_9`.cw</title>
  </g>
</svg>
