<svg
  version="1.2"
  xmlns="http://www.w3.org/2000/svg"
  viewBox="0 0 800 700"
  penrose="0"
>
  <penrose>
    <croppedViewBox>
      88.23782348632812 7.78143310546875 641.5763854980469 669.0567016601562
    </croppedViewBox>
  </penrose>
  <g>
    <line
      x1="101.73745727539062"
      y1="564.9208679199219"
      x2="98.23782348632812"
      y2="464.9821243286133"
      stroke="#2a3166"
      stroke-opacity="1"
      stroke-width="3"
    />
    <title>`SBond_H4_O2`.symbol</title>
  </g>
  <g>
    <circle
      fill="#f4abaa"
      fill-opacity="1"
      cx="101.73745727539062"
      cy="564.9208679199219"
      stroke="none"
      r="10"
    >
      <title>`H4`.background</title>
    </circle>
    <g
      transform="rotate(0, 101.73745727539062, 564.9208679199219)translate(94.63345718383789, 559.4568676948547)"
    >
      <title>`H4`.symbol</title>
      <svg
        style="font-size: 16px"
        xmlns="http://www.w3.org/2000/svg"
        width="14.208000183105469"
        height="10.928000450134277"
        role="img"
        focusable="false"
        viewBox="0 -683 888 683"
      >
        <g
          stroke="none"
          fill="#2a3166"
          stroke-width="0"
          transform="scale(1,-1)"
          fill-opacity="1"
        >
          <g data-mml-node="math">
            <g data-mml-node="mi">
              <path
                data-c="1D43B"
                d="M228 637Q194 637 192 641Q191 643 191 649Q191 673 202 682Q204 683 219 683Q260 681 355 681Q389 681 418 681T463 682T483 682Q499 682 499 672Q499 670 497 658Q492 641 487 638H485Q483 638 480 638T473 638T464 637T455 637Q416 636 405 634T387 623Q384 619 355 500Q348 474 340 442T328 395L324 380Q324 378 469 378H614L615 381Q615 384 646 504Q674 619 674 627T617 637Q594 637 587 639T580 648Q580 650 582 660Q586 677 588 679T604 682Q609 682 646 681T740 680Q802 680 835 681T871 682Q888 682 888 672Q888 645 876 638H874Q872 638 869 638T862 638T853 637T844 637Q805 636 794 634T776 623Q773 618 704 340T634 58Q634 51 638 51Q646 48 692 46H723Q729 38 729 37T726 19Q722 6 716 0H701Q664 2 567 2Q533 2 504 2T458 2T437 1Q420 1 420 10Q420 15 423 24Q428 43 433 45Q437 46 448 46H454Q481 46 514 49Q520 50 522 50T528 55T534 64T540 82T547 110T558 153Q565 181 569 198Q602 330 602 331T457 332H312L279 197Q245 63 245 58Q245 51 253 49T303 46H334Q340 38 340 37T337 19Q333 6 327 0H312Q275 2 178 2Q144 2 115 2T69 2T48 1Q31 1 31 10Q31 12 34 24Q39 43 44 45Q48 46 59 46H65Q92 46 125 49Q139 52 144 61Q147 65 216 339T285 628Q285 635 228 637Z"
              />
            </g>
          </g>
        </g>
      </svg>
    </g>
    <title>`H4`.shape</title>
  </g>
  <g>
    <line
      x1="194.13204956054688"
      y1="436.6221389770508"
      x2="98.23782348632812"
      y2="464.9821243286133"
      stroke="#2a3166"
      stroke-opacity="1"
      stroke-width="3"
    />
    <title>`SBond_H3_O2`.symbol</title>
  </g>
  <g>
    <circle
      fill="#f4abaa"
      fill-opacity="1"
      cx="98.23782348632812"
      cy="464.9821243286133"
      stroke="none"
      r="10"
    >
      <title>`O2`.background</title>
    </circle>
    <g
      transform="rotate(0, 98.23782348632812, 464.9821243286133)translate(92.13382339477539, 459.17412424087524)"
    >
      <title>`O2`.symbol</title>
      <svg
        style="font-size: 16px"
        xmlns="http://www.w3.org/2000/svg"
        width="12.208000183105469"
        height="11.616000175476074"
        role="img"
        focusable="false"
        viewBox="0 -704 763 726"
      >
        <g
          stroke="none"
          fill="#2a3166"
          stroke-width="0"
          transform="scale(1,-1)"
          fill-opacity="1"
        >
          <g data-mml-node="math">
            <g data-mml-node="mi">
              <path
                data-c="1D442"
                d="M740 435Q740 320 676 213T511 42T304 -22Q207 -22 138 35T51 201Q50 209 50 244Q50 346 98 438T227 601Q351 704 476 704Q514 704 524 703Q621 689 680 617T740 435ZM637 476Q637 565 591 615T476 665Q396 665 322 605Q242 542 200 428T157 216Q157 126 200 73T314 19Q404 19 485 98T608 313Q637 408 637 476Z"
              />
            </g>
          </g>
        </g>
      </svg>
    </g>
    <title>`O2`.shape</title>
  </g>
  <g>
    <line
      x1="447.66452407836914"
      y1="17.78143310546875"
      x2="499.020263671875"
      y2="103.58700561523438"
      stroke="#2a3166"
      stroke-opacity="1"
      stroke-width="3"
    />
    <title>`SBond_H7_O4`.symbol</title>
  </g>
  <g>
    <circle
      fill="#f4abaa"
      fill-opacity="1"
      cx="447.66452407836914"
      cy="17.78143310546875"
      stroke="none"
      r="10"
    >
      <title>`H7`.background</title>
    </circle>
    <g
      transform="rotate(0, 447.66452407836914, 17.78143310546875)translate(440.5605239868164, 12.317432880401611)"
    >
      <title>`H7`.symbol</title>
      <svg
        style="font-size: 16px"
        xmlns="http://www.w3.org/2000/svg"
        width="14.208000183105469"
        height="10.928000450134277"
        role="img"
        focusable="false"
        viewBox="0 -683 888 683"
      >
        <g
          stroke="none"
          fill="#2a3166"
          stroke-width="0"
          transform="scale(1,-1)"
          fill-opacity="1"
        >
          <g data-mml-node="math">
            <g data-mml-node="mi">
              <path
                data-c="1D43B"
                d="M228 637Q194 637 192 641Q191 643 191 649Q191 673 202 682Q204 683 219 683Q260 681 355 681Q389 681 418 681T463 682T483 682Q499 682 499 672Q499 670 497 658Q492 641 487 638H485Q483 638 480 638T473 638T464 637T455 637Q416 636 405 634T387 623Q384 619 355 500Q348 474 340 442T328 395L324 380Q324 378 469 378H614L615 381Q615 384 646 504Q674 619 674 627T617 637Q594 637 587 639T580 648Q580 650 582 660Q586 677 588 679T604 682Q609 682 646 681T740 680Q802 680 835 681T871 682Q888 682 888 672Q888 645 876 638H874Q872 638 869 638T862 638T853 637T844 637Q805 636 794 634T776 623Q773 618 704 340T634 58Q634 51 638 51Q646 48 692 46H723Q729 38 729 37T726 19Q722 6 716 0H701Q664 2 567 2Q533 2 504 2T458 2T437 1Q420 1 420 10Q420 15 423 24Q428 43 433 45Q437 46 448 46H454Q481 46 514 49Q520 50 522 50T528 55T534 64T540 82T547 110T558 153Q565 181 569 198Q602 330 602 331T457 332H312L279 197Q245 63 245 58Q245 51 253 49T303 46H334Q340 38 340 37T337 19Q333 6 327 0H312Q275 2 178 2Q144 2 115 2T69 2T48 1Q31 1 31 10Q31 12 34 24Q39 43 44 45Q48 46 59 46H65Q92 46 125 49Q139 52 144 61Q147 65 216 339T285 628Q285 635 228 637Z"
              />
            </g>
          </g>
        </g>
      </svg>
    </g>
    <title>`H7`.shape</title>
  </g>
  <g>
    <line
      x1="594.9765167236328"
      y1="75.43740844726562"
      x2="499.020263671875"
      y2="103.58700561523438"
      stroke="#2a3166"
      stroke-opacity="1"
      stroke-width="3"
    />
    <title>`SBond_H8_O4`.symbol</title>
  </g>
  <g>
    <line
      x1="424.7233180999756"
      y1="289.2748489379883"
      x2="499.020263671875"
      y2="103.58700561523438"
      stroke="#2a3166"
      stroke-opacity="1"
      stroke-width="5"
      stroke-dasharray="7,5"
    />
    <title>`WBond_H2_O4`.symbol</title>
  </g>
  <g>
    <circle
      fill="#f4abaa"
      fill-opacity="1"
      cx="499.020263671875"
      cy="103.58700561523438"
      stroke="none"
      r="10"
    >
      <title>`O4`.background</title>
    </circle>
    <g
      transform="rotate(0, 499.020263671875, 103.58700561523438)translate(492.91626358032227, 97.77900552749634)"
    >
      <title>`O4`.symbol</title>
      <svg
        style="font-size: 16px"
        xmlns="http://www.w3.org/2000/svg"
        width="12.208000183105469"
        height="11.616000175476074"
        role="img"
        focusable="false"
        viewBox="0 -704 763 726"
      >
        <g
          stroke="none"
          fill="#2a3166"
          stroke-width="0"
          transform="scale(1,-1)"
          fill-opacity="1"
        >
          <g data-mml-node="math">
            <g data-mml-node="mi">
              <path
                data-c="1D442"
                d="M740 435Q740 320 676 213T511 42T304 -22Q207 -22 138 35T51 201Q50 209 50 244Q50 346 98 438T227 601Q351 704 476 704Q514 704 524 703Q621 689 680 617T740 435ZM637 476Q637 565 591 615T476 665Q396 665 322 605Q242 542 200 428T157 216Q157 126 200 73T314 19Q404 19 485 98T608 313Q637 408 637 476Z"
              />
            </g>
          </g>
        </g>
      </svg>
    </g>
    <title>`O4`.shape</title>
  </g>
  <g>
    <line
      x1="386.4295415878296"
      y1="381.6523494720459"
      x2="194.13204956054688"
      y2="436.6221389770508"
      stroke="#2a3166"
      stroke-opacity="1"
      stroke-width="5"
      stroke-dasharray="7,5"
    />
    <title>`WBond_O1_H3`.symbol</title>
  </g>
  <g>
    <circle
      fill="#f4abaa"
      fill-opacity="1"
      cx="194.13204956054688"
      cy="436.6221389770508"
      stroke="none"
      r="10"
    >
      <title>`H3`.background</title>
    </circle>
    <g
      transform="rotate(0, 194.13204956054688, 436.6221389770508)translate(187.02804946899414, 431.15813875198364)"
    >
      <title>`H3`.symbol</title>
      <svg
        style="font-size: 16px"
        xmlns="http://www.w3.org/2000/svg"
        width="14.208000183105469"
        height="10.928000450134277"
        role="img"
        focusable="false"
        viewBox="0 -683 888 683"
      >
        <g
          stroke="none"
          fill="#2a3166"
          stroke-width="0"
          transform="scale(1,-1)"
          fill-opacity="1"
        >
          <g data-mml-node="math">
            <g data-mml-node="mi">
              <path
                data-c="1D43B"
                d="M228 637Q194 637 192 641Q191 643 191 649Q191 673 202 682Q204 683 219 683Q260 681 355 681Q389 681 418 681T463 682T483 682Q499 682 499 672Q499 670 497 658Q492 641 487 638H485Q483 638 480 638T473 638T464 637T455 637Q416 636 405 634T387 623Q384 619 355 500Q348 474 340 442T328 395L324 380Q324 378 469 378H614L615 381Q615 384 646 504Q674 619 674 627T617 637Q594 637 587 639T580 648Q580 650 582 660Q586 677 588 679T604 682Q609 682 646 681T740 680Q802 680 835 681T871 682Q888 682 888 672Q888 645 876 638H874Q872 638 869 638T862 638T853 637T844 637Q805 636 794 634T776 623Q773 618 704 340T634 58Q634 51 638 51Q646 48 692 46H723Q729 38 729 37T726 19Q722 6 716 0H701Q664 2 567 2Q533 2 504 2T458 2T437 1Q420 1 420 10Q420 15 423 24Q428 43 433 45Q437 46 448 46H454Q481 46 514 49Q520 50 522 50T528 55T534 64T540 82T547 110T558 153Q565 181 569 198Q602 330 602 331T457 332H312L279 197Q245 63 245 58Q245 51 253 49T303 46H334Q340 38 340 37T337 19Q333 6 327 0H312Q275 2 178 2Q144 2 115 2T69 2T48 1Q31 1 31 10Q31 12 34 24Q39 43 44 45Q48 46 59 46H65Q92 46 125 49Q139 52 144 61Q147 65 216 339T285 628Q285 635 228 637Z"
              />
            </g>
          </g>
        </g>
      </svg>
    </g>
    <title>`H3`.shape</title>
  </g>
  <g>
    <circle
      fill="#f4abaa"
      fill-opacity="1"
      cx="594.9765167236328"
      cy="75.43740844726562"
      stroke="none"
      r="10"
    >
      <title>`H8`.background</title>
    </circle>
    <g
      transform="rotate(0, 594.9765167236328, 75.43740844726562)translate(587.8725166320801, 69.97340822219849)"
    >
      <title>`H8`.symbol</title>
      <svg
        style="font-size: 16px"
        xmlns="http://www.w3.org/2000/svg"
        width="14.208000183105469"
        height="10.928000450134277"
        role="img"
        focusable="false"
        viewBox="0 -683 888 683"
      >
        <g
          stroke="none"
          fill="#2a3166"
          stroke-width="0"
          transform="scale(1,-1)"
          fill-opacity="1"
        >
          <g data-mml-node="math">
            <g data-mml-node="mi">
              <path
                data-c="1D43B"
                d="M228 637Q194 637 192 641Q191 643 191 649Q191 673 202 682Q204 683 219 683Q260 681 355 681Q389 681 418 681T463 682T483 682Q499 682 499 672Q499 670 497 658Q492 641 487 638H485Q483 638 480 638T473 638T464 637T455 637Q416 636 405 634T387 623Q384 619 355 500Q348 474 340 442T328 395L324 380Q324 378 469 378H614L615 381Q615 384 646 504Q674 619 674 627T617 637Q594 637 587 639T580 648Q580 650 582 660Q586 677 588 679T604 682Q609 682 646 681T740 680Q802 680 835 681T871 682Q888 682 888 672Q888 645 876 638H874Q872 638 869 638T862 638T853 637T844 637Q805 636 794 634T776 623Q773 618 704 340T634 58Q634 51 638 51Q646 48 692 46H723Q729 38 729 37T726 19Q722 6 716 0H701Q664 2 567 2Q533 2 504 2T458 2T437 1Q420 1 420 10Q420 15 423 24Q428 43 433 45Q437 46 448 46H454Q481 46 514 49Q520 50 522 50T528 55T534 64T540 82T547 110T558 153Q565 181 569 198Q602 330 602 331T457 332H312L279 197Q245 63 245 58Q245 51 253 49T303 46H334Q340 38 340 37T337 19Q333 6 327 0H312Q275 2 178 2Q144 2 115 2T69 2T48 1Q31 1 31 10Q31 12 34 24Q39 43 44 45Q48 46 59 46H65Q92 46 125 49Q139 52 144 61Q147 65 216 339T285 628Q285 635 228 637Z"
              />
            </g>
          </g>
        </g>
      </svg>
    </g>
    <title>`H8`.shape</title>
  </g>
  <g>
    <line
      x1="719.814208984375"
      y1="544.2324371337891"
      x2="622.4113159179688"
      y2="566.875"
      stroke="#2a3166"
      stroke-opacity="1"
      stroke-width="3"
    />
    <title>`SBond_H6_O3`.symbol</title>
  </g>
  <g>
    <circle
      fill="#f4abaa"
      fill-opacity="1"
      cx="719.814208984375"
      cy="544.2324371337891"
      stroke="none"
      r="10"
    >
      <title>`H6`.background</title>
    </circle>
    <g
      transform="rotate(0, 719.814208984375, 544.2324371337891)translate(712.7102088928223, 538.7684369087219)"
    >
      <title>`H6`.symbol</title>
      <svg
        style="font-size: 16px"
        xmlns="http://www.w3.org/2000/svg"
        width="14.208000183105469"
        height="10.928000450134277"
        role="img"
        focusable="false"
        viewBox="0 -683 888 683"
      >
        <g
          stroke="none"
          fill="#2a3166"
          stroke-width="0"
          transform="scale(1,-1)"
          fill-opacity="1"
        >
          <g data-mml-node="math">
            <g data-mml-node="mi">
              <path
                data-c="1D43B"
                d="M228 637Q194 637 192 641Q191 643 191 649Q191 673 202 682Q204 683 219 683Q260 681 355 681Q389 681 418 681T463 682T483 682Q499 682 499 672Q499 670 497 658Q492 641 487 638H485Q483 638 480 638T473 638T464 637T455 637Q416 636 405 634T387 623Q384 619 355 500Q348 474 340 442T328 395L324 380Q324 378 469 378H614L615 381Q615 384 646 504Q674 619 674 627T617 637Q594 637 587 639T580 648Q580 650 582 660Q586 677 588 679T604 682Q609 682 646 681T740 680Q802 680 835 681T871 682Q888 682 888 672Q888 645 876 638H874Q872 638 869 638T862 638T853 637T844 637Q805 636 794 634T776 623Q773 618 704 340T634 58Q634 51 638 51Q646 48 692 46H723Q729 38 729 37T726 19Q722 6 716 0H701Q664 2 567 2Q533 2 504 2T458 2T437 1Q420 1 420 10Q420 15 423 24Q428 43 433 45Q437 46 448 46H454Q481 46 514 49Q520 50 522 50T528 55T534 64T540 82T547 110T558 153Q565 181 569 198Q602 330 602 331T457 332H312L279 197Q245 63 245 58Q245 51 253 49T303 46H334Q340 38 340 37T337 19Q333 6 327 0H312Q275 2 178 2Q144 2 115 2T69 2T48 1Q31 1 31 10Q31 12 34 24Q39 43 44 45Q48 46 59 46H65Q92 46 125 49Q139 52 144 61Q147 65 216 339T285 628Q285 635 228 637Z"
              />
            </g>
          </g>
        </g>
      </svg>
    </g>
    <title>`H6`.shape</title>
  </g>
  <g>
    <line
      x1="465.7495803833008"
      y1="442.5483932495117"
      x2="622.4113159179688"
      y2="566.875"
      stroke="#2a3166"
      stroke-opacity="1"
      stroke-width="5"
      stroke-dasharray="7,5"
    />
    <title>`WBond_H1_O3`.symbol</title>
  </g>
  <g>
    <line
      x1="619.6966857910156"
      y1="666.838134765625"
      x2="622.4113159179688"
      y2="566.875"
      stroke="#2a3166"
      stroke-opacity="1"
      stroke-width="3"
    />
    <title>`SBond_H5_O3`.symbol</title>
  </g>
  <g>
    <circle
      fill="#f4abaa"
      fill-opacity="1"
      cx="622.4113159179688"
      cy="566.875"
      stroke="none"
      r="10"
    >
      <title>`O3`.background</title>
    </circle>
    <g
      transform="rotate(0, 622.4113159179688, 566.875)translate(616.307315826416, 561.066999912262)"
    >
      <title>`O3`.symbol</title>
      <svg
        style="font-size: 16px"
        xmlns="http://www.w3.org/2000/svg"
        width="12.208000183105469"
        height="11.616000175476074"
        role="img"
        focusable="false"
        viewBox="0 -704 763 726"
      >
        <g
          stroke="none"
          fill="#2a3166"
          stroke-width="0"
          transform="scale(1,-1)"
          fill-opacity="1"
        >
          <g data-mml-node="math">
            <g data-mml-node="mi">
              <path
                data-c="1D442"
                d="M740 435Q740 320 676 213T511 42T304 -22Q207 -22 138 35T51 201Q50 209 50 244Q50 346 98 438T227 601Q351 704 476 704Q514 704 524 703Q621 689 680 617T740 435ZM637 476Q637 565 591 615T476 665Q396 665 322 605Q242 542 200 428T157 216Q157 126 200 73T314 19Q404 19 485 98T608 313Q637 408 637 476Z"
              />
            </g>
          </g>
        </g>
      </svg>
    </g>
    <title>`O3`.shape</title>
  </g>
  <g>
    <line
      x1="424.7233180999756"
      y1="289.2748489379883"
      x2="386.4295415878296"
      y2="381.6523494720459"
      stroke="#2a3166"
      stroke-opacity="1"
      stroke-width="3"
    />
    <title>`SBond_H2_O1`.symbol</title>
  </g>
  <g>
    <line
      x1="465.7495803833008"
      y1="442.5483932495117"
      x2="386.4295415878296"
      y2="381.6523494720459"
      stroke="#2a3166"
      stroke-opacity="1"
      stroke-width="3"
    />
    <title>`SBond_H1_O1`.symbol</title>
  </g>
  <g>
    <circle
      fill="#f4abaa"
      fill-opacity="1"
      cx="386.4295415878296"
      cy="381.6523494720459"
      stroke="none"
      r="10"
    >
      <title>`O1`.background</title>
    </circle>
    <g
      transform="rotate(0, 386.4295415878296, 381.6523494720459)translate(380.32554149627686, 375.84434938430786)"
    >
      <title>`O1`.symbol</title>
      <svg
        style="font-size: 16px"
        xmlns="http://www.w3.org/2000/svg"
        width="12.208000183105469"
        height="11.616000175476074"
        role="img"
        focusable="false"
        viewBox="0 -704 763 726"
      >
        <g
          stroke="none"
          fill="#2a3166"
          stroke-width="0"
          transform="scale(1,-1)"
          fill-opacity="1"
        >
          <g data-mml-node="math">
            <g data-mml-node="mi">
              <path
                data-c="1D442"
                d="M740 435Q740 320 676 213T511 42T304 -22Q207 -22 138 35T51 201Q50 209 50 244Q50 346 98 438T227 601Q351 704 476 704Q514 704 524 703Q621 689 680 617T740 435ZM637 476Q637 565 591 615T476 665Q396 665 322 605Q242 542 200 428T157 216Q157 126 200 73T314 19Q404 19 485 98T608 313Q637 408 637 476Z"
              />
            </g>
          </g>
        </g>
      </svg>
    </g>
    <title>`O1`.shape</title>
  </g>
  <g>
    <circle
      fill="#f4abaa"
      fill-opacity="1"
      cx="424.7233180999756"
      cy="289.2748489379883"
      stroke="none"
      r="10"
    >
      <title>`H2`.background</title>
    </circle>
    <g
      transform="rotate(0, 424.7233180999756, 289.2748489379883)translate(417.61931800842285, 283.81084871292114)"
    >
      <title>`H2`.symbol</title>
      <svg
        style="font-size: 16px"
        xmlns="http://www.w3.org/2000/svg"
        width="14.208000183105469"
        height="10.928000450134277"
        role="img"
        focusable="false"
        viewBox="0 -683 888 683"
      >
        <g
          stroke="none"
          fill="#2a3166"
          stroke-width="0"
          transform="scale(1,-1)"
          fill-opacity="1"
        >
          <g data-mml-node="math">
            <g data-mml-node="mi">
              <path
                data-c="1D43B"
                d="M228 637Q194 637 192 641Q191 643 191 649Q191 673 202 682Q204 683 219 683Q260 681 355 681Q389 681 418 681T463 682T483 682Q499 682 499 672Q499 670 497 658Q492 641 487 638H485Q483 638 480 638T473 638T464 637T455 637Q416 636 405 634T387 623Q384 619 355 500Q348 474 340 442T328 395L324 380Q324 378 469 378H614L615 381Q615 384 646 504Q674 619 674 627T617 637Q594 637 587 639T580 648Q580 650 582 660Q586 677 588 679T604 682Q609 682 646 681T740 680Q802 680 835 681T871 682Q888 682 888 672Q888 645 876 638H874Q872 638 869 638T862 638T853 637T844 637Q805 636 794 634T776 623Q773 618 704 340T634 58Q634 51 638 51Q646 48 692 46H723Q729 38 729 37T726 19Q722 6 716 0H701Q664 2 567 2Q533 2 504 2T458 2T437 1Q420 1 420 10Q420 15 423 24Q428 43 433 45Q437 46 448 46H454Q481 46 514 49Q520 50 522 50T528 55T534 64T540 82T547 110T558 153Q565 181 569 198Q602 330 602 331T457 332H312L279 197Q245 63 245 58Q245 51 253 49T303 46H334Q340 38 340 37T337 19Q333 6 327 0H312Q275 2 178 2Q144 2 115 2T69 2T48 1Q31 1 31 10Q31 12 34 24Q39 43 44 45Q48 46 59 46H65Q92 46 125 49Q139 52 144 61Q147 65 216 339T285 628Q285 635 228 637Z"
              />
            </g>
          </g>
        </g>
      </svg>
    </g>
    <title>`H2`.shape</title>
  </g>
  <g>
    <circle
      fill="#f4abaa"
      fill-opacity="1"
      cx="465.7495803833008"
      cy="442.5483932495117"
      stroke="none"
      r="10"
    >
      <title>`H1`.background</title>
    </circle>
    <g
      transform="rotate(0, 465.7495803833008, 442.5483932495117)translate(458.64558029174805, 437.0843930244446)"
    >
      <title>`H1`.symbol</title>
      <svg
        style="font-size: 16px"
        xmlns="http://www.w3.org/2000/svg"
        width="14.208000183105469"
        height="10.928000450134277"
        role="img"
        focusable="false"
        viewBox="0 -683 888 683"
      >
        <g
          stroke="none"
          fill="#2a3166"
          stroke-width="0"
          transform="scale(1,-1)"
          fill-opacity="1"
        >
          <g data-mml-node="math">
            <g data-mml-node="mi">
              <path
                data-c="1D43B"
                d="M228 637Q194 637 192 641Q191 643 191 649Q191 673 202 682Q204 683 219 683Q260 681 355 681Q389 681 418 681T463 682T483 682Q499 682 499 672Q499 670 497 658Q492 641 487 638H485Q483 638 480 638T473 638T464 637T455 637Q416 636 405 634T387 623Q384 619 355 500Q348 474 340 442T328 395L324 380Q324 378 469 378H614L615 381Q615 384 646 504Q674 619 674 627T617 637Q594 637 587 639T580 648Q580 650 582 660Q586 677 588 679T604 682Q609 682 646 681T740 680Q802 680 835 681T871 682Q888 682 888 672Q888 645 876 638H874Q872 638 869 638T862 638T853 637T844 637Q805 636 794 634T776 623Q773 618 704 340T634 58Q634 51 638 51Q646 48 692 46H723Q729 38 729 37T726 19Q722 6 716 0H701Q664 2 567 2Q533 2 504 2T458 2T437 1Q420 1 420 10Q420 15 423 24Q428 43 433 45Q437 46 448 46H454Q481 46 514 49Q520 50 522 50T528 55T534 64T540 82T547 110T558 153Q565 181 569 198Q602 330 602 331T457 332H312L279 197Q245 63 245 58Q245 51 253 49T303 46H334Q340 38 340 37T337 19Q333 6 327 0H312Q275 2 178 2Q144 2 115 2T69 2T48 1Q31 1 31 10Q31 12 34 24Q39 43 44 45Q48 46 59 46H65Q92 46 125 49Q139 52 144 61Q147 65 216 339T285 628Q285 635 228 637Z"
              />
            </g>
          </g>
        </g>
      </svg>
    </g>
    <title>`H1`.shape</title>
  </g>
  <g>
    <circle
      fill="#f4abaa"
      fill-opacity="1"
      cx="619.6966857910156"
      cy="666.838134765625"
      stroke="none"
      r="10"
    >
      <title>`H5`.background</title>
    </circle>
    <g
      transform="rotate(0, 619.6966857910156, 666.838134765625)translate(612.5926856994629, 661.3741345405579)"
    >
      <title>`H5`.symbol</title>
      <svg
        style="font-size: 16px"
        xmlns="http://www.w3.org/2000/svg"
        width="14.208000183105469"
        height="10.928000450134277"
        role="img"
        focusable="false"
        viewBox="0 -683 888 683"
      >
        <g
          stroke="none"
          fill="#2a3166"
          stroke-width="0"
          transform="scale(1,-1)"
          fill-opacity="1"
        >
          <g data-mml-node="math">
            <g data-mml-node="mi">
              <path
                data-c="1D43B"
                d="M228 637Q194 637 192 641Q191 643 191 649Q191 673 202 682Q204 683 219 683Q260 681 355 681Q389 681 418 681T463 682T483 682Q499 682 499 672Q499 670 497 658Q492 641 487 638H485Q483 638 480 638T473 638T464 637T455 637Q416 636 405 634T387 623Q384 619 355 500Q348 474 340 442T328 395L324 380Q324 378 469 378H614L615 381Q615 384 646 504Q674 619 674 627T617 637Q594 637 587 639T580 648Q580 650 582 660Q586 677 588 679T604 682Q609 682 646 681T740 680Q802 680 835 681T871 682Q888 682 888 672Q888 645 876 638H874Q872 638 869 638T862 638T853 637T844 637Q805 636 794 634T776 623Q773 618 704 340T634 58Q634 51 638 51Q646 48 692 46H723Q729 38 729 37T726 19Q722 6 716 0H701Q664 2 567 2Q533 2 504 2T458 2T437 1Q420 1 420 10Q420 15 423 24Q428 43 433 45Q437 46 448 46H454Q481 46 514 49Q520 50 522 50T528 55T534 64T540 82T547 110T558 153Q565 181 569 198Q602 330 602 331T457 332H312L279 197Q245 63 245 58Q245 51 253 49T303 46H334Q340 38 340 37T337 19Q333 6 327 0H312Q275 2 178 2Q144 2 115 2T69 2T48 1Q31 1 31 10Q31 12 34 24Q39 43 44 45Q48 46 59 46H65Q92 46 125 49Q139 52 144 61Q147 65 216 339T285 628Q285 635 228 637Z"
              />
            </g>
          </g>
        </g>
      </svg>
    </g>
    <title>`H5`.shape</title>
  </g>
</svg>
