<svg
  version="1.2"
  xmlns="http://www.w3.org/2000/svg"
  viewBox="0 0 600 600"
  penrose="0"
>
  <penrose><croppedViewBox>0 0 600 600</croppedViewBox></penrose>
  <rect
    x="0"
    y="0"
    width="600"
    height="600"
    fill="#e5ffe5"
    fill-opacity="1"
    stroke="none"
    rx="0"
    transform="rotate(0, 300, 300)"
  >
    <title>global.background</title>
  </rect>
  <rect
    x="3.47705078125"
    y="88.2982292175293"
    width="5.10882568359375"
    height="29.99976348876953"
    fill="#a5cc00"
    fill-opacity="1"
    stroke="none"
    rx="0"
    transform="rotate(0, 6.031463623046875, 103.29811096191406)"
  >
    <title>`p_13`.rect</title>
  </rect>
  <rect
    x="382.7770700454712"
    y="173.84607315063477"
    width="22.636518478393555"
    height="22.718727111816406"
    fill="#cc0012"
    fill-opacity="1"
    stroke="none"
    rx="0"
    transform="rotate(0, 394.09532928466797, 185.20543670654297)"
  >
    <title>`p_18`.rect</title>
  </rect>
  <rect
    x="59.079647064208984"
    y="155.83861827850342"
    width="10.905372619628906"
    height="29.29252052307129"
    fill="#90cc00"
    fill-opacity="1"
    stroke="none"
    rx="0"
    transform="rotate(0, 64.53233337402344, 170.48487854003906)"
  >
    <title>`p_10`.rect</title>
  </rect>
  <rect
    x="550.8124847412109"
    y="484.75803446769714"
    width="29.999969482421875"
    height="5.038771152496338"
    fill="#cc8600"
    fill-opacity="1"
    stroke="none"
    rx="0"
    transform="rotate(0, 565.8124694824219, 487.2774200439453)"
  >
    <title>`p_19`.rect</title>
  </rect>
  <rect
    x="336.11688137054443"
    y="507.58530044555664"
    width="29.07279396057129"
    height="11.745414733886719"
    fill="#a300cc"
    fill-opacity="1"
    stroke="none"
    rx="0"
    transform="rotate(0, 350.6532783508301, 513.4580078125)"
  >
    <title>`p_2`.rect</title>
  </rect>
  <rect
    x="376.56249046325684"
    y="248.09301280975342"
    width="24.799701690673828"
    height="20.26341438293457"
    fill="#cc00ab"
    fill-opacity="1"
    stroke="none"
    rx="0"
    transform="rotate(0, 388.96234130859375, 258.2247200012207)"
  >
    <title>`p_11`.rect</title>
  </rect>
  <rect
    x="233.44878959655762"
    y="151.67337894439697"
    width="17.355838775634766"
    height="26.73322868347168"
    fill="#000ecc"
    fill-opacity="1"
    stroke="none"
    rx="0"
    transform="rotate(0, 242.126708984375, 165.0399932861328)"
  >
    <title>`p_6`.rect</title>
  </rect>
  <rect
    x="112.94044280052185"
    y="32.10927104949951"
    width="7.115482807159424"
    height="29.91033363342285"
    fill="#0056cc"
    fill-opacity="1"
    stroke="none"
    rx="0"
    transform="rotate(0, 116.49818420410156, 47.06443786621094)"
  >
    <title>`p_4`.rect</title>
  </rect>
  <rect
    x="262.4326066970825"
    y="317.1687355041504"
    width="24.280851364135742"
    height="20.91379165649414"
    fill="#00cc7b"
    fill-opacity="1"
    stroke="none"
    rx="0"
    transform="rotate(0, 274.5730323791504, 327.62563133239746)"
  >
    <title>`p_5`.rect</title>
  </rect>
  <rect
    x="135.52445316314697"
    y="89.52030658721924"
    width="10.33338737487793"
    height="29.424474716186523"
    fill="#009fcc"
    fill-opacity="1"
    stroke="none"
    rx="0"
    transform="rotate(0, 140.69114685058594, 104.2325439453125)"
  >
    <title>`p_12`.rect</title>
  </rect>
  <rect
    x="165.02011799812317"
    y="9.701980590820312"
    width="7.137223720550537"
    height="29.908477783203125"
    fill="#2b00cc"
    fill-opacity="1"
    stroke="none"
    rx="0"
    transform="rotate(0, 168.58872985839844, 24.656219482421875)"
  >
    <title>`p_14`.rect</title>
  </rect>
  <rect
    x="150.002685546875"
    y="242.409893989563"
    width="18.775360107421875"
    height="25.862394332885742"
    fill="#56cc00"
    fill-opacity="1"
    stroke="none"
    rx="0"
    transform="rotate(0, 159.39036560058594, 255.34109115600586)"
  >
    <title>`p_17`.rect</title>
  </rect>
  <rect
    x="303.6357231140137"
    y="239.37097549438477"
    width="23.315032958984375"
    height="22.016448974609375"
    fill="#1700cc"
    fill-opacity="1"
    stroke="none"
    rx="0"
    transform="rotate(0, 315.29323959350586, 250.37919998168945)"
  >
    <title>`p_9`.rect</title>
  </rect>
  <rect
    x="95.50016212463379"
    y="288.0898642539978"
    width="18.826763153076172"
    height="25.828359603881836"
    fill="#cc5a00"
    fill-opacity="1"
    stroke="none"
    rx="0"
    transform="rotate(0, 104.91354370117188, 301.0040440559387)"
  >
    <title>`p_0`.rect</title>
  </rect>
  <rect
    x="168.64968585968018"
    y="336.86261653900146"
    width="23.087942123413086"
    height="22.257646560668945"
    fill="#b2cc00"
    fill-opacity="1"
    stroke="none"
    rx="0"
    transform="rotate(0, 180.19365692138672, 347.99143981933594)"
  >
    <title>`p_1`.rect</title>
  </rect>
  <rect
    x="460.22826290130615"
    y="434.84844160079956"
    width="29.436174392700195"
    height="10.279526710510254"
    fill="#78cc00"
    fill-opacity="1"
    stroke="none"
    rx="0"
    transform="rotate(0, 474.94635009765625, 439.9882049560547)"
  >
    <title>`p_15`.rect</title>
  </rect>
  <rect
    x="201.34809494018555"
    y="295.2943983078003"
    width="22.912193298339844"
    height="22.439990997314453"
    fill="#44cc00"
    fill-opacity="1"
    stroke="none"
    rx="0"
    transform="rotate(0, 212.80419158935547, 306.5143938064575)"
  >
    <title>`p_7`.rect</title>
  </rect>
  <rect
    x="341.5680160522461"
    y="590.2156953811646"
    width="29.629501342773438"
    height="9.288091659545898"
    fill="#cc001e"
    fill-opacity="1"
    stroke="none"
    rx="0"
    transform="rotate(0, 356.3827667236328, 594.8597412109375)"
  >
    <title>`p_16`.rect</title>
  </rect>
  <rect
    x="332.95698738098145"
    y="385.2598805427551"
    width="27.823841094970703"
    height="15.201582908630371"
    fill="#00cc6c"
    fill-opacity="1"
    stroke="none"
    rx="0"
    transform="rotate(0, 346.8689079284668, 392.8606719970703)"
  >
    <title>`p_8`.rect</title>
  </rect>
  <rect
    x="203.86281204223633"
    y="84.10611534118652"
    width="13.194053649902344"
    height="28.619007110595703"
    fill="#1b00cc"
    fill-opacity="1"
    stroke="none"
    rx="0"
    transform="rotate(0, 210.4598388671875, 98.41561889648438)"
  >
    <title>`p_3`.rect</title>
  </rect>
</svg>
