<svg
  version="1.2"
  xmlns="http://www.w3.org/2000/svg"
  viewBox="0 0 800 700"
  penrose="0"
>
  <penrose>
    <croppedViewBox>
      31.22357810516553 0.2109644151035468 724.7685205316703 672.0385690285211
    </croppedViewBox>
  </penrose>
  <g
    transform="rotate(0, 322.3062356342177, 359.4891457796724)translate(227.11623563421773, 335.4291457796724)"
  >
    <title>`g`.shape</title>
    <svg
      style="font-size: 50px"
      xmlns="http://www.w3.org/2000/svg"
      width="190.38"
      height="48.12"
      role="img"
      focusable="false"
      viewBox="0 -880.4 3807.6 962.4"
    >
      <g
        stroke="none"
        fill="#000000"
        stroke-width="0"
        transform="scale(1,-1)"
        fill-opacity="1"
      >
        <g data-mml-node="math">
          <g data-mml-node="msup">
            <g data-mml-node="mi">
              <path
                data-c="1D452"
                d="M39 168Q39 225 58 272T107 350T174 402T244 433T307 442H310Q355 442 388 420T421 355Q421 265 310 237Q261 224 176 223Q139 223 138 221Q138 219 132 186T125 128Q125 81 146 54T209 26T302 45T394 111Q403 121 406 121Q410 121 419 112T429 98T420 82T390 55T344 24T281 -1T205 -11Q126 -11 83 42T39 168ZM373 353Q367 405 305 405Q272 405 244 391T199 357T170 316T154 280T149 261Q149 260 169 260Q282 260 327 284T373 353Z"
              />
            </g>
            <g
              data-mml-node="TeXAtom"
              transform="translate(499,413) scale(0.707)"
              data-mjx-texclass="ORD"
            >
              <g data-mml-node="mi">
                <path
                  data-c="1D456"
                  d="M184 600Q184 624 203 642T247 661Q265 661 277 649T290 619Q290 596 270 577T226 557Q211 557 198 567T184 600ZM21 287Q21 295 30 318T54 369T98 420T158 442Q197 442 223 419T250 357Q250 340 236 301T196 196T154 83Q149 61 149 51Q149 26 166 26Q175 26 185 29T208 43T235 78T260 137Q263 149 265 151T282 153Q302 153 302 143Q302 135 293 112T268 61T223 11T161 -11Q129 -11 102 10T74 74Q74 91 79 106T122 220Q160 321 166 341T173 380Q173 404 156 404H154Q124 404 99 371T61 287Q60 286 59 284T58 281T56 279T53 278T49 278T41 278H27Q21 284 21 287Z"
                />
              </g>
              <g data-mml-node="mi" transform="translate(345,0)">
                <path
                  data-c="1D70B"
                  d="M132 -11Q98 -11 98 22V33L111 61Q186 219 220 334L228 358H196Q158 358 142 355T103 336Q92 329 81 318T62 297T53 285Q51 284 38 284Q19 284 19 294Q19 300 38 329T93 391T164 429Q171 431 389 431Q549 431 553 430Q573 423 573 402Q573 371 541 360Q535 358 472 358H408L405 341Q393 269 393 222Q393 170 402 129T421 65T431 37Q431 20 417 5T381 -10Q370 -10 363 -7T347 17T331 77Q330 86 330 121Q330 170 339 226T357 318T367 358H269L268 354Q268 351 249 275T206 114T175 17Q164 -11 132 -11Z"
                />
              </g>
            </g>
          </g>
          <g data-mml-node="mo" transform="translate(1473.8,0)">
            <path
              data-c="3D"
              d="M56 347Q56 360 70 367H707Q722 359 722 347Q722 336 708 328L390 327H72Q56 332 56 347ZM56 153Q56 168 72 173H708Q722 163 722 153Q722 140 707 133H70Q56 140 56 153Z"
            />
          </g>
          <g data-mml-node="mo" transform="translate(2529.6,0)">
            <path
              data-c="2212"
              d="M84 237T84 250T98 270H679Q694 262 694 250T679 230H98Q84 237 84 250Z"
            />
          </g>
          <g data-mml-node="mn" transform="translate(3307.6,0)">
            <path
              data-c="31"
              d="M213 578L200 573Q186 568 160 563T102 556H83V602H102Q149 604 189 617T245 641T273 663Q275 666 285 666Q294 666 302 660V361L303 61Q310 54 315 52T339 48T401 46H427V0H416Q395 3 257 3Q121 3 100 0H88V46H114Q136 46 152 46T177 47T193 50T201 52T207 57T213 61V578Z"
            />
          </g>
        </g>
      </g>
    </svg>
  </g>
  <g>
    <line
      x1="616.164896526333"
      y1="477.3439079715992"
      x2="84.25746874082074"
      y2="349.1076849282968"
      stroke="#000000"
      stroke-opacity="1"
      stroke-width="1"
    />
    <title>`l2`.shape</title>
  </g>
  <g>
    <line
      x1="414.91475758902544"
      y1="383.70733130990385"
      x2="755.9615167724471"
      y2="362.80851132859027"
      stroke="#000000"
      stroke-opacity="1"
      stroke-width="1"
    />
    <title>`l14`.shape</title>
  </g>
  <g>
    <line
      x1="181.82564858060934"
      y1="388.02212108666356"
      x2="493.8133106501725"
      y2="25.731371868325027"
      stroke="#000000"
      stroke-opacity="1"
      stroke-width="1"
    />
    <title>`l4`.shape</title>
  </g>
  <g>
    <line
      x1="456.47189653839246"
      y1="52.164887341047404"
      x2="276.3415919948836"
      y2="335.42914351997314"
      stroke="#000000"
      stroke-opacity="1"
      stroke-width="1"
    />
    <title>`l12`.shape</title>
  </g>
  <g>
    <line
      x1="162.01979556681226"
      y1="138.1759594942676"
      x2="232.15060318170458"
      y2="335.4291431021563"
      stroke="#000000"
      stroke-opacity="1"
      stroke-width="1"
    />
    <title>`l13`.shape</title>
  </g>
  <g>
    <line
      x1="417.49623587799766"
      y1="380.05063136018"
      x2="745.530489178896"
      y2="379.8578141800896"
      stroke="#000000"
      stroke-opacity="1"
      stroke-width="1"
    />
    <title>`l3`.shape</title>
  </g>
  <g>
    <line
      x1="482.55613248370884"
      y1="645.6860368839475"
      x2="258.8731444633347"
      y2="383.5491424139869"
      stroke="#000000"
      stroke-opacity="1"
      stroke-width="1"
    />
    <title>`l11`.shape</title>
  </g>
  <g>
    <line
      x1="73.3771701141726"
      y1="449.09838214224385"
      x2="731.2452240456414"
      y2="323.78491712908533"
      stroke="#000000"
      stroke-opacity="1"
      stroke-width="1"
    />
    <title>`l9`.shape</title>
  </g>
  <g>
    <line
      x1="547.7583093558844"
      y1="475.1671040755836"
      x2="126.91914121722692"
      y2="23.714088375990627"
      stroke="#000000"
      stroke-opacity="1"
      stroke-width="1"
    />
    <title>`l7`.shape</title>
  </g>
  <g>
    <line
      x1="505.7219619131823"
      y1="243.0192725309824"
      x2="352.4330782571246"
      y2="335.42914306956766"
      stroke="#000000"
      stroke-opacity="1"
      stroke-width="1"
    />
    <title>`l15`.shape</title>
  </g>
  <g>
    <line
      x1="230.23587834279726"
      y1="323.0664203526673"
      x2="152.6883197062174"
      y2="630.3768806468636"
      stroke="#000000"
      stroke-opacity="1"
      stroke-width="1"
    />
    <title>`l6`.shape</title>
  </g>
  <g>
    <line
      x1="500.8337757660288"
      y1="365.8628308729758"
      x2="31.39509219579196"
      y2="194.43049146935883"
      stroke="#000000"
      stroke-opacity="1"
      stroke-width="1"
    />
    <title>`l10`.shape</title>
  </g>
  <g>
    <line
      x1="204.02276156961133"
      y1="671.9520621486474"
      x2="565.5004004847126"
      y2="183.59532382785432"
      stroke="#000000"
      stroke-opacity="1"
      stroke-width="1"
    />
    <title>`l1`.shape</title>
  </g>
  <g>
    <line
      x1="353.79015886866216"
      y1="598.567522792353"
      x2="503.9337074678002"
      y2="91.80865003111398"
      stroke="#000000"
      stroke-opacity="1"
      stroke-width="1"
    />
    <title>`l0`.shape</title>
  </g>
  <g>
    <line
      x1="227.1162351794528"
      y1="362.8967048557472"
      x2="35.51982651606755"
      y2="340.9209833428622"
      stroke="#000000"
      stroke-opacity="1"
      stroke-width="1"
    />
    <title>`l8`.shape</title>
  </g>
  <g>
    <line
      x1="300.0448361680863"
      y1="0.3763691100414803"
      x2="465.93074674971297"
      y2="473.5979155990814"
      stroke="#000000"
      stroke-opacity="1"
      stroke-width="1"
    />
    <title>`l5`.shape</title>
  </g>
  <rect
    x="227.11623563421773"
    y="335.4291457796724"
    width="190.38"
    height="48.12"
    fill="none"
    stroke="#000000"
    stroke-opacity="1"
    stroke-width="1"
    rx="0"
    transform="rotate(0, 322.3062356342177, 359.4891457796724)"
  >
    <title>`g`.box</title>
  </rect>
</svg>
