<svg
  version="1.2"
  xmlns="http://www.w3.org/2000/svg"
  viewBox="0 0 1000 1000"
  penrose="0"
>
  <penrose>
    <croppedViewBox>
      -1.9383605831535533e-10 75.56433398392329 1000.0000000027217
      851.0000000105365
    </croppedViewBox>
  </penrose>
  <g>
    <g>
      <marker
        id="message-passing__registry-ValentinoDonkey58541-`Eve`.line-endArrowId"
        markerUnits="strokeWidth"
        markerWidth="9.95"
        markerHeight="8.12"
        viewBox="0 0 9.95 8.12"
        refX="2.36"
        refY="4.06"
        orient="auto-start-reverse"
      >
        <path
          d="M9.95 4.06 0 8.12 2.36 4.06 0 0 9.95 4.06z"
          fill="#000000"
          fill-opacity="1"
        />
      </marker>
      <line
        x1="153.00000013421305"
        y1="126.56433398664865"
        x2="153.00000013421305"
        y2="911.3843339866487"
        stroke="#000000"
        stroke-opacity="1"
        stroke-width="2"
        stroke-dasharray="7,5"
        marker-end="url(#message-passing__registry-ValentinoDonkey58541-`Eve`.line-endArrowId)"
      />
      <title>`Eve`.line</title>
    </g>
    <circle
      fill="#ffffff"
      fill-opacity="1"
      cx="153.00000013421305"
      cy="126.56433398664865"
      stroke="#000000"
      stroke-opacity="1"
      stroke-width="2"
      r="50"
    >
      <title>`Eve`.iconTop</title>
    </circle>
    <text
      fill="#000000"
      fill-opacity="1"
      stroke="none"
      transform="rotate(0, 153.00000013421305, 126.56433398664865)"
      style="font: 20px sans-serif"
      x="153.00000013421305"
      y="133.55163867414865"
      width="35.302734375"
      height="14.716796875"
      font-size-adjust=""
      alignment-baseline="alphabetic"
      dominant-baseline="alphabetic"
      ascent="14.345703125"
      descent="0.37109375"
      text-anchor="middle"
      visibility=""
    >
      <title>`Eve`.textTop</title>
      Eve
    </text>
    <title>`Eve`.icon</title>
  </g>
  <g>
    <g>
      <marker
        id="message-passing__registry-ValentinoDonkey58541-`Bob`.line-endArrowId"
        markerUnits="strokeWidth"
        markerWidth="9.95"
        markerHeight="8.12"
        viewBox="0 0 9.95 8.12"
        refX="2.36"
        refY="4.06"
        orient="auto-start-reverse"
      >
        <path
          d="M9.95 4.06 0 8.12 2.36 4.06 0 0 9.95 4.06z"
          fill="#000000"
          fill-opacity="1"
        />
      </marker>
      <line
        x1="949.0000000025278"
        y1="126.56433398550575"
        x2="949.0000000025278"
        y2="911.3843339855057"
        stroke="#000000"
        stroke-opacity="1"
        stroke-width="2"
        stroke-dasharray="7,5"
        marker-end="url(#message-passing__registry-ValentinoDonkey58541-`Bob`.line-endArrowId)"
      />
      <title>`Bob`.line</title>
    </g>
    <circle
      fill="#ffffff"
      fill-opacity="1"
      cx="949.0000000025278"
      cy="126.56433398550575"
      stroke="#000000"
      stroke-opacity="1"
      stroke-width="2"
      r="50"
    >
      <title>`Bob`.iconTop</title>
    </circle>
    <text
      fill="#000000"
      fill-opacity="1"
      stroke="none"
      transform="rotate(0, 949.0000000025278, 126.56433398550575)"
      style="font: 20px sans-serif"
      x="949.0000000025278"
      y="133.57116992300575"
      width="36.298828125"
      height="14.775390625"
      font-size-adjust=""
      alignment-baseline="alphabetic"
      dominant-baseline="alphabetic"
      ascent="14.39453125"
      descent="0.380859375"
      text-anchor="middle"
      visibility=""
    >
      <title>`Bob`.textTop</title>
      Bob
    </text>
    <title>`Bob`.icon</title>
  </g>
  <g>
    <g>
      <marker
        id="message-passing__registry-ValentinoDonkey58541-`Alice`.line-endArrowId"
        markerUnits="strokeWidth"
        markerWidth="9.95"
        markerHeight="8.12"
        viewBox="0 0 9.95 8.12"
        refX="2.36"
        refY="4.06"
        orient="auto-start-reverse"
      >
        <path
          d="M9.95 4.06 0 8.12 2.36 4.06 0 0 9.95 4.06z"
          fill="#000000"
          fill-opacity="1"
        />
      </marker>
      <line
        x1="623.7290797178366"
        y1="126.56433398392329"
        x2="623.7290797178366"
        y2="911.3843339839233"
        stroke="#000000"
        stroke-opacity="1"
        stroke-width="2"
        stroke-dasharray="7,5"
        marker-end="url(#message-passing__registry-ValentinoDonkey58541-`Alice`.line-endArrowId)"
      />
      <title>`Alice`.line</title>
    </g>
    <circle
      fill="#ffffff"
      fill-opacity="1"
      cx="623.7290797178366"
      cy="126.56433398392329"
      stroke="#000000"
      stroke-opacity="1"
      stroke-width="2"
      r="50"
    >
      <title>`Alice`.iconTop</title>
    </circle>
    <text
      fill="#000000"
      fill-opacity="1"
      stroke="none"
      transform="rotate(0, 623.7290797178366, 126.56433398392329)"
      style="font: 20px sans-serif"
      x="623.7290797178366"
      y="133.5516386714233"
      width="42.7734375"
      height="14.716796875"
      font-size-adjust=""
      alignment-baseline="alphabetic"
      dominant-baseline="alphabetic"
      ascent="14.345703125"
      descent="0.37109375"
      text-anchor="middle"
      visibility=""
    >
      <title>`Alice`.textTop</title>
      Alice
    </text>
    <title>`Alice`.icon</title>
  </g>
  <g>
    <g>
      <marker
        id="message-passing__registry-ValentinoDonkey58541-`Charlie`.line-endArrowId"
        markerUnits="strokeWidth"
        markerWidth="9.95"
        markerHeight="8.12"
        viewBox="0 0 9.95 8.12"
        refX="2.36"
        refY="4.06"
        orient="auto-start-reverse"
      >
        <path
          d="M9.95 4.06 0 8.12 2.36 4.06 0 0 9.95 4.06z"
          fill="#000000"
          fill-opacity="1"
        />
      </marker>
      <line
        x1="50.999999999806164"
        y1="126.56433399445979"
        x2="50.999999999806164"
        y2="911.3843339944598"
        stroke="#000000"
        stroke-opacity="1"
        stroke-width="2"
        stroke-dasharray="7,5"
        marker-end="url(#message-passing__registry-ValentinoDonkey58541-`Charlie`.line-endArrowId)"
      />
      <title>`Charlie`.line</title>
    </g>
    <circle
      fill="#ffffff"
      fill-opacity="1"
      cx="50.999999999806164"
      cy="126.56433399445979"
      stroke="#000000"
      stroke-opacity="1"
      stroke-width="2"
      r="50"
    >
      <title>`Charlie`.iconTop</title>
    </circle>
    <text
      fill="#000000"
      fill-opacity="1"
      stroke="none"
      transform="rotate(0, 50.999999999806164, 126.56433399445979)"
      style="font: 20px sans-serif"
      x="50.999999999806164"
      y="133.7469511819598"
      width="63.369140625"
      height="15.107421875"
      font-size-adjust=""
      alignment-baseline="alphabetic"
      dominant-baseline="alphabetic"
      ascent="14.736328125"
      descent="0.37109375"
      text-anchor="middle"
      visibility=""
    >
      <title>`Charlie`.textTop</title>
      Charlie
    </text>
    <title>`Charlie`.icon</title>
  </g>
  <text
    fill="#000000"
    fill-opacity="1"
    stroke="#ffffff"
    stroke-opacity="1"
    stroke-width="4"
    transform="rotate(0, 786.364606163877, 667.8918097093351)"
    style="font: 15px sans-serif"
    x="786.364606163877"
    y="671.6818487718351"
    width="98.75"
    height="14.01171875"
    font-size-adjust=""
    alignment-baseline="alphabetic"
    dominant-baseline="alphabetic"
    ascent="10.7958984375"
    descent="3.2158203125"
    text-anchor="middle"
    visibility=""
    paint-order="stroke"
  >
    <title>`m5`.text</title>
    and desert you
  </text>
  <g>
    <marker
      id="message-passing__registry-ValentinoDonkey58541-`m4`.line-endArrowId"
      markerUnits="strokeWidth"
      markerWidth="9.95"
      markerHeight="8.12"
      viewBox="0 0 9.95 8.12"
      refX="2.36"
      refY="4.06"
      orient="auto-start-reverse"
    >
      <path
        d="M9.95 4.06 0 8.12 2.36 4.06 0 0 9.95 4.06z"
        fill="#000000"
        fill-opacity="1"
      />
    </marker>
    <line
      x1="623.7290797178366"
      y1="631.5643441653308"
      x2="926.2300000025278"
      y2="631.5643441653308"
      stroke="#000000"
      stroke-opacity="1"
      stroke-width="3"
      marker-end="url(#message-passing__registry-ValentinoDonkey58541-`m4`.line-endArrowId)"
    />
    <title>`m4`.line</title>
  </g>
  <g>
    <marker
      id="message-passing__registry-ValentinoDonkey58541-`m5`.line-endArrowId"
      markerUnits="strokeWidth"
      markerWidth="9.95"
      markerHeight="8.12"
      viewBox="0 0 9.95 8.12"
      refX="2.36"
      refY="4.06"
      orient="auto-start-reverse"
    >
      <path
        d="M9.95 4.06 0 8.12 2.36 4.06 0 0 9.95 4.06z"
        fill="#000000"
        fill-opacity="1"
      />
    </marker>
    <line
      x1="949.0000000025278"
      y1="679.8976570901885"
      x2="646.4990797178366"
      y2="679.8976570901885"
      stroke="#000000"
      stroke-opacity="1"
      stroke-width="3"
      marker-end="url(#message-passing__registry-ValentinoDonkey58541-`m5`.line-endArrowId)"
    />
    <title>`m5`.line</title>
  </g>
  <text
    fill="#000000"
    fill-opacity="1"
    stroke="#ffffff"
    stroke-opacity="1"
    stroke-width="4"
    transform="rotate(0, 786.364606163877, 186.1561644537723)"
    style="font: 15px sans-serif"
    x="786.364606163877"
    y="190.1180785162723"
    width="177.365234375"
    height="14.1796875"
    font-size-adjust=""
    alignment-baseline="alphabetic"
    dominant-baseline="alphabetic"
    ascent="11.0517578125"
    descent="3.1279296875"
    text-anchor="middle"
    visibility=""
    paint-order="stroke"
  >
    <title>`m1`.text</title>
    Never Gonna Give You Up
  </text>
  <text
    fill="#000000"
    fill-opacity="1"
    stroke="#ffffff"
    stroke-opacity="1"
    stroke-width="4"
    transform="rotate(0, 786.364606163877, 643.60290634666)"
    style="font: 15px sans-serif"
    x="786.364606163877"
    y="647.32312119041"
    width="180.228515625"
    height="14.0771484375"
    font-size-adjust=""
    alignment-baseline="alphabetic"
    dominant-baseline="alphabetic"
    ascent="10.7587890625"
    descent="3.318359375"
    text-anchor="middle"
    visibility=""
    paint-order="stroke"
  >
    <title>`m4`.text</title>
    Never gonna make you cry
  </text>
  <g>
    <marker
      id="message-passing__registry-ValentinoDonkey58541-`m7`.line-endArrowId"
      markerUnits="strokeWidth"
      markerWidth="9.95"
      markerHeight="8.12"
      viewBox="0 0 9.95 8.12"
      refX="2.36"
      refY="4.06"
      orient="auto-start-reverse"
    >
      <path
        d="M9.95 4.06 0 8.12 2.36 4.06 0 0 9.95 4.06z"
        fill="#000000"
        fill-opacity="1"
      />
    </marker>
    <line
      x1="153.00000013421305"
      y1="415.8817027279748"
      x2="600.9590797178366"
      y2="415.8817027279748"
      stroke="#000000"
      stroke-opacity="1"
      stroke-width="3"
      marker-end="url(#message-passing__registry-ValentinoDonkey58541-`m7`.line-endArrowId)"
    />
    <title>`m7`.line</title>
  </g>
  <g>
    <marker
      id="message-passing__registry-ValentinoDonkey58541-`m8`.line-endArrowId"
      markerUnits="strokeWidth"
      markerWidth="9.95"
      markerHeight="8.12"
      viewBox="0 0 9.95 8.12"
      refX="2.36"
      refY="4.06"
      orient="auto-start-reverse"
    >
      <path
        d="M9.95 4.06 0 8.12 2.36 4.06 0 0 9.95 4.06z"
        fill="#000000"
        fill-opacity="1"
      />
    </marker>
    <line
      x1="50.999999999806164"
      y1="246.5493385669055"
      x2="600.9590797178366"
      y2="246.5493385669055"
      stroke="#000000"
      stroke-opacity="1"
      stroke-width="3"
      marker-end="url(#message-passing__registry-ValentinoDonkey58541-`m8`.line-endArrowId)"
    />
    <title>`m8`.line</title>
  </g>
  <text
    fill="#000000"
    fill-opacity="1"
    stroke="#ffffff"
    stroke-opacity="1"
    stroke-width="4"
    transform="rotate(0, 786.364606163877, 341.3999353283395)"
    style="font: 15px sans-serif"
    x="786.364606163877"
    y="346.7827478283395"
    width="186.140625"
    height="11.337890625"
    font-size-adjust=""
    alignment-baseline="alphabetic"
    dominant-baseline="alphabetic"
    ascent="11.0517578125"
    descent="0.2861328125"
    text-anchor="middle"
    visibility=""
    paint-order="stroke"
  >
    <title>`m2`.text</title>
    Never Gonna Let You Down
  </text>
  <text
    fill="#000000"
    fill-opacity="1"
    stroke="#ffffff"
    stroke-opacity="1"
    stroke-width="4"
    transform="rotate(0, 388.3648538203871, 427.9388195720286)"
    style="font: 15px sans-serif"
    x="388.3648538203871"
    y="431.6775891032786"
    width="228.544921875"
    height="14.1142578125"
    font-size-adjust=""
    alignment-baseline="alphabetic"
    dominant-baseline="alphabetic"
    ascent="10.7958984375"
    descent="3.318359375"
    text-anchor="middle"
    visibility=""
    paint-order="stroke"
  >
    <title>`m7`.text</title>
    Never gonna tell a lie and hurt you
  </text>
  <text
    fill="#000000"
    fill-opacity="1"
    stroke="#ffffff"
    stroke-opacity="1"
    stroke-width="4"
    transform="rotate(0, 786.364606163877, 474.30408210568504)"
    style="font: 15px sans-serif"
    x="786.364606163877"
    y="478.04285163693504"
    width="162.7822265625"
    height="14.1142578125"
    font-size-adjust=""
    alignment-baseline="alphabetic"
    dominant-baseline="alphabetic"
    ascent="10.7958984375"
    descent="3.318359375"
    text-anchor="middle"
    visibility=""
    paint-order="stroke"
  >
    <title>`m3`.text</title>
    Never gonna run around
  </text>
  <g>
    <marker
      id="message-passing__registry-ValentinoDonkey58541-`m1`.line-endArrowId"
      markerUnits="strokeWidth"
      markerWidth="9.95"
      markerHeight="8.12"
      viewBox="0 0 9.95 8.12"
      refX="2.36"
      refY="4.06"
      orient="auto-start-reverse"
    >
      <path
        d="M9.95 4.06 0 8.12 2.36 4.06 0 0 9.95 4.06z"
        fill="#000000"
        fill-opacity="1"
      />
    </marker>
    <line
      x1="623.7290797178366"
      y1="198.24599610690007"
      x2="926.2300000025278"
      y2="198.24599610690007"
      stroke="#000000"
      stroke-opacity="1"
      stroke-width="3"
      marker-end="url(#message-passing__registry-ValentinoDonkey58541-`m1`.line-endArrowId)"
    />
    <title>`m1`.line</title>
  </g>
  <g>
    <marker
      id="message-passing__registry-ValentinoDonkey58541-`m3`.line-endArrowId"
      markerUnits="strokeWidth"
      markerWidth="9.95"
      markerHeight="8.12"
      viewBox="0 0 9.95 8.12"
      refX="2.36"
      refY="4.06"
      orient="auto-start-reverse"
    >
      <path
        d="M9.95 4.06 0 8.12 2.36 4.06 0 0 9.95 4.06z"
        fill="#000000"
        fill-opacity="1"
      />
    </marker>
    <line
      x1="623.7290797178366"
      y1="462.2469652616699"
      x2="926.2300000025278"
      y2="462.2469652616699"
      stroke="#000000"
      stroke-opacity="1"
      stroke-width="3"
      marker-end="url(#message-passing__registry-ValentinoDonkey58541-`m3`.line-endArrowId)"
    />
    <title>`m3`.line</title>
  </g>
  <g>
    <marker
      id="message-passing__registry-ValentinoDonkey58541-`m2`.line-endArrowId"
      markerUnits="strokeWidth"
      markerWidth="9.95"
      markerHeight="8.12"
      viewBox="0 0 9.95 8.12"
      refX="2.36"
      refY="4.06"
      orient="auto-start-reverse"
    >
      <path
        d="M9.95 4.06 0 8.12 2.36 4.06 0 0 9.95 4.06z"
        fill="#000000"
        fill-opacity="1"
      />
    </marker>
    <line
      x1="949.0000000025278"
      y1="330.7310006699885"
      x2="646.4990797178366"
      y2="330.7310006699885"
      stroke="#000000"
      stroke-opacity="1"
      stroke-width="3"
      marker-end="url(#message-passing__registry-ValentinoDonkey58541-`m2`.line-endArrowId)"
    />
    <title>`m2`.line</title>
  </g>
  <text
    fill="#000000"
    fill-opacity="1"
    stroke="#ffffff"
    stroke-opacity="1"
    stroke-width="4"
    transform="rotate(0, 551.0002597996892, 535.3405505254913)"
    style="font: 15px sans-serif"
    x="551.0002597996892"
    y="539.0793200567413"
    width="175.62109375"
    height="14.1142578125"
    font-size-adjust=""
    alignment-baseline="alphabetic"
    dominant-baseline="alphabetic"
    ascent="10.7958984375"
    descent="3.318359375"
    text-anchor="middle"
    visibility=""
    paint-order="stroke"
  >
    <title>`m6`.text</title>
    Never gonna say goodbye
  </text>
  <g>
    <marker
      id="message-passing__registry-ValentinoDonkey58541-`m6`.line-endArrowId"
      markerUnits="strokeWidth"
      markerWidth="9.95"
      markerHeight="8.12"
      viewBox="0 0 9.95 8.12"
      refX="2.36"
      refY="4.06"
      orient="auto-start-reverse"
    >
      <path
        d="M9.95 4.06 0 8.12 2.36 4.06 0 0 9.95 4.06z"
        fill="#000000"
        fill-opacity="1"
      />
    </marker>
    <line
      x1="949.0000000025278"
      y1="547.397667353731"
      x2="175.77000013421303"
      y2="547.397667353731"
      stroke="#000000"
      stroke-opacity="1"
      stroke-width="3"
      marker-end="url(#message-passing__registry-ValentinoDonkey58541-`m6`.line-endArrowId)"
    />
    <title>`m6`.line</title>
  </g>
  <text
    fill="#000000"
    fill-opacity="1"
    stroke="#ffffff"
    stroke-opacity="1"
    stroke-width="4"
    transform="rotate(0, 337.36460276014606, 236.02688815731528)"
    style="font: 15px sans-serif"
    x="337.36460276014606"
    y="241.26321628231528"
    width="38.587890625"
    height="11.044921875"
    font-size-adjust=""
    alignment-baseline="alphabetic"
    dominant-baseline="alphabetic"
    ascent="10.7587890625"
    descent="0.2861328125"
    text-anchor="middle"
    visibility=""
    paint-order="stroke"
  >
    <title>`m8`.text</title>
    Hello!
  </text>
  <circle
    fill="#000000"
    fill-opacity="0.3333333333333333"
    cx="623.7290797178366"
    cy="198.24599610690007"
    stroke="none"
    r="5"
  >
    <title>`m1`.marker1</title>
  </circle>
  <circle
    fill="#000000"
    fill-opacity="0.3333333333333333"
    cx="949.0000000025278"
    cy="198.24599610690007"
    stroke="none"
    r="5"
  >
    <title>`m1`.marker2</title>
  </circle>
  <circle
    fill="#000000"
    fill-opacity="0.3333333333333333"
    cx="949.0000000025278"
    cy="330.7310006699885"
    stroke="none"
    r="5"
  >
    <title>`m2`.marker1</title>
  </circle>
  <circle
    fill="#000000"
    fill-opacity="0.3333333333333333"
    cx="623.7290797178366"
    cy="330.7310006699885"
    stroke="none"
    r="5"
  >
    <title>`m2`.marker2</title>
  </circle>
  <circle
    fill="#000000"
    fill-opacity="0.3333333333333333"
    cx="623.7290797178366"
    cy="462.2469652616699"
    stroke="none"
    r="5"
  >
    <title>`m3`.marker1</title>
  </circle>
  <circle
    fill="#000000"
    fill-opacity="0.3333333333333333"
    cx="949.0000000025278"
    cy="462.2469652616699"
    stroke="none"
    r="5"
  >
    <title>`m3`.marker2</title>
  </circle>
  <g>
    <line
      x1="0.9999999998061639"
      y1="276.5643339944598"
      x2="949.0000000025278"
      y2="276.5643339944598"
      stroke="#aaaaaa"
      stroke-opacity="1"
      stroke-width="1"
      stroke-dasharray="7,5"
    />
    <title>`t_1`.line</title>
  </g>
  <g
    transform="rotate(0, 25.999999999806164, 226.5643339944598)translate(16.029999999806165, 216.8643339944598)"
  >
    <title>`t_1`.text</title>
    <svg
      style="font-size: 25px"
      xmlns="http://www.w3.org/2000/svg"
      width="19.939999999999998"
      height="19.400000000000002"
      role="img"
      focusable="false"
      viewBox="0 -626 797.6 776"
    >
      <g
        stroke="none"
        fill="#000000"
        stroke-width="0"
        transform="scale(1,-1)"
        fill-opacity="1"
      >
        <g data-mml-node="math">
          <g data-mml-node="msub">
            <g data-mml-node="mi">
              <path
                data-c="1D461"
                d="M26 385Q19 392 19 395Q19 399 22 411T27 425Q29 430 36 430T87 431H140L159 511Q162 522 166 540T173 566T179 586T187 603T197 615T211 624T229 626Q247 625 254 615T261 596Q261 589 252 549T232 470L222 433Q222 431 272 431H323Q330 424 330 420Q330 398 317 385H210L174 240Q135 80 135 68Q135 26 162 26Q197 26 230 60T283 144Q285 150 288 151T303 153H307Q322 153 322 145Q322 142 319 133Q314 117 301 95T267 48T216 6T155 -11Q125 -11 98 4T59 56Q57 64 57 83V101L92 241Q127 382 128 383Q128 385 77 385H26Z"
              />
            </g>
            <g data-mml-node="mn" transform="translate(394,-150) scale(0.707)">
              <path
                data-c="31"
                d="M213 578L200 573Q186 568 160 563T102 556H83V602H102Q149 604 189 617T245 641T273 663Q275 666 285 666Q294 666 302 660V361L303 61Q310 54 315 52T339 48T401 46H427V0H416Q395 3 257 3Q121 3 100 0H88V46H114Q136 46 152 46T177 47T193 50T201 52T207 57T213 61V578Z"
              />
            </g>
          </g>
        </g>
      </g>
    </svg>
  </g>
  <circle
    fill="#000000"
    fill-opacity="0.3333333333333333"
    cx="623.7290797178366"
    cy="631.5643441653308"
    stroke="none"
    r="5"
  >
    <title>`m4`.marker1</title>
  </circle>
  <circle
    fill="#000000"
    fill-opacity="0.3333333333333333"
    cx="949.0000000025278"
    cy="631.5643441653308"
    stroke="none"
    r="5"
  >
    <title>`m4`.marker2</title>
  </circle>
  <g>
    <line
      x1="0.9999999998061639"
      y1="384.8976673277931"
      x2="949.0000000025278"
      y2="384.8976673277931"
      stroke="#aaaaaa"
      stroke-opacity="1"
      stroke-width="1"
      stroke-dasharray="7,5"
    />
    <title>`t_2`.line</title>
  </g>
  <g
    transform="rotate(0, 25.999999999806164, 334.8976673277931)translate(16.029999999806165, 325.1976673277931)"
  >
    <title>`t_2`.text</title>
    <svg
      style="font-size: 25px"
      xmlns="http://www.w3.org/2000/svg"
      width="19.939999999999998"
      height="19.400000000000002"
      role="img"
      focusable="false"
      viewBox="0 -626 797.6 776"
    >
      <g
        stroke="none"
        fill="#000000"
        stroke-width="0"
        transform="scale(1,-1)"
        fill-opacity="1"
      >
        <g data-mml-node="math">
          <g data-mml-node="msub">
            <g data-mml-node="mi">
              <path
                data-c="1D461"
                d="M26 385Q19 392 19 395Q19 399 22 411T27 425Q29 430 36 430T87 431H140L159 511Q162 522 166 540T173 566T179 586T187 603T197 615T211 624T229 626Q247 625 254 615T261 596Q261 589 252 549T232 470L222 433Q222 431 272 431H323Q330 424 330 420Q330 398 317 385H210L174 240Q135 80 135 68Q135 26 162 26Q197 26 230 60T283 144Q285 150 288 151T303 153H307Q322 153 322 145Q322 142 319 133Q314 117 301 95T267 48T216 6T155 -11Q125 -11 98 4T59 56Q57 64 57 83V101L92 241Q127 382 128 383Q128 385 77 385H26Z"
              />
            </g>
            <g data-mml-node="mn" transform="translate(394,-150) scale(0.707)">
              <path
                data-c="32"
                d="M109 429Q82 429 66 447T50 491Q50 562 103 614T235 666Q326 666 387 610T449 465Q449 422 429 383T381 315T301 241Q265 210 201 149L142 93L218 92Q375 92 385 97Q392 99 409 186V189H449V186Q448 183 436 95T421 3V0H50V19V31Q50 38 56 46T86 81Q115 113 136 137Q145 147 170 174T204 211T233 244T261 278T284 308T305 340T320 369T333 401T340 431T343 464Q343 527 309 573T212 619Q179 619 154 602T119 569T109 550Q109 549 114 549Q132 549 151 535T170 489Q170 464 154 447T109 429Z"
              />
            </g>
          </g>
        </g>
      </g>
    </svg>
  </g>
  <circle
    fill="#000000"
    fill-opacity="0.3333333333333333"
    cx="949.0000000025278"
    cy="679.8976570901885"
    stroke="none"
    r="5"
  >
    <title>`m5`.marker1</title>
  </circle>
  <circle
    fill="#000000"
    fill-opacity="0.3333333333333333"
    cx="623.7290797178366"
    cy="679.8976570901885"
    stroke="none"
    r="5"
  >
    <title>`m5`.marker2</title>
  </circle>
  <g>
    <line
      x1="0.9999999998061639"
      y1="493.2310006611265"
      x2="949.0000000025278"
      y2="493.2310006611265"
      stroke="#aaaaaa"
      stroke-opacity="1"
      stroke-width="1"
      stroke-dasharray="7,5"
    />
    <title>`t_3`.line</title>
  </g>
  <g
    transform="rotate(0, 25.999999999806164, 443.2310006611265)translate(16.029999999806165, 433.3360006611265)"
  >
    <title>`t_3`.text</title>
    <svg
      style="font-size: 25px"
      xmlns="http://www.w3.org/2000/svg"
      width="19.939999999999998"
      height="19.79"
      role="img"
      focusable="false"
      viewBox="0 -626 797.6 791.6"
    >
      <g
        stroke="none"
        fill="#000000"
        stroke-width="0"
        transform="scale(1,-1)"
        fill-opacity="1"
      >
        <g data-mml-node="math">
          <g data-mml-node="msub">
            <g data-mml-node="mi">
              <path
                data-c="1D461"
                d="M26 385Q19 392 19 395Q19 399 22 411T27 425Q29 430 36 430T87 431H140L159 511Q162 522 166 540T173 566T179 586T187 603T197 615T211 624T229 626Q247 625 254 615T261 596Q261 589 252 549T232 470L222 433Q222 431 272 431H323Q330 424 330 420Q330 398 317 385H210L174 240Q135 80 135 68Q135 26 162 26Q197 26 230 60T283 144Q285 150 288 151T303 153H307Q322 153 322 145Q322 142 319 133Q314 117 301 95T267 48T216 6T155 -11Q125 -11 98 4T59 56Q57 64 57 83V101L92 241Q127 382 128 383Q128 385 77 385H26Z"
              />
            </g>
            <g data-mml-node="mn" transform="translate(394,-150) scale(0.707)">
              <path
                data-c="33"
                d="M127 463Q100 463 85 480T69 524Q69 579 117 622T233 665Q268 665 277 664Q351 652 390 611T430 522Q430 470 396 421T302 350L299 348Q299 347 308 345T337 336T375 315Q457 262 457 175Q457 96 395 37T238 -22Q158 -22 100 21T42 130Q42 158 60 175T105 193Q133 193 151 175T169 130Q169 119 166 110T159 94T148 82T136 74T126 70T118 67L114 66Q165 21 238 21Q293 21 321 74Q338 107 338 175V195Q338 290 274 322Q259 328 213 329L171 330L168 332Q166 335 166 348Q166 366 174 366Q202 366 232 371Q266 376 294 413T322 525V533Q322 590 287 612Q265 626 240 626Q208 626 181 615T143 592T132 580H135Q138 579 143 578T153 573T165 566T175 555T183 540T186 520Q186 498 172 481T127 463Z"
              />
            </g>
          </g>
        </g>
      </g>
    </svg>
  </g>
  <circle
    fill="#000000"
    fill-opacity="0.3333333333333333"
    cx="949.0000000025278"
    cy="547.397667353731"
    stroke="none"
    r="5"
  >
    <title>`m6`.marker1</title>
  </circle>
  <circle
    fill="#000000"
    fill-opacity="0.3333333333333333"
    cx="153.00000013421305"
    cy="547.397667353731"
    stroke="none"
    r="5"
  >
    <title>`m6`.marker2</title>
  </circle>
  <g>
    <line
      x1="0.9999999998061639"
      y1="601.5643339944597"
      x2="949.0000000025278"
      y2="601.5643339944597"
      stroke="#aaaaaa"
      stroke-opacity="1"
      stroke-width="1"
      stroke-dasharray="7,5"
    />
    <title>`t_4`.line</title>
  </g>
  <g
    transform="rotate(0, 25.999999999806164, 551.5643339944597)translate(16.029999999806165, 541.8643339944597)"
  >
    <title>`t_4`.text</title>
    <svg
      style="font-size: 25px"
      xmlns="http://www.w3.org/2000/svg"
      width="19.939999999999998"
      height="19.400000000000002"
      role="img"
      focusable="false"
      viewBox="0 -626 797.6 776"
    >
      <g
        stroke="none"
        fill="#000000"
        stroke-width="0"
        transform="scale(1,-1)"
        fill-opacity="1"
      >
        <g data-mml-node="math">
          <g data-mml-node="msub">
            <g data-mml-node="mi">
              <path
                data-c="1D461"
                d="M26 385Q19 392 19 395Q19 399 22 411T27 425Q29 430 36 430T87 431H140L159 511Q162 522 166 540T173 566T179 586T187 603T197 615T211 624T229 626Q247 625 254 615T261 596Q261 589 252 549T232 470L222 433Q222 431 272 431H323Q330 424 330 420Q330 398 317 385H210L174 240Q135 80 135 68Q135 26 162 26Q197 26 230 60T283 144Q285 150 288 151T303 153H307Q322 153 322 145Q322 142 319 133Q314 117 301 95T267 48T216 6T155 -11Q125 -11 98 4T59 56Q57 64 57 83V101L92 241Q127 382 128 383Q128 385 77 385H26Z"
              />
            </g>
            <g data-mml-node="mn" transform="translate(394,-150) scale(0.707)">
              <path
                data-c="34"
                d="M462 0Q444 3 333 3Q217 3 199 0H190V46H221Q241 46 248 46T265 48T279 53T286 61Q287 63 287 115V165H28V211L179 442Q332 674 334 675Q336 677 355 677H373L379 671V211H471V165H379V114Q379 73 379 66T385 54Q393 47 442 46H471V0H462ZM293 211V545L74 212L183 211H293Z"
              />
            </g>
          </g>
        </g>
      </g>
    </svg>
  </g>
  <circle
    fill="#000000"
    fill-opacity="0.3333333333333333"
    cx="153.00000013421305"
    cy="415.8817027279748"
    stroke="none"
    r="5"
  >
    <title>`m7`.marker1</title>
  </circle>
  <circle
    fill="#000000"
    fill-opacity="0.3333333333333333"
    cx="623.7290797178366"
    cy="415.8817027279748"
    stroke="none"
    r="5"
  >
    <title>`m7`.marker2</title>
  </circle>
  <g>
    <line
      x1="0.9999999998061639"
      y1="709.8976673277931"
      x2="949.0000000025278"
      y2="709.8976673277931"
      stroke="#aaaaaa"
      stroke-opacity="1"
      stroke-width="1"
      stroke-dasharray="7,5"
    />
    <title>`t_5`.line</title>
  </g>
  <g
    transform="rotate(0, 25.999999999806164, 659.8976673277931)translate(16.029999999806165, 650.0026673277931)"
  >
    <title>`t_5`.text</title>
    <svg
      style="font-size: 25px"
      xmlns="http://www.w3.org/2000/svg"
      width="19.939999999999998"
      height="19.79"
      role="img"
      focusable="false"
      viewBox="0 -626 797.6 791.6"
    >
      <g
        stroke="none"
        fill="#000000"
        stroke-width="0"
        transform="scale(1,-1)"
        fill-opacity="1"
      >
        <g data-mml-node="math">
          <g data-mml-node="msub">
            <g data-mml-node="mi">
              <path
                data-c="1D461"
                d="M26 385Q19 392 19 395Q19 399 22 411T27 425Q29 430 36 430T87 431H140L159 511Q162 522 166 540T173 566T179 586T187 603T197 615T211 624T229 626Q247 625 254 615T261 596Q261 589 252 549T232 470L222 433Q222 431 272 431H323Q330 424 330 420Q330 398 317 385H210L174 240Q135 80 135 68Q135 26 162 26Q197 26 230 60T283 144Q285 150 288 151T303 153H307Q322 153 322 145Q322 142 319 133Q314 117 301 95T267 48T216 6T155 -11Q125 -11 98 4T59 56Q57 64 57 83V101L92 241Q127 382 128 383Q128 385 77 385H26Z"
              />
            </g>
            <g data-mml-node="mn" transform="translate(394,-150) scale(0.707)">
              <path
                data-c="35"
                d="M164 157Q164 133 148 117T109 101H102Q148 22 224 22Q294 22 326 82Q345 115 345 210Q345 313 318 349Q292 382 260 382H254Q176 382 136 314Q132 307 129 306T114 304Q97 304 95 310Q93 314 93 485V614Q93 664 98 664Q100 666 102 666Q103 666 123 658T178 642T253 634Q324 634 389 662Q397 666 402 666Q410 666 410 648V635Q328 538 205 538Q174 538 149 544L139 546V374Q158 388 169 396T205 412T256 420Q337 420 393 355T449 201Q449 109 385 44T229 -22Q148 -22 99 32T50 154Q50 178 61 192T84 210T107 214Q132 214 148 197T164 157Z"
              />
            </g>
          </g>
        </g>
      </g>
    </svg>
  </g>
  <circle
    fill="#000000"
    fill-opacity="0.3333333333333333"
    cx="50.999999999806164"
    cy="246.5493385669055"
    stroke="none"
    r="5"
  >
    <title>`m8`.marker1</title>
  </circle>
  <circle
    fill="#000000"
    fill-opacity="0.3333333333333333"
    cx="623.7290797178366"
    cy="246.5493385669055"
    stroke="none"
    r="5"
  >
    <title>`m8`.marker2</title>
  </circle>
  <g>
    <line
      x1="0.9999999998061639"
      y1="818.2310006611265"
      x2="949.0000000025278"
      y2="818.2310006611265"
      stroke="#aaaaaa"
      stroke-opacity="1"
      stroke-width="1"
      stroke-dasharray="7,5"
    />
    <title>`t_6`.line</title>
  </g>
  <g
    transform="rotate(0, 25.999999999806164, 768.2310006611265)translate(16.029999999806165, 758.3360006611265)"
  >
    <title>`t_6`.text</title>
    <svg
      style="font-size: 25px"
      xmlns="http://www.w3.org/2000/svg"
      width="19.939999999999998"
      height="19.79"
      role="img"
      focusable="false"
      viewBox="0 -626 797.6 791.6"
    >
      <g
        stroke="none"
        fill="#000000"
        stroke-width="0"
        transform="scale(1,-1)"
        fill-opacity="1"
      >
        <g data-mml-node="math">
          <g data-mml-node="msub">
            <g data-mml-node="mi">
              <path
                data-c="1D461"
                d="M26 385Q19 392 19 395Q19 399 22 411T27 425Q29 430 36 430T87 431H140L159 511Q162 522 166 540T173 566T179 586T187 603T197 615T211 624T229 626Q247 625 254 615T261 596Q261 589 252 549T232 470L222 433Q222 431 272 431H323Q330 424 330 420Q330 398 317 385H210L174 240Q135 80 135 68Q135 26 162 26Q197 26 230 60T283 144Q285 150 288 151T303 153H307Q322 153 322 145Q322 142 319 133Q314 117 301 95T267 48T216 6T155 -11Q125 -11 98 4T59 56Q57 64 57 83V101L92 241Q127 382 128 383Q128 385 77 385H26Z"
              />
            </g>
            <g data-mml-node="mn" transform="translate(394,-150) scale(0.707)">
              <path
                data-c="36"
                d="M42 313Q42 476 123 571T303 666Q372 666 402 630T432 550Q432 525 418 510T379 495Q356 495 341 509T326 548Q326 592 373 601Q351 623 311 626Q240 626 194 566Q147 500 147 364L148 360Q153 366 156 373Q197 433 263 433H267Q313 433 348 414Q372 400 396 374T435 317Q456 268 456 210V192Q456 169 451 149Q440 90 387 34T253 -22Q225 -22 199 -14T143 16T92 75T56 172T42 313ZM257 397Q227 397 205 380T171 335T154 278T148 216Q148 133 160 97T198 39Q222 21 251 21Q302 21 329 59Q342 77 347 104T352 209Q352 289 347 316T329 361Q302 397 257 397Z"
              />
            </g>
          </g>
        </g>
      </g>
    </svg>
  </g>
</svg>
