<svg
  version="1.2"
  xmlns="http://www.w3.org/2000/svg"
  viewBox="0 0 1920 1080"
  penrose="0"
>
  <penrose><croppedViewBox>0 -420 1920 1920</croppedViewBox></penrose>
  <g transform="rotate(0, 960, 540)translate(0, -420)">
    <!--?xml version="1.0" encoding="UTF-8"?--><svg
      id="ngon__uuid-13f44100-e7bf-4255-a26a-98b4ffa546e6--inject-5"
      xmlns="http://www.w3.org/2000/svg"
      width="1920"
      height="1920"
      xmlns:xlink="http://www.w3.org/1999/xlink"
      viewBox="0 0 1920 1920"
      preserveAspectRatio="none"
    >
      <defs>
        <radialGradient
          id="ngon__uuid-66f72e6f-882c-4b2a-accc-e37df73e5141--inject-5"
          cx="960"
          cy="960"
          fx="960"
          fy="960"
          r="1352.8455844"
          gradientUnits="userSpaceOnUse"
        >
          <stop offset=".1477348" stop-color="gray" />
          <stop offset=".8133731" stop-color="#262626" />
        </radialGradient>
      </defs>
      <rect
        width="1920"
        height="1920"
        style="
          fill: url(#ngon__uuid-66f72e6f-882c-4b2a-accc-e37df73e5141--inject-5);
        "
      />
    </svg>
    <title>canvas.background</title>
  </g>
  <g stroke-linejoin="round">
    <filter id="ngon__`P_3`.icon-shadow" x="0" y="0" width="200%" height="200%">
      <feOffset result="offOut" in="SourceAlpha" dx="5" dy="5" />
      <feGaussianBlur result="blurOut" in="offOut" stdDeviation="4" />
      <feBlend in="SourceGraphic" in2="blurOut" mode="normal" />
      <feComponentTransfer>
        <feFuncA type="linear" slope="0.5" />
      </feComponentTransfer>
      <feMerge>
        <feMergeNode />
        <feMergeNode in="SourceGraphic" />
      </feMerge>
    </filter>
    <path
      fill="none"
      stroke="#888888"
      stroke-opacity="1"
      stroke-width="5"
      stroke-linecap="butt"
      d="M 1170.8253173828125 758.75 L 1160 740 L 1040.9215087890625 946.25 L 1235.7772216796875 946.25 L 1224.951904296875 927.5 L 1073.3974609375 927.5 Z  M 1040.9215087890625 946.25 L 1030.09619140625 965 L 1268.253173828125 965 L 1170.8253173828125 796.25 L 1160 815 L 1235.7772216796875 946.25 Z  M 1268.253173828125 965 L 1289.90380859375 965 L 1170.8253173828125 758.75 L 1073.3974609375 927.5 L 1095.048095703125 927.5 L 1170.8253173828125 796.25 Z "
    />
    <title>`P_3`.icon</title>
  </g>
  <g stroke-linejoin="round">
    <filter id="ngon__`P_5`.icon-shadow" x="0" y="0" width="200%" height="200%">
      <feOffset result="offOut" in="SourceAlpha" dx="5" dy="5" />
      <feGaussianBlur result="blurOut" in="offOut" stdDeviation="4" />
      <feBlend in="SourceGraphic" in2="blurOut" mode="normal" />
      <feComponentTransfer>
        <feFuncA type="linear" slope="0.5" />
      </feComponentTransfer>
      <feMerge>
        <feMergeNode />
        <feMergeNode in="SourceGraphic" />
      </feMerge>
    </filter>
    <path
      fill="none"
      stroke="#888888"
      stroke-opacity="1"
      stroke-width="5"
      stroke-linecap="butt"
      d="M 385.80718994140625 408.75 L 360 390 L 243.148681640625 474.89744567871094 L 284.0167236328125 600.6762733459473 L 315.9161376953125 600.6762733459473 L 278.81329345703125 486.48558807373047 Z  M 243.148681640625 474.89744567871094 L 217.341552734375 493.64745330810547 L 261.9747314453125 631.0144119262695 L 394.22650146484375 631.0144119262695 L 404.08392333984375 600.67626953125 L 284.0167236328125 600.6762733459473 Z  M 261.9747314453125 631.0144119262695 L 271.83221435546875 661.3525466918945 L 416.26837158203125 661.3525390625 L 457.1363830566406 535.5737152099609 L 431.3292236328125 516.8237152099609 L 394.22650146484375 631.0144119262695 Z  M 416.26837158203125 661.3525390625 L 448.16778564453125 661.3525390625 L 492.801025390625 523.9855728149414 L 385.80712890625 446.25 L 360 465 L 457.1363830566406 535.5737152099609 Z  M 492.801025390625 523.9855728149414 L 502.6584777832031 493.6474304199219 L 385.80718994140625 408.75 L 278.81329345703125 486.48558807373047 L 288.6707763671875 516.8237266540527 L 385.80712890625 446.25 Z "
    />
    <title>`P_5`.icon</title>
  </g>
  <g stroke-linejoin="round">
    <filter id="ngon__`P_4`.icon-shadow" x="0" y="0" width="200%" height="200%">
      <feOffset result="offOut" in="SourceAlpha" dx="5" dy="5" />
      <feGaussianBlur result="blurOut" in="offOut" stdDeviation="4" />
      <feBlend in="SourceGraphic" in2="blurOut" mode="normal" />
      <feComponentTransfer>
        <feFuncA type="linear" slope="0.5" />
      </feComponentTransfer>
      <feMerge>
        <feMergeNode />
        <feMergeNode in="SourceGraphic" />
      </feMerge>
    </filter>
    <path
      fill="none"
      stroke="#888888"
      stroke-opacity="1"
      stroke-width="5"
      stroke-linecap="butt"
      d="M 1578.75 758.75 L 1560 740 L 1428.75 871.25 L 1541.25 983.75 L 1560 965 L 1466.25 871.25 Z  M 1428.75 871.25 L 1410 890 L 1541.25 1021.25 L 1653.75 908.75 L 1635 890 L 1541.25 983.75 Z  M 1541.25 1021.25 L 1560 1040 L 1691.25 908.75 L 1578.75 796.25 L 1560 815 L 1653.75 908.75 Z  M 1691.25 908.75 L 1710 890 L 1578.75 758.75 L 1466.25 871.25 L 1485 890 L 1578.75 796.25 Z "
    />
    <title>`P_4`.icon</title>
  </g>
  <g stroke-linejoin="round">
    <filter
      id="ngon__`P_12`.icon-shadow"
      x="0"
      y="0"
      width="200%"
      height="200%"
    >
      <feOffset result="offOut" in="SourceAlpha" dx="5" dy="5" />
      <feGaussianBlur result="blurOut" in="offOut" stdDeviation="4" />
      <feBlend in="SourceGraphic" in2="blurOut" mode="normal" />
      <feComponentTransfer>
        <feFuncA type="linear" slope="0.5" />
      </feComponentTransfer>
      <feMerge>
        <feMergeNode />
        <feMergeNode in="SourceGraphic" />
      </feMerge>
    </filter>
    <path
      fill="none"
      stroke="#888888"
      stroke-opacity="1"
      stroke-width="5"
      stroke-linecap="butt"
      d="M 1629.9759521484375 58.75 L 1560 40 L 1554.9759521484375 41.34619140625 L 1513.798095703125 82.52407836914062 L 1495.048095703125 152.5 L 1573.7259521484375 73.82217407226562 Z  M 1554.9759521484375 41.34619140625 L 1485 60.09619140625 L 1481.3221435546875 63.774078369140625 L 1466.25 120.02407836914062 L 1485 190 L 1513.798095703125 82.52407836914062 Z  M 1481.3221435546875 63.774078369140625 L 1430.09619140625 115 L 1428.75 120.02407836914062 L 1443.8221740722656 176.27407836914062 L 1495.048095703125 227.5 L 1466.25 120.02407836914062 Z  M 1428.75 120.02407836914062 L 1410 190 L 1411.34619140625 195.02407836914062 L 1452.5240783691406 236.201904296875 L 1522.5 254.951904296875 L 1443.8221740722656 176.27407836914062 Z  M 1411.34619140625 195.02407836914062 L 1430.09619140625 265 L 1433.7740783691406 268.6778869628906 L 1490.0240478515625 283.75 L 1560 265 L 1452.5240783691406 236.201904296875 Z  M 1433.7740783691406 268.6778869628906 L 1485 319.90380859375 L 1490.0240478515625 321.25 L 1546.2740478515625 306.1778259277344 L 1597.5 254.951904296875 L 1490.0240478515625 283.75 Z  M 1490.0240478515625 321.25 L 1560 340 L 1565.0240478515625 338.65380859375 L 1606.201904296875 297.4759216308594 L 1624.951904296875 227.5 L 1546.2740478515625 306.1778259277344 Z  M 1565.0240478515625 338.65380859375 L 1635 319.90382385253906 L 1638.6778564453125 316.2259216308594 L 1653.75 259.9759216308594 L 1635 190 L 1606.201904296875 297.4759216308594 Z  M 1638.6778564453125 316.2259216308594 L 1689.90380859375 265 L 1691.25 259.9759216308594 L 1676.1778564453125 203.72592163085938 L 1624.951904296875 152.5 L 1653.75 259.9759216308594 Z  M 1691.25 259.9759216308594 L 1710 190 L 1708.65380859375 184.97592163085938 L 1667.4759521484375 143.798095703125 L 1597.5 125.048095703125 L 1676.1778564453125 203.72592163085938 Z  M 1708.65380859375 184.97592163085938 L 1689.90380859375 115 L 1686.2259521484375 111.32211303710938 L 1629.9759521484375 96.25 L 1560 115 L 1667.4759521484375 143.798095703125 Z  M 1686.2259521484375 111.32211303710938 L 1635 60.09619140625 L 1629.9759521484375 58.75 L 1573.7259521484375 73.82217407226562 L 1522.5 125.048095703125 L 1629.9759521484375 96.25 Z "
    />
    <title>`P_12`.icon</title>
  </g>
  <g stroke-linejoin="round">
    <filter
      id="ngon__`P_10`.icon-shadow"
      x="0"
      y="0"
      width="200%"
      height="200%"
    >
      <feOffset result="offOut" in="SourceAlpha" dx="5" dy="5" />
      <feGaussianBlur result="blurOut" in="offOut" stdDeviation="4" />
      <feBlend in="SourceGraphic" in2="blurOut" mode="normal" />
      <feComponentTransfer>
        <feFuncA type="linear" slope="0.5" />
      </feComponentTransfer>
      <feMerge>
        <feMergeNode />
        <feMergeNode in="SourceGraphic" />
      </feMerge>
    </filter>
    <path
      fill="none"
      stroke="#888888"
      stroke-opacity="1"
      stroke-width="5"
      stroke-linecap="butt"
      d="M 817.70654296875 58.75 L 760 40 L 729.5387573242188 49.8974609375 L 688.6707763671875 106.1474609375 L 688.6707763671875 166.82373046875 L 751.5807037353516 80.235595703125 Z  M 729.5387573242188 49.8974609375 L 671.8322143554688 68.6474609375 L 653.0061340332031 94.559326171875 L 653.0061645507812 164.088134765625 L 688.6707763671875 213.17626953125 L 688.6707763671875 106.1474609375 Z  M 653.0061340332031 94.559326171875 L 617.3415222167969 143.6474609375 L 617.3415222167969 175.67626953125 L 658.2095642089844 231.92626953125 L 715.9161071777344 250.67626953125 L 653.0061645507812 164.088134765625 Z  M 617.3415222167969 175.67626953125 L 617.3415222167969 236.3525390625 L 636.1676025390625 262.264404296875 L 702.29345703125 283.75 L 760 265 L 658.2095642089844 231.92626953125 Z  M 636.1676025390625 262.264404296875 L 671.8322143554688 311.3525390625 L 702.29345703125 321.25 L 768.4192810058594 299.764404296875 L 804.0838928222656 250.67626953125 L 702.29345703125 283.75 Z  M 702.29345703125 321.25 L 760.0000152587891 340 L 790.4612426757812 330.1025390625 L 831.3292388916016 273.8525390625 L 831.3292388916016 213.17626953125 L 768.4192810058594 299.764404296875 Z  M 790.4612426757812 330.1025390625 L 848.1678009033203 311.3525390625 L 866.9938659667969 285.4407043457031 L 866.9938507080078 215.911865234375 L 831.3292388916016 166.82373046875 L 831.3292388916016 273.8525390625 Z  M 866.9938659667969 285.4407043457031 L 902.6584777832031 236.35256958007812 L 902.6584777832031 204.32369995117188 L 861.7904434204102 148.07373046875 L 804.0838928222656 129.32373046875 L 866.9938507080078 215.911865234375 Z  M 902.6584777832031 204.32369995117188 L 902.6584777832031 143.64743041992188 L 883.832405090332 117.735595703125 L 817.70654296875 96.25 L 760 115 L 861.7904434204102 148.07373046875 Z  M 883.832405090332 117.735595703125 L 848.1677932739258 68.6474609375 L 817.70654296875 58.75 L 751.5807037353516 80.235595703125 L 715.9161071777344 129.32373046875 L 817.70654296875 96.25 Z "
    />
    <title>`P_10`.icon</title>
  </g>
  <g stroke-linejoin="round">
    <filter id="ngon__`P_8`.icon-shadow" x="0" y="0" width="200%" height="200%">
      <feOffset result="offOut" in="SourceAlpha" dx="5" dy="5" />
      <feGaussianBlur result="blurOut" in="offOut" stdDeviation="4" />
      <feBlend in="SourceGraphic" in2="blurOut" mode="normal" />
      <feComponentTransfer>
        <feFuncA type="linear" slope="0.5" />
      </feComponentTransfer>
      <feMerge>
        <feMergeNode />
        <feMergeNode in="SourceGraphic" />
      </feMerge>
    </filter>
    <path
      fill="none"
      stroke="#888888"
      stroke-opacity="1"
      stroke-width="5"
      stroke-linecap="butt"
      d="M 1605.2664794921875 408.75 L 1560 390 L 1499.200439453125 415.1839904785156 L 1466.25 494.73350524902344 L 1485 540.0000032783541 L 1525.7169799804688 441.7004928588867 Z  M 1499.200439453125 415.1839904785156 L 1453.9339599609375 433.9339828491211 L 1428.75 494.7335090637207 L 1461.7004699707031 574.2830123901367 L 1506.9669799804688 593.0330085754395 L 1466.25 494.73350524902344 Z  M 1428.75 494.7335090637207 L 1410 540.0000065567083 L 1435.1839904785156 600.7995185852051 L 1514.7335205078125 633.7499923706055 L 1560 615 L 1461.7004699707031 574.2830123901367 Z  M 1435.1839904785156 600.7995185852051 L 1453.9339904785156 646.0660171508789 L 1514.7335205078125 671.25 L 1594.2830200195312 638.2995147705078 L 1613.0330200195312 593.0330123901367 L 1514.7335205078125 633.7499923706055 Z  M 1514.7335205078125 671.25 L 1560 690 L 1620.799560546875 664.8160171508789 L 1653.75 585.2664985656738 L 1635 539.999999105634 L 1594.2830200195312 638.2995147705078 Z  M 1620.799560546875 664.8160171508789 L 1666.0660400390625 646.0660247802734 L 1691.25 585.2664985656738 L 1658.2994995117188 505.71700286865234 L 1613.0330200195312 486.96700286865234 L 1653.75 585.2664985656738 Z  M 1691.25 585.2664985656738 L 1710 539.9999982112679 L 1684.8160400390625 479.2005043029785 L 1605.2664794921875 446.25000762939453 L 1560 465 L 1658.2994995117188 505.71700286865234 Z  M 1684.8160400390625 479.2005043029785 L 1666.0660400390625 433.9340057373047 L 1605.2664794921875 408.75 L 1525.7169799804688 441.7004928588867 L 1506.9669799804688 486.96699142456055 L 1605.2664794921875 446.25000762939453 Z "
    />
    <title>`P_8`.icon</title>
  </g>
  <g stroke-linejoin="round">
    <filter id="ngon__`P_7`.icon-shadow" x="0" y="0" width="200%" height="200%">
      <feOffset result="offOut" in="SourceAlpha" dx="5" dy="5" />
      <feGaussianBlur result="blurOut" in="offOut" stdDeviation="4" />
      <feBlend in="SourceGraphic" in2="blurOut" mode="normal" />
      <feComponentTransfer>
        <feFuncA type="linear" slope="0.5" />
      </feComponentTransfer>
      <feMerge>
        <feMergeNode />
        <feMergeNode in="SourceGraphic" />
      </feMerge>
    </filter>
    <path
      fill="none"
      stroke="#888888"
      stroke-opacity="1"
      stroke-width="5"
      stroke-linecap="butt"
      d="M 1198.9347839355469 408.75001525878906 L 1160 390 L 1081.660057067871 427.7265319824219 L 1059.9367065429688 522.9027328491211 L 1086.8804092407227 556.6890716552734 L 1110.9787292480469 451.1073913574219 Z  M 1081.660057067871 427.7265319824219 L 1042.7252731323242 446.4765319824219 L 1023.3769149780273 531.2472686767578 L 1084.2443618774414 607.5726623535156 L 1127.4587097167969 607.5726623535156 L 1059.9367065429688 522.9027328491211 Z  M 1023.3769149780273 531.2472686767578 L 1013.7608184814453 573.3781433105469 L 1067.9737243652344 641.3589859008789 L 1165.5975799560547 641.3589935302734 L 1192.5412902832031 607.5726623535156 L 1084.2443618774414 607.5726623535156 Z  M 1067.9737243652344 641.3589859008789 L 1094.9174194335938 675.1453247070312 L 1181.8682250976562 675.1453247070312 L 1242.7356872558594 598.8199462890625 L 1233.1195983886719 556.6890754699707 L 1165.5975799560547 641.3589935302734 Z  M 1181.8682250976562 675.1453247070312 L 1225.0825805664062 675.1453247070312 L 1279.2955017089844 607.1644897460938 L 1257.5721435546875 511.98828315734863 L 1218.6373596191406 493.23827362060547 L 1242.7356872558594 598.8199462890625 Z  M 1279.2955017089844 607.1644897460938 L 1306.2391967773438 573.3781509399414 L 1286.8908386230469 488.60741806030273 L 1198.9347839355469 446.25 L 1160 465 L 1257.5721435546875 511.98828315734863 Z  M 1286.8908386230469 488.60741806030273 L 1277.2747497558594 446.47654724121094 L 1198.9347839355469 408.75001525878906 L 1110.9787292480469 451.1073913574219 L 1101.3626403808594 493.23826599121094 L 1198.9347839355469 446.25 Z "
    />
    <title>`P_7`.icon</title>
  </g>
  <g stroke-linejoin="round">
    <filter
      id="ngon__`P_11`.icon-shadow"
      x="0"
      y="0"
      width="200%"
      height="200%"
    >
      <feOffset result="offOut" in="SourceAlpha" dx="5" dy="5" />
      <feGaussianBlur result="blurOut" in="offOut" stdDeviation="4" />
      <feBlend in="SourceGraphic" in2="blurOut" mode="normal" />
      <feComponentTransfer>
        <feFuncA type="linear" slope="0.5" />
      </feComponentTransfer>
      <feMerge>
        <feMergeNode />
        <feMergeNode in="SourceGraphic" />
      </feMerge>
    </filter>
    <path
      fill="none"
      stroke="#888888"
      stroke-opacity="1"
      stroke-width="5"
      stroke-linecap="butt"
      d="M 1223.8566284179688 58.750030517578125 L 1160 40 L 1142.760513305664 45.06201171875 L 1101.249008178711 92.96881103515625 L 1091.777603149414 158.8438720703125 L 1163.0345153808594 76.60897827148438 Z  M 1142.760513305664 45.06201171875 L 1078.9038848876953 63.811981201171875 L 1067.1377868652344 77.3907470703125 L 1058.1165161132812 140.1353759765625 L 1085.7633895874023 200.67361450195312 L 1101.249008178711 92.96881103515625 Z  M 1067.1377868652344 77.3907470703125 L 1023.5552062988281 127.687744140625 L 1020.9981918334961 145.47216796875 L 1047.3312683105469 203.13360595703125 L 1103.3187713623047 239.11456298828125 L 1058.1165161132812 140.1353759765625 Z  M 1020.9981918334961 145.47216796875 L 1011.5267791748047 211.34722900390625 L 1018.9906730651855 227.69085693359375 L 1072.3175964355469 261.96197509765625 L 1138.8700561523438 261.96197509765625 L 1047.3312683105469 203.13360595703125 Z  M 1018.9906730651855 227.69085693359375 L 1046.637550354004 288.2290954589844 L 1061.7526092529297 297.9429931640625 L 1125.1424407958984 297.9429473876953 L 1181.1299438476562 261.96197509765625 L 1072.3175964355469 261.96197509765625 Z  M 1061.7526092529297 297.9429931640625 L 1117.7401123046875 333.9239501953125 L 1135.7074279785156 333.9239501953125 L 1189.0343322753906 299.65281677246094 L 1216.6812133789062 239.11456298828125 L 1125.1424407958984 297.9429473876953 Z  M 1135.7074279785156 333.9239501953125 L 1202.2598876953125 333.9239501953125 L 1217.3749389648438 324.2100830078125 L 1243.7079772949219 266.5486755371094 L 1234.2366027832031 200.67361450195312 L 1189.0343322753906 299.65281677246094 Z  M 1217.3749389648438 324.2100830078125 L 1273.3624267578125 288.22911071777344 L 1280.8263244628906 271.885498046875 L 1271.8050231933594 209.14083862304688 L 1228.222412109375 158.8438720703125 L 1243.7079772949219 266.5486755371094 Z  M 1280.8263244628906 271.885498046875 L 1308.4732055664062 211.34725952148438 L 1305.9161682128906 193.56280517578125 L 1264.4046936035156 145.65603637695312 L 1200.5480651855469 126.906005859375 L 1271.8050231933594 209.14083862304688 Z  M 1305.9161682128906 193.56280517578125 L 1296.4447937011719 127.687744140625 L 1284.6787414550781 114.10894775390625 L 1223.8566284179688 96.25003051757812 L 1160 115 L 1264.4046936035156 145.65603637695312 Z  M 1284.6787414550781 114.10894775390625 L 1241.0961303710938 63.811981201171875 L 1223.8566284179688 58.750030517578125 L 1163.0345153808594 76.60897827148438 L 1119.4519348144531 126.90597534179688 L 1223.8566284179688 96.25003051757812 Z "
    />
    <title>`P_11`.icon</title>
  </g>
  <g stroke-linejoin="round">
    <filter id="ngon__`P_2`.icon-shadow" x="0" y="0" width="200%" height="200%">
      <feOffset result="offOut" in="SourceAlpha" dx="5" dy="5" />
      <feGaussianBlur result="blurOut" in="offOut" stdDeviation="4" />
      <feBlend in="SourceGraphic" in2="blurOut" mode="normal" />
      <feComponentTransfer>
        <feFuncA type="linear" slope="0.5" />
      </feComponentTransfer>
      <feMerge>
        <feMergeNode />
        <feMergeNode in="SourceGraphic" />
      </feMerge>
    </filter>
    <path
      fill="none"
      stroke="#888888"
      stroke-opacity="1"
      stroke-width="5"
      stroke-linecap="butt"
      d="M 770.8253173828125 758.75 L 760 740 L 640.9215087890625 946.25 L 835.7772216796875 946.25 L 824.951904296875 927.5 L 673.3974609375 927.5 Z  M 640.9215087890625 946.25 L 630.09619140625 965 L 868.2531890869141 965 L 770.8253173828125 796.25 L 760 815 L 835.7772216796875 946.25 Z  M 868.2531890869141 965 L 889.9038238525391 965 L 770.8253173828125 758.75 L 673.3974609375 927.5 L 695.048095703125 927.5 L 770.8253173828125 796.25 Z "
    />
    <title>`P_2`.icon</title>
  </g>
  <g stroke-linejoin="round">
    <filter id="ngon__`P_1`.icon-shadow" x="0" y="0" width="200%" height="200%">
      <feOffset result="offOut" in="SourceAlpha" dx="5" dy="5" />
      <feGaussianBlur result="blurOut" in="offOut" stdDeviation="4" />
      <feBlend in="SourceGraphic" in2="blurOut" mode="normal" />
      <feComponentTransfer>
        <feFuncA type="linear" slope="0.5" />
      </feComponentTransfer>
      <feMerge>
        <feMergeNode />
        <feMergeNode in="SourceGraphic" />
      </feMerge>
    </filter>
    <path
      fill="none"
      stroke="#888888"
      stroke-opacity="1"
      stroke-width="5"
      stroke-linecap="butt"
      d="M 370.8253173828125 758.75 L 360 740 L 240.9215087890625 946.25 L 435.7772216796875 946.25 L 424.951904296875 927.5 L 273.3974609375 927.5 Z  M 240.9215087890625 946.25 L 230.09619140625 965 L 468.253173828125 965 L 370.8253173828125 796.25 L 360 815 L 435.7772216796875 946.25 Z  M 468.253173828125 965 L 489.90380859375 965 L 370.8253173828125 758.75 L 273.3974609375 927.5 L 295.048095703125 927.5 L 370.8253173828125 796.25 Z "
    />
    <title>`P_1`.icon</title>
  </g>
  <g stroke-linejoin="round">
    <filter id="ngon__`P_9`.icon-shadow" x="0" y="0" width="200%" height="200%">
      <feOffset result="offOut" in="SourceAlpha" dx="5" dy="5" />
      <feGaussianBlur result="blurOut" in="offOut" stdDeviation="4" />
      <feBlend in="SourceGraphic" in2="blurOut" mode="normal" />
      <feComponentTransfer>
        <feFuncA type="linear" slope="0.5" />
      </feComponentTransfer>
      <feMerge>
        <feMergeNode />
        <feMergeNode in="SourceGraphic" />
      </feMerge>
    </filter>
    <path
      fill="none"
      stroke="#888888"
      stroke-opacity="1"
      stroke-width="5"
      stroke-linecap="butt"
      d="M 411.51519775390625 58.75 L 360 40 L 315.0970458984375 56.34332275390625 L 276.6197509765625 122.9879150390625 L 286.139404296875 176.97637939453125 L 339.20166015625 85.07000732421875 Z  M 315.0970458984375 56.34332275390625 L 263.58184814453125 75.09332275390625 L 239.68951416015625 116.47610473632812 L 253.052490234375 192.26153564453125 L 295.048095703125 227.5 L 276.6197509765625 122.9879150390625 Z  M 239.68951416015625 116.47610473632812 L 212.27880859375 163.9527587890625 L 220.5765380859375 211.01153564453125 L 279.52716064453125 260.4769287109375 L 334.3485107421875 260.4769287109375 L 253.052490234375 192.26153564453125 Z  M 220.5765380859375 211.01153564453125 L 230.09619140625 265 L 266.70135498046875 295.7154235839844 L 343.6558837890625 295.71539306640625 L 385.6514892578125 260.4769287109375 L 279.52716064453125 260.4769287109375 Z  M 266.70135498046875 295.7154235839844 L 308.69696044921875 330.9538879394531 L 356.481689453125 330.9538879394531 L 415.4322509765625 281.48846435546875 L 424.951904296875 227.5 L 343.6558837890625 295.71539306640625 Z  M 356.481689453125 330.9538879394531 L 411.30303955078125 330.9538879394531 L 447.908203125 300.23846435546875 L 461.2712707519531 224.45306396484375 L 433.860595703125 176.97637939453125 L 415.4322509765625 281.48846435546875 Z  M 447.908203125 300.23846435546875 L 489.90380859375 265 L 498.2015075683594 217.94125366210938 L 459.72430419921875 151.29669189453125 L 408.2091064453125 132.54669189453125 L 461.2712707519531 224.45306396484375 Z  M 498.2015075683594 217.94125366210938 L 507.7211608886719 163.95278930664062 L 483.8288269042969 122.57003784179688 L 411.51519775390625 96.25 L 360 115 L 459.72430419921875 151.29669189453125 Z  M 483.8288269042969 122.57003784179688 L 456.41815185546875 75.09335327148438 L 411.51519775390625 58.75 L 339.20166015625 85.07000732421875 L 311.79095458984375 132.54666137695312 L 411.51519775390625 96.25 Z "
    />
    <title>`P_9`.icon</title>
  </g>
  <g stroke-linejoin="round">
    <filter id="ngon__`P_6`.icon-shadow" x="0" y="0" width="200%" height="200%">
      <feOffset result="offOut" in="SourceAlpha" dx="5" dy="5" />
      <feGaussianBlur result="blurOut" in="offOut" stdDeviation="4" />
      <feBlend in="SourceGraphic" in2="blurOut" mode="normal" />
      <feComponentTransfer>
        <feFuncA type="linear" slope="0.5" />
      </feComponentTransfer>
      <feMerge>
        <feMergeNode />
        <feMergeNode in="SourceGraphic" />
      </feMerge>
    </filter>
    <path
      fill="none"
      stroke="#888888"
      stroke-opacity="1"
      stroke-width="5"
      stroke-linecap="butt"
      d="M 792.4759521484375 408.75 L 760 390 L 662.5721435546875 446.25000762939453 L 662.5721435546875 558.7500057220459 L 695.048095703125 577.5000038146973 L 695.048095703125 465 Z  M 662.5721435546875 446.25000762939453 L 630.09619140625 465.00000762939453 L 630.09619140625 577.5000076293945 L 727.5240478515625 633.75 L 760 615 L 662.5721435546875 558.7500057220459 Z  M 630.09619140625 577.5000076293945 L 630.09619140625 615.0000076293945 L 727.5240631103516 671.25 L 824.951904296875 614.9999923706055 L 824.951904296875 577.4999923706055 L 727.5240478515625 633.75 Z  M 727.5240631103516 671.25 L 760.0000152587891 690 L 857.4278717041016 633.7499847412109 L 857.4278564453125 521.2500057220459 L 824.951904296875 502.50000381469727 L 824.951904296875 614.9999923706055 Z  M 857.4278717041016 633.7499847412109 L 889.9038238525391 614.9999847412109 L 889.9038238525391 502.50000762939453 L 792.4759521484375 446.25 L 760 465 L 857.4278564453125 521.2500057220459 Z  M 889.9038238525391 502.50000762939453 L 889.9038238525391 465.00000762939453 L 792.4759521484375 408.75 L 695.048095703125 465 L 695.048095703125 502.50000381469727 L 792.4759521484375 446.25 Z "
    />
    <title>`P_6`.icon</title>
  </g>
  <g style="filter: drop-shadow(0px 50px 20px #0008)">
    <g>
      <filter
        id="ngon__logo.pentagon-shadow"
        x="0"
        y="0"
        width="200%"
        height="200%"
      >
        <feOffset result="offOut" in="SourceAlpha" dx="5" dy="5" />
        <feGaussianBlur result="blurOut" in="offOut" stdDeviation="4" />
        <feBlend in="SourceGraphic" in2="blurOut" mode="normal" />
        <feComponentTransfer>
          <feFuncA type="linear" slope="0.5" />
        </feComponentTransfer>
        <feMerge>
          <feMergeNode />
          <feMergeNode in="SourceGraphic" />
        </feMerge>
      </filter>
      <path
        fill="#3fb4f7"
        fill-opacity="0.7333333492279053"
        stroke="#555555"
        stroke-opacity="1"
        stroke-width="6"
        stroke-linecap="butt"
        d="M 1038.2817306518555 186.875 L 960 130 L 705.4119567871094 314.96905517578125 L 791.2347869873047 579.1045875549316 L 887.9963150024414 579.1045837402344 L 813.5946044921875 350.11973571777344 Z  M 705.4119567871094 314.96905517578125 L 627.1302185058594 371.84405517578125 L 724.3742370605469 671.1302642822266 L 1002.1027603149414 671.1302795410156 L 1032.0037078857422 579.1045761108398 L 791.2347869873047 579.1045875549316 Z  M 724.3742370605469 671.1302642822266 L 754.2751922607422 763.1559448242188 L 1068.9633560180664 763.1559448242188 L 1154.786148071289 499.0203971862793 L 1076.5044174194336 442.14540100097656 L 1002.1027603149414 671.1302795410156 Z  M 1068.9633560180664 763.1559448242188 L 1165.7248840332031 763.1559448242188 L 1262.9688415527344 463.8697052001953 L 1038.2817306518555 300.625 L 960 357.5 L 1154.786148071289 499.0203971862793 Z  M 1262.9688415527344 463.8697052001953 L 1292.8697814941406 371.84400939941406 L 1038.2817306518555 186.875 L 813.5946044921875 350.11973571777344 L 843.4955749511719 442.1454162597656 L 1038.2817306518555 300.625 Z "
      />
      <title>logo.pentagon</title>
    </g>
    <text
      fill="#ffffff"
      fill-opacity="1"
      stroke="#555555"
      stroke-opacity="1"
      stroke-width="12"
      transform="rotate(0, 960, 855)"
      style="
        font:
          condensed 600 172px HelveticaNeue-CondensedBold,
          Helvetica,
          Arial,
          Geneva,
          Tahoma,
          sans-serif;
      "
      x="960"
      y="915.30078125"
      width="687.6640625"
      height="126.984375"
      font-size-adjust=""
      alignment-baseline="alphabetic"
      dominant-baseline="alphabetic"
      ascent="123.79296875"
      descent="3.19140625"
      text-anchor="middle"
      visibility=""
      paint-order="stroke"
    >
      <title>logo.labelText</title>
      Penrose
    </text>
    <title>logo.icon</title>
  </g>
  <g>
    <clipPath id="ngon__registry3:0:mask-clip">
      <polygon
        fill="#c63a39"
        fill-opacity="0.5"
        stroke="none"
        transform="scale(1)"
        points="960,130,1292.8697814941406,371.84405517578125,1165.7248077392578,763.1559448242188,754.2751159667969,763.1559448242188,627.1302185058594,371.84400939941406"
      >
        <title>3:0:mask</title>
      </polygon>
    </clipPath>
    <g clip-path="url(#ngon__registry3:0:mask-clip)">
      <g style="filter: blur(10px)">
        <filter
          id="ngon__`P_3`.glow-shadow"
          x="0"
          y="0"
          width="200%"
          height="200%"
        >
          <feOffset result="offOut" in="SourceAlpha" dx="5" dy="5" />
          <feGaussianBlur result="blurOut" in="offOut" stdDeviation="4" />
          <feBlend in="SourceGraphic" in2="blurOut" mode="normal" />
          <feComponentTransfer>
            <feFuncA type="linear" slope="0.5" />
          </feComponentTransfer>
          <feMerge>
            <feMergeNode />
            <feMergeNode in="SourceGraphic" />
          </feMerge>
        </filter>
        <path
          fill="none"
          stroke="#ffffff"
          stroke-opacity="0.7333333492279053"
          stroke-width="5"
          stroke-linecap="butt"
          d="M 1170.8253173828125 758.75 L 1160 740 L 1040.9215087890625 946.25 L 1235.7772216796875 946.25 L 1224.951904296875 927.5 L 1073.3974609375 927.5 Z  M 1040.9215087890625 946.25 L 1030.09619140625 965 L 1268.253173828125 965 L 1170.8253173828125 796.25 L 1160 815 L 1235.7772216796875 946.25 Z  M 1268.253173828125 965 L 1289.90380859375 965 L 1170.8253173828125 758.75 L 1073.3974609375 927.5 L 1095.048095703125 927.5 L 1170.8253173828125 796.25 Z "
        />
        <title>`P_3`.glow</title>
      </g>
    </g>
    <g clip-path="url(#ngon__registry3:0:mask-clip)">
      <g style="filter: blur(10px)">
        <filter
          id="ngon__`P_5`.glow-shadow"
          x="0"
          y="0"
          width="200%"
          height="200%"
        >
          <feOffset result="offOut" in="SourceAlpha" dx="5" dy="5" />
          <feGaussianBlur result="blurOut" in="offOut" stdDeviation="4" />
          <feBlend in="SourceGraphic" in2="blurOut" mode="normal" />
          <feComponentTransfer>
            <feFuncA type="linear" slope="0.5" />
          </feComponentTransfer>
          <feMerge>
            <feMergeNode />
            <feMergeNode in="SourceGraphic" />
          </feMerge>
        </filter>
        <path
          fill="none"
          stroke="#ffffff"
          stroke-opacity="0.7333333492279053"
          stroke-width="5"
          stroke-linecap="butt"
          d="M 385.80718994140625 408.75 L 360 390 L 243.148681640625 474.89744567871094 L 284.0167236328125 600.6762733459473 L 315.9161376953125 600.6762733459473 L 278.81329345703125 486.48558807373047 Z  M 243.148681640625 474.89744567871094 L 217.341552734375 493.64745330810547 L 261.9747314453125 631.0144119262695 L 394.22650146484375 631.0144119262695 L 404.08392333984375 600.67626953125 L 284.0167236328125 600.6762733459473 Z  M 261.9747314453125 631.0144119262695 L 271.83221435546875 661.3525466918945 L 416.26837158203125 661.3525390625 L 457.1363830566406 535.5737152099609 L 431.3292236328125 516.8237152099609 L 394.22650146484375 631.0144119262695 Z  M 416.26837158203125 661.3525390625 L 448.16778564453125 661.3525390625 L 492.801025390625 523.9855728149414 L 385.80712890625 446.25 L 360 465 L 457.1363830566406 535.5737152099609 Z  M 492.801025390625 523.9855728149414 L 502.6584777832031 493.6474304199219 L 385.80718994140625 408.75 L 278.81329345703125 486.48558807373047 L 288.6707763671875 516.8237266540527 L 385.80712890625 446.25 Z "
        />
        <title>`P_5`.glow</title>
      </g>
    </g>
    <g clip-path="url(#ngon__registry3:0:mask-clip)">
      <g style="filter: blur(10px)">
        <filter
          id="ngon__`P_4`.glow-shadow"
          x="0"
          y="0"
          width="200%"
          height="200%"
        >
          <feOffset result="offOut" in="SourceAlpha" dx="5" dy="5" />
          <feGaussianBlur result="blurOut" in="offOut" stdDeviation="4" />
          <feBlend in="SourceGraphic" in2="blurOut" mode="normal" />
          <feComponentTransfer>
            <feFuncA type="linear" slope="0.5" />
          </feComponentTransfer>
          <feMerge>
            <feMergeNode />
            <feMergeNode in="SourceGraphic" />
          </feMerge>
        </filter>
        <path
          fill="none"
          stroke="#ffffff"
          stroke-opacity="0.7333333492279053"
          stroke-width="5"
          stroke-linecap="butt"
          d="M 1578.75 758.75 L 1560 740 L 1428.75 871.25 L 1541.25 983.75 L 1560 965 L 1466.25 871.25 Z  M 1428.75 871.25 L 1410 890 L 1541.25 1021.25 L 1653.75 908.75 L 1635 890 L 1541.25 983.75 Z  M 1541.25 1021.25 L 1560 1040 L 1691.25 908.75 L 1578.75 796.25 L 1560 815 L 1653.75 908.75 Z  M 1691.25 908.75 L 1710 890 L 1578.75 758.75 L 1466.25 871.25 L 1485 890 L 1578.75 796.25 Z "
        />
        <title>`P_4`.glow</title>
      </g>
    </g>
    <g clip-path="url(#ngon__registry3:0:mask-clip)">
      <g style="filter: blur(10px)">
        <filter
          id="ngon__`P_12`.glow-shadow"
          x="0"
          y="0"
          width="200%"
          height="200%"
        >
          <feOffset result="offOut" in="SourceAlpha" dx="5" dy="5" />
          <feGaussianBlur result="blurOut" in="offOut" stdDeviation="4" />
          <feBlend in="SourceGraphic" in2="blurOut" mode="normal" />
          <feComponentTransfer>
            <feFuncA type="linear" slope="0.5" />
          </feComponentTransfer>
          <feMerge>
            <feMergeNode />
            <feMergeNode in="SourceGraphic" />
          </feMerge>
        </filter>
        <path
          fill="none"
          stroke="#ffffff"
          stroke-opacity="0.7333333492279053"
          stroke-width="5"
          stroke-linecap="butt"
          d="M 1629.9759521484375 58.75 L 1560 40 L 1554.9759521484375 41.34619140625 L 1513.798095703125 82.52407836914062 L 1495.048095703125 152.5 L 1573.7259521484375 73.82217407226562 Z  M 1554.9759521484375 41.34619140625 L 1485 60.09619140625 L 1481.3221435546875 63.774078369140625 L 1466.25 120.02407836914062 L 1485 190 L 1513.798095703125 82.52407836914062 Z  M 1481.3221435546875 63.774078369140625 L 1430.09619140625 115 L 1428.75 120.02407836914062 L 1443.8221740722656 176.27407836914062 L 1495.048095703125 227.5 L 1466.25 120.02407836914062 Z  M 1428.75 120.02407836914062 L 1410 190 L 1411.34619140625 195.02407836914062 L 1452.5240783691406 236.201904296875 L 1522.5 254.951904296875 L 1443.8221740722656 176.27407836914062 Z  M 1411.34619140625 195.02407836914062 L 1430.09619140625 265 L 1433.7740783691406 268.6778869628906 L 1490.0240478515625 283.75 L 1560 265 L 1452.5240783691406 236.201904296875 Z  M 1433.7740783691406 268.6778869628906 L 1485 319.90380859375 L 1490.0240478515625 321.25 L 1546.2740478515625 306.1778259277344 L 1597.5 254.951904296875 L 1490.0240478515625 283.75 Z  M 1490.0240478515625 321.25 L 1560 340 L 1565.0240478515625 338.65380859375 L 1606.201904296875 297.4759216308594 L 1624.951904296875 227.5 L 1546.2740478515625 306.1778259277344 Z  M 1565.0240478515625 338.65380859375 L 1635 319.90382385253906 L 1638.6778564453125 316.2259216308594 L 1653.75 259.9759216308594 L 1635 190 L 1606.201904296875 297.4759216308594 Z  M 1638.6778564453125 316.2259216308594 L 1689.90380859375 265 L 1691.25 259.9759216308594 L 1676.1778564453125 203.72592163085938 L 1624.951904296875 152.5 L 1653.75 259.9759216308594 Z  M 1691.25 259.9759216308594 L 1710 190 L 1708.65380859375 184.97592163085938 L 1667.4759521484375 143.798095703125 L 1597.5 125.048095703125 L 1676.1778564453125 203.72592163085938 Z  M 1708.65380859375 184.97592163085938 L 1689.90380859375 115 L 1686.2259521484375 111.32211303710938 L 1629.9759521484375 96.25 L 1560 115 L 1667.4759521484375 143.798095703125 Z  M 1686.2259521484375 111.32211303710938 L 1635 60.09619140625 L 1629.9759521484375 58.75 L 1573.7259521484375 73.82217407226562 L 1522.5 125.048095703125 L 1629.9759521484375 96.25 Z "
        />
        <title>`P_12`.glow</title>
      </g>
    </g>
    <g clip-path="url(#ngon__registry3:0:mask-clip)">
      <g style="filter: blur(10px)">
        <filter
          id="ngon__`P_10`.glow-shadow"
          x="0"
          y="0"
          width="200%"
          height="200%"
        >
          <feOffset result="offOut" in="SourceAlpha" dx="5" dy="5" />
          <feGaussianBlur result="blurOut" in="offOut" stdDeviation="4" />
          <feBlend in="SourceGraphic" in2="blurOut" mode="normal" />
          <feComponentTransfer>
            <feFuncA type="linear" slope="0.5" />
          </feComponentTransfer>
          <feMerge>
            <feMergeNode />
            <feMergeNode in="SourceGraphic" />
          </feMerge>
        </filter>
        <path
          fill="none"
          stroke="#ffffff"
          stroke-opacity="0.7333333492279053"
          stroke-width="5"
          stroke-linecap="butt"
          d="M 817.70654296875 58.75 L 760 40 L 729.5387573242188 49.8974609375 L 688.6707763671875 106.1474609375 L 688.6707763671875 166.82373046875 L 751.5807037353516 80.235595703125 Z  M 729.5387573242188 49.8974609375 L 671.8322143554688 68.6474609375 L 653.0061340332031 94.559326171875 L 653.0061645507812 164.088134765625 L 688.6707763671875 213.17626953125 L 688.6707763671875 106.1474609375 Z  M 653.0061340332031 94.559326171875 L 617.3415222167969 143.6474609375 L 617.3415222167969 175.67626953125 L 658.2095642089844 231.92626953125 L 715.9161071777344 250.67626953125 L 653.0061645507812 164.088134765625 Z  M 617.3415222167969 175.67626953125 L 617.3415222167969 236.3525390625 L 636.1676025390625 262.264404296875 L 702.29345703125 283.75 L 760 265 L 658.2095642089844 231.92626953125 Z  M 636.1676025390625 262.264404296875 L 671.8322143554688 311.3525390625 L 702.29345703125 321.25 L 768.4192810058594 299.764404296875 L 804.0838928222656 250.67626953125 L 702.29345703125 283.75 Z  M 702.29345703125 321.25 L 760.0000152587891 340 L 790.4612426757812 330.1025390625 L 831.3292388916016 273.8525390625 L 831.3292388916016 213.17626953125 L 768.4192810058594 299.764404296875 Z  M 790.4612426757812 330.1025390625 L 848.1678009033203 311.3525390625 L 866.9938659667969 285.4407043457031 L 866.9938507080078 215.911865234375 L 831.3292388916016 166.82373046875 L 831.3292388916016 273.8525390625 Z  M 866.9938659667969 285.4407043457031 L 902.6584777832031 236.35256958007812 L 902.6584777832031 204.32369995117188 L 861.7904434204102 148.07373046875 L 804.0838928222656 129.32373046875 L 866.9938507080078 215.911865234375 Z  M 902.6584777832031 204.32369995117188 L 902.6584777832031 143.64743041992188 L 883.832405090332 117.735595703125 L 817.70654296875 96.25 L 760 115 L 861.7904434204102 148.07373046875 Z  M 883.832405090332 117.735595703125 L 848.1677932739258 68.6474609375 L 817.70654296875 58.75 L 751.5807037353516 80.235595703125 L 715.9161071777344 129.32373046875 L 817.70654296875 96.25 Z "
        />
        <title>`P_10`.glow</title>
      </g>
    </g>
    <g clip-path="url(#ngon__registry3:0:mask-clip)">
      <g style="filter: blur(10px)">
        <filter
          id="ngon__`P_1`.glow-shadow"
          x="0"
          y="0"
          width="200%"
          height="200%"
        >
          <feOffset result="offOut" in="SourceAlpha" dx="5" dy="5" />
          <feGaussianBlur result="blurOut" in="offOut" stdDeviation="4" />
          <feBlend in="SourceGraphic" in2="blurOut" mode="normal" />
          <feComponentTransfer>
            <feFuncA type="linear" slope="0.5" />
          </feComponentTransfer>
          <feMerge>
            <feMergeNode />
            <feMergeNode in="SourceGraphic" />
          </feMerge>
        </filter>
        <path
          fill="none"
          stroke="#ffffff"
          stroke-opacity="0.7333333492279053"
          stroke-width="5"
          stroke-linecap="butt"
          d="M 370.8253173828125 758.75 L 360 740 L 240.9215087890625 946.25 L 435.7772216796875 946.25 L 424.951904296875 927.5 L 273.3974609375 927.5 Z  M 240.9215087890625 946.25 L 230.09619140625 965 L 468.253173828125 965 L 370.8253173828125 796.25 L 360 815 L 435.7772216796875 946.25 Z  M 468.253173828125 965 L 489.90380859375 965 L 370.8253173828125 758.75 L 273.3974609375 927.5 L 295.048095703125 927.5 L 370.8253173828125 796.25 Z "
        />
        <title>`P_1`.glow</title>
      </g>
    </g>
    <g clip-path="url(#ngon__registry3:0:mask-clip)">
      <g style="filter: blur(10px)">
        <filter
          id="ngon__`P_2`.glow-shadow"
          x="0"
          y="0"
          width="200%"
          height="200%"
        >
          <feOffset result="offOut" in="SourceAlpha" dx="5" dy="5" />
          <feGaussianBlur result="blurOut" in="offOut" stdDeviation="4" />
          <feBlend in="SourceGraphic" in2="blurOut" mode="normal" />
          <feComponentTransfer>
            <feFuncA type="linear" slope="0.5" />
          </feComponentTransfer>
          <feMerge>
            <feMergeNode />
            <feMergeNode in="SourceGraphic" />
          </feMerge>
        </filter>
        <path
          fill="none"
          stroke="#ffffff"
          stroke-opacity="0.7333333492279053"
          stroke-width="5"
          stroke-linecap="butt"
          d="M 770.8253173828125 758.75 L 760 740 L 640.9215087890625 946.25 L 835.7772216796875 946.25 L 824.951904296875 927.5 L 673.3974609375 927.5 Z  M 640.9215087890625 946.25 L 630.09619140625 965 L 868.2531890869141 965 L 770.8253173828125 796.25 L 760 815 L 835.7772216796875 946.25 Z  M 868.2531890869141 965 L 889.9038238525391 965 L 770.8253173828125 758.75 L 673.3974609375 927.5 L 695.048095703125 927.5 L 770.8253173828125 796.25 Z "
        />
        <title>`P_2`.glow</title>
      </g>
    </g>
    <g clip-path="url(#ngon__registry3:0:mask-clip)">
      <g style="filter: blur(10px)">
        <filter
          id="ngon__`P_6`.glow-shadow"
          x="0"
          y="0"
          width="200%"
          height="200%"
        >
          <feOffset result="offOut" in="SourceAlpha" dx="5" dy="5" />
          <feGaussianBlur result="blurOut" in="offOut" stdDeviation="4" />
          <feBlend in="SourceGraphic" in2="blurOut" mode="normal" />
          <feComponentTransfer>
            <feFuncA type="linear" slope="0.5" />
          </feComponentTransfer>
          <feMerge>
            <feMergeNode />
            <feMergeNode in="SourceGraphic" />
          </feMerge>
        </filter>
        <path
          fill="none"
          stroke="#ffffff"
          stroke-opacity="0.7333333492279053"
          stroke-width="5"
          stroke-linecap="butt"
          d="M 792.4759521484375 408.75 L 760 390 L 662.5721435546875 446.25000762939453 L 662.5721435546875 558.7500057220459 L 695.048095703125 577.5000038146973 L 695.048095703125 465 Z  M 662.5721435546875 446.25000762939453 L 630.09619140625 465.00000762939453 L 630.09619140625 577.5000076293945 L 727.5240478515625 633.75 L 760 615 L 662.5721435546875 558.7500057220459 Z  M 630.09619140625 577.5000076293945 L 630.09619140625 615.0000076293945 L 727.5240631103516 671.25 L 824.951904296875 614.9999923706055 L 824.951904296875 577.4999923706055 L 727.5240478515625 633.75 Z  M 727.5240631103516 671.25 L 760.0000152587891 690 L 857.4278717041016 633.7499847412109 L 857.4278564453125 521.2500057220459 L 824.951904296875 502.50000381469727 L 824.951904296875 614.9999923706055 Z  M 857.4278717041016 633.7499847412109 L 889.9038238525391 614.9999847412109 L 889.9038238525391 502.50000762939453 L 792.4759521484375 446.25 L 760 465 L 857.4278564453125 521.2500057220459 Z  M 889.9038238525391 502.50000762939453 L 889.9038238525391 465.00000762939453 L 792.4759521484375 408.75 L 695.048095703125 465 L 695.048095703125 502.50000381469727 L 792.4759521484375 446.25 Z "
        />
        <title>`P_6`.glow</title>
      </g>
    </g>
    <g clip-path="url(#ngon__registry3:0:mask-clip)">
      <g style="filter: blur(10px)">
        <filter
          id="ngon__`P_7`.glow-shadow"
          x="0"
          y="0"
          width="200%"
          height="200%"
        >
          <feOffset result="offOut" in="SourceAlpha" dx="5" dy="5" />
          <feGaussianBlur result="blurOut" in="offOut" stdDeviation="4" />
          <feBlend in="SourceGraphic" in2="blurOut" mode="normal" />
          <feComponentTransfer>
            <feFuncA type="linear" slope="0.5" />
          </feComponentTransfer>
          <feMerge>
            <feMergeNode />
            <feMergeNode in="SourceGraphic" />
          </feMerge>
        </filter>
        <path
          fill="none"
          stroke="#ffffff"
          stroke-opacity="0.7333333492279053"
          stroke-width="5"
          stroke-linecap="butt"
          d="M 1198.9347839355469 408.75001525878906 L 1160 390 L 1081.660057067871 427.7265319824219 L 1059.9367065429688 522.9027328491211 L 1086.8804092407227 556.6890716552734 L 1110.9787292480469 451.1073913574219 Z  M 1081.660057067871 427.7265319824219 L 1042.7252731323242 446.4765319824219 L 1023.3769149780273 531.2472686767578 L 1084.2443618774414 607.5726623535156 L 1127.4587097167969 607.5726623535156 L 1059.9367065429688 522.9027328491211 Z  M 1023.3769149780273 531.2472686767578 L 1013.7608184814453 573.3781433105469 L 1067.9737243652344 641.3589859008789 L 1165.5975799560547 641.3589935302734 L 1192.5412902832031 607.5726623535156 L 1084.2443618774414 607.5726623535156 Z  M 1067.9737243652344 641.3589859008789 L 1094.9174194335938 675.1453247070312 L 1181.8682250976562 675.1453247070312 L 1242.7356872558594 598.8199462890625 L 1233.1195983886719 556.6890754699707 L 1165.5975799560547 641.3589935302734 Z  M 1181.8682250976562 675.1453247070312 L 1225.0825805664062 675.1453247070312 L 1279.2955017089844 607.1644897460938 L 1257.5721435546875 511.98828315734863 L 1218.6373596191406 493.23827362060547 L 1242.7356872558594 598.8199462890625 Z  M 1279.2955017089844 607.1644897460938 L 1306.2391967773438 573.3781509399414 L 1286.8908386230469 488.60741806030273 L 1198.9347839355469 446.25 L 1160 465 L 1257.5721435546875 511.98828315734863 Z  M 1286.8908386230469 488.60741806030273 L 1277.2747497558594 446.47654724121094 L 1198.9347839355469 408.75001525878906 L 1110.9787292480469 451.1073913574219 L 1101.3626403808594 493.23826599121094 L 1198.9347839355469 446.25 Z "
        />
        <title>`P_7`.glow</title>
      </g>
    </g>
    <g clip-path="url(#ngon__registry3:0:mask-clip)">
      <g style="filter: blur(10px)">
        <filter
          id="ngon__`P_8`.glow-shadow"
          x="0"
          y="0"
          width="200%"
          height="200%"
        >
          <feOffset result="offOut" in="SourceAlpha" dx="5" dy="5" />
          <feGaussianBlur result="blurOut" in="offOut" stdDeviation="4" />
          <feBlend in="SourceGraphic" in2="blurOut" mode="normal" />
          <feComponentTransfer>
            <feFuncA type="linear" slope="0.5" />
          </feComponentTransfer>
          <feMerge>
            <feMergeNode />
            <feMergeNode in="SourceGraphic" />
          </feMerge>
        </filter>
        <path
          fill="none"
          stroke="#ffffff"
          stroke-opacity="0.7333333492279053"
          stroke-width="5"
          stroke-linecap="butt"
          d="M 1605.2664794921875 408.75 L 1560 390 L 1499.200439453125 415.1839904785156 L 1466.25 494.73350524902344 L 1485 540.0000032783541 L 1525.7169799804688 441.7004928588867 Z  M 1499.200439453125 415.1839904785156 L 1453.9339599609375 433.9339828491211 L 1428.75 494.7335090637207 L 1461.7004699707031 574.2830123901367 L 1506.9669799804688 593.0330085754395 L 1466.25 494.73350524902344 Z  M 1428.75 494.7335090637207 L 1410 540.0000065567083 L 1435.1839904785156 600.7995185852051 L 1514.7335205078125 633.7499923706055 L 1560 615 L 1461.7004699707031 574.2830123901367 Z  M 1435.1839904785156 600.7995185852051 L 1453.9339904785156 646.0660171508789 L 1514.7335205078125 671.25 L 1594.2830200195312 638.2995147705078 L 1613.0330200195312 593.0330123901367 L 1514.7335205078125 633.7499923706055 Z  M 1514.7335205078125 671.25 L 1560 690 L 1620.799560546875 664.8160171508789 L 1653.75 585.2664985656738 L 1635 539.999999105634 L 1594.2830200195312 638.2995147705078 Z  M 1620.799560546875 664.8160171508789 L 1666.0660400390625 646.0660247802734 L 1691.25 585.2664985656738 L 1658.2994995117188 505.71700286865234 L 1613.0330200195312 486.96700286865234 L 1653.75 585.2664985656738 Z  M 1691.25 585.2664985656738 L 1710 539.9999982112679 L 1684.8160400390625 479.2005043029785 L 1605.2664794921875 446.25000762939453 L 1560 465 L 1658.2994995117188 505.71700286865234 Z  M 1684.8160400390625 479.2005043029785 L 1666.0660400390625 433.9340057373047 L 1605.2664794921875 408.75 L 1525.7169799804688 441.7004928588867 L 1506.9669799804688 486.96699142456055 L 1605.2664794921875 446.25000762939453 Z "
        />
        <title>`P_8`.glow</title>
      </g>
    </g>
    <g clip-path="url(#ngon__registry3:0:mask-clip)">
      <g style="filter: blur(10px)">
        <filter
          id="ngon__`P_9`.glow-shadow"
          x="0"
          y="0"
          width="200%"
          height="200%"
        >
          <feOffset result="offOut" in="SourceAlpha" dx="5" dy="5" />
          <feGaussianBlur result="blurOut" in="offOut" stdDeviation="4" />
          <feBlend in="SourceGraphic" in2="blurOut" mode="normal" />
          <feComponentTransfer>
            <feFuncA type="linear" slope="0.5" />
          </feComponentTransfer>
          <feMerge>
            <feMergeNode />
            <feMergeNode in="SourceGraphic" />
          </feMerge>
        </filter>
        <path
          fill="none"
          stroke="#ffffff"
          stroke-opacity="0.7333333492279053"
          stroke-width="5"
          stroke-linecap="butt"
          d="M 411.51519775390625 58.75 L 360 40 L 315.0970458984375 56.34332275390625 L 276.6197509765625 122.9879150390625 L 286.139404296875 176.97637939453125 L 339.20166015625 85.07000732421875 Z  M 315.0970458984375 56.34332275390625 L 263.58184814453125 75.09332275390625 L 239.68951416015625 116.47610473632812 L 253.052490234375 192.26153564453125 L 295.048095703125 227.5 L 276.6197509765625 122.9879150390625 Z  M 239.68951416015625 116.47610473632812 L 212.27880859375 163.9527587890625 L 220.5765380859375 211.01153564453125 L 279.52716064453125 260.4769287109375 L 334.3485107421875 260.4769287109375 L 253.052490234375 192.26153564453125 Z  M 220.5765380859375 211.01153564453125 L 230.09619140625 265 L 266.70135498046875 295.7154235839844 L 343.6558837890625 295.71539306640625 L 385.6514892578125 260.4769287109375 L 279.52716064453125 260.4769287109375 Z  M 266.70135498046875 295.7154235839844 L 308.69696044921875 330.9538879394531 L 356.481689453125 330.9538879394531 L 415.4322509765625 281.48846435546875 L 424.951904296875 227.5 L 343.6558837890625 295.71539306640625 Z  M 356.481689453125 330.9538879394531 L 411.30303955078125 330.9538879394531 L 447.908203125 300.23846435546875 L 461.2712707519531 224.45306396484375 L 433.860595703125 176.97637939453125 L 415.4322509765625 281.48846435546875 Z  M 447.908203125 300.23846435546875 L 489.90380859375 265 L 498.2015075683594 217.94125366210938 L 459.72430419921875 151.29669189453125 L 408.2091064453125 132.54669189453125 L 461.2712707519531 224.45306396484375 Z  M 498.2015075683594 217.94125366210938 L 507.7211608886719 163.95278930664062 L 483.8288269042969 122.57003784179688 L 411.51519775390625 96.25 L 360 115 L 459.72430419921875 151.29669189453125 Z  M 483.8288269042969 122.57003784179688 L 456.41815185546875 75.09335327148438 L 411.51519775390625 58.75 L 339.20166015625 85.07000732421875 L 311.79095458984375 132.54666137695312 L 411.51519775390625 96.25 Z "
        />
        <title>`P_9`.glow</title>
      </g>
    </g>
    <g clip-path="url(#ngon__registry3:0:mask-clip)">
      <g style="filter: blur(10px)">
        <filter
          id="ngon__`P_11`.glow-shadow"
          x="0"
          y="0"
          width="200%"
          height="200%"
        >
          <feOffset result="offOut" in="SourceAlpha" dx="5" dy="5" />
          <feGaussianBlur result="blurOut" in="offOut" stdDeviation="4" />
          <feBlend in="SourceGraphic" in2="blurOut" mode="normal" />
          <feComponentTransfer>
            <feFuncA type="linear" slope="0.5" />
          </feComponentTransfer>
          <feMerge>
            <feMergeNode />
            <feMergeNode in="SourceGraphic" />
          </feMerge>
        </filter>
        <path
          fill="none"
          stroke="#ffffff"
          stroke-opacity="0.7333333492279053"
          stroke-width="5"
          stroke-linecap="butt"
          d="M 1223.8566284179688 58.750030517578125 L 1160 40 L 1142.760513305664 45.06201171875 L 1101.249008178711 92.96881103515625 L 1091.777603149414 158.8438720703125 L 1163.0345153808594 76.60897827148438 Z  M 1142.760513305664 45.06201171875 L 1078.9038848876953 63.811981201171875 L 1067.1377868652344 77.3907470703125 L 1058.1165161132812 140.1353759765625 L 1085.7633895874023 200.67361450195312 L 1101.249008178711 92.96881103515625 Z  M 1067.1377868652344 77.3907470703125 L 1023.5552062988281 127.687744140625 L 1020.9981918334961 145.47216796875 L 1047.3312683105469 203.13360595703125 L 1103.3187713623047 239.11456298828125 L 1058.1165161132812 140.1353759765625 Z  M 1020.9981918334961 145.47216796875 L 1011.5267791748047 211.34722900390625 L 1018.9906730651855 227.69085693359375 L 1072.3175964355469 261.96197509765625 L 1138.8700561523438 261.96197509765625 L 1047.3312683105469 203.13360595703125 Z  M 1018.9906730651855 227.69085693359375 L 1046.637550354004 288.2290954589844 L 1061.7526092529297 297.9429931640625 L 1125.1424407958984 297.9429473876953 L 1181.1299438476562 261.96197509765625 L 1072.3175964355469 261.96197509765625 Z  M 1061.7526092529297 297.9429931640625 L 1117.7401123046875 333.9239501953125 L 1135.7074279785156 333.9239501953125 L 1189.0343322753906 299.65281677246094 L 1216.6812133789062 239.11456298828125 L 1125.1424407958984 297.9429473876953 Z  M 1135.7074279785156 333.9239501953125 L 1202.2598876953125 333.9239501953125 L 1217.3749389648438 324.2100830078125 L 1243.7079772949219 266.5486755371094 L 1234.2366027832031 200.67361450195312 L 1189.0343322753906 299.65281677246094 Z  M 1217.3749389648438 324.2100830078125 L 1273.3624267578125 288.22911071777344 L 1280.8263244628906 271.885498046875 L 1271.8050231933594 209.14083862304688 L 1228.222412109375 158.8438720703125 L 1243.7079772949219 266.5486755371094 Z  M 1280.8263244628906 271.885498046875 L 1308.4732055664062 211.34725952148438 L 1305.9161682128906 193.56280517578125 L 1264.4046936035156 145.65603637695312 L 1200.5480651855469 126.906005859375 L 1271.8050231933594 209.14083862304688 Z  M 1305.9161682128906 193.56280517578125 L 1296.4447937011719 127.687744140625 L 1284.6787414550781 114.10894775390625 L 1223.8566284179688 96.25003051757812 L 1160 115 L 1264.4046936035156 145.65603637695312 Z  M 1284.6787414550781 114.10894775390625 L 1241.0961303710938 63.811981201171875 L 1223.8566284179688 58.750030517578125 L 1163.0345153808594 76.60897827148438 L 1119.4519348144531 126.90597534179688 L 1223.8566284179688 96.25003051757812 Z "
        />
        <title>`P_11`.glow</title>
      </g>
    </g>
    <title>3:0:clipGroup</title>
  </g>
</svg>
