<svg
  version="1.2"
  xmlns="http://www.w3.org/2000/svg"
  viewBox="0 0 800 800"
  penrose="0"
>
  <penrose><croppedViewBox>0 0 800 800</croppedViewBox></penrose>
  <rect
    x="0"
    y="0"
    width="800"
    height="800"
    fill="#000000"
    fill-opacity="1"
    stroke="none"
    rx="0"
    transform="rotate(0, 400, 400)"
  >
    <title>global.background</title>
  </rect>
  <text
    fill="#feb0ed"
    fill-opacity="1"
    stroke="none"
    transform="rotate(0, 400, 200)"
    style="font: 40px cursive"
    x="400"
    y="214.35546875"
    width="338.76953125"
    height="30.234375"
    font-size-adjust=""
    alignment-baseline="alphabetic"
    dominant-baseline="alphabetic"
    ascent="29.47265625"
    descent="0.76171875"
    text-anchor="middle"
    visibility=""
  >
    <title>global.text</title>
    Evolute of Cardioid
  </text>
  <g stroke-linejoin="round">
    <filter
      id="evolute-of-cardioid__2:0:cardioid-shadow"
      x="0"
      y="0"
      width="200%"
      height="200%"
    >
      <feOffset result="offOut" in="SourceAlpha" dx="5" dy="5" />
      <feGaussianBlur result="blurOut" in="offOut" stdDeviation="4" />
      <feBlend in="SourceGraphic" in2="blurOut" mode="normal" />
      <feComponentTransfer>
        <feFuncA type="linear" slope="0.5" />
      </feComponentTransfer>
      <feMerge>
        <feMergeNode />
        <feMergeNode in="SourceGraphic" />
      </feMerge>
    </filter>
    <path
      fill="none"
      stroke="#c3fcc3"
      stroke-opacity="1"
      stroke-width="3"
      stroke-linecap="butt"
      d="M 399.5021442770958 397.39014887809753 C 399.07463097572327 396.1196575164795 398.79164826869965 394.9762043952942 397.7313446998596 393.0177969932556 C 396.6710410118103 391.0593891143799 395.8678331375122 389.5021142959595 393.92159938812256 387.0827417373657 C 391.9753656387329 384.663369178772 390.502103805542 382.86942291259766 387.4880094528198 380.28425788879395 C 384.47391510009766 377.69909286499023 382.2343921661377 375.8849792480469 378.05794525146484 373.47661209106445 C 373.881498336792 371.06824493408203 370.84214782714844 369.4745750427246 365.50671005249023 367.60864639282227 C 360.17127227783203 365.7427177429199 356.3660316467285 364.61709213256836 349.97668838500977 363.6559371948242 C 343.587345123291 362.6947822570801 339.1179962158203 362.27391815185547 331.8785934448242 362.5499382019043 C 324.6391906738281 362.8259582519531 319.6711196899414 363.31818771362305 311.8745574951172 365.10866928100586 C 304.07799530029297 366.8991508483887 298.83165740966797 368.4684715270996 290.84405517578125 371.9735164642334 C 282.85645294189453 375.4785614013672 277.5949020385742 378.2312469482422 269.83453369140625 383.55627822875977 C 262.07415771484375 388.88130950927734 257.08766174316406 392.8560061454773 250 400 C 242.91233825683594 407.1439938545227 238.5006561279297 412.30595684051514 232.5310516357422 421.15624809265137 C 226.5614471435547 430.0065383911133 223.01531982421875 436.24642181396484 218.58099365234375 446.58048248291016 C 214.14666748046875 456.91454315185547 211.7292938232422 464.0518798828125 209.19248962402344 475.54603576660156 C 206.6556854248047 487.0401916503906 205.58551025390625 494.8313980102539 205.22940063476562 507.07604217529297 C 204.873291015625 519.320686340332 205.3092803955078 527.4711380004883 207.31820678710938 539.9915161132812 C 209.32713317871094 552.5119018554688 211.3573455810547 560.6913604736328 215.80270385742188 572.9727783203125 C 220.24806213378906 585.2541961669922 223.88221740722656 593.1147155761719 230.71485900878906 604.6305847167969 C 237.54750061035156 616.1464538574219 242.71429443359375 623.3415832519531 251.76394653320312 633.5826416015625 C 260.8135986328125 643.8236999511719 267.36268615722656 650.0279541015625 278.34461212158203 658.5308532714844 C 289.3265380859375 667.0337524414062 297.0351791381836 671.9611206054688 309.56356048583984 678.3347473144531 C 322.0919418334961 684.7083740234375 330.6760711669922 688.1285400390625 344.28346252441406 692.0763244628906 C 357.8908576965332 696.0241088867188 367.01976013183594 697.7757263183594 381.18142890930176 699.1126098632812 C 395.3430995941162 700.4494934082031 404.6569004058838 700.4494934082031 418.81857109069824 699.1126098632812 C 432.98023986816406 697.7757263183594 442.1091423034668 696.0241088867188 455.71653747558594 692.0763244628906 C 469.3239288330078 688.1285400390625 477.9080581665039 684.7083740234375 490.43643951416016 678.3347473144531 C 502.9648208618164 671.9611206054688 510.6734619140625 667.0337524414062 521.655387878418 658.5308532714844 C 532.6373138427734 650.0279541015625 539.1864013671875 643.8236999511719 548.2360534667969 633.5826416015625 C 557.2857055664062 623.3415832519531 562.4524993896484 616.1464538574219 569.2851409912109 604.6305847167969 C 576.1177825927734 593.1147155761719 579.7519378662109 585.2541961669922 584.1972961425781 572.9727783203125 C 588.6426544189453 560.6913604736328 590.6728668212891 552.5119018554688 592.6817932128906 539.9915161132812 C 594.6907196044922 527.4711380004883 595.126708984375 519.320686340332 594.7705993652344 507.07604217529297 C 594.4144897460938 494.8313980102539 593.3443145751953 487.0401916503906 590.8075103759766 475.54603576660156 C 588.2707061767578 464.0518798828125 585.8533325195312 456.91454315185547 581.4190063476562 446.58048248291016 C 576.9846801757812 436.24642181396484 573.4385528564453 430.0065383911133 567.4689483642578 421.15624809265137 C 561.4993438720703 412.30595684051514 557.0876617431641 407.1439938545227 550 400 C 542.9123382568359 392.8560061454773 537.9258422851562 388.88130950927734 530.1654663085938 383.55627822875977 C 522.4050979614258 378.2312469482422 517.1435470581055 375.4785614013672 509.15594482421875 371.9735164642334 C 501.16834259033203 368.4684715270996 495.92200469970703 366.8991508483887 488.1254425048828 365.10866928100586 C 480.3288803100586 363.31818771362305 475.3608093261719 362.8259582519531 468.1214065551758 362.5499382019043 C 460.8820037841797 362.27391815185547 456.412654876709 362.6947822570801 450.02331161499023 363.6559371948242 C 443.6339683532715 364.61709213256836 439.82872772216797 365.7427177429199 434.49328994750977 367.60864639282227 C 429.15785217285156 369.4745750427246 426.118501663208 371.06824493408203 421.94205474853516 373.47661209106445 C 417.7656078338623 375.8849792480469 415.52608489990234 377.69909286499023 412.5119905471802 380.28425788879395 C 409.497896194458 382.86942291259766 408.0246343612671 384.663369178772 406.07840061187744 387.0827417373657 C 404.1321668624878 389.5021142959595 403.3289589881897 391.0593891143799 402.2686553001404 393.0177969932556 C 401.20835173130035 394.9762043952942 400.92536902427673 396.1196575164795 400.4978557229042 397.39014887809753 C 400.070342451334 398.6606401205063 400.11670922487974 399.2648488879204 400.01858541183174 399.7045933306217 C 399.920461602509 400.14433777332306 400.079538397491 400.14433777332306 399.98141458816826 399.7045933306217 C 399.88329077512026 399.2648488879204 399.929657548666 398.6606401205063 399.5021442770958 397.39014887809753 Z "
    />
    <title>2:0:cardioid</title>
  </g>
  <g stroke-linejoin="round">
    <filter
      id="evolute-of-cardioid__2:0:evolute-shadow"
      x="0"
      y="0"
      width="200%"
      height="200%"
    >
      <feOffset result="offOut" in="SourceAlpha" dx="5" dy="5" />
      <feGaussianBlur result="blurOut" in="offOut" stdDeviation="4" />
      <feBlend in="SourceGraphic" in2="blurOut" mode="normal" />
      <feComponentTransfer>
        <feFuncA type="linear" slope="0.5" />
      </feComponentTransfer>
      <feMerge>
        <feMergeNode />
        <feMergeNode in="SourceGraphic" />
      </feMerge>
    </filter>
    <path
      fill="none"
      stroke="#9d94ff"
      stroke-opacity="1"
      stroke-width="3"
      stroke-linecap="butt"
      d="M 381.18435859680176 404.24053287506104 C 375.4851303100586 405.6736249923706 374.0788688659668 406.2279396057129 370.0347843170166 408.1850051879883 C 365.9906997680664 410.1420707702637 363.4745292663574 411.7959232330322 359.8997039794922 414.5408773422241 C 356.32487869262695 417.285831451416 354.18167877197266 419.3052673339844 351.2199058532715 422.63213539123535 C 348.2581329345703 425.9590034484863 346.5607261657715 428.3009834289551 344.31141662597656 432.0507125854492 C 342.06210708618164 435.80044174194336 340.8597946166992 438.3620719909668 339.3814277648926 442.36755752563477 C 337.90306091308594 446.37304306030273 337.2199249267578 449.04209899902344 336.5305404663086 453.13221740722656 C 335.8411560058594 457.2223358154297 335.67493438720703 459.88661193847656 335.7530822753906 463.8944892883301 C 335.8312301635742 467.9023666381836 336.15430068969727 470.45455169677734 336.94185638427734 474.22630310058594 C 337.7294120788574 477.99805450439453 338.49138259887695 480.3432388305664 339.8981056213379 483.7458267211914 C 341.3048286437988 487.1484146118164 342.4356002807617 489.20660400390625 344.3456573486328 492.13465881347656 C 346.2557144165039 495.0627136230469 347.6713676452637 496.7759246826172 349.95103454589844 499.1566619873047 C 352.2307014465332 501.5373992919922 353.8377227783203 502.86914825439453 356.3439025878906 504.6648635864258 C 358.85008239746094 506.46057891845703 360.5518913269043 507.39871978759766 363.14146423339844 508.6077880859375 C 365.7310371398926 509.81685638427734 367.434871673584 510.3733825683594 369.9732360839844 511.0283660888672 C 372.51160049438477 511.683349609375 374.1324043273926 511.8912048339844 376.50128173828125 512.0550689697266 C 378.8701591491699 512.2189331054688 380.33616065979004 512.1301879882812 382.4410095214844 511.8908157348633 C 384.545859336853 511.6514434814453 385.80486392974854 511.3321304321289 387.5794372558594 510.7952194213867 C 389.3540105819702 510.25830841064453 390.3715648651123 509.78387451171875 391.78086853027344 509.0649719238281 C 393.19017219543457 508.3460693359375 393.95453548431396 507.79605865478516 394.996826171875 507.0115280151367 C 396.03911685943604 506.2269973754883 396.56208634376526 505.6766815185547 397.26660919189453 504.9358673095703 C 397.9711320400238 504.19505310058594 398.28113663196564 503.7150650024414 398.70484161376953 503.1125183105469 C 399.1285465955734 502.50997161865234 399.27354645729065 502.1565933227539 399.4966354370117 501.7645568847656 C 399.71972438693047 501.37252044677734 399.7603635787964 501.1851043701172 399.8789939880371 501.04917907714844 C 399.99762439727783 500.9132537841797 400.00237560272217 500.9132537841797 400.1210060119629 501.04917907714844 C 400.2396364212036 501.1851043701172 400.28027561306953 501.37252044677734 400.5033645629883 501.7645568847656 C 400.72645354270935 502.1565933227539 400.8714534044266 502.50997161865234 401.29515838623047 503.1125183105469 C 401.71886336803436 503.7150650024414 402.0288679599762 504.19505310058594 402.73339080810547 504.9358673095703 C 403.43791365623474 505.6766815185547 403.96088314056396 506.2269973754883 405.003173828125 507.0115280151367 C 406.04546451568604 507.79605865478516 406.80982780456543 508.3460693359375 408.21913146972656 509.0649719238281 C 409.6284351348877 509.78387451171875 410.6459894180298 510.25830841064453 412.4205627441406 510.7952194213867 C 414.19513607025146 511.3321304321289 415.454140663147 511.6514434814453 417.5589904785156 511.8908157348633 C 419.66383934020996 512.1301879882812 421.1298408508301 512.2189331054688 423.49871826171875 512.0550689697266 C 425.8675956726074 511.8912048339844 427.48839950561523 511.683349609375 430.0267639160156 511.0283660888672 C 432.565128326416 510.3733825683594 434.2689628601074 509.81685638427734 436.85853576660156 508.6077880859375 C 439.4481086730957 507.39871978759766 441.14991760253906 506.46057891845703 443.6560974121094 504.6648635864258 C 446.1622772216797 502.86914825439453 447.7692985534668 501.5373992919922 450.04896545410156 499.1566619873047 C 452.3286323547363 496.7759246826172 453.7442855834961 495.0627136230469 455.6543426513672 492.13465881347656 C 457.5643997192383 489.20660400390625 458.6951713562012 487.1484146118164 460.1018943786621 483.7458267211914 C 461.50861740112305 480.3432388305664 462.2705879211426 477.99805450439453 463.05814361572266 474.22630310058594 C 463.84569931030273 470.45455169677734 464.1687698364258 467.9023666381836 464.2469177246094 463.8944892883301 C 464.32506561279297 459.88661193847656 464.1588439941406 457.2223358154297 463.4694595336914 453.13221740722656 C 462.7800750732422 449.04209899902344 462.09693908691406 446.37304306030273 460.6185722351074 442.36755752563477 C 459.1402053833008 438.3620719909668 457.93789291381836 435.80044174194336 455.68858337402344 432.0507125854492 C 453.4392738342285 428.3009834289551 451.7418670654297 425.9590034484863 448.7800941467285 422.63213539123535 C 445.81832122802734 419.3052673339844 443.67512130737305 417.285831451416 440.1002960205078 414.5408773422241 C 436.5254707336426 411.7959232330322 434.0093002319336 410.1420707702637 429.9652156829834 408.1850051879883 C 425.9211311340332 406.2279396057129 424.5148696899414 405.6736249923706 418.81564140319824 404.24053287506104 C 413.1164131164551 402.80744075775146 403.53841495513916 401.3260577917099 399.9692800398916 400.64241552352905 C 396.4001450538635 399.9587732553482 403.5998549461365 399.9587732553482 400.0307199601084 400.64241552352905 C 396.46158504486084 401.3260577917099 386.8835868835449 402.80744075775146 381.18435859680176 404.24053287506104 Z "
    />
    <title>2:0:evolute</title>
  </g>
</svg>
