<svg
  version="1.2"
  xmlns="http://www.w3.org/2000/svg"
  viewBox="0 0 288 162"
  penrose="0"
>
  <penrose><croppedViewBox>0 0 288 162</croppedViewBox></penrose>
  <rect
    x="0"
    y="0"
    width="288"
    height="162"
    fill="#000000"
    fill-opacity="0.13333334028720856"
    stroke="none"
    rx="0"
    transform="rotate(0, 144, 81)"
  >
    <title>canvas.background</title>
  </rect>
  <g>
    <clipPath id="stochastic-process__registry`Xt`.canvasRect-clip">
      <rect
        x="0"
        y="0"
        width="288"
        height="162"
        fill="#deccb8"
        fill-opacity="0.5"
        stroke="none"
        rx="0"
        transform="rotate(0, 144, 81)"
      >
        <title>`Xt`.canvasRect</title>
      </rect>
    </clipPath>
    <g clip-path="url(#stochastic-process__registry`Xt`.canvasRect-clip)">
      <g
        transform="rotate(0, 113.5992259979248, 19.835857391357422)translate(-23.698945999145508, -117.46231460571289)"
        opacity="0.75"
      >
        <!--?xml version="1.0" encoding="utf-8"?--><!--Generator: Adobe Illustrator 27.2.0, SVG Export Plug-In . SVG Version: 6.00 Build 0)--><svg
          version="1.1"
          id="stochastic-process__Layer_1--inject-4"
          xmlns="http://www.w3.org/2000/svg"
          xmlns:xlink="http://www.w3.org/1999/xlink"
          x="0px"
          y="0px"
          viewBox="0 0 221.7 221.7"
          style="enable-background: new 0 0 221.7 221.7"
          xml:space="preserve"
          width="274.5963439941406"
          height="274.5963439941406"
          preserveAspectRatio=""
        >
          <radialGradient
            id="stochastic-process__SVGID_1_--inject-4"
            cx="75.4328"
            cy="48.9851"
            r="157.9341"
            gradientTransform="matrix(1 0 0 1 0 22)"
            gradientUnits="userSpaceOnUse"
          >
            <stop offset="0" style="stop-color: #ffffff" />
            <stop offset="0.7844" style="stop-color: #5f5f5f" />
            <stop offset="1" style="stop-color: #7f7f7f" />
          </radialGradient>
          <circle
            cx="110.9"
            cy="110.9"
            r="110.9"
            style="
              opacity: 0.6;
              fill: url(#stochastic-process__SVGID_1_--inject-4);
              enable-background: new;
            "
          />
          <g style="opacity: 0.15">
            <path
              d="M0,110.8c0,20.3,49.6,36.8,110.8,36.8s110.8-16.5,110.8-36.8"
              style="
                fill: none;
                stroke: #000000;
                stroke-width: 0.65;
                stroke-miterlimit: 10;
              "
            />
            <path
              d="M221.7,110.8c0-20.3-49.6-36.8-110.8-36.8S0,90.5,0,110.8"
              style="
                fill: none;
                stroke: #000000;
                stroke-width: 0.65;
                stroke-miterlimit: 10;
                stroke-dasharray: 4;
              "
            />
          </g>
        </svg>
        <title>`Xt`.shading</title>
      </g>
    </g>
    <g clip-path="url(#stochastic-process__registry`Xt`.canvasRect-clip)">
      <circle
        fill="#1b1f8a"
        fill-opacity="0.20000000298023224"
        cx="113.5992259979248"
        cy="19.835857391357422"
        stroke="#888888"
        stroke-opacity="1"
        stroke-width="1.5"
        r="137.2981719970703"
      >
        <title>`Xt`.ball</title>
      </circle>
    </g>
    <title>`Xt`.clippedBall</title>
  </g>
  <g>
    <clipPath id="stochastic-process__registry`Xt`.clipBall-clip">
      <circle
        fill="#71d8a7"
        fill-opacity="0.5"
        cx="113.5992259979248"
        cy="19.835857391357422"
        stroke="none"
        r="137.2981719970703"
      >
        <title>`Xt`.clipBall</title>
      </circle>
    </clipPath>
    <g clip-path="url(#stochastic-process__registry`Xt`.clipBall-clip)">
      <g>
        <filter
          id="stochastic-process__`Xt`.path-shadow"
          x="0"
          y="0"
          width="200%"
          height="200%"
        >
          <feOffset result="offOut" in="SourceAlpha" dx="5" dy="5" />
          <feGaussianBlur result="blurOut" in="offOut" stdDeviation="4" />
          <feBlend in="SourceGraphic" in2="blurOut" mode="normal" />
          <feComponentTransfer>
            <feFuncA type="linear" slope="0.5" />
          </feComponentTransfer>
          <feMerge>
            <feMergeNode />
            <feMergeNode in="SourceGraphic" />
          </feMerge>
        </filter>
        <path
          fill="none"
          stroke="#1b1f8a"
          stroke-opacity="0.6000000238418579"
          stroke-width="1"
          stroke-linecap="butt"
          d="M 113.5992259979248 19.835857391357422 C 114.83563804626465 19.225143432617188 115.82036209106445 16.918601989746094 118.54487419128418 17.39300537109375 C 121.2693862915039 17.867408752441406 122.98182487487793 21.31118392944336 124.49727439880371 21.73346710205078 C 126.01272392272949 22.155750274658203 123.88474464416504 18.972557067871094 124.60667419433594 19.082141876220703 C 125.32860374450684 19.191726684570312 126.10803413391113 21.735576629638672 127.38499450683594 22.17181396484375 C 128.66195487976074 22.608051300048828 129.54759883880615 21.198455810546875 129.71451568603516 20.827091217041016 C 129.88143253326416 20.455726623535156 128.29224014282227 18.92876434326172 128.05266189575195 20.686359405517578 C 127.81308364868164 22.443954467773438 128.78365898132324 25.55327606201172 128.75620365142822 27.857463836669922 C 128.7287483215332 30.161651611328125 127.32234954833984 29.21596908569336 127.94283866882324 29.903106689453125 C 128.56332874298096 30.59024429321289 129.80086135864258 29.358524322509766 131.23816299438477 30.60601806640625 C 132.67546463012695 31.853511810302734 133.40117263793945 33.48957061767578 133.69204425811768 34.89308166503906 C 133.9829158782959 36.296592712402344 132.8242244720459 34.355892181396484 132.4016513824463 36.220069885253906 C 131.97907829284668 38.08424758911133 131.69960021972656 41.28740692138672 132.00175189971924 42.34979248046875 C 132.3039035797119 43.41217803955078 131.86711025238037 40.52943420410156 133.61026000976562 40.46961212158203 C 135.35340976715088 40.4097900390625 136.6328582763672 42.18993377685547 138.9743504524231 42.110496520996094 C 141.315842628479 42.03105926513672 141.63395929336548 40.3289680480957 142.9762282371521 40.15186309814453 C 144.31849706172943 39.97475814819336 143.26298660039902 40.850860595703125 144.34342592954636 41.40207290649414 C 145.42386531829834 41.953285217285156 145.68569707870483 42.729679107666016 147.29798579216003 42.356712341308594 C 148.91027450561523 41.98374557495117 149.82059049606323 41.016258239746094 150.79258060455322 39.91020202636719 C 151.7645707130432 38.80414581298828 151.52406978607178 38.61845397949219 151.18594646453857 37.93247985839844 C 150.84782314300537 37.24650573730469 149.72657585144043 36.981346130371094 149.4400873184204 37.16630172729492 C 149.1535987854004 37.35125732421875 149.92759370803833 38.4132080078125 150.03999185562134 38.67230224609375 C 150.15239000320435 38.931396484375 150.3480362892151 38.40492630004883 149.88967990875244 38.202674865722656 C 149.4313235282898 38.000423431396484 148.2694296836853 37.04887008666992 148.2065658569336 37.86329650878906 C 148.14370203018188 38.6777229309082 149.66303062438965 40.775726318359375 149.6382246017456 41.46037673950195 C 149.61341857910156 42.14502716064453 147.27788043022156 40.13404083251953 148.10734224319458 40.60190200805664 C 148.93680381774902 41.06976318359375 152.88458824157715 41.65520477294922 152.9560718536377 43.33182144165039 C 153.02755546569824 45.00843811035156 150.8997664451599 47.39809036254883 148.39327764511108 47.30837631225586 C 145.88678884506226 47.21866226196289 144.17084276676178 44.20527648925781 142.93011713027954 42.97296905517578 C 141.6893916130066 41.74066162109375 142.70609736442566 42.27322769165039 143.43037503957748 42.379154205322266 C 144.15465277433395 42.48508071899414 144.61834108829498 42.60853576660156 145.82722806930542 43.39667510986328 C 147.03611516952515 44.184814453125 147.12248754501343 45.92329025268555 148.26592302322388 45.53171157836914 C 149.40935850143433 45.140132904052734 149.57408952713013 41.65475845336914 150.40096998214722 41.83036422729492 C 151.2278504371643 42.0059700012207 151.32611799240112 44.886356353759766 151.57344436645508 46.234134674072266 C 151.82077074050903 47.581912994384766 150.56874084472656 46.97355270385742 151.39027500152588 47.22147750854492 C 152.2118091583252 47.46940231323242 154.04998970031738 47.7679557800293 154.85958194732666 47.225830078125 C 155.66917419433594 46.6837043762207 153.7505340576172 45.609130859375 154.62864208221436 45.052974700927734 C 155.50675010681152 44.49681854248047 157.9819221496582 44.282657623291016 158.3720121383667 45.00120544433594 C 158.7621021270752 45.71975326538086 156.93926906585693 47.38655090332031 156.1890001296997 47.92716979980469 C 155.43873119354248 48.46778869628906 156.0597677230835 46.20243453979492 155.37093544006348 47.16367721557617 C 154.68210315704346 48.12491989135742 152.89183712005615 50.232913970947266 153.4336700439453 51.772138595581055 C 153.97550296783447 53.311363220214844 157.73625373840332 52.1803035736084 157.5382661819458 53.32057762145996 C 157.34027862548828 54.46085166931152 153.88316822052002 55.36978530883789 152.6417179107666 56.33323669433594 C 151.40026760101318 57.296688079833984 152.6521816253662 56.410369873046875 152.57246589660645 57.17437934875488 C 152.49275016784668 57.93838882446289 151.0955147743225 58.62529945373535 152.3228530883789 59.3892765045166 C 153.55019187927246 60.15325355529785 156.869535446167 60.62991142272949 157.48181915283203 60.230289459228516 C 158.09410285949707 59.83066749572754 155.15132999420166 59.075706481933594 154.77198696136475 57.79079055786133 C 154.39264392852783 56.50587463378906 155.6074914932251 55.87392616271973 155.9644479751587 55.090627670288086 C 156.32140445709229 54.307329177856445 154.9117488861084 54.65709686279297 156.1998119354248 54.657596588134766 C 157.4878749847412 54.65809631347656 159.96600914001465 53.89565658569336 161.11670112609863 55.09262466430664 C 162.26739311218262 56.28959274291992 160.11122512817383 57.357173919677734 160.80258178710938 59.44546890258789 C 161.49393844604492 61.53376388549805 163.1090202331543 61.01611328125 163.88212394714355 63.4458065032959 C 164.6552276611328 65.8754997253418 163.5004653930664 68.73735237121582 163.89500045776367 69.1642427444458 C 164.28953552246094 69.59113311767578 166.19394493103027 66.6348876953125 165.46026611328125 65.15336608886719 C 164.72658729553223 63.671844482421875 162.52648735046387 62.58695602416992 160.9602870941162 63.23815727233887 C 159.39408683776855 63.88935852050781 158.85757541656494 66.48136901855469 159.19546604156494 67.75817489624023 C 159.53335666656494 69.03498077392578 161.4779281616211 68.21664428710938 162.3118495941162 68.34537982940674 C 163.14577102661133 68.4741153717041 162.77593612670898 67.9324426651001 162.53115463256836 68.27311515808105 C 162.28637313842773 68.61378765106201 161.2746639251709 70.43706703186035 161.33272552490234 69.70806884765625 C 161.3907871246338 68.97907066345215 161.77913665771484 65.87200927734375 162.7633991241455 65.35712242126465 C 163.74766159057617 64.84223556518555 164.0491485595703 65.79513645172119 165.26977348327637 67.64852046966553 C 166.49039840698242 69.50190448760986 167.22885131835938 72.51336097717285 167.64590072631836 72.77065849304199 C 168.06295013427734 73.02795600891113 166.5584945678711 70.49647045135498 166.9379711151123 68.67770957946777 C 167.31744766235352 66.85894870758057 168.6551856994629 66.79272842407227 169.1638069152832 65.49561500549316 C 169.67242813110352 64.19850158691406 169.42655754089355 63.70404243469238 168.9724578857422 63.48925590515137 C 168.51835823059082 63.27446937561035 167.08298301696777 64.03141784667969 167.3474063873291 64.6364688873291 C 167.61182975769043 65.24151992797852 168.3515682220459 66.18445587158203 170.03015327453613 65.90946006774902 C 171.70873832702637 65.63446426391602 172.54216384887695 64.13493347167969 174.06174659729004 63.53648376464844 C 175.58132934570312 62.93803405761719 175.95074844360352 63.49933624267578 176.1084861755371 63.515663146972656 C 176.2662239074707 63.53199005126953 175.5302848815918 63.615373611450195 174.69269943237305 63.60178756713867 C 173.8551139831543 63.58820152282715 174.55204391479492 64.47376251220703 172.75814247131348 63.461320877075195 C 170.96424102783203 62.44887924194336 168.1218547821045 60.039939880371094 167.51709365844727 59.552024841308594 C 166.91233253479004 59.064109802246094 168.92542457580566 61.253849029541016 170.3390998840332 61.50965690612793 C 171.75277519226074 61.765464782714844 171.82349014282227 60.60370635986328 173.1717929840088 60.575252532958984 C 174.5200958251953 60.54679870605469 175.23130416870117 61.189453125 175.73231315612793 61.395843505859375 C 176.2333221435547 61.60223388671875 175.23003959655762 62.759626388549805 175.17582893371582 61.40081787109375 C 175.12161827087402 60.042009353637695 174.22327423095703 57.63273239135742 175.51547050476074 55.960609436035156 C 176.80766677856445 54.28848648071289 179.4131851196289 54.65019416809082 180.3446159362793 54.712324142456055 C 181.2760467529297 54.77445411682129 179.2723617553711 55.60920715332031 179.24119567871094 56.209129333496094 C 179.21002960205078 56.809051513671875 179.55950164794922 57.18670654296875 180.21994400024414 57.11201477050781 C 180.88038635253906 57.037322998046875 180.6100730895996 55.860979080200195 181.8829574584961 55.91036415100098 C 183.15584182739258 55.95974922180176 184.97003173828125 57.25410270690918 185.31148147583008 57.309553146362305 C 185.6529312133789 57.36500358581543 183.9000244140625 56.92517852783203 183.24875259399414 56.13216781616211 C 182.59748077392578 55.33915710449219 183.31301879882812 54.11198806762695 182.70639419555664 54.13750648498535 C 182.09976959228516 54.16302490234375 181.5850601196289 55.035362243652344 180.82226181030273 56.2342414855957 C 180.05946350097656 57.43312072753906 178.7509307861328 58.68520736694336 179.65520095825195 58.93302345275879 C 180.5594711303711 59.18083953857422 183.32653045654297 58.010732650756836 184.43935012817383 57.22550582885742 C 185.5521697998047 56.44027900695801 183.6428451538086 56.12891387939453 184.10648727416992 55.792118072509766 C 184.57012939453125 55.455322265625 185.1516227722168 55.43755912780762 186.2939224243164 55.87832260131836 C 187.43622207641602 56.3190860748291 187.60625076293945 57.22316551208496 188.67568588256836 57.55517387390137 C 189.74512100219727 57.88718223571777 190.50921630859375 58.28120803833008 190.5716667175293 57.20635795593262 C 190.63411712646484 56.131507873535156 189.60945510864258 53.637460708618164 188.9254913330078 53.25577735900879 C 188.24152755737305 52.874094009399414 187.65582275390625 54.16342544555664 187.8358154296875 55.67962455749512 C 188.01580810546875 57.195823669433594 189.49000930786133 58.95693778991699 189.6454620361328 59.32057189941406 C 189.8009147644043 59.68420600891113 187.71128845214844 58.365745544433594 188.45762252807617 57.1341609954834 C 189.2039566040039 55.9025764465332 192.33052825927734 56.04079818725586 192.63079071044922 54.39423179626465 C 192.9310531616211 52.74766540527344 189.81044006347656 51.64968681335449 189.6586799621582 50.547895431518555 C 189.50691986083984 49.44610404968262 190.0860939025879 50.67803192138672 192.0237579345703 49.9870662689209 C 193.96142196655273 49.29610061645508 195.86997985839844 49.1273078918457 197.4093360900879 47.784034729003906 C 198.94869232177734 46.44076156616211 198.42037200927734 45.42145538330078 198.18117904663086 44.613975524902344 C 197.94198608398438 43.806495666503906 195.15937042236328 43.282649993896484 196.45255661010742 44.55411148071289 C 197.74574279785156 45.8255729675293 201.19013214111328 47.85269546508789 203.3539276123047 49.69982147216797 C 205.5177230834961 51.54694938659668 204.04721069335938 51.43894577026367 205.10773468017578 51.9426212310791 C 206.1682586669922 52.44629669189453 205.5676383972168 50.709489822387695 207.59601593017578 51.714521408081055 C 209.6243896484375 52.719552993774414 211.31169891357422 54.56936073303223 213.22124481201172 55.962745666503906 C 215.13079071044922 57.356130599975586 213.5094223022461 57.07746124267578 215.23419189453125 57.28805923461914 C 216.9589614868164 57.4986572265625 218.68756103515625 56.75130844116211 220.12032318115234 56.805137634277344 C 221.55308532714844 56.85896682739258 221.29827880859375 55.93734931945801 220.96522521972656 57.503374099731445 C 220.63217163085938 59.06939888000488 219.10973358154297 61.158586502075195 218.7881088256836 63.06923484802246 C 218.46648406982422 64.97988319396973 220.86849975585938 64.41334533691406 219.6787338256836 65.14596557617188 C 218.4889678955078 65.878586769104 215.53163146972656 66.07767486572266 214.02903747558594 65.99971961975098 C 212.5264434814453 65.9217643737793 213.0442886352539 65.05204963684082 213.66836547851562 64.83414649963379 C 214.29244232177734 64.61624336242676 215.5222625732422 63.834394454956055 216.52533721923828 65.12810897827148 C 217.52841186523438 66.42182350158691 217.030517578125 69.93935775756836 217.6806640625 70.00900459289551 C 218.330810546875 70.07865142822266 218.4899444580078 65.85923767089844 219.12590789794922 65.40669631958008 C 219.76187133789062 64.95415496826172 218.8768310546875 67.82741451263428 220.2245101928711 68.19883918762207 C 221.5721893310547 68.57026386260986 223.44186401367188 68.85623741149902 224.51663970947266 66.89239597320557 C 225.59141540527344 64.92855453491211 224.4211196899414 61.97237014770508 224.5236053466797 60.34347152709961 C 224.62609100341797 58.71457290649414 225.70254516601562 60.68338584899902 224.9265899658203 60.37680244445801 C 224.150634765625 60.07021903991699 222.92335510253906 59.46306610107422 221.4197998046875 59.11713790893555 C 219.91624450683594 58.771209716796875 218.0011444091797 60.33607482910156 218.912353515625 58.99309158325195 C 219.8235626220703 57.650108337402344 223.9303436279297 56.771148681640625 225.0646209716797 53.74520683288574 C 226.1988983154297 50.71926498413086 223.1723403930664 48.30091857910156 223.44945526123047 46.889320373535156 C 223.72657012939453 45.47772216796875 224.85540008544922 47.60340118408203 226.17308807373047 48.098812103271484 C 227.49077606201172 48.59422302246094 227.83529663085938 48.57756423950195 228.72020721435547 48.8709602355957 C 229.60511779785156 49.16435623168945 230.09387969970703 48.34260177612305 229.71273803710938 49.27239418029785 C 229.33159637451172 50.20218467712402 227.0084457397461 51.01401710510254 227.1956329345703 52.59012413024902 C 227.38282012939453 54.16623115539551 229.63484954833984 54.42524337768555 230.46149444580078 55.57682228088379 C 231.28813934326172 56.72840118408203 230.6731414794922 57.38801383972168 230.50220489501953 57.196441650390625 C 230.33126831054688 57.00486946105957 229.4820098876953 54.47203254699707 229.7777557373047 54.81053352355957 C 230.07350158691406 55.14903450012207 231.44107055664062 56.86906051635742 231.6851806640625 58.550445556640625 C 231.92929077148438 60.23183059692383 230.03158569335938 60.71258544921875 230.75418853759766 61.536075592041016 C 231.47679138183594 62.35956573486328 233.01881408691406 61.76276969909668 234.57559967041016 61.84440612792969 C 236.13238525390625 61.926042556762695 236.78949737548828 62.27235412597656 236.9813461303711 61.86262130737305 C 237.1731948852539 61.45288848876953 234.0978546142578 60.913490295410156 235.3429946899414 60.20547103881836 C 236.588134765625 59.49745178222656 240.48385620117188 58.4387321472168 241.96190643310547 59.030540466308594 C 243.43995666503906 59.62234878540039 242.16170501708984 61.518775939941406 241.25519561767578 62.57270050048828 C 240.34868621826172 63.626625061035156 240.36895751953125 63.84303092956543 238.3358612060547 63.24623489379883 C 236.30276489257812 62.64943885803223 234.7888946533203 60.552053451538086 233.12281799316406 60.185516357421875 C 231.4567413330078 59.818979263305664 233.26741790771484 61.3416748046875 231.67154693603516 61.78008460998535 C 230.07567596435547 62.2184944152832 227.2717514038086 62.9134521484375 226.73932647705078 61.939157485961914 C 226.20690155029297 60.96486282348633 229.5087890625 58.52059745788574 229.54185485839844 57.88290786743164 C 229.57492065429688 57.24521827697754 226.8718490600586 58.92234420776367 226.87159729003906 59.38839912414551 C 226.87134552001953 59.854454040527344 229.7874298095703 58.945037841796875 229.54085540771484 59.74713134765625 C 229.29428100585938 60.549224853515625 227.53565979003906 62.29376029968262 225.88529205322266 62.59677505493164 C 224.23492431640625 62.899789810180664 222.88594818115234 61.11631202697754 222.93939971923828 60.95918846130371 C 222.99285125732422 60.80206489562988 226.8281707763672 61.95635223388672 226.0990982055664 61.968278884887695 C 225.37002563476562 61.98020553588867 221.2029037475586 60.28493118286133 220.02310180664062 61.00689125061035 C 218.84329986572266 61.728851318359375 220.41383361816406 63.25808143615723 221.3798828125 64.85611915588379 C 222.34593200683594 66.45415687561035 224.60701751708984 66.98477840423584 223.8873062133789 67.3990421295166 C 223.16759490966797 67.81330585479736 219.8040771484375 65.81895637512207 218.50103759765625 66.51317501068115 C 217.197998046875 67.20739364624023 219.1813507080078 70.33242511749268 218.67516326904297 70.17591762542725 C 218.16897583007812 70.01941013336182 216.8611297607422 66.83050537109375 216.47630310058594 65.88714599609375 C 216.0914764404297 64.94378662109375 216.9813232421875 65.23279857635498 217.1358413696289 66.40247821807861 C 217.2903594970703 67.57215785980225 216.75829315185547 68.3597412109375 217.0943832397461 70.5658655166626 C 217.43047332763672 72.7719898223877 218.00357055664062 73.87139797210693 218.4802017211914 75.22697687149048 C 218.9568328857422 76.58255577087402 218.75709533691406 75.3286452293396 219.00089263916016 75.98818159103394 C 219.24468994140625 76.64771795272827 219.2822265625 76.37959861755371 219.4553985595703 77.86512279510498 C 219.62857055664062 79.35064721107483 218.3661346435547 82.19895005226135 219.69357299804688 81.93027931451797 C 221.02101135253906 81.66160851716995 223.96844482421875 78.89765930175781 224.76515197753906 76.79043960571289 C 225.56185913085938 74.68321990966797 224.6056365966797 74.08926582336426 222.8804168701172 73.50140047073364 C 221.1551971435547 72.91353511810303 220.4397201538086 73.98569393157959 217.86426544189453 74.43897867202759 C 215.28881072998047 74.89226341247559 214.46390533447266 75.0190978050232 212.57859802246094 75.31453847885132 C 210.69329071044922 75.60997915267944 210.9075164794922 74.78069639205933 210.32302856445312 75.62074184417725 C 209.73854064941406 76.46078729629517 209.52561950683594 77.18033456802368 210.24065399169922 78.67472052574158 C 210.9556884765625 80.16910660266876 212.7144546508789 81.22511160373688 213.18316650390625 81.59828621149063 C 213.6518783569336 81.97146081924438 212.53567504882812 81.34488517045975 212.11550903320312 80.16741901636124 C 211.69534301757812 78.98995280265808 211.78297424316406 78.22277784347534 211.5025177001953 76.88842153549194 C 211.22206115722656 75.55406522750854 210.98737335205078 75.70746564865112 210.9936752319336 74.82999324798584 C 210.9999771118164 73.95252084732056 210.97274780273438 73.37614059448242 211.52772521972656 73.37853145599365 C 212.08270263671875 73.38092231750488 213.7291717529297 73.88924169540405 213.2135772705078 74.83955717086792 C 212.69798278808594 75.78987264633179 210.73418426513672 75.35936546325684 209.46536254882812 77.17979335784912 C 208.19654083251953 79.00022101402283 207.8030014038086 79.92628753185272 208.13829803466797 82.12126791477203 C 208.47359466552734 84.31624841690063 209.09373474121094 84.55883765220642 210.80655670166016 85.95971488952637 C 212.51937866210938 87.36059188842773 214.66764068603516 86.74552822113037 214.98958587646484 87.72477674484253 C 215.31153106689453 88.70402526855469 213.0479736328125 88.53389024734497 212.09432983398438 89.87670803070068 C 211.14068603515625 91.21952629089355 210.49752044677734 91.75325775146484 211.17501068115234 93.09604835510254 C 211.85250091552734 94.43883895874023 214.66585540771484 93.65240669250488 214.80428314208984 95.24786853790283 C 214.94271087646484 96.84333038330078 212.6824188232422 97.03447914123535 211.72872924804688 99.4778938293457 C 210.77503967285156 101.92130851745605 210.00997161865234 102.68412780761719 210.98951721191406 105.02152633666992 C 211.96906280517578 107.35892486572266 214.48475646972656 107.3081169128418 215.64691925048828 108.82748413085938 C 216.80908203125 110.34685134887695 214.68680572509766 110.44938278198242 215.63815307617188 111.0989933013916 C 216.5895004272461 111.74860382080078 219.57521057128906 111.15382385253906 219.4523162841797 111.42593002319336 C 219.3294219970703 111.69803619384766 216.24969482421875 112.4282283782959 215.1465606689453 112.18741607666016 C 214.04342651367188 111.94660377502441 215.4471206665039 110.70737648010254 215.0397720336914 110.46268081665039 C 214.6324234008789 110.21798515319824 214.47337341308594 110.68988227844238 213.51715850830078 111.20863342285156 C 212.56094360351562 111.72738456726074 211.9065399169922 111.40822410583496 211.21492767333984 112.53768348693848 C 210.5233154296875 113.66714477539062 211.10881805419922 114.77385330200195 210.7507095336914 115.72647094726562 C 210.3926010131836 116.6790885925293 210.30255126953125 115.5566177368164 209.78250122070312 116.34815216064453 C 209.262451171875 117.13968658447266 208.9485092163086 118.25648880004883 208.6705093383789 118.8926010131836"
        />
        <title>`Xt`.path</title>
      </g>
    </g>
    <title>`Xt`.clippedPath</title>
  </g>
  <circle
    fill="#000000"
    fill-opacity="1"
    cx="208.6705093383789"
    cy="118.8926010131836"
    stroke="none"
    r="2"
  >
    <title>`XT`.icon</title>
  </circle>
  <g
    transform="rotate(0, 107.30836868286133, 27.60921859741211)translate(101.16796875, 24.01041865348816)"
  >
    <title>`X0`.labelText</title>
    <svg
      style="font-size: 12px"
      xmlns="http://www.w3.org/2000/svg"
      width="12.280799865722656"
      height="7.1975998878479"
      role="img"
      focusable="false"
      viewBox="0 -442 1023.4 599.8"
    >
      <g
        stroke="none"
        fill="#000000"
        stroke-width="0"
        transform="scale(1,-1)"
        fill-opacity="1"
      >
        <g data-mml-node="math">
          <g data-mml-node="msub">
            <g data-mml-node="mi">
              <path
                data-c="1D465"
                d="M52 289Q59 331 106 386T222 442Q257 442 286 424T329 379Q371 442 430 442Q467 442 494 420T522 361Q522 332 508 314T481 292T458 288Q439 288 427 299T415 328Q415 374 465 391Q454 404 425 404Q412 404 406 402Q368 386 350 336Q290 115 290 78Q290 50 306 38T341 26Q378 26 414 59T463 140Q466 150 469 151T485 153H489Q504 153 504 145Q504 144 502 134Q486 77 440 33T333 -11Q263 -11 227 52Q186 -10 133 -10H127Q78 -10 57 16T35 71Q35 103 54 123T99 143Q142 143 142 101Q142 81 130 66T107 46T94 41L91 40Q91 39 97 36T113 29T132 26Q168 26 194 71Q203 87 217 139T245 247T261 313Q266 340 266 352Q266 380 251 392T217 404Q177 404 142 372T93 290Q91 281 88 280T72 278H58Q52 284 52 289Z"
              />
            </g>
            <g data-mml-node="mi" transform="translate(605,-150) scale(0.707)">
              <path
                data-c="1D458"
                d="M121 647Q121 657 125 670T137 683Q138 683 209 688T282 694Q294 694 294 686Q294 679 244 477Q194 279 194 272Q213 282 223 291Q247 309 292 354T362 415Q402 442 438 442Q468 442 485 423T503 369Q503 344 496 327T477 302T456 291T438 288Q418 288 406 299T394 328Q394 353 410 369T442 390L458 393Q446 405 434 405H430Q398 402 367 380T294 316T228 255Q230 254 243 252T267 246T293 238T320 224T342 206T359 180T365 147Q365 130 360 106T354 66Q354 26 381 26Q429 26 459 145Q461 153 479 153H483Q499 153 499 144Q499 139 496 130Q455 -11 378 -11Q333 -11 305 15T277 90Q277 108 280 121T283 145Q283 167 269 183T234 206T200 217T182 220H180Q168 178 159 139T145 81T136 44T129 20T122 7T111 -2Q98 -11 83 -11Q66 -11 57 -1T48 16Q48 26 85 176T158 471L195 616Q196 629 188 632T149 637H144Q134 637 131 637T124 640T121 647Z"
              />
            </g>
          </g>
        </g>
      </g>
    </svg>
  </g>
  <circle
    fill="#000000"
    fill-opacity="1"
    cx="113.5992259979248"
    cy="19.835857391357422"
    stroke="none"
    r="2"
  >
    <title>`X0`.icon</title>
  </circle>
  <g
    transform="rotate(0, 213.2569122314453, 127.77882385253906)translate(201.6943120956421, 123.87882375717163)"
  >
    <title>`XT`.labelText</title>
    <svg
      style="font-size: 12px"
      xmlns="http://www.w3.org/2000/svg"
      width="23.125200271606445"
      height="7.800000190734863"
      role="img"
      focusable="false"
      viewBox="0 -442 1927.1 650"
    >
      <g
        stroke="none"
        fill="#000000"
        stroke-width="0"
        transform="scale(1,-1)"
        fill-opacity="1"
      >
        <g data-mml-node="math">
          <g data-mml-node="msub">
            <g data-mml-node="mi">
              <path
                data-c="1D465"
                d="M52 289Q59 331 106 386T222 442Q257 442 286 424T329 379Q371 442 430 442Q467 442 494 420T522 361Q522 332 508 314T481 292T458 288Q439 288 427 299T415 328Q415 374 465 391Q454 404 425 404Q412 404 406 402Q368 386 350 336Q290 115 290 78Q290 50 306 38T341 26Q378 26 414 59T463 140Q466 150 469 151T485 153H489Q504 153 504 145Q504 144 502 134Q486 77 440 33T333 -11Q263 -11 227 52Q186 -10 133 -10H127Q78 -10 57 16T35 71Q35 103 54 123T99 143Q142 143 142 101Q142 81 130 66T107 46T94 41L91 40Q91 39 97 36T113 29T132 26Q168 26 194 71Q203 87 217 139T245 247T261 313Q266 340 266 352Q266 380 251 392T217 404Q177 404 142 372T93 290Q91 281 88 280T72 278H58Q52 284 52 289Z"
              />
            </g>
            <g
              data-mml-node="TeXAtom"
              transform="translate(605,-150) scale(0.707)"
              data-mjx-texclass="ORD"
            >
              <g data-mml-node="mi">
                <path
                  data-c="1D458"
                  d="M121 647Q121 657 125 670T137 683Q138 683 209 688T282 694Q294 694 294 686Q294 679 244 477Q194 279 194 272Q213 282 223 291Q247 309 292 354T362 415Q402 442 438 442Q468 442 485 423T503 369Q503 344 496 327T477 302T456 291T438 288Q418 288 406 299T394 328Q394 353 410 369T442 390L458 393Q446 405 434 405H430Q398 402 367 380T294 316T228 255Q230 254 243 252T267 246T293 238T320 224T342 206T359 180T365 147Q365 130 360 106T354 66Q354 26 381 26Q429 26 459 145Q461 153 479 153H483Q499 153 499 144Q499 139 496 130Q455 -11 378 -11Q333 -11 305 15T277 90Q277 108 280 121T283 145Q283 167 269 183T234 206T200 217T182 220H180Q168 178 159 139T145 81T136 44T129 20T122 7T111 -2Q98 -11 83 -11Q66 -11 57 -1T48 16Q48 26 85 176T158 471L195 616Q196 629 188 632T149 637H144Q134 637 131 637T124 640T121 647Z"
                />
              </g>
              <g data-mml-node="mo" transform="translate(521,0)">
                <path
                  data-c="2B"
                  d="M56 237T56 250T70 270H369V420L370 570Q380 583 389 583Q402 583 409 568V270H707Q722 262 722 250T707 230H409V-68Q401 -82 391 -82H389H387Q375 -82 369 -68V230H70Q56 237 56 250Z"
                />
              </g>
              <g data-mml-node="mn" transform="translate(1299,0)">
                <path
                  data-c="31"
                  d="M213 578L200 573Q186 568 160 563T102 556H83V602H102Q149 604 189 617T245 641T273 663Q275 666 285 666Q294 666 302 660V361L303 61Q310 54 315 52T339 48T401 46H427V0H416Q395 3 257 3Q121 3 100 0H88V46H114Q136 46 152 46T177 47T193 50T201 52T207 57T213 61V578Z"
                />
              </g>
            </g>
          </g>
        </g>
      </g>
    </svg>
  </g>
  <g
    transform="rotate(0, 189.0363426208496, 60.66838836669922)translate(182.03854274749756, 55.62358856201172)"
  >
    <title>`Xt`.labelStroke0</title>
    <svg
      style="font-size: 12px"
      xmlns="http://www.w3.org/2000/svg"
      width="13.995599746704102"
      height="10.089599609375"
      role="img"
      focusable="false"
      viewBox="0 -683 1166.3 840.8"
    >
      <g
        stroke="none"
        fill="#000000"
        stroke-width="0"
        transform="scale(1,-1)"
        fill-opacity="1"
      >
        <g data-mml-node="math">
          <g data-mml-node="msub">
            <g data-mml-node="mi">
              <path
                data-c="1D44B"
                d="M42 0H40Q26 0 26 11Q26 15 29 27Q33 41 36 43T55 46Q141 49 190 98Q200 108 306 224T411 342Q302 620 297 625Q288 636 234 637H206Q200 643 200 645T202 664Q206 677 212 683H226Q260 681 347 681Q380 681 408 681T453 682T473 682Q490 682 490 671Q490 670 488 658Q484 643 481 640T465 637Q434 634 411 620L488 426L541 485Q646 598 646 610Q646 628 622 635Q617 635 609 637Q594 637 594 648Q594 650 596 664Q600 677 606 683H618Q619 683 643 683T697 681T738 680Q828 680 837 683H845Q852 676 852 672Q850 647 840 637H824Q790 636 763 628T722 611T698 593L687 584Q687 585 592 480L505 384Q505 383 536 304T601 142T638 56Q648 47 699 46Q734 46 734 37Q734 35 732 23Q728 7 725 4T711 1Q708 1 678 1T589 2Q528 2 496 2T461 1Q444 1 444 10Q444 11 446 25Q448 35 450 39T455 44T464 46T480 47T506 54Q523 62 523 64Q522 64 476 181L429 299Q241 95 236 84Q232 76 232 72Q232 53 261 47Q262 47 267 47T273 46Q276 46 277 46T280 45T283 42T284 35Q284 26 282 19Q279 6 276 4T261 1Q258 1 243 1T201 2T142 2Q64 2 42 0Z"
              />
            </g>
            <g data-mml-node="mi" transform="translate(861,-150) scale(0.707)">
              <path
                data-c="1D461"
                d="M26 385Q19 392 19 395Q19 399 22 411T27 425Q29 430 36 430T87 431H140L159 511Q162 522 166 540T173 566T179 586T187 603T197 615T211 624T229 626Q247 625 254 615T261 596Q261 589 252 549T232 470L222 433Q222 431 272 431H323Q330 424 330 420Q330 398 317 385H210L174 240Q135 80 135 68Q135 26 162 26Q197 26 230 60T283 144Q285 150 288 151T303 153H307Q322 153 322 145Q322 142 319 133Q314 117 301 95T267 48T216 6T155 -11Q125 -11 98 4T59 56Q57 64 57 83V101L92 241Q127 382 128 383Q128 385 77 385H26Z"
              />
            </g>
          </g>
        </g>
      </g>
    </svg>
  </g>
  <g
    transform="rotate(0, 188.88989639282227, 60.31483459472656)translate(181.89209651947021, 55.27003479003906)"
  >
    <title>`Xt`.labelStroke1</title>
    <svg
      style="font-size: 12px"
      xmlns="http://www.w3.org/2000/svg"
      width="13.995599746704102"
      height="10.089599609375"
      role="img"
      focusable="false"
      viewBox="0 -683 1166.3 840.8"
    >
      <g
        stroke="none"
        fill="#000000"
        stroke-width="0"
        transform="scale(1,-1)"
        fill-opacity="1"
      >
        <g data-mml-node="math">
          <g data-mml-node="msub">
            <g data-mml-node="mi">
              <path
                data-c="1D44B"
                d="M42 0H40Q26 0 26 11Q26 15 29 27Q33 41 36 43T55 46Q141 49 190 98Q200 108 306 224T411 342Q302 620 297 625Q288 636 234 637H206Q200 643 200 645T202 664Q206 677 212 683H226Q260 681 347 681Q380 681 408 681T453 682T473 682Q490 682 490 671Q490 670 488 658Q484 643 481 640T465 637Q434 634 411 620L488 426L541 485Q646 598 646 610Q646 628 622 635Q617 635 609 637Q594 637 594 648Q594 650 596 664Q600 677 606 683H618Q619 683 643 683T697 681T738 680Q828 680 837 683H845Q852 676 852 672Q850 647 840 637H824Q790 636 763 628T722 611T698 593L687 584Q687 585 592 480L505 384Q505 383 536 304T601 142T638 56Q648 47 699 46Q734 46 734 37Q734 35 732 23Q728 7 725 4T711 1Q708 1 678 1T589 2Q528 2 496 2T461 1Q444 1 444 10Q444 11 446 25Q448 35 450 39T455 44T464 46T480 47T506 54Q523 62 523 64Q522 64 476 181L429 299Q241 95 236 84Q232 76 232 72Q232 53 261 47Q262 47 267 47T273 46Q276 46 277 46T280 45T283 42T284 35Q284 26 282 19Q279 6 276 4T261 1Q258 1 243 1T201 2T142 2Q64 2 42 0Z"
              />
            </g>
            <g data-mml-node="mi" transform="translate(861,-150) scale(0.707)">
              <path
                data-c="1D461"
                d="M26 385Q19 392 19 395Q19 399 22 411T27 425Q29 430 36 430T87 431H140L159 511Q162 522 166 540T173 566T179 586T187 603T197 615T211 624T229 626Q247 625 254 615T261 596Q261 589 252 549T232 470L222 433Q222 431 272 431H323Q330 424 330 420Q330 398 317 385H210L174 240Q135 80 135 68Q135 26 162 26Q197 26 230 60T283 144Q285 150 288 151T303 153H307Q322 153 322 145Q322 142 319 133Q314 117 301 95T267 48T216 6T155 -11Q125 -11 98 4T59 56Q57 64 57 83V101L92 241Q127 382 128 383Q128 385 77 385H26Z"
              />
            </g>
          </g>
        </g>
      </g>
    </svg>
  </g>
  <g
    transform="rotate(0, 188.5363426208496, 60.16838836669922)translate(181.53854274749756, 55.12358856201172)"
  >
    <title>`Xt`.labelStroke2</title>
    <svg
      style="font-size: 12px"
      xmlns="http://www.w3.org/2000/svg"
      width="13.995599746704102"
      height="10.089599609375"
      role="img"
      focusable="false"
      viewBox="0 -683 1166.3 840.8"
    >
      <g
        stroke="none"
        fill="#000000"
        stroke-width="0"
        transform="scale(1,-1)"
        fill-opacity="1"
      >
        <g data-mml-node="math">
          <g data-mml-node="msub">
            <g data-mml-node="mi">
              <path
                data-c="1D44B"
                d="M42 0H40Q26 0 26 11Q26 15 29 27Q33 41 36 43T55 46Q141 49 190 98Q200 108 306 224T411 342Q302 620 297 625Q288 636 234 637H206Q200 643 200 645T202 664Q206 677 212 683H226Q260 681 347 681Q380 681 408 681T453 682T473 682Q490 682 490 671Q490 670 488 658Q484 643 481 640T465 637Q434 634 411 620L488 426L541 485Q646 598 646 610Q646 628 622 635Q617 635 609 637Q594 637 594 648Q594 650 596 664Q600 677 606 683H618Q619 683 643 683T697 681T738 680Q828 680 837 683H845Q852 676 852 672Q850 647 840 637H824Q790 636 763 628T722 611T698 593L687 584Q687 585 592 480L505 384Q505 383 536 304T601 142T638 56Q648 47 699 46Q734 46 734 37Q734 35 732 23Q728 7 725 4T711 1Q708 1 678 1T589 2Q528 2 496 2T461 1Q444 1 444 10Q444 11 446 25Q448 35 450 39T455 44T464 46T480 47T506 54Q523 62 523 64Q522 64 476 181L429 299Q241 95 236 84Q232 76 232 72Q232 53 261 47Q262 47 267 47T273 46Q276 46 277 46T280 45T283 42T284 35Q284 26 282 19Q279 6 276 4T261 1Q258 1 243 1T201 2T142 2Q64 2 42 0Z"
              />
            </g>
            <g data-mml-node="mi" transform="translate(861,-150) scale(0.707)">
              <path
                data-c="1D461"
                d="M26 385Q19 392 19 395Q19 399 22 411T27 425Q29 430 36 430T87 431H140L159 511Q162 522 166 540T173 566T179 586T187 603T197 615T211 624T229 626Q247 625 254 615T261 596Q261 589 252 549T232 470L222 433Q222 431 272 431H323Q330 424 330 420Q330 398 317 385H210L174 240Q135 80 135 68Q135 26 162 26Q197 26 230 60T283 144Q285 150 288 151T303 153H307Q322 153 322 145Q322 142 319 133Q314 117 301 95T267 48T216 6T155 -11Q125 -11 98 4T59 56Q57 64 57 83V101L92 241Q127 382 128 383Q128 385 77 385H26Z"
              />
            </g>
          </g>
        </g>
      </g>
    </svg>
  </g>
  <g
    transform="rotate(0, 188.18278884887695, 60.31483459472656)translate(181.1849889755249, 55.27003479003906)"
  >
    <title>`Xt`.labelStroke3</title>
    <svg
      style="font-size: 12px"
      xmlns="http://www.w3.org/2000/svg"
      width="13.995599746704102"
      height="10.089599609375"
      role="img"
      focusable="false"
      viewBox="0 -683 1166.3 840.8"
    >
      <g
        stroke="none"
        fill="#000000"
        stroke-width="0"
        transform="scale(1,-1)"
        fill-opacity="1"
      >
        <g data-mml-node="math">
          <g data-mml-node="msub">
            <g data-mml-node="mi">
              <path
                data-c="1D44B"
                d="M42 0H40Q26 0 26 11Q26 15 29 27Q33 41 36 43T55 46Q141 49 190 98Q200 108 306 224T411 342Q302 620 297 625Q288 636 234 637H206Q200 643 200 645T202 664Q206 677 212 683H226Q260 681 347 681Q380 681 408 681T453 682T473 682Q490 682 490 671Q490 670 488 658Q484 643 481 640T465 637Q434 634 411 620L488 426L541 485Q646 598 646 610Q646 628 622 635Q617 635 609 637Q594 637 594 648Q594 650 596 664Q600 677 606 683H618Q619 683 643 683T697 681T738 680Q828 680 837 683H845Q852 676 852 672Q850 647 840 637H824Q790 636 763 628T722 611T698 593L687 584Q687 585 592 480L505 384Q505 383 536 304T601 142T638 56Q648 47 699 46Q734 46 734 37Q734 35 732 23Q728 7 725 4T711 1Q708 1 678 1T589 2Q528 2 496 2T461 1Q444 1 444 10Q444 11 446 25Q448 35 450 39T455 44T464 46T480 47T506 54Q523 62 523 64Q522 64 476 181L429 299Q241 95 236 84Q232 76 232 72Q232 53 261 47Q262 47 267 47T273 46Q276 46 277 46T280 45T283 42T284 35Q284 26 282 19Q279 6 276 4T261 1Q258 1 243 1T201 2T142 2Q64 2 42 0Z"
              />
            </g>
            <g data-mml-node="mi" transform="translate(861,-150) scale(0.707)">
              <path
                data-c="1D461"
                d="M26 385Q19 392 19 395Q19 399 22 411T27 425Q29 430 36 430T87 431H140L159 511Q162 522 166 540T173 566T179 586T187 603T197 615T211 624T229 626Q247 625 254 615T261 596Q261 589 252 549T232 470L222 433Q222 431 272 431H323Q330 424 330 420Q330 398 317 385H210L174 240Q135 80 135 68Q135 26 162 26Q197 26 230 60T283 144Q285 150 288 151T303 153H307Q322 153 322 145Q322 142 319 133Q314 117 301 95T267 48T216 6T155 -11Q125 -11 98 4T59 56Q57 64 57 83V101L92 241Q127 382 128 383Q128 385 77 385H26Z"
              />
            </g>
          </g>
        </g>
      </g>
    </svg>
  </g>
  <g
    transform="rotate(0, 188.0363426208496, 60.66838836669922)translate(181.03854274749756, 55.62358856201172)"
  >
    <title>`Xt`.labelStroke4</title>
    <svg
      style="font-size: 12px"
      xmlns="http://www.w3.org/2000/svg"
      width="13.995599746704102"
      height="10.089599609375"
      role="img"
      focusable="false"
      viewBox="0 -683 1166.3 840.8"
    >
      <g
        stroke="none"
        fill="#000000"
        stroke-width="0"
        transform="scale(1,-1)"
        fill-opacity="1"
      >
        <g data-mml-node="math">
          <g data-mml-node="msub">
            <g data-mml-node="mi">
              <path
                data-c="1D44B"
                d="M42 0H40Q26 0 26 11Q26 15 29 27Q33 41 36 43T55 46Q141 49 190 98Q200 108 306 224T411 342Q302 620 297 625Q288 636 234 637H206Q200 643 200 645T202 664Q206 677 212 683H226Q260 681 347 681Q380 681 408 681T453 682T473 682Q490 682 490 671Q490 670 488 658Q484 643 481 640T465 637Q434 634 411 620L488 426L541 485Q646 598 646 610Q646 628 622 635Q617 635 609 637Q594 637 594 648Q594 650 596 664Q600 677 606 683H618Q619 683 643 683T697 681T738 680Q828 680 837 683H845Q852 676 852 672Q850 647 840 637H824Q790 636 763 628T722 611T698 593L687 584Q687 585 592 480L505 384Q505 383 536 304T601 142T638 56Q648 47 699 46Q734 46 734 37Q734 35 732 23Q728 7 725 4T711 1Q708 1 678 1T589 2Q528 2 496 2T461 1Q444 1 444 10Q444 11 446 25Q448 35 450 39T455 44T464 46T480 47T506 54Q523 62 523 64Q522 64 476 181L429 299Q241 95 236 84Q232 76 232 72Q232 53 261 47Q262 47 267 47T273 46Q276 46 277 46T280 45T283 42T284 35Q284 26 282 19Q279 6 276 4T261 1Q258 1 243 1T201 2T142 2Q64 2 42 0Z"
              />
            </g>
            <g data-mml-node="mi" transform="translate(861,-150) scale(0.707)">
              <path
                data-c="1D461"
                d="M26 385Q19 392 19 395Q19 399 22 411T27 425Q29 430 36 430T87 431H140L159 511Q162 522 166 540T173 566T179 586T187 603T197 615T211 624T229 626Q247 625 254 615T261 596Q261 589 252 549T232 470L222 433Q222 431 272 431H323Q330 424 330 420Q330 398 317 385H210L174 240Q135 80 135 68Q135 26 162 26Q197 26 230 60T283 144Q285 150 288 151T303 153H307Q322 153 322 145Q322 142 319 133Q314 117 301 95T267 48T216 6T155 -11Q125 -11 98 4T59 56Q57 64 57 83V101L92 241Q127 382 128 383Q128 385 77 385H26Z"
              />
            </g>
          </g>
        </g>
      </g>
    </svg>
  </g>
  <g
    transform="rotate(0, 188.18278884887695, 61.021942138671875)translate(181.1849889755249, 55.977142333984375)"
  >
    <title>`Xt`.labelStroke5</title>
    <svg
      style="font-size: 12px"
      xmlns="http://www.w3.org/2000/svg"
      width="13.995599746704102"
      height="10.089599609375"
      role="img"
      focusable="false"
      viewBox="0 -683 1166.3 840.8"
    >
      <g
        stroke="none"
        fill="#000000"
        stroke-width="0"
        transform="scale(1,-1)"
        fill-opacity="1"
      >
        <g data-mml-node="math">
          <g data-mml-node="msub">
            <g data-mml-node="mi">
              <path
                data-c="1D44B"
                d="M42 0H40Q26 0 26 11Q26 15 29 27Q33 41 36 43T55 46Q141 49 190 98Q200 108 306 224T411 342Q302 620 297 625Q288 636 234 637H206Q200 643 200 645T202 664Q206 677 212 683H226Q260 681 347 681Q380 681 408 681T453 682T473 682Q490 682 490 671Q490 670 488 658Q484 643 481 640T465 637Q434 634 411 620L488 426L541 485Q646 598 646 610Q646 628 622 635Q617 635 609 637Q594 637 594 648Q594 650 596 664Q600 677 606 683H618Q619 683 643 683T697 681T738 680Q828 680 837 683H845Q852 676 852 672Q850 647 840 637H824Q790 636 763 628T722 611T698 593L687 584Q687 585 592 480L505 384Q505 383 536 304T601 142T638 56Q648 47 699 46Q734 46 734 37Q734 35 732 23Q728 7 725 4T711 1Q708 1 678 1T589 2Q528 2 496 2T461 1Q444 1 444 10Q444 11 446 25Q448 35 450 39T455 44T464 46T480 47T506 54Q523 62 523 64Q522 64 476 181L429 299Q241 95 236 84Q232 76 232 72Q232 53 261 47Q262 47 267 47T273 46Q276 46 277 46T280 45T283 42T284 35Q284 26 282 19Q279 6 276 4T261 1Q258 1 243 1T201 2T142 2Q64 2 42 0Z"
              />
            </g>
            <g data-mml-node="mi" transform="translate(861,-150) scale(0.707)">
              <path
                data-c="1D461"
                d="M26 385Q19 392 19 395Q19 399 22 411T27 425Q29 430 36 430T87 431H140L159 511Q162 522 166 540T173 566T179 586T187 603T197 615T211 624T229 626Q247 625 254 615T261 596Q261 589 252 549T232 470L222 433Q222 431 272 431H323Q330 424 330 420Q330 398 317 385H210L174 240Q135 80 135 68Q135 26 162 26Q197 26 230 60T283 144Q285 150 288 151T303 153H307Q322 153 322 145Q322 142 319 133Q314 117 301 95T267 48T216 6T155 -11Q125 -11 98 4T59 56Q57 64 57 83V101L92 241Q127 382 128 383Q128 385 77 385H26Z"
              />
            </g>
          </g>
        </g>
      </g>
    </svg>
  </g>
  <g
    transform="rotate(0, 188.5363426208496, 61.16838836669922)translate(181.53854274749756, 56.12358856201172)"
  >
    <title>`Xt`.labelStroke6</title>
    <svg
      style="font-size: 12px"
      xmlns="http://www.w3.org/2000/svg"
      width="13.995599746704102"
      height="10.089599609375"
      role="img"
      focusable="false"
      viewBox="0 -683 1166.3 840.8"
    >
      <g
        stroke="none"
        fill="#000000"
        stroke-width="0"
        transform="scale(1,-1)"
        fill-opacity="1"
      >
        <g data-mml-node="math">
          <g data-mml-node="msub">
            <g data-mml-node="mi">
              <path
                data-c="1D44B"
                d="M42 0H40Q26 0 26 11Q26 15 29 27Q33 41 36 43T55 46Q141 49 190 98Q200 108 306 224T411 342Q302 620 297 625Q288 636 234 637H206Q200 643 200 645T202 664Q206 677 212 683H226Q260 681 347 681Q380 681 408 681T453 682T473 682Q490 682 490 671Q490 670 488 658Q484 643 481 640T465 637Q434 634 411 620L488 426L541 485Q646 598 646 610Q646 628 622 635Q617 635 609 637Q594 637 594 648Q594 650 596 664Q600 677 606 683H618Q619 683 643 683T697 681T738 680Q828 680 837 683H845Q852 676 852 672Q850 647 840 637H824Q790 636 763 628T722 611T698 593L687 584Q687 585 592 480L505 384Q505 383 536 304T601 142T638 56Q648 47 699 46Q734 46 734 37Q734 35 732 23Q728 7 725 4T711 1Q708 1 678 1T589 2Q528 2 496 2T461 1Q444 1 444 10Q444 11 446 25Q448 35 450 39T455 44T464 46T480 47T506 54Q523 62 523 64Q522 64 476 181L429 299Q241 95 236 84Q232 76 232 72Q232 53 261 47Q262 47 267 47T273 46Q276 46 277 46T280 45T283 42T284 35Q284 26 282 19Q279 6 276 4T261 1Q258 1 243 1T201 2T142 2Q64 2 42 0Z"
              />
            </g>
            <g data-mml-node="mi" transform="translate(861,-150) scale(0.707)">
              <path
                data-c="1D461"
                d="M26 385Q19 392 19 395Q19 399 22 411T27 425Q29 430 36 430T87 431H140L159 511Q162 522 166 540T173 566T179 586T187 603T197 615T211 624T229 626Q247 625 254 615T261 596Q261 589 252 549T232 470L222 433Q222 431 272 431H323Q330 424 330 420Q330 398 317 385H210L174 240Q135 80 135 68Q135 26 162 26Q197 26 230 60T283 144Q285 150 288 151T303 153H307Q322 153 322 145Q322 142 319 133Q314 117 301 95T267 48T216 6T155 -11Q125 -11 98 4T59 56Q57 64 57 83V101L92 241Q127 382 128 383Q128 385 77 385H26Z"
              />
            </g>
          </g>
        </g>
      </g>
    </svg>
  </g>
  <g
    transform="rotate(0, 188.88989639282227, 61.021942138671875)translate(181.89209651947021, 55.977142333984375)"
  >
    <title>`Xt`.labelStroke7</title>
    <svg
      style="font-size: 12px"
      xmlns="http://www.w3.org/2000/svg"
      width="13.995599746704102"
      height="10.089599609375"
      role="img"
      focusable="false"
      viewBox="0 -683 1166.3 840.8"
    >
      <g
        stroke="none"
        fill="#000000"
        stroke-width="0"
        transform="scale(1,-1)"
        fill-opacity="1"
      >
        <g data-mml-node="math">
          <g data-mml-node="msub">
            <g data-mml-node="mi">
              <path
                data-c="1D44B"
                d="M42 0H40Q26 0 26 11Q26 15 29 27Q33 41 36 43T55 46Q141 49 190 98Q200 108 306 224T411 342Q302 620 297 625Q288 636 234 637H206Q200 643 200 645T202 664Q206 677 212 683H226Q260 681 347 681Q380 681 408 681T453 682T473 682Q490 682 490 671Q490 670 488 658Q484 643 481 640T465 637Q434 634 411 620L488 426L541 485Q646 598 646 610Q646 628 622 635Q617 635 609 637Q594 637 594 648Q594 650 596 664Q600 677 606 683H618Q619 683 643 683T697 681T738 680Q828 680 837 683H845Q852 676 852 672Q850 647 840 637H824Q790 636 763 628T722 611T698 593L687 584Q687 585 592 480L505 384Q505 383 536 304T601 142T638 56Q648 47 699 46Q734 46 734 37Q734 35 732 23Q728 7 725 4T711 1Q708 1 678 1T589 2Q528 2 496 2T461 1Q444 1 444 10Q444 11 446 25Q448 35 450 39T455 44T464 46T480 47T506 54Q523 62 523 64Q522 64 476 181L429 299Q241 95 236 84Q232 76 232 72Q232 53 261 47Q262 47 267 47T273 46Q276 46 277 46T280 45T283 42T284 35Q284 26 282 19Q279 6 276 4T261 1Q258 1 243 1T201 2T142 2Q64 2 42 0Z"
              />
            </g>
            <g data-mml-node="mi" transform="translate(861,-150) scale(0.707)">
              <path
                data-c="1D461"
                d="M26 385Q19 392 19 395Q19 399 22 411T27 425Q29 430 36 430T87 431H140L159 511Q162 522 166 540T173 566T179 586T187 603T197 615T211 624T229 626Q247 625 254 615T261 596Q261 589 252 549T232 470L222 433Q222 431 272 431H323Q330 424 330 420Q330 398 317 385H210L174 240Q135 80 135 68Q135 26 162 26Q197 26 230 60T283 144Q285 150 288 151T303 153H307Q322 153 322 145Q322 142 319 133Q314 117 301 95T267 48T216 6T155 -11Q125 -11 98 4T59 56Q57 64 57 83V101L92 241Q127 382 128 383Q128 385 77 385H26Z"
              />
            </g>
          </g>
        </g>
      </g>
    </svg>
  </g>
  <g
    transform="rotate(0, 188.5363426208496, 60.66838836669922)translate(181.53854274749756, 55.62358856201172)"
  >
    <title>`Xt`.labelText</title>
    <svg
      style="font-size: 12px"
      xmlns="http://www.w3.org/2000/svg"
      width="13.995599746704102"
      height="10.089599609375"
      role="img"
      focusable="false"
      viewBox="0 -683 1166.3 840.8"
    >
      <g
        stroke="none"
        fill="#ffffff"
        stroke-width="0"
        transform="scale(1,-1)"
        fill-opacity="1"
      >
        <g data-mml-node="math">
          <g data-mml-node="msub">
            <g data-mml-node="mi">
              <path
                data-c="1D44B"
                d="M42 0H40Q26 0 26 11Q26 15 29 27Q33 41 36 43T55 46Q141 49 190 98Q200 108 306 224T411 342Q302 620 297 625Q288 636 234 637H206Q200 643 200 645T202 664Q206 677 212 683H226Q260 681 347 681Q380 681 408 681T453 682T473 682Q490 682 490 671Q490 670 488 658Q484 643 481 640T465 637Q434 634 411 620L488 426L541 485Q646 598 646 610Q646 628 622 635Q617 635 609 637Q594 637 594 648Q594 650 596 664Q600 677 606 683H618Q619 683 643 683T697 681T738 680Q828 680 837 683H845Q852 676 852 672Q850 647 840 637H824Q790 636 763 628T722 611T698 593L687 584Q687 585 592 480L505 384Q505 383 536 304T601 142T638 56Q648 47 699 46Q734 46 734 37Q734 35 732 23Q728 7 725 4T711 1Q708 1 678 1T589 2Q528 2 496 2T461 1Q444 1 444 10Q444 11 446 25Q448 35 450 39T455 44T464 46T480 47T506 54Q523 62 523 64Q522 64 476 181L429 299Q241 95 236 84Q232 76 232 72Q232 53 261 47Q262 47 267 47T273 46Q276 46 277 46T280 45T283 42T284 35Q284 26 282 19Q279 6 276 4T261 1Q258 1 243 1T201 2T142 2Q64 2 42 0Z"
              />
            </g>
            <g data-mml-node="mi" transform="translate(861,-150) scale(0.707)">
              <path
                data-c="1D461"
                d="M26 385Q19 392 19 395Q19 399 22 411T27 425Q29 430 36 430T87 431H140L159 511Q162 522 166 540T173 566T179 586T187 603T197 615T211 624T229 626Q247 625 254 615T261 596Q261 589 252 549T232 470L222 433Q222 431 272 431H323Q330 424 330 420Q330 398 317 385H210L174 240Q135 80 135 68Q135 26 162 26Q197 26 230 60T283 144Q285 150 288 151T303 153H307Q322 153 322 145Q322 142 319 133Q314 117 301 95T267 48T216 6T155 -11Q125 -11 98 4T59 56Q57 64 57 83V101L92 241Q127 382 128 383Q128 385 77 385H26Z"
              />
            </g>
          </g>
        </g>
      </g>
    </svg>
  </g>
</svg>
